G04 #@! TF.GenerationSoftware,KiCad,Pcbnew,(5.1.6)-1*
G04 #@! TF.CreationDate,2022-11-16T12:34:37-06:00*
G04 #@! TF.ProjectId,adc2o2,61646332-6f32-42e6-9b69-6361645f7063,rev?*
G04 #@! TF.SameCoordinates,Original*
G04 #@! TF.FileFunction,Soldermask,Bot*
G04 #@! TF.FilePolarity,Negative*
%FSLAX46Y46*%
G04 Gerber Fmt 4.6, Leading zero omitted, Abs format (unit mm)*
G04 Created by KiCad (PCBNEW (5.1.6)-1) date 2022-11-16 12:34:37*
%MOMM*%
%LPD*%
G01*
G04 APERTURE LIST*
%ADD10C,0.100000*%
G04 APERTURE END LIST*
D10*
G36*
X70402254Y-177673664D02*
G01*
X70772885Y-177747387D01*
X71191459Y-177920766D01*
X71568165Y-178172473D01*
X71888527Y-178492835D01*
X72140234Y-178869541D01*
X72313613Y-179288115D01*
X72402000Y-179732470D01*
X72402000Y-180185530D01*
X72313613Y-180629885D01*
X72140234Y-181048459D01*
X71888527Y-181425165D01*
X71568165Y-181745527D01*
X71191459Y-181997234D01*
X70772885Y-182170613D01*
X70402254Y-182244336D01*
X70328531Y-182259000D01*
X69875469Y-182259000D01*
X69801746Y-182244336D01*
X69431115Y-182170613D01*
X69012541Y-181997234D01*
X68635835Y-181745527D01*
X68315473Y-181425165D01*
X68063766Y-181048459D01*
X67890387Y-180629885D01*
X67802000Y-180185530D01*
X67802000Y-179732470D01*
X67890387Y-179288115D01*
X68063766Y-178869541D01*
X68315473Y-178492835D01*
X68635835Y-178172473D01*
X69012541Y-177920766D01*
X69431115Y-177747387D01*
X69801746Y-177673664D01*
X69875469Y-177659000D01*
X70328531Y-177659000D01*
X70402254Y-177673664D01*
G37*
G36*
X108702491Y-177540738D02*
G01*
X108847520Y-177569586D01*
X109011310Y-177637430D01*
X109158717Y-177735924D01*
X109284076Y-177861283D01*
X109382570Y-178008690D01*
X109450414Y-178172480D01*
X109485000Y-178346358D01*
X109485000Y-178523642D01*
X109450414Y-178697520D01*
X109382570Y-178861310D01*
X109284076Y-179008717D01*
X109158717Y-179134076D01*
X109011310Y-179232570D01*
X108847520Y-179300414D01*
X108702491Y-179329262D01*
X108673643Y-179335000D01*
X108496357Y-179335000D01*
X108467509Y-179329262D01*
X108322480Y-179300414D01*
X108158690Y-179232570D01*
X108011283Y-179134076D01*
X107885924Y-179008717D01*
X107787430Y-178861310D01*
X107719586Y-178697520D01*
X107685000Y-178523642D01*
X107685000Y-178346358D01*
X107719586Y-178172480D01*
X107787430Y-178008690D01*
X107885924Y-177861283D01*
X108011283Y-177735924D01*
X108158690Y-177637430D01*
X108322480Y-177569586D01*
X108467509Y-177540738D01*
X108496357Y-177535000D01*
X108673643Y-177535000D01*
X108702491Y-177540738D01*
G37*
G36*
X92192491Y-177540738D02*
G01*
X92337520Y-177569586D01*
X92501310Y-177637430D01*
X92648717Y-177735924D01*
X92774076Y-177861283D01*
X92872570Y-178008690D01*
X92940414Y-178172480D01*
X92975000Y-178346358D01*
X92975000Y-178523642D01*
X92940414Y-178697520D01*
X92872570Y-178861310D01*
X92774076Y-179008717D01*
X92648717Y-179134076D01*
X92501310Y-179232570D01*
X92337520Y-179300414D01*
X92192491Y-179329262D01*
X92163643Y-179335000D01*
X91986357Y-179335000D01*
X91957509Y-179329262D01*
X91812480Y-179300414D01*
X91648690Y-179232570D01*
X91501283Y-179134076D01*
X91375924Y-179008717D01*
X91277430Y-178861310D01*
X91209586Y-178697520D01*
X91175000Y-178523642D01*
X91175000Y-178346358D01*
X91209586Y-178172480D01*
X91277430Y-178008690D01*
X91375924Y-177861283D01*
X91501283Y-177735924D01*
X91648690Y-177637430D01*
X91812480Y-177569586D01*
X91957509Y-177540738D01*
X91986357Y-177535000D01*
X92163643Y-177535000D01*
X92192491Y-177540738D01*
G37*
G36*
X99325000Y-179335000D02*
G01*
X97525000Y-179335000D01*
X97525000Y-177535000D01*
X99325000Y-177535000D01*
X99325000Y-179335000D01*
G37*
G36*
X101082491Y-177540738D02*
G01*
X101227520Y-177569586D01*
X101391310Y-177637430D01*
X101538717Y-177735924D01*
X101664076Y-177861283D01*
X101762570Y-178008690D01*
X101830414Y-178172480D01*
X101865000Y-178346358D01*
X101865000Y-178523642D01*
X101830414Y-178697520D01*
X101762570Y-178861310D01*
X101664076Y-179008717D01*
X101538717Y-179134076D01*
X101391310Y-179232570D01*
X101227520Y-179300414D01*
X101082491Y-179329262D01*
X101053643Y-179335000D01*
X100876357Y-179335000D01*
X100847509Y-179329262D01*
X100702480Y-179300414D01*
X100538690Y-179232570D01*
X100391283Y-179134076D01*
X100265924Y-179008717D01*
X100167430Y-178861310D01*
X100099586Y-178697520D01*
X100065000Y-178523642D01*
X100065000Y-178346358D01*
X100099586Y-178172480D01*
X100167430Y-178008690D01*
X100265924Y-177861283D01*
X100391283Y-177735924D01*
X100538690Y-177637430D01*
X100702480Y-177569586D01*
X100847509Y-177540738D01*
X100876357Y-177535000D01*
X101053643Y-177535000D01*
X101082491Y-177540738D01*
G37*
G36*
X106162491Y-177540738D02*
G01*
X106307520Y-177569586D01*
X106471310Y-177637430D01*
X106618717Y-177735924D01*
X106744076Y-177861283D01*
X106842570Y-178008690D01*
X106910414Y-178172480D01*
X106945000Y-178346358D01*
X106945000Y-178523642D01*
X106910414Y-178697520D01*
X106842570Y-178861310D01*
X106744076Y-179008717D01*
X106618717Y-179134076D01*
X106471310Y-179232570D01*
X106307520Y-179300414D01*
X106162491Y-179329262D01*
X106133643Y-179335000D01*
X105956357Y-179335000D01*
X105927509Y-179329262D01*
X105782480Y-179300414D01*
X105618690Y-179232570D01*
X105471283Y-179134076D01*
X105345924Y-179008717D01*
X105247430Y-178861310D01*
X105179586Y-178697520D01*
X105145000Y-178523642D01*
X105145000Y-178346358D01*
X105179586Y-178172480D01*
X105247430Y-178008690D01*
X105345924Y-177861283D01*
X105471283Y-177735924D01*
X105618690Y-177637430D01*
X105782480Y-177569586D01*
X105927509Y-177540738D01*
X105956357Y-177535000D01*
X106133643Y-177535000D01*
X106162491Y-177540738D01*
G37*
G36*
X111242491Y-177540738D02*
G01*
X111387520Y-177569586D01*
X111551310Y-177637430D01*
X111698717Y-177735924D01*
X111824076Y-177861283D01*
X111922570Y-178008690D01*
X111990414Y-178172480D01*
X112025000Y-178346358D01*
X112025000Y-178523642D01*
X111990414Y-178697520D01*
X111922570Y-178861310D01*
X111824076Y-179008717D01*
X111698717Y-179134076D01*
X111551310Y-179232570D01*
X111387520Y-179300414D01*
X111242491Y-179329262D01*
X111213643Y-179335000D01*
X111036357Y-179335000D01*
X111007509Y-179329262D01*
X110862480Y-179300414D01*
X110698690Y-179232570D01*
X110551283Y-179134076D01*
X110425924Y-179008717D01*
X110327430Y-178861310D01*
X110259586Y-178697520D01*
X110225000Y-178523642D01*
X110225000Y-178346358D01*
X110259586Y-178172480D01*
X110327430Y-178008690D01*
X110425924Y-177861283D01*
X110551283Y-177735924D01*
X110698690Y-177637430D01*
X110862480Y-177569586D01*
X111007509Y-177540738D01*
X111036357Y-177535000D01*
X111213643Y-177535000D01*
X111242491Y-177540738D01*
G37*
G36*
X113782491Y-177540738D02*
G01*
X113927520Y-177569586D01*
X114091310Y-177637430D01*
X114238717Y-177735924D01*
X114364076Y-177861283D01*
X114462570Y-178008690D01*
X114530414Y-178172480D01*
X114565000Y-178346358D01*
X114565000Y-178523642D01*
X114530414Y-178697520D01*
X114462570Y-178861310D01*
X114364076Y-179008717D01*
X114238717Y-179134076D01*
X114091310Y-179232570D01*
X113927520Y-179300414D01*
X113782491Y-179329262D01*
X113753643Y-179335000D01*
X113576357Y-179335000D01*
X113547509Y-179329262D01*
X113402480Y-179300414D01*
X113238690Y-179232570D01*
X113091283Y-179134076D01*
X112965924Y-179008717D01*
X112867430Y-178861310D01*
X112799586Y-178697520D01*
X112765000Y-178523642D01*
X112765000Y-178346358D01*
X112799586Y-178172480D01*
X112867430Y-178008690D01*
X112965924Y-177861283D01*
X113091283Y-177735924D01*
X113238690Y-177637430D01*
X113402480Y-177569586D01*
X113547509Y-177540738D01*
X113576357Y-177535000D01*
X113753643Y-177535000D01*
X113782491Y-177540738D01*
G37*
G36*
X103622491Y-177540738D02*
G01*
X103767520Y-177569586D01*
X103931310Y-177637430D01*
X104078717Y-177735924D01*
X104204076Y-177861283D01*
X104302570Y-178008690D01*
X104370414Y-178172480D01*
X104405000Y-178346358D01*
X104405000Y-178523642D01*
X104370414Y-178697520D01*
X104302570Y-178861310D01*
X104204076Y-179008717D01*
X104078717Y-179134076D01*
X103931310Y-179232570D01*
X103767520Y-179300414D01*
X103622491Y-179329262D01*
X103593643Y-179335000D01*
X103416357Y-179335000D01*
X103387509Y-179329262D01*
X103242480Y-179300414D01*
X103078690Y-179232570D01*
X102931283Y-179134076D01*
X102805924Y-179008717D01*
X102707430Y-178861310D01*
X102639586Y-178697520D01*
X102605000Y-178523642D01*
X102605000Y-178346358D01*
X102639586Y-178172480D01*
X102707430Y-178008690D01*
X102805924Y-177861283D01*
X102931283Y-177735924D01*
X103078690Y-177637430D01*
X103242480Y-177569586D01*
X103387509Y-177540738D01*
X103416357Y-177535000D01*
X103593643Y-177535000D01*
X103622491Y-177540738D01*
G37*
G36*
X79757228Y-175942626D02*
G01*
X79916468Y-176008585D01*
X80059780Y-176104343D01*
X80181657Y-176226220D01*
X80277415Y-176369532D01*
X80343374Y-176528772D01*
X80377000Y-176697820D01*
X80377000Y-176870180D01*
X80343374Y-177039228D01*
X80277415Y-177198468D01*
X80181657Y-177341780D01*
X80059780Y-177463657D01*
X79916468Y-177559415D01*
X79891910Y-177569587D01*
X79757228Y-177625374D01*
X79588181Y-177659000D01*
X79415819Y-177659000D01*
X79246772Y-177625374D01*
X79112090Y-177569587D01*
X79087532Y-177559415D01*
X78944220Y-177463657D01*
X78822343Y-177341780D01*
X78726585Y-177198468D01*
X78660626Y-177039228D01*
X78627000Y-176870180D01*
X78627000Y-176697820D01*
X78660626Y-176528772D01*
X78726585Y-176369532D01*
X78822343Y-176226220D01*
X78944220Y-176104343D01*
X79087532Y-176008585D01*
X79246772Y-175942626D01*
X79415819Y-175909000D01*
X79588181Y-175909000D01*
X79757228Y-175942626D01*
G37*
G36*
X106162491Y-175000738D02*
G01*
X106307520Y-175029586D01*
X106471310Y-175097430D01*
X106618717Y-175195924D01*
X106744076Y-175321283D01*
X106842570Y-175468690D01*
X106910414Y-175632480D01*
X106945000Y-175806358D01*
X106945000Y-175983642D01*
X106910414Y-176157520D01*
X106842570Y-176321310D01*
X106744076Y-176468717D01*
X106618717Y-176594076D01*
X106471310Y-176692570D01*
X106307520Y-176760414D01*
X106162491Y-176789262D01*
X106133643Y-176795000D01*
X105956357Y-176795000D01*
X105927509Y-176789262D01*
X105782480Y-176760414D01*
X105618690Y-176692570D01*
X105471283Y-176594076D01*
X105345924Y-176468717D01*
X105247430Y-176321310D01*
X105179586Y-176157520D01*
X105145000Y-175983642D01*
X105145000Y-175806358D01*
X105179586Y-175632480D01*
X105247430Y-175468690D01*
X105345924Y-175321283D01*
X105471283Y-175195924D01*
X105618690Y-175097430D01*
X105782480Y-175029586D01*
X105927509Y-175000738D01*
X105956357Y-174995000D01*
X106133643Y-174995000D01*
X106162491Y-175000738D01*
G37*
G36*
X92192491Y-175000738D02*
G01*
X92337520Y-175029586D01*
X92501310Y-175097430D01*
X92648717Y-175195924D01*
X92774076Y-175321283D01*
X92872570Y-175468690D01*
X92940414Y-175632480D01*
X92975000Y-175806358D01*
X92975000Y-175983642D01*
X92940414Y-176157520D01*
X92872570Y-176321310D01*
X92774076Y-176468717D01*
X92648717Y-176594076D01*
X92501310Y-176692570D01*
X92337520Y-176760414D01*
X92192491Y-176789262D01*
X92163643Y-176795000D01*
X91986357Y-176795000D01*
X91957509Y-176789262D01*
X91812480Y-176760414D01*
X91648690Y-176692570D01*
X91501283Y-176594076D01*
X91375924Y-176468717D01*
X91277430Y-176321310D01*
X91209586Y-176157520D01*
X91175000Y-175983642D01*
X91175000Y-175806358D01*
X91209586Y-175632480D01*
X91277430Y-175468690D01*
X91375924Y-175321283D01*
X91501283Y-175195924D01*
X91648690Y-175097430D01*
X91812480Y-175029586D01*
X91957509Y-175000738D01*
X91986357Y-174995000D01*
X92163643Y-174995000D01*
X92192491Y-175000738D01*
G37*
G36*
X98542491Y-175000738D02*
G01*
X98687520Y-175029586D01*
X98851310Y-175097430D01*
X98998717Y-175195924D01*
X99124076Y-175321283D01*
X99222570Y-175468690D01*
X99290414Y-175632480D01*
X99325000Y-175806358D01*
X99325000Y-175983642D01*
X99290414Y-176157520D01*
X99222570Y-176321310D01*
X99124076Y-176468717D01*
X98998717Y-176594076D01*
X98851310Y-176692570D01*
X98687520Y-176760414D01*
X98542491Y-176789262D01*
X98513643Y-176795000D01*
X98336357Y-176795000D01*
X98307509Y-176789262D01*
X98162480Y-176760414D01*
X97998690Y-176692570D01*
X97851283Y-176594076D01*
X97725924Y-176468717D01*
X97627430Y-176321310D01*
X97559586Y-176157520D01*
X97525000Y-175983642D01*
X97525000Y-175806358D01*
X97559586Y-175632480D01*
X97627430Y-175468690D01*
X97725924Y-175321283D01*
X97851283Y-175195924D01*
X97998690Y-175097430D01*
X98162480Y-175029586D01*
X98307509Y-175000738D01*
X98336357Y-174995000D01*
X98513643Y-174995000D01*
X98542491Y-175000738D01*
G37*
G36*
X103622491Y-175000738D02*
G01*
X103767520Y-175029586D01*
X103931310Y-175097430D01*
X104078717Y-175195924D01*
X104204076Y-175321283D01*
X104302570Y-175468690D01*
X104370414Y-175632480D01*
X104405000Y-175806358D01*
X104405000Y-175983642D01*
X104370414Y-176157520D01*
X104302570Y-176321310D01*
X104204076Y-176468717D01*
X104078717Y-176594076D01*
X103931310Y-176692570D01*
X103767520Y-176760414D01*
X103622491Y-176789262D01*
X103593643Y-176795000D01*
X103416357Y-176795000D01*
X103387509Y-176789262D01*
X103242480Y-176760414D01*
X103078690Y-176692570D01*
X102931283Y-176594076D01*
X102805924Y-176468717D01*
X102707430Y-176321310D01*
X102639586Y-176157520D01*
X102605000Y-175983642D01*
X102605000Y-175806358D01*
X102639586Y-175632480D01*
X102707430Y-175468690D01*
X102805924Y-175321283D01*
X102931283Y-175195924D01*
X103078690Y-175097430D01*
X103242480Y-175029586D01*
X103387509Y-175000738D01*
X103416357Y-174995000D01*
X103593643Y-174995000D01*
X103622491Y-175000738D01*
G37*
G36*
X108702491Y-175000738D02*
G01*
X108847520Y-175029586D01*
X109011310Y-175097430D01*
X109158717Y-175195924D01*
X109284076Y-175321283D01*
X109382570Y-175468690D01*
X109450414Y-175632480D01*
X109485000Y-175806358D01*
X109485000Y-175983642D01*
X109450414Y-176157520D01*
X109382570Y-176321310D01*
X109284076Y-176468717D01*
X109158717Y-176594076D01*
X109011310Y-176692570D01*
X108847520Y-176760414D01*
X108702491Y-176789262D01*
X108673643Y-176795000D01*
X108496357Y-176795000D01*
X108467509Y-176789262D01*
X108322480Y-176760414D01*
X108158690Y-176692570D01*
X108011283Y-176594076D01*
X107885924Y-176468717D01*
X107787430Y-176321310D01*
X107719586Y-176157520D01*
X107685000Y-175983642D01*
X107685000Y-175806358D01*
X107719586Y-175632480D01*
X107787430Y-175468690D01*
X107885924Y-175321283D01*
X108011283Y-175195924D01*
X108158690Y-175097430D01*
X108322480Y-175029586D01*
X108467509Y-175000738D01*
X108496357Y-174995000D01*
X108673643Y-174995000D01*
X108702491Y-175000738D01*
G37*
G36*
X111242491Y-175000738D02*
G01*
X111387520Y-175029586D01*
X111551310Y-175097430D01*
X111698717Y-175195924D01*
X111824076Y-175321283D01*
X111922570Y-175468690D01*
X111990414Y-175632480D01*
X112025000Y-175806358D01*
X112025000Y-175983642D01*
X111990414Y-176157520D01*
X111922570Y-176321310D01*
X111824076Y-176468717D01*
X111698717Y-176594076D01*
X111551310Y-176692570D01*
X111387520Y-176760414D01*
X111242491Y-176789262D01*
X111213643Y-176795000D01*
X111036357Y-176795000D01*
X111007509Y-176789262D01*
X110862480Y-176760414D01*
X110698690Y-176692570D01*
X110551283Y-176594076D01*
X110425924Y-176468717D01*
X110327430Y-176321310D01*
X110259586Y-176157520D01*
X110225000Y-175983642D01*
X110225000Y-175806358D01*
X110259586Y-175632480D01*
X110327430Y-175468690D01*
X110425924Y-175321283D01*
X110551283Y-175195924D01*
X110698690Y-175097430D01*
X110862480Y-175029586D01*
X111007509Y-175000738D01*
X111036357Y-174995000D01*
X111213643Y-174995000D01*
X111242491Y-175000738D01*
G37*
G36*
X113782491Y-175000738D02*
G01*
X113927520Y-175029586D01*
X114091310Y-175097430D01*
X114238717Y-175195924D01*
X114364076Y-175321283D01*
X114462570Y-175468690D01*
X114530414Y-175632480D01*
X114565000Y-175806358D01*
X114565000Y-175983642D01*
X114530414Y-176157520D01*
X114462570Y-176321310D01*
X114364076Y-176468717D01*
X114238717Y-176594076D01*
X114091310Y-176692570D01*
X113927520Y-176760414D01*
X113782491Y-176789262D01*
X113753643Y-176795000D01*
X113576357Y-176795000D01*
X113547509Y-176789262D01*
X113402480Y-176760414D01*
X113238690Y-176692570D01*
X113091283Y-176594076D01*
X112965924Y-176468717D01*
X112867430Y-176321310D01*
X112799586Y-176157520D01*
X112765000Y-175983642D01*
X112765000Y-175806358D01*
X112799586Y-175632480D01*
X112867430Y-175468690D01*
X112965924Y-175321283D01*
X113091283Y-175195924D01*
X113238690Y-175097430D01*
X113402480Y-175029586D01*
X113547509Y-175000738D01*
X113576357Y-174995000D01*
X113753643Y-174995000D01*
X113782491Y-175000738D01*
G37*
G36*
X101082491Y-175000738D02*
G01*
X101227520Y-175029586D01*
X101391310Y-175097430D01*
X101538717Y-175195924D01*
X101664076Y-175321283D01*
X101762570Y-175468690D01*
X101830414Y-175632480D01*
X101865000Y-175806358D01*
X101865000Y-175983642D01*
X101830414Y-176157520D01*
X101762570Y-176321310D01*
X101664076Y-176468717D01*
X101538717Y-176594076D01*
X101391310Y-176692570D01*
X101227520Y-176760414D01*
X101082491Y-176789262D01*
X101053643Y-176795000D01*
X100876357Y-176795000D01*
X100847509Y-176789262D01*
X100702480Y-176760414D01*
X100538690Y-176692570D01*
X100391283Y-176594076D01*
X100265924Y-176468717D01*
X100167430Y-176321310D01*
X100099586Y-176157520D01*
X100065000Y-175983642D01*
X100065000Y-175806358D01*
X100099586Y-175632480D01*
X100167430Y-175468690D01*
X100265924Y-175321283D01*
X100391283Y-175195924D01*
X100538690Y-175097430D01*
X100702480Y-175029586D01*
X100847509Y-175000738D01*
X100876357Y-174995000D01*
X101053643Y-174995000D01*
X101082491Y-175000738D01*
G37*
G36*
X79757228Y-173402626D02*
G01*
X79916468Y-173468585D01*
X80059780Y-173564343D01*
X80181657Y-173686220D01*
X80277415Y-173829532D01*
X80343374Y-173988772D01*
X80377000Y-174157820D01*
X80377000Y-174330180D01*
X80343374Y-174499228D01*
X80277415Y-174658468D01*
X80181657Y-174801780D01*
X80059780Y-174923657D01*
X79916468Y-175019415D01*
X79891910Y-175029587D01*
X79757228Y-175085374D01*
X79588181Y-175119000D01*
X79415819Y-175119000D01*
X79246772Y-175085374D01*
X79112090Y-175029587D01*
X79087532Y-175019415D01*
X78944220Y-174923657D01*
X78822343Y-174801780D01*
X78726585Y-174658468D01*
X78660626Y-174499228D01*
X78627000Y-174330180D01*
X78627000Y-174157820D01*
X78660626Y-173988772D01*
X78726585Y-173829532D01*
X78822343Y-173686220D01*
X78944220Y-173564343D01*
X79087532Y-173468585D01*
X79246772Y-173402626D01*
X79415819Y-173369000D01*
X79588181Y-173369000D01*
X79757228Y-173402626D01*
G37*
G36*
X92975000Y-174255000D02*
G01*
X91175000Y-174255000D01*
X91175000Y-172455000D01*
X92975000Y-172455000D01*
X92975000Y-174255000D01*
G37*
G36*
X79757228Y-170862626D02*
G01*
X79916468Y-170928585D01*
X80059780Y-171024343D01*
X80181657Y-171146220D01*
X80277415Y-171289532D01*
X80343374Y-171448772D01*
X80377000Y-171617820D01*
X80377000Y-171790180D01*
X80343374Y-171959228D01*
X80277415Y-172118468D01*
X80181657Y-172261780D01*
X80059780Y-172383657D01*
X79916468Y-172479415D01*
X79757228Y-172545374D01*
X79588181Y-172579000D01*
X79415819Y-172579000D01*
X79246772Y-172545374D01*
X79087532Y-172479415D01*
X78944220Y-172383657D01*
X78822343Y-172261780D01*
X78726585Y-172118468D01*
X78660626Y-171959228D01*
X78627000Y-171790180D01*
X78627000Y-171617820D01*
X78660626Y-171448772D01*
X78726585Y-171289532D01*
X78822343Y-171146220D01*
X78944220Y-171024343D01*
X79087532Y-170928585D01*
X79246772Y-170862626D01*
X79415819Y-170829000D01*
X79588181Y-170829000D01*
X79757228Y-170862626D01*
G37*
G36*
X80377000Y-170039000D02*
G01*
X78627000Y-170039000D01*
X78627000Y-168289000D01*
X80377000Y-168289000D01*
X80377000Y-170039000D01*
G37*
G36*
X70402254Y-163703664D02*
G01*
X70772885Y-163777387D01*
X71191459Y-163950766D01*
X71568165Y-164202473D01*
X71888527Y-164522835D01*
X72140234Y-164899541D01*
X72313613Y-165318115D01*
X72402000Y-165762470D01*
X72402000Y-166215530D01*
X72313613Y-166659885D01*
X72140234Y-167078459D01*
X71888527Y-167455165D01*
X71568165Y-167775527D01*
X71191459Y-168027234D01*
X70772885Y-168200613D01*
X70402254Y-168274336D01*
X70328531Y-168289000D01*
X69875469Y-168289000D01*
X69801746Y-168274336D01*
X69431115Y-168200613D01*
X69012541Y-168027234D01*
X68635835Y-167775527D01*
X68315473Y-167455165D01*
X68063766Y-167078459D01*
X67890387Y-166659885D01*
X67802000Y-166215530D01*
X67802000Y-165762470D01*
X67890387Y-165318115D01*
X68063766Y-164899541D01*
X68315473Y-164522835D01*
X68635835Y-164202473D01*
X69012541Y-163950766D01*
X69431115Y-163777387D01*
X69801746Y-163703664D01*
X69875469Y-163689000D01*
X70328531Y-163689000D01*
X70402254Y-163703664D01*
G37*
G36*
X92975000Y-167270000D02*
G01*
X91175000Y-167270000D01*
X91175000Y-165470000D01*
X92975000Y-165470000D01*
X92975000Y-167270000D01*
G37*
G36*
X92192491Y-162935738D02*
G01*
X92337520Y-162964586D01*
X92501310Y-163032430D01*
X92648717Y-163130924D01*
X92774076Y-163256283D01*
X92872570Y-163403690D01*
X92940414Y-163567480D01*
X92975000Y-163741358D01*
X92975000Y-163918642D01*
X92940414Y-164092520D01*
X92872570Y-164256310D01*
X92774076Y-164403717D01*
X92648717Y-164529076D01*
X92501310Y-164627570D01*
X92337520Y-164695414D01*
X92192491Y-164724262D01*
X92163643Y-164730000D01*
X91986357Y-164730000D01*
X91957509Y-164724262D01*
X91812480Y-164695414D01*
X91648690Y-164627570D01*
X91501283Y-164529076D01*
X91375924Y-164403717D01*
X91277430Y-164256310D01*
X91209586Y-164092520D01*
X91175000Y-163918642D01*
X91175000Y-163741358D01*
X91209586Y-163567480D01*
X91277430Y-163403690D01*
X91375924Y-163256283D01*
X91501283Y-163130924D01*
X91648690Y-163032430D01*
X91812480Y-162964586D01*
X91957509Y-162935738D01*
X91986357Y-162930000D01*
X92163643Y-162930000D01*
X92192491Y-162935738D01*
G37*
G36*
X92192491Y-160395738D02*
G01*
X92337520Y-160424586D01*
X92501310Y-160492430D01*
X92648717Y-160590924D01*
X92774076Y-160716283D01*
X92872570Y-160863690D01*
X92940414Y-161027480D01*
X92975000Y-161201358D01*
X92975000Y-161378642D01*
X92940414Y-161552520D01*
X92872570Y-161716310D01*
X92774076Y-161863717D01*
X92648717Y-161989076D01*
X92501310Y-162087570D01*
X92337520Y-162155414D01*
X92192491Y-162184262D01*
X92163643Y-162190000D01*
X91986357Y-162190000D01*
X91957509Y-162184262D01*
X91812480Y-162155414D01*
X91648690Y-162087570D01*
X91501283Y-161989076D01*
X91375924Y-161863717D01*
X91277430Y-161716310D01*
X91209586Y-161552520D01*
X91175000Y-161378642D01*
X91175000Y-161201358D01*
X91209586Y-161027480D01*
X91277430Y-160863690D01*
X91375924Y-160716283D01*
X91501283Y-160590924D01*
X91648690Y-160492430D01*
X91812480Y-160424586D01*
X91957509Y-160395738D01*
X91986357Y-160390000D01*
X92163643Y-160390000D01*
X92192491Y-160395738D01*
G37*
G36*
X70402254Y-154813664D02*
G01*
X70772885Y-154887387D01*
X71191459Y-155060766D01*
X71568165Y-155312473D01*
X71888527Y-155632835D01*
X72140234Y-156009541D01*
X72313613Y-156428115D01*
X72402000Y-156872470D01*
X72402000Y-157325530D01*
X72313613Y-157769885D01*
X72140234Y-158188459D01*
X71888527Y-158565165D01*
X71568165Y-158885527D01*
X71191459Y-159137234D01*
X70772885Y-159310613D01*
X70402254Y-159384336D01*
X70328531Y-159399000D01*
X69875469Y-159399000D01*
X69801746Y-159384336D01*
X69431115Y-159310613D01*
X69012541Y-159137234D01*
X68635835Y-158885527D01*
X68315473Y-158565165D01*
X68063766Y-158188459D01*
X67890387Y-157769885D01*
X67802000Y-157325530D01*
X67802000Y-156872470D01*
X67890387Y-156428115D01*
X68063766Y-156009541D01*
X68315473Y-155632835D01*
X68635835Y-155312473D01*
X69012541Y-155060766D01*
X69431115Y-154887387D01*
X69801746Y-154813664D01*
X69875469Y-154799000D01*
X70328531Y-154799000D01*
X70402254Y-154813664D01*
G37*
G36*
X102352491Y-154045738D02*
G01*
X102497520Y-154074586D01*
X102661310Y-154142430D01*
X102808717Y-154240924D01*
X102934076Y-154366283D01*
X103032570Y-154513690D01*
X103100414Y-154677480D01*
X103135000Y-154851358D01*
X103135000Y-155028642D01*
X103100414Y-155202520D01*
X103032570Y-155366310D01*
X102934076Y-155513717D01*
X102808717Y-155639076D01*
X102661310Y-155737570D01*
X102497520Y-155805414D01*
X102352491Y-155834262D01*
X102323643Y-155840000D01*
X102146357Y-155840000D01*
X102117509Y-155834262D01*
X101972480Y-155805414D01*
X101808690Y-155737570D01*
X101661283Y-155639076D01*
X101535924Y-155513717D01*
X101437430Y-155366310D01*
X101369586Y-155202520D01*
X101335000Y-155028642D01*
X101335000Y-154851358D01*
X101369586Y-154677480D01*
X101437430Y-154513690D01*
X101535924Y-154366283D01*
X101661283Y-154240924D01*
X101808690Y-154142430D01*
X101972480Y-154074586D01*
X102117509Y-154045738D01*
X102146357Y-154040000D01*
X102323643Y-154040000D01*
X102352491Y-154045738D01*
G37*
G36*
X99812491Y-154045738D02*
G01*
X99957520Y-154074586D01*
X100121310Y-154142430D01*
X100268717Y-154240924D01*
X100394076Y-154366283D01*
X100492570Y-154513690D01*
X100560414Y-154677480D01*
X100595000Y-154851358D01*
X100595000Y-155028642D01*
X100560414Y-155202520D01*
X100492570Y-155366310D01*
X100394076Y-155513717D01*
X100268717Y-155639076D01*
X100121310Y-155737570D01*
X99957520Y-155805414D01*
X99812491Y-155834262D01*
X99783643Y-155840000D01*
X99606357Y-155840000D01*
X99577509Y-155834262D01*
X99432480Y-155805414D01*
X99268690Y-155737570D01*
X99121283Y-155639076D01*
X98995924Y-155513717D01*
X98897430Y-155366310D01*
X98829586Y-155202520D01*
X98795000Y-155028642D01*
X98795000Y-154851358D01*
X98829586Y-154677480D01*
X98897430Y-154513690D01*
X98995924Y-154366283D01*
X99121283Y-154240924D01*
X99268690Y-154142430D01*
X99432480Y-154074586D01*
X99577509Y-154045738D01*
X99606357Y-154040000D01*
X99783643Y-154040000D01*
X99812491Y-154045738D01*
G37*
G36*
X98055000Y-155840000D02*
G01*
X96255000Y-155840000D01*
X96255000Y-154040000D01*
X98055000Y-154040000D01*
X98055000Y-155840000D01*
G37*
G36*
X79757228Y-153082626D02*
G01*
X79916468Y-153148585D01*
X80059780Y-153244343D01*
X80181657Y-153366220D01*
X80277415Y-153509532D01*
X80277415Y-153509533D01*
X80343374Y-153668772D01*
X80377000Y-153837819D01*
X80377000Y-154010181D01*
X80364189Y-154074586D01*
X80343374Y-154179228D01*
X80277415Y-154338468D01*
X80181657Y-154481780D01*
X80059780Y-154603657D01*
X79916468Y-154699415D01*
X79757228Y-154765374D01*
X79588181Y-154799000D01*
X79415819Y-154799000D01*
X79246772Y-154765374D01*
X79087532Y-154699415D01*
X78944220Y-154603657D01*
X78822343Y-154481780D01*
X78726585Y-154338468D01*
X78660626Y-154179228D01*
X78639811Y-154074586D01*
X78627000Y-154010181D01*
X78627000Y-153837819D01*
X78660626Y-153668772D01*
X78726585Y-153509533D01*
X78726585Y-153509532D01*
X78822343Y-153366220D01*
X78944220Y-153244343D01*
X79087532Y-153148585D01*
X79246772Y-153082626D01*
X79415819Y-153049000D01*
X79588181Y-153049000D01*
X79757228Y-153082626D01*
G37*
G36*
X79757228Y-150542626D02*
G01*
X79916468Y-150608585D01*
X80059780Y-150704343D01*
X80181657Y-150826220D01*
X80277415Y-150969532D01*
X80343374Y-151128772D01*
X80377000Y-151297820D01*
X80377000Y-151470180D01*
X80343374Y-151639228D01*
X80277415Y-151798468D01*
X80181657Y-151941780D01*
X80059780Y-152063657D01*
X79916468Y-152159415D01*
X79757228Y-152225374D01*
X79588181Y-152259000D01*
X79415819Y-152259000D01*
X79246772Y-152225374D01*
X79087532Y-152159415D01*
X78944220Y-152063657D01*
X78822343Y-151941780D01*
X78726585Y-151798468D01*
X78660626Y-151639228D01*
X78627000Y-151470180D01*
X78627000Y-151297820D01*
X78660626Y-151128772D01*
X78726585Y-150969532D01*
X78822343Y-150826220D01*
X78944220Y-150704343D01*
X79087532Y-150608585D01*
X79246772Y-150542626D01*
X79415819Y-150509000D01*
X79588181Y-150509000D01*
X79757228Y-150542626D01*
G37*
G36*
X79757228Y-148002626D02*
G01*
X79916468Y-148068585D01*
X80059780Y-148164343D01*
X80181657Y-148286220D01*
X80277415Y-148429532D01*
X80343374Y-148588772D01*
X80377000Y-148757820D01*
X80377000Y-148930180D01*
X80343374Y-149099228D01*
X80277415Y-149258468D01*
X80181657Y-149401780D01*
X80059780Y-149523657D01*
X79916468Y-149619415D01*
X79757228Y-149685374D01*
X79588181Y-149719000D01*
X79415819Y-149719000D01*
X79246772Y-149685374D01*
X79087532Y-149619415D01*
X78944220Y-149523657D01*
X78822343Y-149401780D01*
X78726585Y-149258468D01*
X78660626Y-149099228D01*
X78627000Y-148930180D01*
X78627000Y-148757820D01*
X78660626Y-148588772D01*
X78726585Y-148429532D01*
X78822343Y-148286220D01*
X78944220Y-148164343D01*
X79087532Y-148068585D01*
X79246772Y-148002626D01*
X79415819Y-147969000D01*
X79588181Y-147969000D01*
X79757228Y-148002626D01*
G37*
G36*
X80377000Y-147179000D02*
G01*
X78627000Y-147179000D01*
X78627000Y-145429000D01*
X80377000Y-145429000D01*
X80377000Y-147179000D01*
G37*
G36*
X70402254Y-140843664D02*
G01*
X70772885Y-140917387D01*
X71191459Y-141090766D01*
X71568165Y-141342473D01*
X71888527Y-141662835D01*
X72140234Y-142039541D01*
X72313613Y-142458115D01*
X72402000Y-142902470D01*
X72402000Y-143355530D01*
X72313613Y-143799885D01*
X72140234Y-144218459D01*
X71888527Y-144595165D01*
X71568165Y-144915527D01*
X71191459Y-145167234D01*
X70772885Y-145340613D01*
X70402254Y-145414336D01*
X70328531Y-145429000D01*
X69875469Y-145429000D01*
X69801746Y-145414336D01*
X69431115Y-145340613D01*
X69012541Y-145167234D01*
X68635835Y-144915527D01*
X68315473Y-144595165D01*
X68063766Y-144218459D01*
X67890387Y-143799885D01*
X67802000Y-143355530D01*
X67802000Y-142902470D01*
X67890387Y-142458115D01*
X68063766Y-142039541D01*
X68315473Y-141662835D01*
X68635835Y-141342473D01*
X69012541Y-141090766D01*
X69431115Y-140917387D01*
X69801746Y-140843664D01*
X69875469Y-140829000D01*
X70328531Y-140829000D01*
X70402254Y-140843664D01*
G37*
G36*
X100447491Y-139440738D02*
G01*
X100592520Y-139469586D01*
X100756310Y-139537430D01*
X100903717Y-139635924D01*
X101029076Y-139761283D01*
X101127570Y-139908690D01*
X101195414Y-140072480D01*
X101230000Y-140246358D01*
X101230000Y-140423642D01*
X101195414Y-140597520D01*
X101127570Y-140761310D01*
X101029076Y-140908717D01*
X100903717Y-141034076D01*
X100756310Y-141132570D01*
X100592520Y-141200414D01*
X100447491Y-141229262D01*
X100418643Y-141235000D01*
X100241357Y-141235000D01*
X100212509Y-141229262D01*
X100067480Y-141200414D01*
X99903690Y-141132570D01*
X99756283Y-141034076D01*
X99630924Y-140908717D01*
X99532430Y-140761310D01*
X99464586Y-140597520D01*
X99430000Y-140423642D01*
X99430000Y-140246358D01*
X99464586Y-140072480D01*
X99532430Y-139908690D01*
X99630924Y-139761283D01*
X99756283Y-139635924D01*
X99903690Y-139537430D01*
X100067480Y-139469586D01*
X100212509Y-139440738D01*
X100241357Y-139435000D01*
X100418643Y-139435000D01*
X100447491Y-139440738D01*
G37*
G36*
X103770000Y-141235000D02*
G01*
X101970000Y-141235000D01*
X101970000Y-139435000D01*
X103770000Y-139435000D01*
X103770000Y-141235000D01*
G37*
G36*
X97907491Y-139440738D02*
G01*
X98052520Y-139469586D01*
X98216310Y-139537430D01*
X98363717Y-139635924D01*
X98489076Y-139761283D01*
X98587570Y-139908690D01*
X98655414Y-140072480D01*
X98690000Y-140246358D01*
X98690000Y-140423642D01*
X98655414Y-140597520D01*
X98587570Y-140761310D01*
X98489076Y-140908717D01*
X98363717Y-141034076D01*
X98216310Y-141132570D01*
X98052520Y-141200414D01*
X97907491Y-141229262D01*
X97878643Y-141235000D01*
X97701357Y-141235000D01*
X97672509Y-141229262D01*
X97527480Y-141200414D01*
X97363690Y-141132570D01*
X97216283Y-141034076D01*
X97090924Y-140908717D01*
X96992430Y-140761310D01*
X96924586Y-140597520D01*
X96890000Y-140423642D01*
X96890000Y-140246358D01*
X96924586Y-140072480D01*
X96992430Y-139908690D01*
X97090924Y-139761283D01*
X97216283Y-139635924D01*
X97363690Y-139537430D01*
X97527480Y-139469586D01*
X97672509Y-139440738D01*
X97701357Y-139435000D01*
X97878643Y-139435000D01*
X97907491Y-139440738D01*
G37*
G36*
X70275254Y-128524664D02*
G01*
X70645885Y-128598387D01*
X71064459Y-128771766D01*
X71441165Y-129023473D01*
X71761527Y-129343835D01*
X72013234Y-129720541D01*
X72186613Y-130139115D01*
X72275000Y-130583470D01*
X72275000Y-131036530D01*
X72186613Y-131480885D01*
X72013234Y-131899459D01*
X71761527Y-132276165D01*
X71441165Y-132596527D01*
X71064459Y-132848234D01*
X70645885Y-133021613D01*
X70275254Y-133095336D01*
X70201531Y-133110000D01*
X69748469Y-133110000D01*
X69674746Y-133095336D01*
X69304115Y-133021613D01*
X68885541Y-132848234D01*
X68508835Y-132596527D01*
X68188473Y-132276165D01*
X67936766Y-131899459D01*
X67763387Y-131480885D01*
X67675000Y-131036530D01*
X67675000Y-130583470D01*
X67763387Y-130139115D01*
X67936766Y-129720541D01*
X68188473Y-129343835D01*
X68508835Y-129023473D01*
X68885541Y-128771766D01*
X69304115Y-128598387D01*
X69674746Y-128524664D01*
X69748469Y-128510000D01*
X70201531Y-128510000D01*
X70275254Y-128524664D01*
G37*
G36*
X79630228Y-126793626D02*
G01*
X79789468Y-126859585D01*
X79932780Y-126955343D01*
X80054657Y-127077220D01*
X80150415Y-127220532D01*
X80216374Y-127379772D01*
X80250000Y-127548820D01*
X80250000Y-127721180D01*
X80216374Y-127890228D01*
X80150415Y-128049468D01*
X80054657Y-128192780D01*
X79932780Y-128314657D01*
X79789468Y-128410415D01*
X79630228Y-128476374D01*
X79461181Y-128510000D01*
X79288819Y-128510000D01*
X79119772Y-128476374D01*
X78960532Y-128410415D01*
X78817220Y-128314657D01*
X78695343Y-128192780D01*
X78599585Y-128049468D01*
X78533626Y-127890228D01*
X78500000Y-127721180D01*
X78500000Y-127548820D01*
X78533626Y-127379772D01*
X78599585Y-127220532D01*
X78695343Y-127077220D01*
X78817220Y-126955343D01*
X78960532Y-126859585D01*
X79119772Y-126793626D01*
X79288819Y-126760000D01*
X79461181Y-126760000D01*
X79630228Y-126793626D01*
G37*
G36*
X79630228Y-124253626D02*
G01*
X79789468Y-124319585D01*
X79932780Y-124415343D01*
X80054657Y-124537220D01*
X80150415Y-124680532D01*
X80216374Y-124839772D01*
X80250000Y-125008820D01*
X80250000Y-125181180D01*
X80216374Y-125350228D01*
X80150415Y-125509468D01*
X80054657Y-125652780D01*
X79932780Y-125774657D01*
X79789468Y-125870415D01*
X79630228Y-125936374D01*
X79461181Y-125970000D01*
X79288819Y-125970000D01*
X79119772Y-125936374D01*
X78960532Y-125870415D01*
X78817220Y-125774657D01*
X78695343Y-125652780D01*
X78599585Y-125509468D01*
X78533626Y-125350228D01*
X78500000Y-125181180D01*
X78500000Y-125008820D01*
X78533626Y-124839772D01*
X78599585Y-124680532D01*
X78695343Y-124537220D01*
X78817220Y-124415343D01*
X78960532Y-124319585D01*
X79119772Y-124253626D01*
X79288819Y-124220000D01*
X79461181Y-124220000D01*
X79630228Y-124253626D01*
G37*
G36*
X79630228Y-121713626D02*
G01*
X79789468Y-121779585D01*
X79932780Y-121875343D01*
X80054657Y-121997220D01*
X80150415Y-122140532D01*
X80216374Y-122299772D01*
X80250000Y-122468820D01*
X80250000Y-122641180D01*
X80216374Y-122810228D01*
X80150415Y-122969468D01*
X80054657Y-123112780D01*
X79932780Y-123234657D01*
X79789468Y-123330415D01*
X79630228Y-123396374D01*
X79461181Y-123430000D01*
X79288819Y-123430000D01*
X79119772Y-123396374D01*
X78960532Y-123330415D01*
X78817220Y-123234657D01*
X78695343Y-123112780D01*
X78599585Y-122969468D01*
X78533626Y-122810228D01*
X78500000Y-122641180D01*
X78500000Y-122468820D01*
X78533626Y-122299772D01*
X78599585Y-122140532D01*
X78695343Y-121997220D01*
X78817220Y-121875343D01*
X78960532Y-121779585D01*
X79119772Y-121713626D01*
X79288819Y-121680000D01*
X79461181Y-121680000D01*
X79630228Y-121713626D01*
G37*
G36*
X80250000Y-120890000D02*
G01*
X78500000Y-120890000D01*
X78500000Y-119140000D01*
X80250000Y-119140000D01*
X80250000Y-120890000D01*
G37*
G36*
X70275254Y-114554664D02*
G01*
X70645885Y-114628387D01*
X71064459Y-114801766D01*
X71441165Y-115053473D01*
X71761527Y-115373835D01*
X72013234Y-115750541D01*
X72186613Y-116169115D01*
X72275000Y-116613470D01*
X72275000Y-117066530D01*
X72186613Y-117510885D01*
X72013234Y-117929459D01*
X71761527Y-118306165D01*
X71441165Y-118626527D01*
X71064459Y-118878234D01*
X70645885Y-119051613D01*
X70275254Y-119125336D01*
X70201531Y-119140000D01*
X69748469Y-119140000D01*
X69674746Y-119125336D01*
X69304115Y-119051613D01*
X68885541Y-118878234D01*
X68508835Y-118626527D01*
X68188473Y-118306165D01*
X67936766Y-117929459D01*
X67763387Y-117510885D01*
X67675000Y-117066530D01*
X67675000Y-116613470D01*
X67763387Y-116169115D01*
X67936766Y-115750541D01*
X68188473Y-115373835D01*
X68508835Y-115053473D01*
X68885541Y-114801766D01*
X69304115Y-114628387D01*
X69674746Y-114554664D01*
X69748469Y-114540000D01*
X70201531Y-114540000D01*
X70275254Y-114554664D01*
G37*
M02*
