G04 #@! TF.GenerationSoftware,KiCad,Pcbnew,(5.1.6)-1*
G04 #@! TF.CreationDate,2022-11-16T12:34:37-06:00*
G04 #@! TF.ProjectId,adc2o2,61646332-6f32-42e6-9b69-6361645f7063,rev?*
G04 #@! TF.SameCoordinates,Original*
G04 #@! TF.FileFunction,Legend,Top*
G04 #@! TF.FilePolarity,Positive*
%FSLAX46Y46*%
G04 Gerber Fmt 4.6, Leading zero omitted, Abs format (unit mm)*
G04 Created by KiCad (PCBNEW (5.1.6)-1) date 2022-11-16 12:34:37*
%MOMM*%
%LPD*%
G01*
G04 APERTURE LIST*
%ADD10C,0.150000*%
%ADD11C,0.120000*%
%ADD12C,0.100000*%
%ADD13C,0.200000*%
%ADD14C,0.254000*%
%ADD15C,4.600000*%
%ADD16C,1.750000*%
%ADD17R,1.750000X1.750000*%
%ADD18C,2.000000*%
%ADD19R,1.600000X0.550000*%
%ADD20R,1.160000X0.750000*%
%ADD21R,1.100000X1.600000*%
%ADD22O,1.800000X1.800000*%
%ADD23R,1.800000X1.800000*%
G04 APERTURE END LIST*
D10*
X108085000Y-182371904D02*
X108037380Y-182467142D01*
X108037380Y-182610000D01*
X108085000Y-182752857D01*
X108180238Y-182848095D01*
X108275476Y-182895714D01*
X108465952Y-182943333D01*
X108608809Y-182943333D01*
X108799285Y-182895714D01*
X108894523Y-182848095D01*
X108989761Y-182752857D01*
X109037380Y-182610000D01*
X109037380Y-182514761D01*
X108989761Y-182371904D01*
X108942142Y-182324285D01*
X108608809Y-182324285D01*
X108608809Y-182514761D01*
X109037380Y-181895714D02*
X108037380Y-181895714D01*
X109037380Y-181324285D01*
X108037380Y-181324285D01*
X109037380Y-180848095D02*
X108037380Y-180848095D01*
X108037380Y-180610000D01*
X108085000Y-180467142D01*
X108180238Y-180371904D01*
X108275476Y-180324285D01*
X108465952Y-180276666D01*
X108608809Y-180276666D01*
X108799285Y-180324285D01*
X108894523Y-180371904D01*
X108989761Y-180467142D01*
X109037380Y-180610000D01*
X109037380Y-180848095D01*
X94337380Y-179157380D02*
X94908809Y-179157380D01*
X94623095Y-180157380D02*
X94623095Y-179157380D01*
X95242142Y-180157380D02*
X95242142Y-179157380D01*
X95480238Y-179157380D01*
X95623095Y-179205000D01*
X95718333Y-179300238D01*
X95765952Y-179395476D01*
X95813571Y-179585952D01*
X95813571Y-179728809D01*
X95765952Y-179919285D01*
X95718333Y-180014523D01*
X95623095Y-180109761D01*
X95480238Y-180157380D01*
X95242142Y-180157380D01*
X96242142Y-180157380D02*
X96242142Y-179157380D01*
X96908809Y-179157380D02*
X97099285Y-179157380D01*
X97194523Y-179205000D01*
X97289761Y-179300238D01*
X97337380Y-179490714D01*
X97337380Y-179824047D01*
X97289761Y-180014523D01*
X97194523Y-180109761D01*
X97099285Y-180157380D01*
X96908809Y-180157380D01*
X96813571Y-180109761D01*
X96718333Y-180014523D01*
X96670714Y-179824047D01*
X96670714Y-179490714D01*
X96718333Y-179300238D01*
X96813571Y-179205000D01*
X96908809Y-179157380D01*
X105497380Y-182895714D02*
X105497380Y-182324285D01*
X106497380Y-182610000D02*
X105497380Y-182610000D01*
X106402142Y-181419523D02*
X106449761Y-181467142D01*
X106497380Y-181610000D01*
X106497380Y-181705238D01*
X106449761Y-181848095D01*
X106354523Y-181943333D01*
X106259285Y-181990952D01*
X106068809Y-182038571D01*
X105925952Y-182038571D01*
X105735476Y-181990952D01*
X105640238Y-181943333D01*
X105545000Y-181848095D01*
X105497380Y-181705238D01*
X105497380Y-181610000D01*
X105545000Y-181467142D01*
X105592619Y-181419523D01*
X106497380Y-180990952D02*
X105497380Y-180990952D01*
X106497380Y-180419523D02*
X105925952Y-180848095D01*
X105497380Y-180419523D02*
X106068809Y-180990952D01*
X102878095Y-156297380D02*
X103449523Y-156297380D01*
X103163809Y-157297380D02*
X103163809Y-156297380D01*
X104116190Y-156773571D02*
X104259047Y-156821190D01*
X104306666Y-156868809D01*
X104354285Y-156964047D01*
X104354285Y-157106904D01*
X104306666Y-157202142D01*
X104259047Y-157249761D01*
X104163809Y-157297380D01*
X103782857Y-157297380D01*
X103782857Y-156297380D01*
X104116190Y-156297380D01*
X104211428Y-156345000D01*
X104259047Y-156392619D01*
X104306666Y-156487857D01*
X104306666Y-156583095D01*
X104259047Y-156678333D01*
X104211428Y-156725952D01*
X104116190Y-156773571D01*
X103782857Y-156773571D01*
X105306666Y-157297380D02*
X104735238Y-157297380D01*
X105020952Y-157297380D02*
X105020952Y-156297380D01*
X104925714Y-156440238D01*
X104830476Y-156535476D01*
X104735238Y-156583095D01*
X95258095Y-156932380D02*
X95829523Y-156932380D01*
X95543809Y-157932380D02*
X95543809Y-156932380D01*
X96496190Y-157408571D02*
X96639047Y-157456190D01*
X96686666Y-157503809D01*
X96734285Y-157599047D01*
X96734285Y-157741904D01*
X96686666Y-157837142D01*
X96639047Y-157884761D01*
X96543809Y-157932380D01*
X96162857Y-157932380D01*
X96162857Y-156932380D01*
X96496190Y-156932380D01*
X96591428Y-156980000D01*
X96639047Y-157027619D01*
X96686666Y-157122857D01*
X96686666Y-157218095D01*
X96639047Y-157313333D01*
X96591428Y-157360952D01*
X96496190Y-157408571D01*
X96162857Y-157408571D01*
X97353333Y-156932380D02*
X97448571Y-156932380D01*
X97543809Y-156980000D01*
X97591428Y-157027619D01*
X97639047Y-157122857D01*
X97686666Y-157313333D01*
X97686666Y-157551428D01*
X97639047Y-157741904D01*
X97591428Y-157837142D01*
X97543809Y-157884761D01*
X97448571Y-157932380D01*
X97353333Y-157932380D01*
X97258095Y-157884761D01*
X97210476Y-157837142D01*
X97162857Y-157741904D01*
X97115238Y-157551428D01*
X97115238Y-157313333D01*
X97162857Y-157122857D01*
X97210476Y-157027619D01*
X97258095Y-156980000D01*
X97353333Y-156932380D01*
X99195000Y-152526904D02*
X99147380Y-152622142D01*
X99147380Y-152765000D01*
X99195000Y-152907857D01*
X99290238Y-153003095D01*
X99385476Y-153050714D01*
X99575952Y-153098333D01*
X99718809Y-153098333D01*
X99909285Y-153050714D01*
X100004523Y-153003095D01*
X100099761Y-152907857D01*
X100147380Y-152765000D01*
X100147380Y-152669761D01*
X100099761Y-152526904D01*
X100052142Y-152479285D01*
X99718809Y-152479285D01*
X99718809Y-152669761D01*
X100147380Y-152050714D02*
X99147380Y-152050714D01*
X100147380Y-151479285D01*
X99147380Y-151479285D01*
X100147380Y-151003095D02*
X99147380Y-151003095D01*
X99147380Y-150765000D01*
X99195000Y-150622142D01*
X99290238Y-150526904D01*
X99385476Y-150479285D01*
X99575952Y-150431666D01*
X99718809Y-150431666D01*
X99909285Y-150479285D01*
X100004523Y-150526904D01*
X100099761Y-150622142D01*
X100147380Y-150765000D01*
X100147380Y-151003095D01*
X93853095Y-163330000D02*
X93757857Y-163282380D01*
X93615000Y-163282380D01*
X93472142Y-163330000D01*
X93376904Y-163425238D01*
X93329285Y-163520476D01*
X93281666Y-163710952D01*
X93281666Y-163853809D01*
X93329285Y-164044285D01*
X93376904Y-164139523D01*
X93472142Y-164234761D01*
X93615000Y-164282380D01*
X93710238Y-164282380D01*
X93853095Y-164234761D01*
X93900714Y-164187142D01*
X93900714Y-163853809D01*
X93710238Y-163853809D01*
X94329285Y-164282380D02*
X94329285Y-163282380D01*
X94900714Y-164282380D01*
X94900714Y-163282380D01*
X95376904Y-164282380D02*
X95376904Y-163282380D01*
X95615000Y-163282380D01*
X95757857Y-163330000D01*
X95853095Y-163425238D01*
X95900714Y-163520476D01*
X95948333Y-163710952D01*
X95948333Y-163853809D01*
X95900714Y-164044285D01*
X95853095Y-164139523D01*
X95757857Y-164234761D01*
X95615000Y-164282380D01*
X95376904Y-164282380D01*
X90360714Y-159551666D02*
X90836904Y-159551666D01*
X90265476Y-159837380D02*
X90598809Y-158837380D01*
X90932142Y-159837380D01*
X91265476Y-159837380D02*
X91265476Y-158837380D01*
X91503571Y-158837380D01*
X91646428Y-158885000D01*
X91741666Y-158980238D01*
X91789285Y-159075476D01*
X91836904Y-159265952D01*
X91836904Y-159408809D01*
X91789285Y-159599285D01*
X91741666Y-159694523D01*
X91646428Y-159789761D01*
X91503571Y-159837380D01*
X91265476Y-159837380D01*
X92836904Y-159742142D02*
X92789285Y-159789761D01*
X92646428Y-159837380D01*
X92551190Y-159837380D01*
X92408333Y-159789761D01*
X92313095Y-159694523D01*
X92265476Y-159599285D01*
X92217857Y-159408809D01*
X92217857Y-159265952D01*
X92265476Y-159075476D01*
X92313095Y-158980238D01*
X92408333Y-158885000D01*
X92551190Y-158837380D01*
X92646428Y-158837380D01*
X92789285Y-158885000D01*
X92836904Y-158932619D01*
X93217857Y-158932619D02*
X93265476Y-158885000D01*
X93360714Y-158837380D01*
X93598809Y-158837380D01*
X93694047Y-158885000D01*
X93741666Y-158932619D01*
X93789285Y-159027857D01*
X93789285Y-159123095D01*
X93741666Y-159265952D01*
X93170238Y-159837380D01*
X93789285Y-159837380D01*
X93535714Y-166536666D02*
X94011904Y-166536666D01*
X93440476Y-166822380D02*
X93773809Y-165822380D01*
X94107142Y-166822380D01*
X94440476Y-166822380D02*
X94440476Y-165822380D01*
X94678571Y-165822380D01*
X94821428Y-165870000D01*
X94916666Y-165965238D01*
X94964285Y-166060476D01*
X95011904Y-166250952D01*
X95011904Y-166393809D01*
X94964285Y-166584285D01*
X94916666Y-166679523D01*
X94821428Y-166774761D01*
X94678571Y-166822380D01*
X94440476Y-166822380D01*
X96011904Y-166727142D02*
X95964285Y-166774761D01*
X95821428Y-166822380D01*
X95726190Y-166822380D01*
X95583333Y-166774761D01*
X95488095Y-166679523D01*
X95440476Y-166584285D01*
X95392857Y-166393809D01*
X95392857Y-166250952D01*
X95440476Y-166060476D01*
X95488095Y-165965238D01*
X95583333Y-165870000D01*
X95726190Y-165822380D01*
X95821428Y-165822380D01*
X95964285Y-165870000D01*
X96011904Y-165917619D01*
X96964285Y-166822380D02*
X96392857Y-166822380D01*
X96678571Y-166822380D02*
X96678571Y-165822380D01*
X96583333Y-165965238D01*
X96488095Y-166060476D01*
X96392857Y-166108095D01*
X93281666Y-175347380D02*
X93615000Y-176347380D01*
X93948333Y-175347380D01*
X94853095Y-176252142D02*
X94805476Y-176299761D01*
X94662619Y-176347380D01*
X94567380Y-176347380D01*
X94424523Y-176299761D01*
X94329285Y-176204523D01*
X94281666Y-176109285D01*
X94234047Y-175918809D01*
X94234047Y-175775952D01*
X94281666Y-175585476D01*
X94329285Y-175490238D01*
X94424523Y-175395000D01*
X94567380Y-175347380D01*
X94662619Y-175347380D01*
X94805476Y-175395000D01*
X94853095Y-175442619D01*
X95853095Y-176252142D02*
X95805476Y-176299761D01*
X95662619Y-176347380D01*
X95567380Y-176347380D01*
X95424523Y-176299761D01*
X95329285Y-176204523D01*
X95281666Y-176109285D01*
X95234047Y-175918809D01*
X95234047Y-175775952D01*
X95281666Y-175585476D01*
X95329285Y-175490238D01*
X95424523Y-175395000D01*
X95567380Y-175347380D01*
X95662619Y-175347380D01*
X95805476Y-175395000D01*
X95853095Y-175442619D01*
X93337380Y-172807380D02*
X93908809Y-172807380D01*
X93623095Y-173807380D02*
X93623095Y-172807380D01*
X94194523Y-173521666D02*
X94670714Y-173521666D01*
X94099285Y-173807380D02*
X94432619Y-172807380D01*
X94765952Y-173807380D01*
X95670714Y-173807380D02*
X95337380Y-173331190D01*
X95099285Y-173807380D02*
X95099285Y-172807380D01*
X95480238Y-172807380D01*
X95575476Y-172855000D01*
X95623095Y-172902619D01*
X95670714Y-172997857D01*
X95670714Y-173140714D01*
X95623095Y-173235952D01*
X95575476Y-173283571D01*
X95480238Y-173331190D01*
X95099285Y-173331190D01*
X96623095Y-172855000D02*
X96527857Y-172807380D01*
X96385000Y-172807380D01*
X96242142Y-172855000D01*
X96146904Y-172950238D01*
X96099285Y-173045476D01*
X96051666Y-173235952D01*
X96051666Y-173378809D01*
X96099285Y-173569285D01*
X96146904Y-173664523D01*
X96242142Y-173759761D01*
X96385000Y-173807380D01*
X96480238Y-173807380D01*
X96623095Y-173759761D01*
X96670714Y-173712142D01*
X96670714Y-173378809D01*
X96480238Y-173378809D01*
X97099285Y-173283571D02*
X97432619Y-173283571D01*
X97575476Y-173807380D02*
X97099285Y-173807380D01*
X97099285Y-172807380D01*
X97575476Y-172807380D01*
X97861190Y-172807380D02*
X98432619Y-172807380D01*
X98146904Y-173807380D02*
X98146904Y-172807380D01*
X90622619Y-179792380D02*
X91194047Y-179792380D01*
X90908333Y-180792380D02*
X90908333Y-179792380D01*
X91670238Y-180792380D02*
X91575000Y-180744761D01*
X91527380Y-180697142D01*
X91479761Y-180601904D01*
X91479761Y-180316190D01*
X91527380Y-180220952D01*
X91575000Y-180173333D01*
X91670238Y-180125714D01*
X91813095Y-180125714D01*
X91908333Y-180173333D01*
X91955952Y-180220952D01*
X92003571Y-180316190D01*
X92003571Y-180601904D01*
X91955952Y-180697142D01*
X91908333Y-180744761D01*
X91813095Y-180792380D01*
X91670238Y-180792380D01*
X92575000Y-180792380D02*
X92479761Y-180744761D01*
X92432142Y-180697142D01*
X92384523Y-180601904D01*
X92384523Y-180316190D01*
X92432142Y-180220952D01*
X92479761Y-180173333D01*
X92575000Y-180125714D01*
X92717857Y-180125714D01*
X92813095Y-180173333D01*
X92860714Y-180220952D01*
X92908333Y-180316190D01*
X92908333Y-180601904D01*
X92860714Y-180697142D01*
X92813095Y-180744761D01*
X92717857Y-180792380D01*
X92575000Y-180792380D01*
X93479761Y-180792380D02*
X93384523Y-180744761D01*
X93336904Y-180649523D01*
X93336904Y-179792380D01*
D11*
X106135000Y-121952936D02*
X106135000Y-123157064D01*
X103415000Y-121952936D02*
X103415000Y-123157064D01*
D12*
X79502000Y-144404000D02*
G75*
G02*
X79502000Y-144504000I0J-50000D01*
G01*
X79502000Y-144504000D02*
G75*
G02*
X79502000Y-144404000I0J50000D01*
G01*
D13*
X76952000Y-140589000D02*
X76952000Y-159639000D01*
X76952000Y-159639000D02*
X63252000Y-159639000D01*
X63252000Y-159639000D02*
X63252000Y-140589000D01*
X63252000Y-140589000D02*
X76952000Y-140589000D01*
D12*
X79502000Y-144404000D02*
X79502000Y-144404000D01*
X79502000Y-144504000D02*
X79502000Y-144504000D01*
X79502000Y-167264000D02*
G75*
G02*
X79502000Y-167364000I0J-50000D01*
G01*
X79502000Y-167364000D02*
G75*
G02*
X79502000Y-167264000I0J50000D01*
G01*
D13*
X76952000Y-163449000D02*
X76952000Y-182499000D01*
X76952000Y-182499000D02*
X63252000Y-182499000D01*
X63252000Y-182499000D02*
X63252000Y-163449000D01*
X63252000Y-163449000D02*
X76952000Y-163449000D01*
D12*
X79502000Y-167264000D02*
X79502000Y-167264000D01*
X79502000Y-167364000D02*
X79502000Y-167364000D01*
X79375000Y-118115000D02*
G75*
G02*
X79375000Y-118215000I0J-50000D01*
G01*
X79375000Y-118215000D02*
G75*
G02*
X79375000Y-118115000I0J50000D01*
G01*
D13*
X76825000Y-114300000D02*
X76825000Y-133350000D01*
X76825000Y-133350000D02*
X63125000Y-133350000D01*
X63125000Y-133350000D02*
X63125000Y-114300000D01*
X63125000Y-114300000D02*
X76825000Y-114300000D01*
D12*
X79375000Y-118115000D02*
X79375000Y-118115000D01*
X79375000Y-118215000D02*
X79375000Y-118215000D01*
D11*
X106170000Y-147792221D02*
X106170000Y-148117779D01*
X107190000Y-147792221D02*
X107190000Y-148117779D01*
X99695000Y-148250000D02*
X96095000Y-148250000D01*
X99695000Y-148250000D02*
X101895000Y-148250000D01*
X99695000Y-151470000D02*
X97495000Y-151470000D01*
X99695000Y-151470000D02*
X101895000Y-151470000D01*
X106425000Y-162735000D02*
X106425000Y-167935000D01*
X103125000Y-162735000D02*
X106425000Y-162735000D01*
X103125000Y-168735000D02*
X103125000Y-162735000D01*
X105625000Y-168735000D02*
X103125000Y-168735000D01*
X106425000Y-167935000D02*
X105625000Y-168735000D01*
X103875000Y-119085000D02*
X106325000Y-119085000D01*
X105675000Y-115865000D02*
X103875000Y-115865000D01*
X111250000Y-147792221D02*
X111250000Y-148117779D01*
X112270000Y-147792221D02*
X112270000Y-148117779D01*
X108710000Y-156047221D02*
X108710000Y-156372779D01*
X109730000Y-156047221D02*
X109730000Y-156372779D01*
X107190000Y-156372779D02*
X107190000Y-156047221D01*
X106170000Y-156372779D02*
X106170000Y-156047221D01*
X92200000Y-144134721D02*
X92200000Y-144460279D01*
X93220000Y-144134721D02*
X93220000Y-144460279D01*
X87120000Y-144134721D02*
X87120000Y-144460279D01*
X88140000Y-144134721D02*
X88140000Y-144460279D01*
X87120000Y-152237221D02*
X87120000Y-152562779D01*
X88140000Y-152237221D02*
X88140000Y-152562779D01*
X92200000Y-152237221D02*
X92200000Y-152562779D01*
X93220000Y-152237221D02*
X93220000Y-152562779D01*
X85562221Y-161800000D02*
X85887779Y-161800000D01*
X85562221Y-160780000D02*
X85887779Y-160780000D01*
X85562221Y-164340000D02*
X85887779Y-164340000D01*
X85562221Y-163320000D02*
X85887779Y-163320000D01*
X111885000Y-168747221D02*
X111885000Y-169072779D01*
X112905000Y-168747221D02*
X112905000Y-169072779D01*
X98262221Y-169420000D02*
X98587779Y-169420000D01*
X98262221Y-168400000D02*
X98587779Y-168400000D01*
X101437221Y-173230000D02*
X101762779Y-173230000D01*
X101437221Y-172210000D02*
X101762779Y-172210000D01*
X85562221Y-176405000D02*
X85887779Y-176405000D01*
X85562221Y-175385000D02*
X85887779Y-175385000D01*
X85562221Y-178945000D02*
X85887779Y-178945000D01*
X85562221Y-177925000D02*
X85887779Y-177925000D01*
X100167221Y-116715000D02*
X100492779Y-116715000D01*
X100167221Y-115695000D02*
X100492779Y-115695000D01*
X101470000Y-159020000D02*
X104270000Y-159020000D01*
X104920000Y-159720000D02*
X104920000Y-160320000D01*
X104270000Y-161020000D02*
X101470000Y-161020000D01*
X100820000Y-160320000D02*
X100820000Y-159720000D01*
X101670000Y-161220000D02*
X101370000Y-161520000D01*
X101370000Y-161520000D02*
X101970000Y-161520000D01*
X101670000Y-161220000D02*
X101970000Y-161520000D01*
X100820000Y-159720000D02*
G75*
G02*
X101520000Y-159020000I700000J0D01*
G01*
X101520000Y-161020000D02*
G75*
G02*
X100820000Y-160320000I0J700000D01*
G01*
X104920000Y-160320000D02*
G75*
G02*
X104220000Y-161020000I-700000J0D01*
G01*
X104220000Y-159020000D02*
G75*
G02*
X104920000Y-159720000I0J-700000D01*
G01*
X98555000Y-161020000D02*
X95755000Y-161020000D01*
X95105000Y-160320000D02*
X95105000Y-159720000D01*
X95755000Y-159020000D02*
X98555000Y-159020000D01*
X99205000Y-159720000D02*
X99205000Y-160320000D01*
X98355000Y-158820000D02*
X98655000Y-158520000D01*
X98655000Y-158520000D02*
X98055000Y-158520000D01*
X98355000Y-158820000D02*
X98055000Y-158520000D01*
X99205000Y-160320000D02*
G75*
G02*
X98505000Y-161020000I-700000J0D01*
G01*
X98505000Y-159020000D02*
G75*
G02*
X99205000Y-159720000I0J-700000D01*
G01*
X95105000Y-159720000D02*
G75*
G02*
X95805000Y-159020000I700000J0D01*
G01*
X95805000Y-161020000D02*
G75*
G02*
X95105000Y-160320000I0J700000D01*
G01*
X104200000Y-139005000D02*
X104200000Y-140335000D01*
X102870000Y-139005000D02*
X104200000Y-139005000D01*
X101600000Y-139005000D02*
X101600000Y-141665000D01*
X101600000Y-141665000D02*
X96460000Y-141665000D01*
X101600000Y-139005000D02*
X96460000Y-139005000D01*
X96460000Y-139005000D02*
X96460000Y-141665000D01*
X95825000Y-156270000D02*
X95825000Y-154940000D01*
X97155000Y-156270000D02*
X95825000Y-156270000D01*
X98425000Y-156270000D02*
X98425000Y-153610000D01*
X98425000Y-153610000D02*
X103565000Y-153610000D01*
X98425000Y-156270000D02*
X103565000Y-156270000D01*
X103565000Y-156270000D02*
X103565000Y-153610000D01*
X97095000Y-179765000D02*
X97095000Y-178435000D01*
X98425000Y-179765000D02*
X97095000Y-179765000D01*
X97095000Y-177165000D02*
X97095000Y-174565000D01*
X99695000Y-177165000D02*
X97095000Y-177165000D01*
X99695000Y-179765000D02*
X99695000Y-177165000D01*
X97095000Y-174565000D02*
X114995000Y-174565000D01*
X99695000Y-179765000D02*
X114995000Y-179765000D01*
X114995000Y-179765000D02*
X114995000Y-174565000D01*
X93405000Y-167700000D02*
X92075000Y-167700000D01*
X93405000Y-166370000D02*
X93405000Y-167700000D01*
X93405000Y-165100000D02*
X90745000Y-165100000D01*
X90745000Y-165100000D02*
X90745000Y-159960000D01*
X93405000Y-165100000D02*
X93405000Y-159960000D01*
X93405000Y-159960000D02*
X90745000Y-159960000D01*
X90745000Y-172025000D02*
X92075000Y-172025000D01*
X90745000Y-173355000D02*
X90745000Y-172025000D01*
X90745000Y-174625000D02*
X93405000Y-174625000D01*
X93405000Y-174625000D02*
X93405000Y-179765000D01*
X90745000Y-174625000D02*
X90745000Y-179765000D01*
X90745000Y-179765000D02*
X93405000Y-179765000D01*
X109955000Y-149440000D02*
X109955000Y-147155000D01*
X108485000Y-149440000D02*
X109955000Y-149440000D01*
X108485000Y-147155000D02*
X108485000Y-149440000D01*
X89435000Y-142812500D02*
X89435000Y-145097500D01*
X90905000Y-142812500D02*
X89435000Y-142812500D01*
X90905000Y-145097500D02*
X90905000Y-142812500D01*
X87210000Y-155475000D02*
X84925000Y-155475000D01*
X87210000Y-156945000D02*
X87210000Y-155475000D01*
X84925000Y-156945000D02*
X87210000Y-156945000D01*
X87210000Y-170080000D02*
X84925000Y-170080000D01*
X87210000Y-171550000D02*
X87210000Y-170080000D01*
X84925000Y-171550000D02*
X87210000Y-171550000D01*
X101815000Y-123090000D02*
X99530000Y-123090000D01*
X101815000Y-124560000D02*
X101815000Y-123090000D01*
X99530000Y-124560000D02*
X101815000Y-124560000D01*
X101815000Y-120550000D02*
X99530000Y-120550000D01*
X101815000Y-122020000D02*
X101815000Y-120550000D01*
X99530000Y-122020000D02*
X101815000Y-122020000D01*
X112470000Y-156468578D02*
X112470000Y-155951422D01*
X111050000Y-156468578D02*
X111050000Y-155951422D01*
X108208578Y-159310000D02*
X107691422Y-159310000D01*
X108208578Y-160730000D02*
X107691422Y-160730000D01*
X101915279Y-144905000D02*
X101589721Y-144905000D01*
X101915279Y-145925000D02*
X101589721Y-145925000D01*
X85800000Y-152658578D02*
X85800000Y-152141422D01*
X84380000Y-152658578D02*
X84380000Y-152141422D01*
X90880000Y-152658578D02*
X90880000Y-152141422D01*
X89460000Y-152658578D02*
X89460000Y-152141422D01*
X85562221Y-166880000D02*
X85887779Y-166880000D01*
X85562221Y-165860000D02*
X85887779Y-165860000D01*
X85887779Y-158240000D02*
X85562221Y-158240000D01*
X85887779Y-159260000D02*
X85562221Y-159260000D01*
X98897221Y-182120000D02*
X99222779Y-182120000D01*
X98897221Y-181100000D02*
X99222779Y-181100000D01*
X116080000Y-165262779D02*
X116080000Y-164937221D01*
X115060000Y-165262779D02*
X115060000Y-164937221D01*
X113105000Y-165358578D02*
X113105000Y-164841422D01*
X111685000Y-165358578D02*
X111685000Y-164841422D01*
X85562221Y-181485000D02*
X85887779Y-181485000D01*
X85562221Y-180465000D02*
X85887779Y-180465000D01*
X85887779Y-172845000D02*
X85562221Y-172845000D01*
X85887779Y-173865000D02*
X85562221Y-173865000D01*
X109057221Y-124335000D02*
X109382779Y-124335000D01*
X109057221Y-123315000D02*
X109382779Y-123315000D01*
X100492779Y-118235000D02*
X100167221Y-118235000D01*
X100492779Y-119255000D02*
X100167221Y-119255000D01*
X108075000Y-119217221D02*
X108075000Y-119542779D01*
X109095000Y-119217221D02*
X109095000Y-119542779D01*
D10*
X107507380Y-122721666D02*
X107507380Y-123197857D01*
X106507380Y-123197857D01*
X107507380Y-121864523D02*
X107507380Y-122435952D01*
X107507380Y-122150238D02*
X106507380Y-122150238D01*
X106650238Y-122245476D01*
X106745476Y-122340714D01*
X106793095Y-122435952D01*
D14*
X71094523Y-150537333D02*
X72001666Y-150537333D01*
X72183095Y-150597809D01*
X72304047Y-150718761D01*
X72364523Y-150900190D01*
X72364523Y-151021142D01*
X71094523Y-149388285D02*
X71094523Y-149630190D01*
X71155000Y-149751142D01*
X71215476Y-149811619D01*
X71396904Y-149932571D01*
X71638809Y-149993047D01*
X72122619Y-149993047D01*
X72243571Y-149932571D01*
X72304047Y-149872095D01*
X72364523Y-149751142D01*
X72364523Y-149509238D01*
X72304047Y-149388285D01*
X72243571Y-149327809D01*
X72122619Y-149267333D01*
X71820238Y-149267333D01*
X71699285Y-149327809D01*
X71638809Y-149388285D01*
X71578333Y-149509238D01*
X71578333Y-149751142D01*
X71638809Y-149872095D01*
X71699285Y-149932571D01*
X71820238Y-149993047D01*
X71094523Y-173397333D02*
X72001666Y-173397333D01*
X72183095Y-173457809D01*
X72304047Y-173578761D01*
X72364523Y-173760190D01*
X72364523Y-173881142D01*
X71094523Y-172913523D02*
X71094523Y-172127333D01*
X71578333Y-172550666D01*
X71578333Y-172369238D01*
X71638809Y-172248285D01*
X71699285Y-172187809D01*
X71820238Y-172127333D01*
X72122619Y-172127333D01*
X72243571Y-172187809D01*
X72304047Y-172248285D01*
X72364523Y-172369238D01*
X72364523Y-172732095D01*
X72304047Y-172853047D01*
X72243571Y-172913523D01*
X70967523Y-124248333D02*
X71874666Y-124248333D01*
X72056095Y-124308809D01*
X72177047Y-124429761D01*
X72237523Y-124611190D01*
X72237523Y-124732142D01*
X72237523Y-122978333D02*
X72237523Y-123704047D01*
X72237523Y-123341190D02*
X70967523Y-123341190D01*
X71148952Y-123462142D01*
X71269904Y-123583095D01*
X71330380Y-123704047D01*
D10*
X115768571Y-109053571D02*
X115435238Y-109053571D01*
X115435238Y-109577380D02*
X115435238Y-108577380D01*
X115911428Y-108577380D01*
X116292380Y-109577380D02*
X116292380Y-108577380D01*
X116768571Y-109577380D02*
X116768571Y-108577380D01*
X117006666Y-108577380D01*
X117149523Y-108625000D01*
X117244761Y-108720238D01*
X117292380Y-108815476D01*
X117340000Y-109005952D01*
X117340000Y-109148809D01*
X117292380Y-109339285D01*
X117244761Y-109434523D01*
X117149523Y-109529761D01*
X117006666Y-109577380D01*
X116768571Y-109577380D01*
X117673333Y-108577380D02*
X118292380Y-108577380D01*
X117959047Y-108958333D01*
X118101904Y-108958333D01*
X118197142Y-109005952D01*
X118244761Y-109053571D01*
X118292380Y-109148809D01*
X118292380Y-109386904D01*
X118244761Y-109482142D01*
X118197142Y-109529761D01*
X118101904Y-109577380D01*
X117816190Y-109577380D01*
X117720952Y-109529761D01*
X117673333Y-109482142D01*
X117038571Y-179538571D02*
X116705238Y-179538571D01*
X116705238Y-180062380D02*
X116705238Y-179062380D01*
X117181428Y-179062380D01*
X117562380Y-180062380D02*
X117562380Y-179062380D01*
X118038571Y-180062380D02*
X118038571Y-179062380D01*
X118276666Y-179062380D01*
X118419523Y-179110000D01*
X118514761Y-179205238D01*
X118562380Y-179300476D01*
X118610000Y-179490952D01*
X118610000Y-179633809D01*
X118562380Y-179824285D01*
X118514761Y-179919523D01*
X118419523Y-180014761D01*
X118276666Y-180062380D01*
X118038571Y-180062380D01*
X118990952Y-179157619D02*
X119038571Y-179110000D01*
X119133809Y-179062380D01*
X119371904Y-179062380D01*
X119467142Y-179110000D01*
X119514761Y-179157619D01*
X119562380Y-179252857D01*
X119562380Y-179348095D01*
X119514761Y-179490952D01*
X118943333Y-180062380D01*
X119562380Y-180062380D01*
X66873571Y-109053571D02*
X66540238Y-109053571D01*
X66540238Y-109577380D02*
X66540238Y-108577380D01*
X67016428Y-108577380D01*
X67397380Y-109577380D02*
X67397380Y-108577380D01*
X67873571Y-109577380D02*
X67873571Y-108577380D01*
X68111666Y-108577380D01*
X68254523Y-108625000D01*
X68349761Y-108720238D01*
X68397380Y-108815476D01*
X68445000Y-109005952D01*
X68445000Y-109148809D01*
X68397380Y-109339285D01*
X68349761Y-109434523D01*
X68254523Y-109529761D01*
X68111666Y-109577380D01*
X67873571Y-109577380D01*
X69397380Y-109577380D02*
X68825952Y-109577380D01*
X69111666Y-109577380D02*
X69111666Y-108577380D01*
X69016428Y-108720238D01*
X68921190Y-108815476D01*
X68825952Y-108863095D01*
X107132380Y-145422857D02*
X106656190Y-145756190D01*
X107132380Y-145994285D02*
X106132380Y-145994285D01*
X106132380Y-145613333D01*
X106180000Y-145518095D01*
X106227619Y-145470476D01*
X106322857Y-145422857D01*
X106465714Y-145422857D01*
X106560952Y-145470476D01*
X106608571Y-145518095D01*
X106656190Y-145613333D01*
X106656190Y-145994285D01*
X107132380Y-144470476D02*
X107132380Y-145041904D01*
X107132380Y-144756190D02*
X106132380Y-144756190D01*
X106275238Y-144851428D01*
X106370476Y-144946666D01*
X106418095Y-145041904D01*
X106132380Y-143613333D02*
X106132380Y-143803809D01*
X106180000Y-143899047D01*
X106227619Y-143946666D01*
X106370476Y-144041904D01*
X106560952Y-144089523D01*
X106941904Y-144089523D01*
X107037142Y-144041904D01*
X107084761Y-143994285D01*
X107132380Y-143899047D01*
X107132380Y-143708571D01*
X107084761Y-143613333D01*
X107037142Y-143565714D01*
X106941904Y-143518095D01*
X106703809Y-143518095D01*
X106608571Y-143565714D01*
X106560952Y-143613333D01*
X106513333Y-143708571D01*
X106513333Y-143899047D01*
X106560952Y-143994285D01*
X106608571Y-144041904D01*
X106703809Y-144089523D01*
X98933095Y-146862380D02*
X98933095Y-147671904D01*
X98980714Y-147767142D01*
X99028333Y-147814761D01*
X99123571Y-147862380D01*
X99314047Y-147862380D01*
X99409285Y-147814761D01*
X99456904Y-147767142D01*
X99504523Y-147671904D01*
X99504523Y-146862380D01*
X99885476Y-146862380D02*
X100504523Y-146862380D01*
X100171190Y-147243333D01*
X100314047Y-147243333D01*
X100409285Y-147290952D01*
X100456904Y-147338571D01*
X100504523Y-147433809D01*
X100504523Y-147671904D01*
X100456904Y-147767142D01*
X100409285Y-147814761D01*
X100314047Y-147862380D01*
X100028333Y-147862380D01*
X99933095Y-147814761D01*
X99885476Y-147767142D01*
X104013095Y-169187380D02*
X104013095Y-169996904D01*
X104060714Y-170092142D01*
X104108333Y-170139761D01*
X104203571Y-170187380D01*
X104394047Y-170187380D01*
X104489285Y-170139761D01*
X104536904Y-170092142D01*
X104584523Y-169996904D01*
X104584523Y-169187380D01*
X105013095Y-169282619D02*
X105060714Y-169235000D01*
X105155952Y-169187380D01*
X105394047Y-169187380D01*
X105489285Y-169235000D01*
X105536904Y-169282619D01*
X105584523Y-169377857D01*
X105584523Y-169473095D01*
X105536904Y-169615952D01*
X104965476Y-170187380D01*
X105584523Y-170187380D01*
X105918095Y-119467380D02*
X105918095Y-120276904D01*
X105965714Y-120372142D01*
X106013333Y-120419761D01*
X106108571Y-120467380D01*
X106299047Y-120467380D01*
X106394285Y-120419761D01*
X106441904Y-120372142D01*
X106489523Y-120276904D01*
X106489523Y-119467380D01*
X107489523Y-120467380D02*
X106918095Y-120467380D01*
X107203809Y-120467380D02*
X107203809Y-119467380D01*
X107108571Y-119610238D01*
X107013333Y-119705476D01*
X106918095Y-119753095D01*
X112212380Y-145422857D02*
X111736190Y-145756190D01*
X112212380Y-145994285D02*
X111212380Y-145994285D01*
X111212380Y-145613333D01*
X111260000Y-145518095D01*
X111307619Y-145470476D01*
X111402857Y-145422857D01*
X111545714Y-145422857D01*
X111640952Y-145470476D01*
X111688571Y-145518095D01*
X111736190Y-145613333D01*
X111736190Y-145994285D01*
X112212380Y-144470476D02*
X112212380Y-145041904D01*
X112212380Y-144756190D02*
X111212380Y-144756190D01*
X111355238Y-144851428D01*
X111450476Y-144946666D01*
X111498095Y-145041904D01*
X111212380Y-143565714D02*
X111212380Y-144041904D01*
X111688571Y-144089523D01*
X111640952Y-144041904D01*
X111593333Y-143946666D01*
X111593333Y-143708571D01*
X111640952Y-143613333D01*
X111688571Y-143565714D01*
X111783809Y-143518095D01*
X112021904Y-143518095D01*
X112117142Y-143565714D01*
X112164761Y-143613333D01*
X112212380Y-143708571D01*
X112212380Y-143946666D01*
X112164761Y-144041904D01*
X112117142Y-144089523D01*
X109672380Y-153677857D02*
X109196190Y-154011190D01*
X109672380Y-154249285D02*
X108672380Y-154249285D01*
X108672380Y-153868333D01*
X108720000Y-153773095D01*
X108767619Y-153725476D01*
X108862857Y-153677857D01*
X109005714Y-153677857D01*
X109100952Y-153725476D01*
X109148571Y-153773095D01*
X109196190Y-153868333D01*
X109196190Y-154249285D01*
X109672380Y-152725476D02*
X109672380Y-153296904D01*
X109672380Y-153011190D02*
X108672380Y-153011190D01*
X108815238Y-153106428D01*
X108910476Y-153201666D01*
X108958095Y-153296904D01*
X109005714Y-151868333D02*
X109672380Y-151868333D01*
X108624761Y-152106428D02*
X109339047Y-152344523D01*
X109339047Y-151725476D01*
X107132380Y-153677857D02*
X106656190Y-154011190D01*
X107132380Y-154249285D02*
X106132380Y-154249285D01*
X106132380Y-153868333D01*
X106180000Y-153773095D01*
X106227619Y-153725476D01*
X106322857Y-153677857D01*
X106465714Y-153677857D01*
X106560952Y-153725476D01*
X106608571Y-153773095D01*
X106656190Y-153868333D01*
X106656190Y-154249285D01*
X107132380Y-152725476D02*
X107132380Y-153296904D01*
X107132380Y-153011190D02*
X106132380Y-153011190D01*
X106275238Y-153106428D01*
X106370476Y-153201666D01*
X106418095Y-153296904D01*
X106132380Y-152392142D02*
X106132380Y-151773095D01*
X106513333Y-152106428D01*
X106513333Y-151963571D01*
X106560952Y-151868333D01*
X106608571Y-151820714D01*
X106703809Y-151773095D01*
X106941904Y-151773095D01*
X107037142Y-151820714D01*
X107084761Y-151868333D01*
X107132380Y-151963571D01*
X107132380Y-152249285D01*
X107084761Y-152344523D01*
X107037142Y-152392142D01*
X93162380Y-141612857D02*
X92686190Y-141946190D01*
X93162380Y-142184285D02*
X92162380Y-142184285D01*
X92162380Y-141803333D01*
X92210000Y-141708095D01*
X92257619Y-141660476D01*
X92352857Y-141612857D01*
X92495714Y-141612857D01*
X92590952Y-141660476D01*
X92638571Y-141708095D01*
X92686190Y-141803333D01*
X92686190Y-142184285D01*
X93162380Y-140660476D02*
X93162380Y-141231904D01*
X93162380Y-140946190D02*
X92162380Y-140946190D01*
X92305238Y-141041428D01*
X92400476Y-141136666D01*
X92448095Y-141231904D01*
X92257619Y-140279523D02*
X92210000Y-140231904D01*
X92162380Y-140136666D01*
X92162380Y-139898571D01*
X92210000Y-139803333D01*
X92257619Y-139755714D01*
X92352857Y-139708095D01*
X92448095Y-139708095D01*
X92590952Y-139755714D01*
X93162380Y-140327142D01*
X93162380Y-139708095D01*
X88082380Y-141765357D02*
X87606190Y-142098690D01*
X88082380Y-142336785D02*
X87082380Y-142336785D01*
X87082380Y-141955833D01*
X87130000Y-141860595D01*
X87177619Y-141812976D01*
X87272857Y-141765357D01*
X87415714Y-141765357D01*
X87510952Y-141812976D01*
X87558571Y-141860595D01*
X87606190Y-141955833D01*
X87606190Y-142336785D01*
X88082380Y-140812976D02*
X88082380Y-141384404D01*
X88082380Y-141098690D02*
X87082380Y-141098690D01*
X87225238Y-141193928D01*
X87320476Y-141289166D01*
X87368095Y-141384404D01*
X88082380Y-139860595D02*
X88082380Y-140432023D01*
X88082380Y-140146309D02*
X87082380Y-140146309D01*
X87225238Y-140241547D01*
X87320476Y-140336785D01*
X87368095Y-140432023D01*
X88082380Y-149867857D02*
X87606190Y-150201190D01*
X88082380Y-150439285D02*
X87082380Y-150439285D01*
X87082380Y-150058333D01*
X87130000Y-149963095D01*
X87177619Y-149915476D01*
X87272857Y-149867857D01*
X87415714Y-149867857D01*
X87510952Y-149915476D01*
X87558571Y-149963095D01*
X87606190Y-150058333D01*
X87606190Y-150439285D01*
X88082380Y-148915476D02*
X88082380Y-149486904D01*
X88082380Y-149201190D02*
X87082380Y-149201190D01*
X87225238Y-149296428D01*
X87320476Y-149391666D01*
X87368095Y-149486904D01*
X87082380Y-148296428D02*
X87082380Y-148201190D01*
X87130000Y-148105952D01*
X87177619Y-148058333D01*
X87272857Y-148010714D01*
X87463333Y-147963095D01*
X87701428Y-147963095D01*
X87891904Y-148010714D01*
X87987142Y-148058333D01*
X88034761Y-148105952D01*
X88082380Y-148201190D01*
X88082380Y-148296428D01*
X88034761Y-148391666D01*
X87987142Y-148439285D01*
X87891904Y-148486904D01*
X87701428Y-148534523D01*
X87463333Y-148534523D01*
X87272857Y-148486904D01*
X87177619Y-148439285D01*
X87130000Y-148391666D01*
X87082380Y-148296428D01*
X93162380Y-155106666D02*
X92686190Y-155440000D01*
X93162380Y-155678095D02*
X92162380Y-155678095D01*
X92162380Y-155297142D01*
X92210000Y-155201904D01*
X92257619Y-155154285D01*
X92352857Y-155106666D01*
X92495714Y-155106666D01*
X92590952Y-155154285D01*
X92638571Y-155201904D01*
X92686190Y-155297142D01*
X92686190Y-155678095D01*
X93162380Y-154630476D02*
X93162380Y-154440000D01*
X93114761Y-154344761D01*
X93067142Y-154297142D01*
X92924285Y-154201904D01*
X92733809Y-154154285D01*
X92352857Y-154154285D01*
X92257619Y-154201904D01*
X92210000Y-154249523D01*
X92162380Y-154344761D01*
X92162380Y-154535238D01*
X92210000Y-154630476D01*
X92257619Y-154678095D01*
X92352857Y-154725714D01*
X92590952Y-154725714D01*
X92686190Y-154678095D01*
X92733809Y-154630476D01*
X92781428Y-154535238D01*
X92781428Y-154344761D01*
X92733809Y-154249523D01*
X92686190Y-154201904D01*
X92590952Y-154154285D01*
X88098333Y-161742380D02*
X87765000Y-161266190D01*
X87526904Y-161742380D02*
X87526904Y-160742380D01*
X87907857Y-160742380D01*
X88003095Y-160790000D01*
X88050714Y-160837619D01*
X88098333Y-160932857D01*
X88098333Y-161075714D01*
X88050714Y-161170952D01*
X88003095Y-161218571D01*
X87907857Y-161266190D01*
X87526904Y-161266190D01*
X88669761Y-161170952D02*
X88574523Y-161123333D01*
X88526904Y-161075714D01*
X88479285Y-160980476D01*
X88479285Y-160932857D01*
X88526904Y-160837619D01*
X88574523Y-160790000D01*
X88669761Y-160742380D01*
X88860238Y-160742380D01*
X88955476Y-160790000D01*
X89003095Y-160837619D01*
X89050714Y-160932857D01*
X89050714Y-160980476D01*
X89003095Y-161075714D01*
X88955476Y-161123333D01*
X88860238Y-161170952D01*
X88669761Y-161170952D01*
X88574523Y-161218571D01*
X88526904Y-161266190D01*
X88479285Y-161361428D01*
X88479285Y-161551904D01*
X88526904Y-161647142D01*
X88574523Y-161694761D01*
X88669761Y-161742380D01*
X88860238Y-161742380D01*
X88955476Y-161694761D01*
X89003095Y-161647142D01*
X89050714Y-161551904D01*
X89050714Y-161361428D01*
X89003095Y-161266190D01*
X88955476Y-161218571D01*
X88860238Y-161170952D01*
X88098333Y-164282380D02*
X87765000Y-163806190D01*
X87526904Y-164282380D02*
X87526904Y-163282380D01*
X87907857Y-163282380D01*
X88003095Y-163330000D01*
X88050714Y-163377619D01*
X88098333Y-163472857D01*
X88098333Y-163615714D01*
X88050714Y-163710952D01*
X88003095Y-163758571D01*
X87907857Y-163806190D01*
X87526904Y-163806190D01*
X88431666Y-163282380D02*
X89098333Y-163282380D01*
X88669761Y-164282380D01*
X112228333Y-171902380D02*
X111895000Y-171426190D01*
X111656904Y-171902380D02*
X111656904Y-170902380D01*
X112037857Y-170902380D01*
X112133095Y-170950000D01*
X112180714Y-170997619D01*
X112228333Y-171092857D01*
X112228333Y-171235714D01*
X112180714Y-171330952D01*
X112133095Y-171378571D01*
X112037857Y-171426190D01*
X111656904Y-171426190D01*
X113085476Y-170902380D02*
X112895000Y-170902380D01*
X112799761Y-170950000D01*
X112752142Y-170997619D01*
X112656904Y-171140476D01*
X112609285Y-171330952D01*
X112609285Y-171711904D01*
X112656904Y-171807142D01*
X112704523Y-171854761D01*
X112799761Y-171902380D01*
X112990238Y-171902380D01*
X113085476Y-171854761D01*
X113133095Y-171807142D01*
X113180714Y-171711904D01*
X113180714Y-171473809D01*
X113133095Y-171378571D01*
X113085476Y-171330952D01*
X112990238Y-171283333D01*
X112799761Y-171283333D01*
X112704523Y-171330952D01*
X112656904Y-171378571D01*
X112609285Y-171473809D01*
X95718333Y-169362380D02*
X95385000Y-168886190D01*
X95146904Y-169362380D02*
X95146904Y-168362380D01*
X95527857Y-168362380D01*
X95623095Y-168410000D01*
X95670714Y-168457619D01*
X95718333Y-168552857D01*
X95718333Y-168695714D01*
X95670714Y-168790952D01*
X95623095Y-168838571D01*
X95527857Y-168886190D01*
X95146904Y-168886190D01*
X96623095Y-168362380D02*
X96146904Y-168362380D01*
X96099285Y-168838571D01*
X96146904Y-168790952D01*
X96242142Y-168743333D01*
X96480238Y-168743333D01*
X96575476Y-168790952D01*
X96623095Y-168838571D01*
X96670714Y-168933809D01*
X96670714Y-169171904D01*
X96623095Y-169267142D01*
X96575476Y-169314761D01*
X96480238Y-169362380D01*
X96242142Y-169362380D01*
X96146904Y-169314761D01*
X96099285Y-169267142D01*
X98893333Y-173172380D02*
X98560000Y-172696190D01*
X98321904Y-173172380D02*
X98321904Y-172172380D01*
X98702857Y-172172380D01*
X98798095Y-172220000D01*
X98845714Y-172267619D01*
X98893333Y-172362857D01*
X98893333Y-172505714D01*
X98845714Y-172600952D01*
X98798095Y-172648571D01*
X98702857Y-172696190D01*
X98321904Y-172696190D01*
X99750476Y-172505714D02*
X99750476Y-173172380D01*
X99512380Y-172124761D02*
X99274285Y-172839047D01*
X99893333Y-172839047D01*
X88098333Y-176347380D02*
X87765000Y-175871190D01*
X87526904Y-176347380D02*
X87526904Y-175347380D01*
X87907857Y-175347380D01*
X88003095Y-175395000D01*
X88050714Y-175442619D01*
X88098333Y-175537857D01*
X88098333Y-175680714D01*
X88050714Y-175775952D01*
X88003095Y-175823571D01*
X87907857Y-175871190D01*
X87526904Y-175871190D01*
X88431666Y-175347380D02*
X89050714Y-175347380D01*
X88717380Y-175728333D01*
X88860238Y-175728333D01*
X88955476Y-175775952D01*
X89003095Y-175823571D01*
X89050714Y-175918809D01*
X89050714Y-176156904D01*
X89003095Y-176252142D01*
X88955476Y-176299761D01*
X88860238Y-176347380D01*
X88574523Y-176347380D01*
X88479285Y-176299761D01*
X88431666Y-176252142D01*
X88098333Y-178887380D02*
X87765000Y-178411190D01*
X87526904Y-178887380D02*
X87526904Y-177887380D01*
X87907857Y-177887380D01*
X88003095Y-177935000D01*
X88050714Y-177982619D01*
X88098333Y-178077857D01*
X88098333Y-178220714D01*
X88050714Y-178315952D01*
X88003095Y-178363571D01*
X87907857Y-178411190D01*
X87526904Y-178411190D01*
X88479285Y-177982619D02*
X88526904Y-177935000D01*
X88622142Y-177887380D01*
X88860238Y-177887380D01*
X88955476Y-177935000D01*
X89003095Y-177982619D01*
X89050714Y-178077857D01*
X89050714Y-178173095D01*
X89003095Y-178315952D01*
X88431666Y-178887380D01*
X89050714Y-178887380D01*
X100782380Y-114466666D02*
X100306190Y-114800000D01*
X100782380Y-115038095D02*
X99782380Y-115038095D01*
X99782380Y-114657142D01*
X99830000Y-114561904D01*
X99877619Y-114514285D01*
X99972857Y-114466666D01*
X100115714Y-114466666D01*
X100210952Y-114514285D01*
X100258571Y-114561904D01*
X100306190Y-114657142D01*
X100306190Y-115038095D01*
X100782380Y-113514285D02*
X100782380Y-114085714D01*
X100782380Y-113800000D02*
X99782380Y-113800000D01*
X99925238Y-113895238D01*
X100020476Y-113990476D01*
X100068095Y-114085714D01*
X102036666Y-157672380D02*
X102036666Y-158386666D01*
X101989047Y-158529523D01*
X101893809Y-158624761D01*
X101750952Y-158672380D01*
X101655714Y-158672380D01*
X102512857Y-158672380D02*
X102512857Y-157672380D01*
X102893809Y-157672380D01*
X102989047Y-157720000D01*
X103036666Y-157767619D01*
X103084285Y-157862857D01*
X103084285Y-158005714D01*
X103036666Y-158100952D01*
X102989047Y-158148571D01*
X102893809Y-158196190D01*
X102512857Y-158196190D01*
X103465238Y-157767619D02*
X103512857Y-157720000D01*
X103608095Y-157672380D01*
X103846190Y-157672380D01*
X103941428Y-157720000D01*
X103989047Y-157767619D01*
X104036666Y-157862857D01*
X104036666Y-157958095D01*
X103989047Y-158100952D01*
X103417619Y-158672380D01*
X104036666Y-158672380D01*
X96321666Y-161272380D02*
X96321666Y-161986666D01*
X96274047Y-162129523D01*
X96178809Y-162224761D01*
X96035952Y-162272380D01*
X95940714Y-162272380D01*
X96797857Y-162272380D02*
X96797857Y-161272380D01*
X97178809Y-161272380D01*
X97274047Y-161320000D01*
X97321666Y-161367619D01*
X97369285Y-161462857D01*
X97369285Y-161605714D01*
X97321666Y-161700952D01*
X97274047Y-161748571D01*
X97178809Y-161796190D01*
X96797857Y-161796190D01*
X98321666Y-162272380D02*
X97750238Y-162272380D01*
X98035952Y-162272380D02*
X98035952Y-161272380D01*
X97940714Y-161415238D01*
X97845476Y-161510476D01*
X97750238Y-161558095D01*
X104652380Y-140668333D02*
X105366666Y-140668333D01*
X105509523Y-140715952D01*
X105604761Y-140811190D01*
X105652380Y-140954047D01*
X105652380Y-141049285D01*
X105080952Y-140049285D02*
X105033333Y-140144523D01*
X104985714Y-140192142D01*
X104890476Y-140239761D01*
X104842857Y-140239761D01*
X104747619Y-140192142D01*
X104700000Y-140144523D01*
X104652380Y-140049285D01*
X104652380Y-139858809D01*
X104700000Y-139763571D01*
X104747619Y-139715952D01*
X104842857Y-139668333D01*
X104890476Y-139668333D01*
X104985714Y-139715952D01*
X105033333Y-139763571D01*
X105080952Y-139858809D01*
X105080952Y-140049285D01*
X105128571Y-140144523D01*
X105176190Y-140192142D01*
X105271428Y-140239761D01*
X105461904Y-140239761D01*
X105557142Y-140192142D01*
X105604761Y-140144523D01*
X105652380Y-140049285D01*
X105652380Y-139858809D01*
X105604761Y-139763571D01*
X105557142Y-139715952D01*
X105461904Y-139668333D01*
X105271428Y-139668333D01*
X105176190Y-139715952D01*
X105128571Y-139763571D01*
X105080952Y-139858809D01*
X94277380Y-155273333D02*
X94991666Y-155273333D01*
X95134523Y-155320952D01*
X95229761Y-155416190D01*
X95277380Y-155559047D01*
X95277380Y-155654285D01*
X94277380Y-154892380D02*
X94277380Y-154225714D01*
X95277380Y-154654285D01*
X95547380Y-177498333D02*
X96261666Y-177498333D01*
X96404523Y-177545952D01*
X96499761Y-177641190D01*
X96547380Y-177784047D01*
X96547380Y-177879285D01*
X95547380Y-176545952D02*
X95547380Y-177022142D01*
X96023571Y-177069761D01*
X95975952Y-177022142D01*
X95928333Y-176926904D01*
X95928333Y-176688809D01*
X95975952Y-176593571D01*
X96023571Y-176545952D01*
X96118809Y-176498333D01*
X96356904Y-176498333D01*
X96452142Y-176545952D01*
X96499761Y-176593571D01*
X96547380Y-176688809D01*
X96547380Y-176926904D01*
X96499761Y-177022142D01*
X96452142Y-177069761D01*
X91741666Y-168152380D02*
X91741666Y-168866666D01*
X91694047Y-169009523D01*
X91598809Y-169104761D01*
X91455952Y-169152380D01*
X91360714Y-169152380D01*
X92646428Y-168485714D02*
X92646428Y-169152380D01*
X92408333Y-168104761D02*
X92170238Y-168819047D01*
X92789285Y-168819047D01*
X91741666Y-170477380D02*
X91741666Y-171191666D01*
X91694047Y-171334523D01*
X91598809Y-171429761D01*
X91455952Y-171477380D01*
X91360714Y-171477380D01*
X92170238Y-170572619D02*
X92217857Y-170525000D01*
X92313095Y-170477380D01*
X92551190Y-170477380D01*
X92646428Y-170525000D01*
X92694047Y-170572619D01*
X92741666Y-170667857D01*
X92741666Y-170763095D01*
X92694047Y-170905952D01*
X92122619Y-171477380D01*
X92741666Y-171477380D01*
X109672380Y-146153095D02*
X108672380Y-146153095D01*
X108672380Y-145915000D01*
X108720000Y-145772142D01*
X108815238Y-145676904D01*
X108910476Y-145629285D01*
X109100952Y-145581666D01*
X109243809Y-145581666D01*
X109434285Y-145629285D01*
X109529523Y-145676904D01*
X109624761Y-145772142D01*
X109672380Y-145915000D01*
X109672380Y-146153095D01*
X108672380Y-144724523D02*
X108672380Y-144915000D01*
X108720000Y-145010238D01*
X108767619Y-145057857D01*
X108910476Y-145153095D01*
X109100952Y-145200714D01*
X109481904Y-145200714D01*
X109577142Y-145153095D01*
X109624761Y-145105476D01*
X109672380Y-145010238D01*
X109672380Y-144819761D01*
X109624761Y-144724523D01*
X109577142Y-144676904D01*
X109481904Y-144629285D01*
X109243809Y-144629285D01*
X109148571Y-144676904D01*
X109100952Y-144724523D01*
X109053333Y-144819761D01*
X109053333Y-145010238D01*
X109100952Y-145105476D01*
X109148571Y-145153095D01*
X109243809Y-145200714D01*
X90622380Y-142495595D02*
X89622380Y-142495595D01*
X89622380Y-142257500D01*
X89670000Y-142114642D01*
X89765238Y-142019404D01*
X89860476Y-141971785D01*
X90050952Y-141924166D01*
X90193809Y-141924166D01*
X90384285Y-141971785D01*
X90479523Y-142019404D01*
X90574761Y-142114642D01*
X90622380Y-142257500D01*
X90622380Y-142495595D01*
X89622380Y-141019404D02*
X89622380Y-141495595D01*
X90098571Y-141543214D01*
X90050952Y-141495595D01*
X90003333Y-141400357D01*
X90003333Y-141162261D01*
X90050952Y-141067023D01*
X90098571Y-141019404D01*
X90193809Y-140971785D01*
X90431904Y-140971785D01*
X90527142Y-141019404D01*
X90574761Y-141067023D01*
X90622380Y-141162261D01*
X90622380Y-141400357D01*
X90574761Y-141495595D01*
X90527142Y-141543214D01*
X87526904Y-156662380D02*
X87526904Y-155662380D01*
X87765000Y-155662380D01*
X87907857Y-155710000D01*
X88003095Y-155805238D01*
X88050714Y-155900476D01*
X88098333Y-156090952D01*
X88098333Y-156233809D01*
X88050714Y-156424285D01*
X88003095Y-156519523D01*
X87907857Y-156614761D01*
X87765000Y-156662380D01*
X87526904Y-156662380D01*
X88955476Y-155995714D02*
X88955476Y-156662380D01*
X88717380Y-155614761D02*
X88479285Y-156329047D01*
X89098333Y-156329047D01*
X87526904Y-171267380D02*
X87526904Y-170267380D01*
X87765000Y-170267380D01*
X87907857Y-170315000D01*
X88003095Y-170410238D01*
X88050714Y-170505476D01*
X88098333Y-170695952D01*
X88098333Y-170838809D01*
X88050714Y-171029285D01*
X88003095Y-171124523D01*
X87907857Y-171219761D01*
X87765000Y-171267380D01*
X87526904Y-171267380D01*
X88431666Y-170267380D02*
X89050714Y-170267380D01*
X88717380Y-170648333D01*
X88860238Y-170648333D01*
X88955476Y-170695952D01*
X89003095Y-170743571D01*
X89050714Y-170838809D01*
X89050714Y-171076904D01*
X89003095Y-171172142D01*
X88955476Y-171219761D01*
X88860238Y-171267380D01*
X88574523Y-171267380D01*
X88479285Y-171219761D01*
X88431666Y-171172142D01*
X97051904Y-124277380D02*
X97051904Y-123277380D01*
X97290000Y-123277380D01*
X97432857Y-123325000D01*
X97528095Y-123420238D01*
X97575714Y-123515476D01*
X97623333Y-123705952D01*
X97623333Y-123848809D01*
X97575714Y-124039285D01*
X97528095Y-124134523D01*
X97432857Y-124229761D01*
X97290000Y-124277380D01*
X97051904Y-124277380D01*
X98004285Y-123372619D02*
X98051904Y-123325000D01*
X98147142Y-123277380D01*
X98385238Y-123277380D01*
X98480476Y-123325000D01*
X98528095Y-123372619D01*
X98575714Y-123467857D01*
X98575714Y-123563095D01*
X98528095Y-123705952D01*
X97956666Y-124277380D01*
X98575714Y-124277380D01*
X97051904Y-121737380D02*
X97051904Y-120737380D01*
X97290000Y-120737380D01*
X97432857Y-120785000D01*
X97528095Y-120880238D01*
X97575714Y-120975476D01*
X97623333Y-121165952D01*
X97623333Y-121308809D01*
X97575714Y-121499285D01*
X97528095Y-121594523D01*
X97432857Y-121689761D01*
X97290000Y-121737380D01*
X97051904Y-121737380D01*
X98575714Y-121737380D02*
X98004285Y-121737380D01*
X98290000Y-121737380D02*
X98290000Y-120737380D01*
X98194761Y-120880238D01*
X98099523Y-120975476D01*
X98004285Y-121023095D01*
X112117142Y-153677857D02*
X112164761Y-153725476D01*
X112212380Y-153868333D01*
X112212380Y-153963571D01*
X112164761Y-154106428D01*
X112069523Y-154201666D01*
X111974285Y-154249285D01*
X111783809Y-154296904D01*
X111640952Y-154296904D01*
X111450476Y-154249285D01*
X111355238Y-154201666D01*
X111260000Y-154106428D01*
X111212380Y-153963571D01*
X111212380Y-153868333D01*
X111260000Y-153725476D01*
X111307619Y-153677857D01*
X112212380Y-152725476D02*
X112212380Y-153296904D01*
X112212380Y-153011190D02*
X111212380Y-153011190D01*
X111355238Y-153106428D01*
X111450476Y-153201666D01*
X111498095Y-153296904D01*
X111212380Y-151820714D02*
X111212380Y-152296904D01*
X111688571Y-152344523D01*
X111640952Y-152296904D01*
X111593333Y-152201666D01*
X111593333Y-151963571D01*
X111640952Y-151868333D01*
X111688571Y-151820714D01*
X111783809Y-151773095D01*
X112021904Y-151773095D01*
X112117142Y-151820714D01*
X112164761Y-151868333D01*
X112212380Y-151963571D01*
X112212380Y-152201666D01*
X112164761Y-152296904D01*
X112117142Y-152344523D01*
X107307142Y-162027142D02*
X107259523Y-162074761D01*
X107116666Y-162122380D01*
X107021428Y-162122380D01*
X106878571Y-162074761D01*
X106783333Y-161979523D01*
X106735714Y-161884285D01*
X106688095Y-161693809D01*
X106688095Y-161550952D01*
X106735714Y-161360476D01*
X106783333Y-161265238D01*
X106878571Y-161170000D01*
X107021428Y-161122380D01*
X107116666Y-161122380D01*
X107259523Y-161170000D01*
X107307142Y-161217619D01*
X108259523Y-162122380D02*
X107688095Y-162122380D01*
X107973809Y-162122380D02*
X107973809Y-161122380D01*
X107878571Y-161265238D01*
X107783333Y-161360476D01*
X107688095Y-161408095D01*
X109116666Y-161455714D02*
X109116666Y-162122380D01*
X108878571Y-161074761D02*
X108640476Y-161789047D01*
X109259523Y-161789047D01*
X97934642Y-145772142D02*
X97887023Y-145819761D01*
X97744166Y-145867380D01*
X97648928Y-145867380D01*
X97506071Y-145819761D01*
X97410833Y-145724523D01*
X97363214Y-145629285D01*
X97315595Y-145438809D01*
X97315595Y-145295952D01*
X97363214Y-145105476D01*
X97410833Y-145010238D01*
X97506071Y-144915000D01*
X97648928Y-144867380D01*
X97744166Y-144867380D01*
X97887023Y-144915000D01*
X97934642Y-144962619D01*
X98887023Y-145867380D02*
X98315595Y-145867380D01*
X98601309Y-145867380D02*
X98601309Y-144867380D01*
X98506071Y-145010238D01*
X98410833Y-145105476D01*
X98315595Y-145153095D01*
X99220357Y-144867380D02*
X99839404Y-144867380D01*
X99506071Y-145248333D01*
X99648928Y-145248333D01*
X99744166Y-145295952D01*
X99791785Y-145343571D01*
X99839404Y-145438809D01*
X99839404Y-145676904D01*
X99791785Y-145772142D01*
X99744166Y-145819761D01*
X99648928Y-145867380D01*
X99363214Y-145867380D01*
X99267976Y-145819761D01*
X99220357Y-145772142D01*
X85447142Y-149867857D02*
X85494761Y-149915476D01*
X85542380Y-150058333D01*
X85542380Y-150153571D01*
X85494761Y-150296428D01*
X85399523Y-150391666D01*
X85304285Y-150439285D01*
X85113809Y-150486904D01*
X84970952Y-150486904D01*
X84780476Y-150439285D01*
X84685238Y-150391666D01*
X84590000Y-150296428D01*
X84542380Y-150153571D01*
X84542380Y-150058333D01*
X84590000Y-149915476D01*
X84637619Y-149867857D01*
X85542380Y-148915476D02*
X85542380Y-149486904D01*
X85542380Y-149201190D02*
X84542380Y-149201190D01*
X84685238Y-149296428D01*
X84780476Y-149391666D01*
X84828095Y-149486904D01*
X84637619Y-148534523D02*
X84590000Y-148486904D01*
X84542380Y-148391666D01*
X84542380Y-148153571D01*
X84590000Y-148058333D01*
X84637619Y-148010714D01*
X84732857Y-147963095D01*
X84828095Y-147963095D01*
X84970952Y-148010714D01*
X85542380Y-148582142D01*
X85542380Y-147963095D01*
X90527142Y-149867857D02*
X90574761Y-149915476D01*
X90622380Y-150058333D01*
X90622380Y-150153571D01*
X90574761Y-150296428D01*
X90479523Y-150391666D01*
X90384285Y-150439285D01*
X90193809Y-150486904D01*
X90050952Y-150486904D01*
X89860476Y-150439285D01*
X89765238Y-150391666D01*
X89670000Y-150296428D01*
X89622380Y-150153571D01*
X89622380Y-150058333D01*
X89670000Y-149915476D01*
X89717619Y-149867857D01*
X90622380Y-148915476D02*
X90622380Y-149486904D01*
X90622380Y-149201190D02*
X89622380Y-149201190D01*
X89765238Y-149296428D01*
X89860476Y-149391666D01*
X89908095Y-149486904D01*
X90622380Y-147963095D02*
X90622380Y-148534523D01*
X90622380Y-148248809D02*
X89622380Y-148248809D01*
X89765238Y-148344047D01*
X89860476Y-148439285D01*
X89908095Y-148534523D01*
X88257142Y-166727142D02*
X88209523Y-166774761D01*
X88066666Y-166822380D01*
X87971428Y-166822380D01*
X87828571Y-166774761D01*
X87733333Y-166679523D01*
X87685714Y-166584285D01*
X87638095Y-166393809D01*
X87638095Y-166250952D01*
X87685714Y-166060476D01*
X87733333Y-165965238D01*
X87828571Y-165870000D01*
X87971428Y-165822380D01*
X88066666Y-165822380D01*
X88209523Y-165870000D01*
X88257142Y-165917619D01*
X89209523Y-166822380D02*
X88638095Y-166822380D01*
X88923809Y-166822380D02*
X88923809Y-165822380D01*
X88828571Y-165965238D01*
X88733333Y-166060476D01*
X88638095Y-166108095D01*
X89828571Y-165822380D02*
X89923809Y-165822380D01*
X90019047Y-165870000D01*
X90066666Y-165917619D01*
X90114285Y-166012857D01*
X90161904Y-166203333D01*
X90161904Y-166441428D01*
X90114285Y-166631904D01*
X90066666Y-166727142D01*
X90019047Y-166774761D01*
X89923809Y-166822380D01*
X89828571Y-166822380D01*
X89733333Y-166774761D01*
X89685714Y-166727142D01*
X89638095Y-166631904D01*
X89590476Y-166441428D01*
X89590476Y-166203333D01*
X89638095Y-166012857D01*
X89685714Y-165917619D01*
X89733333Y-165870000D01*
X89828571Y-165822380D01*
X88098333Y-159107142D02*
X88050714Y-159154761D01*
X87907857Y-159202380D01*
X87812619Y-159202380D01*
X87669761Y-159154761D01*
X87574523Y-159059523D01*
X87526904Y-158964285D01*
X87479285Y-158773809D01*
X87479285Y-158630952D01*
X87526904Y-158440476D01*
X87574523Y-158345238D01*
X87669761Y-158250000D01*
X87812619Y-158202380D01*
X87907857Y-158202380D01*
X88050714Y-158250000D01*
X88098333Y-158297619D01*
X88574523Y-159202380D02*
X88765000Y-159202380D01*
X88860238Y-159154761D01*
X88907857Y-159107142D01*
X89003095Y-158964285D01*
X89050714Y-158773809D01*
X89050714Y-158392857D01*
X89003095Y-158297619D01*
X88955476Y-158250000D01*
X88860238Y-158202380D01*
X88669761Y-158202380D01*
X88574523Y-158250000D01*
X88526904Y-158297619D01*
X88479285Y-158392857D01*
X88479285Y-158630952D01*
X88526904Y-158726190D01*
X88574523Y-158773809D01*
X88669761Y-158821428D01*
X88860238Y-158821428D01*
X88955476Y-158773809D01*
X89003095Y-158726190D01*
X89050714Y-158630952D01*
X96353333Y-181967142D02*
X96305714Y-182014761D01*
X96162857Y-182062380D01*
X96067619Y-182062380D01*
X95924761Y-182014761D01*
X95829523Y-181919523D01*
X95781904Y-181824285D01*
X95734285Y-181633809D01*
X95734285Y-181490952D01*
X95781904Y-181300476D01*
X95829523Y-181205238D01*
X95924761Y-181110000D01*
X96067619Y-181062380D01*
X96162857Y-181062380D01*
X96305714Y-181110000D01*
X96353333Y-181157619D01*
X96924761Y-181490952D02*
X96829523Y-181443333D01*
X96781904Y-181395714D01*
X96734285Y-181300476D01*
X96734285Y-181252857D01*
X96781904Y-181157619D01*
X96829523Y-181110000D01*
X96924761Y-181062380D01*
X97115238Y-181062380D01*
X97210476Y-181110000D01*
X97258095Y-181157619D01*
X97305714Y-181252857D01*
X97305714Y-181300476D01*
X97258095Y-181395714D01*
X97210476Y-181443333D01*
X97115238Y-181490952D01*
X96924761Y-181490952D01*
X96829523Y-181538571D01*
X96781904Y-181586190D01*
X96734285Y-181681428D01*
X96734285Y-181871904D01*
X96781904Y-181967142D01*
X96829523Y-182014761D01*
X96924761Y-182062380D01*
X97115238Y-182062380D01*
X97210476Y-182014761D01*
X97258095Y-181967142D01*
X97305714Y-181871904D01*
X97305714Y-181681428D01*
X97258095Y-181586190D01*
X97210476Y-181538571D01*
X97115238Y-181490952D01*
X115403333Y-162917142D02*
X115355714Y-162964761D01*
X115212857Y-163012380D01*
X115117619Y-163012380D01*
X114974761Y-162964761D01*
X114879523Y-162869523D01*
X114831904Y-162774285D01*
X114784285Y-162583809D01*
X114784285Y-162440952D01*
X114831904Y-162250476D01*
X114879523Y-162155238D01*
X114974761Y-162060000D01*
X115117619Y-162012380D01*
X115212857Y-162012380D01*
X115355714Y-162060000D01*
X115403333Y-162107619D01*
X115736666Y-162012380D02*
X116403333Y-162012380D01*
X115974761Y-163012380D01*
X112228333Y-162917142D02*
X112180714Y-162964761D01*
X112037857Y-163012380D01*
X111942619Y-163012380D01*
X111799761Y-162964761D01*
X111704523Y-162869523D01*
X111656904Y-162774285D01*
X111609285Y-162583809D01*
X111609285Y-162440952D01*
X111656904Y-162250476D01*
X111704523Y-162155238D01*
X111799761Y-162060000D01*
X111942619Y-162012380D01*
X112037857Y-162012380D01*
X112180714Y-162060000D01*
X112228333Y-162107619D01*
X113085476Y-162012380D02*
X112895000Y-162012380D01*
X112799761Y-162060000D01*
X112752142Y-162107619D01*
X112656904Y-162250476D01*
X112609285Y-162440952D01*
X112609285Y-162821904D01*
X112656904Y-162917142D01*
X112704523Y-162964761D01*
X112799761Y-163012380D01*
X112990238Y-163012380D01*
X113085476Y-162964761D01*
X113133095Y-162917142D01*
X113180714Y-162821904D01*
X113180714Y-162583809D01*
X113133095Y-162488571D01*
X113085476Y-162440952D01*
X112990238Y-162393333D01*
X112799761Y-162393333D01*
X112704523Y-162440952D01*
X112656904Y-162488571D01*
X112609285Y-162583809D01*
X88098333Y-181332142D02*
X88050714Y-181379761D01*
X87907857Y-181427380D01*
X87812619Y-181427380D01*
X87669761Y-181379761D01*
X87574523Y-181284523D01*
X87526904Y-181189285D01*
X87479285Y-180998809D01*
X87479285Y-180855952D01*
X87526904Y-180665476D01*
X87574523Y-180570238D01*
X87669761Y-180475000D01*
X87812619Y-180427380D01*
X87907857Y-180427380D01*
X88050714Y-180475000D01*
X88098333Y-180522619D01*
X89003095Y-180427380D02*
X88526904Y-180427380D01*
X88479285Y-180903571D01*
X88526904Y-180855952D01*
X88622142Y-180808333D01*
X88860238Y-180808333D01*
X88955476Y-180855952D01*
X89003095Y-180903571D01*
X89050714Y-180998809D01*
X89050714Y-181236904D01*
X89003095Y-181332142D01*
X88955476Y-181379761D01*
X88860238Y-181427380D01*
X88622142Y-181427380D01*
X88526904Y-181379761D01*
X88479285Y-181332142D01*
X88098333Y-173712142D02*
X88050714Y-173759761D01*
X87907857Y-173807380D01*
X87812619Y-173807380D01*
X87669761Y-173759761D01*
X87574523Y-173664523D01*
X87526904Y-173569285D01*
X87479285Y-173378809D01*
X87479285Y-173235952D01*
X87526904Y-173045476D01*
X87574523Y-172950238D01*
X87669761Y-172855000D01*
X87812619Y-172807380D01*
X87907857Y-172807380D01*
X88050714Y-172855000D01*
X88098333Y-172902619D01*
X88955476Y-173140714D02*
X88955476Y-173807380D01*
X88717380Y-172759761D02*
X88479285Y-173474047D01*
X89098333Y-173474047D01*
X111593333Y-124182142D02*
X111545714Y-124229761D01*
X111402857Y-124277380D01*
X111307619Y-124277380D01*
X111164761Y-124229761D01*
X111069523Y-124134523D01*
X111021904Y-124039285D01*
X110974285Y-123848809D01*
X110974285Y-123705952D01*
X111021904Y-123515476D01*
X111069523Y-123420238D01*
X111164761Y-123325000D01*
X111307619Y-123277380D01*
X111402857Y-123277380D01*
X111545714Y-123325000D01*
X111593333Y-123372619D01*
X111926666Y-123277380D02*
X112545714Y-123277380D01*
X112212380Y-123658333D01*
X112355238Y-123658333D01*
X112450476Y-123705952D01*
X112498095Y-123753571D01*
X112545714Y-123848809D01*
X112545714Y-124086904D01*
X112498095Y-124182142D01*
X112450476Y-124229761D01*
X112355238Y-124277380D01*
X112069523Y-124277380D01*
X111974285Y-124229761D01*
X111926666Y-124182142D01*
X96988333Y-119102142D02*
X96940714Y-119149761D01*
X96797857Y-119197380D01*
X96702619Y-119197380D01*
X96559761Y-119149761D01*
X96464523Y-119054523D01*
X96416904Y-118959285D01*
X96369285Y-118768809D01*
X96369285Y-118625952D01*
X96416904Y-118435476D01*
X96464523Y-118340238D01*
X96559761Y-118245000D01*
X96702619Y-118197380D01*
X96797857Y-118197380D01*
X96940714Y-118245000D01*
X96988333Y-118292619D01*
X97369285Y-118292619D02*
X97416904Y-118245000D01*
X97512142Y-118197380D01*
X97750238Y-118197380D01*
X97845476Y-118245000D01*
X97893095Y-118292619D01*
X97940714Y-118387857D01*
X97940714Y-118483095D01*
X97893095Y-118625952D01*
X97321666Y-119197380D01*
X97940714Y-119197380D01*
X108942142Y-122086666D02*
X108989761Y-122134285D01*
X109037380Y-122277142D01*
X109037380Y-122372380D01*
X108989761Y-122515238D01*
X108894523Y-122610476D01*
X108799285Y-122658095D01*
X108608809Y-122705714D01*
X108465952Y-122705714D01*
X108275476Y-122658095D01*
X108180238Y-122610476D01*
X108085000Y-122515238D01*
X108037380Y-122372380D01*
X108037380Y-122277142D01*
X108085000Y-122134285D01*
X108132619Y-122086666D01*
X109037380Y-121134285D02*
X109037380Y-121705714D01*
X109037380Y-121420000D02*
X108037380Y-121420000D01*
X108180238Y-121515238D01*
X108275476Y-121610476D01*
X108323095Y-121705714D01*
%LPC*%
G36*
G01*
X103670000Y-123280000D02*
X105880000Y-123280000D01*
G75*
G02*
X106150000Y-123550000I0J-270000D01*
G01*
X106150000Y-124360000D01*
G75*
G02*
X105880000Y-124630000I-270000J0D01*
G01*
X103670000Y-124630000D01*
G75*
G02*
X103400000Y-124360000I0J270000D01*
G01*
X103400000Y-123550000D01*
G75*
G02*
X103670000Y-123280000I270000J0D01*
G01*
G37*
G36*
G01*
X103670000Y-120480000D02*
X105880000Y-120480000D01*
G75*
G02*
X106150000Y-120750000I0J-270000D01*
G01*
X106150000Y-121560000D01*
G75*
G02*
X105880000Y-121830000I-270000J0D01*
G01*
X103670000Y-121830000D01*
G75*
G02*
X103400000Y-121560000I0J270000D01*
G01*
X103400000Y-120750000D01*
G75*
G02*
X103670000Y-120480000I270000J0D01*
G01*
G37*
D15*
X70102000Y-157099000D03*
X70102000Y-143129000D03*
D16*
X79502000Y-153924000D03*
X79502000Y-151384000D03*
X79502000Y-148844000D03*
D17*
X79502000Y-146304000D03*
D15*
X70102000Y-179959000D03*
X70102000Y-165989000D03*
D16*
X79502000Y-176784000D03*
X79502000Y-174244000D03*
X79502000Y-171704000D03*
D17*
X79502000Y-169164000D03*
D15*
X69975000Y-130810000D03*
X69975000Y-116840000D03*
D16*
X79375000Y-127635000D03*
X79375000Y-125095000D03*
X79375000Y-122555000D03*
D17*
X79375000Y-120015000D03*
D18*
X116840000Y-111125000D03*
X118110000Y-181610000D03*
X67945000Y-111125000D03*
G36*
G01*
X106398750Y-148255000D02*
X106961250Y-148255000D01*
G75*
G02*
X107205000Y-148498750I0J-243750D01*
G01*
X107205000Y-148986250D01*
G75*
G02*
X106961250Y-149230000I-243750J0D01*
G01*
X106398750Y-149230000D01*
G75*
G02*
X106155000Y-148986250I0J243750D01*
G01*
X106155000Y-148498750D01*
G75*
G02*
X106398750Y-148255000I243750J0D01*
G01*
G37*
G36*
G01*
X106398750Y-146680000D02*
X106961250Y-146680000D01*
G75*
G02*
X107205000Y-146923750I0J-243750D01*
G01*
X107205000Y-147411250D01*
G75*
G02*
X106961250Y-147655000I-243750J0D01*
G01*
X106398750Y-147655000D01*
G75*
G02*
X106155000Y-147411250I0J243750D01*
G01*
X106155000Y-146923750D01*
G75*
G02*
X106398750Y-146680000I243750J0D01*
G01*
G37*
G36*
G01*
X101770000Y-149010000D02*
X101770000Y-148760000D01*
G75*
G02*
X101895000Y-148635000I125000J0D01*
G01*
X103220000Y-148635000D01*
G75*
G02*
X103345000Y-148760000I0J-125000D01*
G01*
X103345000Y-149010000D01*
G75*
G02*
X103220000Y-149135000I-125000J0D01*
G01*
X101895000Y-149135000D01*
G75*
G02*
X101770000Y-149010000I0J125000D01*
G01*
G37*
G36*
G01*
X101770000Y-149660000D02*
X101770000Y-149410000D01*
G75*
G02*
X101895000Y-149285000I125000J0D01*
G01*
X103220000Y-149285000D01*
G75*
G02*
X103345000Y-149410000I0J-125000D01*
G01*
X103345000Y-149660000D01*
G75*
G02*
X103220000Y-149785000I-125000J0D01*
G01*
X101895000Y-149785000D01*
G75*
G02*
X101770000Y-149660000I0J125000D01*
G01*
G37*
G36*
G01*
X101770000Y-150310000D02*
X101770000Y-150060000D01*
G75*
G02*
X101895000Y-149935000I125000J0D01*
G01*
X103220000Y-149935000D01*
G75*
G02*
X103345000Y-150060000I0J-125000D01*
G01*
X103345000Y-150310000D01*
G75*
G02*
X103220000Y-150435000I-125000J0D01*
G01*
X101895000Y-150435000D01*
G75*
G02*
X101770000Y-150310000I0J125000D01*
G01*
G37*
G36*
G01*
X101770000Y-150960000D02*
X101770000Y-150710000D01*
G75*
G02*
X101895000Y-150585000I125000J0D01*
G01*
X103220000Y-150585000D01*
G75*
G02*
X103345000Y-150710000I0J-125000D01*
G01*
X103345000Y-150960000D01*
G75*
G02*
X103220000Y-151085000I-125000J0D01*
G01*
X101895000Y-151085000D01*
G75*
G02*
X101770000Y-150960000I0J125000D01*
G01*
G37*
G36*
G01*
X96045000Y-150960000D02*
X96045000Y-150710000D01*
G75*
G02*
X96170000Y-150585000I125000J0D01*
G01*
X97495000Y-150585000D01*
G75*
G02*
X97620000Y-150710000I0J-125000D01*
G01*
X97620000Y-150960000D01*
G75*
G02*
X97495000Y-151085000I-125000J0D01*
G01*
X96170000Y-151085000D01*
G75*
G02*
X96045000Y-150960000I0J125000D01*
G01*
G37*
G36*
G01*
X96045000Y-150310000D02*
X96045000Y-150060000D01*
G75*
G02*
X96170000Y-149935000I125000J0D01*
G01*
X97495000Y-149935000D01*
G75*
G02*
X97620000Y-150060000I0J-125000D01*
G01*
X97620000Y-150310000D01*
G75*
G02*
X97495000Y-150435000I-125000J0D01*
G01*
X96170000Y-150435000D01*
G75*
G02*
X96045000Y-150310000I0J125000D01*
G01*
G37*
G36*
G01*
X96045000Y-149660000D02*
X96045000Y-149410000D01*
G75*
G02*
X96170000Y-149285000I125000J0D01*
G01*
X97495000Y-149285000D01*
G75*
G02*
X97620000Y-149410000I0J-125000D01*
G01*
X97620000Y-149660000D01*
G75*
G02*
X97495000Y-149785000I-125000J0D01*
G01*
X96170000Y-149785000D01*
G75*
G02*
X96045000Y-149660000I0J125000D01*
G01*
G37*
G36*
G01*
X96045000Y-149010000D02*
X96045000Y-148760000D01*
G75*
G02*
X96170000Y-148635000I125000J0D01*
G01*
X97495000Y-148635000D01*
G75*
G02*
X97620000Y-148760000I0J-125000D01*
G01*
X97620000Y-149010000D01*
G75*
G02*
X97495000Y-149135000I-125000J0D01*
G01*
X96170000Y-149135000D01*
G75*
G02*
X96045000Y-149010000I0J125000D01*
G01*
G37*
D19*
X107675000Y-163460000D03*
X101875000Y-163460000D03*
X107675000Y-164110000D03*
X101875000Y-164110000D03*
X107675000Y-164760000D03*
X101875000Y-164760000D03*
X107675000Y-165410000D03*
X101875000Y-165410000D03*
X107675000Y-166060000D03*
X101875000Y-166060000D03*
X107675000Y-166710000D03*
X101875000Y-166710000D03*
X107675000Y-167360000D03*
X101875000Y-167360000D03*
X107675000Y-168010000D03*
X101875000Y-168010000D03*
D20*
X103675000Y-117475000D03*
X103675000Y-118425000D03*
X103675000Y-116525000D03*
X105875000Y-116525000D03*
X105875000Y-117475000D03*
X105875000Y-118425000D03*
G36*
G01*
X111478750Y-148255000D02*
X112041250Y-148255000D01*
G75*
G02*
X112285000Y-148498750I0J-243750D01*
G01*
X112285000Y-148986250D01*
G75*
G02*
X112041250Y-149230000I-243750J0D01*
G01*
X111478750Y-149230000D01*
G75*
G02*
X111235000Y-148986250I0J243750D01*
G01*
X111235000Y-148498750D01*
G75*
G02*
X111478750Y-148255000I243750J0D01*
G01*
G37*
G36*
G01*
X111478750Y-146680000D02*
X112041250Y-146680000D01*
G75*
G02*
X112285000Y-146923750I0J-243750D01*
G01*
X112285000Y-147411250D01*
G75*
G02*
X112041250Y-147655000I-243750J0D01*
G01*
X111478750Y-147655000D01*
G75*
G02*
X111235000Y-147411250I0J243750D01*
G01*
X111235000Y-146923750D01*
G75*
G02*
X111478750Y-146680000I243750J0D01*
G01*
G37*
G36*
G01*
X108938750Y-156510000D02*
X109501250Y-156510000D01*
G75*
G02*
X109745000Y-156753750I0J-243750D01*
G01*
X109745000Y-157241250D01*
G75*
G02*
X109501250Y-157485000I-243750J0D01*
G01*
X108938750Y-157485000D01*
G75*
G02*
X108695000Y-157241250I0J243750D01*
G01*
X108695000Y-156753750D01*
G75*
G02*
X108938750Y-156510000I243750J0D01*
G01*
G37*
G36*
G01*
X108938750Y-154935000D02*
X109501250Y-154935000D01*
G75*
G02*
X109745000Y-155178750I0J-243750D01*
G01*
X109745000Y-155666250D01*
G75*
G02*
X109501250Y-155910000I-243750J0D01*
G01*
X108938750Y-155910000D01*
G75*
G02*
X108695000Y-155666250I0J243750D01*
G01*
X108695000Y-155178750D01*
G75*
G02*
X108938750Y-154935000I243750J0D01*
G01*
G37*
G36*
G01*
X106961250Y-155910000D02*
X106398750Y-155910000D01*
G75*
G02*
X106155000Y-155666250I0J243750D01*
G01*
X106155000Y-155178750D01*
G75*
G02*
X106398750Y-154935000I243750J0D01*
G01*
X106961250Y-154935000D01*
G75*
G02*
X107205000Y-155178750I0J-243750D01*
G01*
X107205000Y-155666250D01*
G75*
G02*
X106961250Y-155910000I-243750J0D01*
G01*
G37*
G36*
G01*
X106961250Y-157485000D02*
X106398750Y-157485000D01*
G75*
G02*
X106155000Y-157241250I0J243750D01*
G01*
X106155000Y-156753750D01*
G75*
G02*
X106398750Y-156510000I243750J0D01*
G01*
X106961250Y-156510000D01*
G75*
G02*
X107205000Y-156753750I0J-243750D01*
G01*
X107205000Y-157241250D01*
G75*
G02*
X106961250Y-157485000I-243750J0D01*
G01*
G37*
G36*
G01*
X92428750Y-144597500D02*
X92991250Y-144597500D01*
G75*
G02*
X93235000Y-144841250I0J-243750D01*
G01*
X93235000Y-145328750D01*
G75*
G02*
X92991250Y-145572500I-243750J0D01*
G01*
X92428750Y-145572500D01*
G75*
G02*
X92185000Y-145328750I0J243750D01*
G01*
X92185000Y-144841250D01*
G75*
G02*
X92428750Y-144597500I243750J0D01*
G01*
G37*
G36*
G01*
X92428750Y-143022500D02*
X92991250Y-143022500D01*
G75*
G02*
X93235000Y-143266250I0J-243750D01*
G01*
X93235000Y-143753750D01*
G75*
G02*
X92991250Y-143997500I-243750J0D01*
G01*
X92428750Y-143997500D01*
G75*
G02*
X92185000Y-143753750I0J243750D01*
G01*
X92185000Y-143266250D01*
G75*
G02*
X92428750Y-143022500I243750J0D01*
G01*
G37*
G36*
G01*
X87348750Y-144597500D02*
X87911250Y-144597500D01*
G75*
G02*
X88155000Y-144841250I0J-243750D01*
G01*
X88155000Y-145328750D01*
G75*
G02*
X87911250Y-145572500I-243750J0D01*
G01*
X87348750Y-145572500D01*
G75*
G02*
X87105000Y-145328750I0J243750D01*
G01*
X87105000Y-144841250D01*
G75*
G02*
X87348750Y-144597500I243750J0D01*
G01*
G37*
G36*
G01*
X87348750Y-143022500D02*
X87911250Y-143022500D01*
G75*
G02*
X88155000Y-143266250I0J-243750D01*
G01*
X88155000Y-143753750D01*
G75*
G02*
X87911250Y-143997500I-243750J0D01*
G01*
X87348750Y-143997500D01*
G75*
G02*
X87105000Y-143753750I0J243750D01*
G01*
X87105000Y-143266250D01*
G75*
G02*
X87348750Y-143022500I243750J0D01*
G01*
G37*
G36*
G01*
X87348750Y-152700000D02*
X87911250Y-152700000D01*
G75*
G02*
X88155000Y-152943750I0J-243750D01*
G01*
X88155000Y-153431250D01*
G75*
G02*
X87911250Y-153675000I-243750J0D01*
G01*
X87348750Y-153675000D01*
G75*
G02*
X87105000Y-153431250I0J243750D01*
G01*
X87105000Y-152943750D01*
G75*
G02*
X87348750Y-152700000I243750J0D01*
G01*
G37*
G36*
G01*
X87348750Y-151125000D02*
X87911250Y-151125000D01*
G75*
G02*
X88155000Y-151368750I0J-243750D01*
G01*
X88155000Y-151856250D01*
G75*
G02*
X87911250Y-152100000I-243750J0D01*
G01*
X87348750Y-152100000D01*
G75*
G02*
X87105000Y-151856250I0J243750D01*
G01*
X87105000Y-151368750D01*
G75*
G02*
X87348750Y-151125000I243750J0D01*
G01*
G37*
G36*
G01*
X92428750Y-152700000D02*
X92991250Y-152700000D01*
G75*
G02*
X93235000Y-152943750I0J-243750D01*
G01*
X93235000Y-153431250D01*
G75*
G02*
X92991250Y-153675000I-243750J0D01*
G01*
X92428750Y-153675000D01*
G75*
G02*
X92185000Y-153431250I0J243750D01*
G01*
X92185000Y-152943750D01*
G75*
G02*
X92428750Y-152700000I243750J0D01*
G01*
G37*
G36*
G01*
X92428750Y-151125000D02*
X92991250Y-151125000D01*
G75*
G02*
X93235000Y-151368750I0J-243750D01*
G01*
X93235000Y-151856250D01*
G75*
G02*
X92991250Y-152100000I-243750J0D01*
G01*
X92428750Y-152100000D01*
G75*
G02*
X92185000Y-151856250I0J243750D01*
G01*
X92185000Y-151368750D01*
G75*
G02*
X92428750Y-151125000I243750J0D01*
G01*
G37*
G36*
G01*
X86025000Y-161571250D02*
X86025000Y-161008750D01*
G75*
G02*
X86268750Y-160765000I243750J0D01*
G01*
X86756250Y-160765000D01*
G75*
G02*
X87000000Y-161008750I0J-243750D01*
G01*
X87000000Y-161571250D01*
G75*
G02*
X86756250Y-161815000I-243750J0D01*
G01*
X86268750Y-161815000D01*
G75*
G02*
X86025000Y-161571250I0J243750D01*
G01*
G37*
G36*
G01*
X84450000Y-161571250D02*
X84450000Y-161008750D01*
G75*
G02*
X84693750Y-160765000I243750J0D01*
G01*
X85181250Y-160765000D01*
G75*
G02*
X85425000Y-161008750I0J-243750D01*
G01*
X85425000Y-161571250D01*
G75*
G02*
X85181250Y-161815000I-243750J0D01*
G01*
X84693750Y-161815000D01*
G75*
G02*
X84450000Y-161571250I0J243750D01*
G01*
G37*
G36*
G01*
X86025000Y-164111250D02*
X86025000Y-163548750D01*
G75*
G02*
X86268750Y-163305000I243750J0D01*
G01*
X86756250Y-163305000D01*
G75*
G02*
X87000000Y-163548750I0J-243750D01*
G01*
X87000000Y-164111250D01*
G75*
G02*
X86756250Y-164355000I-243750J0D01*
G01*
X86268750Y-164355000D01*
G75*
G02*
X86025000Y-164111250I0J243750D01*
G01*
G37*
G36*
G01*
X84450000Y-164111250D02*
X84450000Y-163548750D01*
G75*
G02*
X84693750Y-163305000I243750J0D01*
G01*
X85181250Y-163305000D01*
G75*
G02*
X85425000Y-163548750I0J-243750D01*
G01*
X85425000Y-164111250D01*
G75*
G02*
X85181250Y-164355000I-243750J0D01*
G01*
X84693750Y-164355000D01*
G75*
G02*
X84450000Y-164111250I0J243750D01*
G01*
G37*
G36*
G01*
X112113750Y-169210000D02*
X112676250Y-169210000D01*
G75*
G02*
X112920000Y-169453750I0J-243750D01*
G01*
X112920000Y-169941250D01*
G75*
G02*
X112676250Y-170185000I-243750J0D01*
G01*
X112113750Y-170185000D01*
G75*
G02*
X111870000Y-169941250I0J243750D01*
G01*
X111870000Y-169453750D01*
G75*
G02*
X112113750Y-169210000I243750J0D01*
G01*
G37*
G36*
G01*
X112113750Y-167635000D02*
X112676250Y-167635000D01*
G75*
G02*
X112920000Y-167878750I0J-243750D01*
G01*
X112920000Y-168366250D01*
G75*
G02*
X112676250Y-168610000I-243750J0D01*
G01*
X112113750Y-168610000D01*
G75*
G02*
X111870000Y-168366250I0J243750D01*
G01*
X111870000Y-167878750D01*
G75*
G02*
X112113750Y-167635000I243750J0D01*
G01*
G37*
G36*
G01*
X98725000Y-169191250D02*
X98725000Y-168628750D01*
G75*
G02*
X98968750Y-168385000I243750J0D01*
G01*
X99456250Y-168385000D01*
G75*
G02*
X99700000Y-168628750I0J-243750D01*
G01*
X99700000Y-169191250D01*
G75*
G02*
X99456250Y-169435000I-243750J0D01*
G01*
X98968750Y-169435000D01*
G75*
G02*
X98725000Y-169191250I0J243750D01*
G01*
G37*
G36*
G01*
X97150000Y-169191250D02*
X97150000Y-168628750D01*
G75*
G02*
X97393750Y-168385000I243750J0D01*
G01*
X97881250Y-168385000D01*
G75*
G02*
X98125000Y-168628750I0J-243750D01*
G01*
X98125000Y-169191250D01*
G75*
G02*
X97881250Y-169435000I-243750J0D01*
G01*
X97393750Y-169435000D01*
G75*
G02*
X97150000Y-169191250I0J243750D01*
G01*
G37*
G36*
G01*
X101900000Y-173001250D02*
X101900000Y-172438750D01*
G75*
G02*
X102143750Y-172195000I243750J0D01*
G01*
X102631250Y-172195000D01*
G75*
G02*
X102875000Y-172438750I0J-243750D01*
G01*
X102875000Y-173001250D01*
G75*
G02*
X102631250Y-173245000I-243750J0D01*
G01*
X102143750Y-173245000D01*
G75*
G02*
X101900000Y-173001250I0J243750D01*
G01*
G37*
G36*
G01*
X100325000Y-173001250D02*
X100325000Y-172438750D01*
G75*
G02*
X100568750Y-172195000I243750J0D01*
G01*
X101056250Y-172195000D01*
G75*
G02*
X101300000Y-172438750I0J-243750D01*
G01*
X101300000Y-173001250D01*
G75*
G02*
X101056250Y-173245000I-243750J0D01*
G01*
X100568750Y-173245000D01*
G75*
G02*
X100325000Y-173001250I0J243750D01*
G01*
G37*
G36*
G01*
X86025000Y-176176250D02*
X86025000Y-175613750D01*
G75*
G02*
X86268750Y-175370000I243750J0D01*
G01*
X86756250Y-175370000D01*
G75*
G02*
X87000000Y-175613750I0J-243750D01*
G01*
X87000000Y-176176250D01*
G75*
G02*
X86756250Y-176420000I-243750J0D01*
G01*
X86268750Y-176420000D01*
G75*
G02*
X86025000Y-176176250I0J243750D01*
G01*
G37*
G36*
G01*
X84450000Y-176176250D02*
X84450000Y-175613750D01*
G75*
G02*
X84693750Y-175370000I243750J0D01*
G01*
X85181250Y-175370000D01*
G75*
G02*
X85425000Y-175613750I0J-243750D01*
G01*
X85425000Y-176176250D01*
G75*
G02*
X85181250Y-176420000I-243750J0D01*
G01*
X84693750Y-176420000D01*
G75*
G02*
X84450000Y-176176250I0J243750D01*
G01*
G37*
G36*
G01*
X86025000Y-178716250D02*
X86025000Y-178153750D01*
G75*
G02*
X86268750Y-177910000I243750J0D01*
G01*
X86756250Y-177910000D01*
G75*
G02*
X87000000Y-178153750I0J-243750D01*
G01*
X87000000Y-178716250D01*
G75*
G02*
X86756250Y-178960000I-243750J0D01*
G01*
X86268750Y-178960000D01*
G75*
G02*
X86025000Y-178716250I0J243750D01*
G01*
G37*
G36*
G01*
X84450000Y-178716250D02*
X84450000Y-178153750D01*
G75*
G02*
X84693750Y-177910000I243750J0D01*
G01*
X85181250Y-177910000D01*
G75*
G02*
X85425000Y-178153750I0J-243750D01*
G01*
X85425000Y-178716250D01*
G75*
G02*
X85181250Y-178960000I-243750J0D01*
G01*
X84693750Y-178960000D01*
G75*
G02*
X84450000Y-178716250I0J243750D01*
G01*
G37*
G36*
G01*
X100630000Y-116486250D02*
X100630000Y-115923750D01*
G75*
G02*
X100873750Y-115680000I243750J0D01*
G01*
X101361250Y-115680000D01*
G75*
G02*
X101605000Y-115923750I0J-243750D01*
G01*
X101605000Y-116486250D01*
G75*
G02*
X101361250Y-116730000I-243750J0D01*
G01*
X100873750Y-116730000D01*
G75*
G02*
X100630000Y-116486250I0J243750D01*
G01*
G37*
G36*
G01*
X99055000Y-116486250D02*
X99055000Y-115923750D01*
G75*
G02*
X99298750Y-115680000I243750J0D01*
G01*
X99786250Y-115680000D01*
G75*
G02*
X100030000Y-115923750I0J-243750D01*
G01*
X100030000Y-116486250D01*
G75*
G02*
X99786250Y-116730000I-243750J0D01*
G01*
X99298750Y-116730000D01*
G75*
G02*
X99055000Y-116486250I0J243750D01*
G01*
G37*
D21*
X102870000Y-160020000D03*
D12*
G36*
X104176111Y-159220602D02*
G01*
X104194534Y-159220602D01*
X104199435Y-159220843D01*
X104248266Y-159225653D01*
X104253119Y-159226373D01*
X104301244Y-159235945D01*
X104306005Y-159237137D01*
X104352960Y-159251381D01*
X104357579Y-159253034D01*
X104402912Y-159271811D01*
X104407349Y-159273909D01*
X104450622Y-159297040D01*
X104454829Y-159299562D01*
X104495628Y-159326822D01*
X104499570Y-159329746D01*
X104537499Y-159360874D01*
X104541134Y-159364169D01*
X104575831Y-159398866D01*
X104579126Y-159402501D01*
X104610254Y-159440430D01*
X104613178Y-159444372D01*
X104640438Y-159485171D01*
X104642960Y-159489378D01*
X104666091Y-159532651D01*
X104668189Y-159537088D01*
X104686966Y-159582421D01*
X104688619Y-159587040D01*
X104702863Y-159633995D01*
X104704055Y-159638756D01*
X104713627Y-159686881D01*
X104714347Y-159691734D01*
X104719157Y-159740565D01*
X104719398Y-159745466D01*
X104719398Y-159763889D01*
X104720000Y-159770000D01*
X104720000Y-160270000D01*
X104719398Y-160276111D01*
X104719398Y-160294534D01*
X104719157Y-160299435D01*
X104714347Y-160348266D01*
X104713627Y-160353119D01*
X104704055Y-160401244D01*
X104702863Y-160406005D01*
X104688619Y-160452960D01*
X104686966Y-160457579D01*
X104668189Y-160502912D01*
X104666091Y-160507349D01*
X104642960Y-160550622D01*
X104640438Y-160554829D01*
X104613178Y-160595628D01*
X104610254Y-160599570D01*
X104579126Y-160637499D01*
X104575831Y-160641134D01*
X104541134Y-160675831D01*
X104537499Y-160679126D01*
X104499570Y-160710254D01*
X104495628Y-160713178D01*
X104454829Y-160740438D01*
X104450622Y-160742960D01*
X104407349Y-160766091D01*
X104402912Y-160768189D01*
X104357579Y-160786966D01*
X104352960Y-160788619D01*
X104306005Y-160802863D01*
X104301244Y-160804055D01*
X104253119Y-160813627D01*
X104248266Y-160814347D01*
X104199435Y-160819157D01*
X104194534Y-160819398D01*
X104176111Y-160819398D01*
X104170000Y-160820000D01*
X103620000Y-160820000D01*
X103610245Y-160819039D01*
X103600866Y-160816194D01*
X103592221Y-160811573D01*
X103584645Y-160805355D01*
X103578427Y-160797779D01*
X103573806Y-160789134D01*
X103570961Y-160779755D01*
X103570000Y-160770000D01*
X103570000Y-159270000D01*
X103570961Y-159260245D01*
X103573806Y-159250866D01*
X103578427Y-159242221D01*
X103584645Y-159234645D01*
X103592221Y-159228427D01*
X103600866Y-159223806D01*
X103610245Y-159220961D01*
X103620000Y-159220000D01*
X104170000Y-159220000D01*
X104176111Y-159220602D01*
G37*
G36*
X102129755Y-159220961D02*
G01*
X102139134Y-159223806D01*
X102147779Y-159228427D01*
X102155355Y-159234645D01*
X102161573Y-159242221D01*
X102166194Y-159250866D01*
X102169039Y-159260245D01*
X102170000Y-159270000D01*
X102170000Y-160770000D01*
X102169039Y-160779755D01*
X102166194Y-160789134D01*
X102161573Y-160797779D01*
X102155355Y-160805355D01*
X102147779Y-160811573D01*
X102139134Y-160816194D01*
X102129755Y-160819039D01*
X102120000Y-160820000D01*
X101570000Y-160820000D01*
X101563889Y-160819398D01*
X101545466Y-160819398D01*
X101540565Y-160819157D01*
X101491734Y-160814347D01*
X101486881Y-160813627D01*
X101438756Y-160804055D01*
X101433995Y-160802863D01*
X101387040Y-160788619D01*
X101382421Y-160786966D01*
X101337088Y-160768189D01*
X101332651Y-160766091D01*
X101289378Y-160742960D01*
X101285171Y-160740438D01*
X101244372Y-160713178D01*
X101240430Y-160710254D01*
X101202501Y-160679126D01*
X101198866Y-160675831D01*
X101164169Y-160641134D01*
X101160874Y-160637499D01*
X101129746Y-160599570D01*
X101126822Y-160595628D01*
X101099562Y-160554829D01*
X101097040Y-160550622D01*
X101073909Y-160507349D01*
X101071811Y-160502912D01*
X101053034Y-160457579D01*
X101051381Y-160452960D01*
X101037137Y-160406005D01*
X101035945Y-160401244D01*
X101026373Y-160353119D01*
X101025653Y-160348266D01*
X101020843Y-160299435D01*
X101020602Y-160294534D01*
X101020602Y-160276111D01*
X101020000Y-160270000D01*
X101020000Y-159770000D01*
X101020602Y-159763889D01*
X101020602Y-159745466D01*
X101020843Y-159740565D01*
X101025653Y-159691734D01*
X101026373Y-159686881D01*
X101035945Y-159638756D01*
X101037137Y-159633995D01*
X101051381Y-159587040D01*
X101053034Y-159582421D01*
X101071811Y-159537088D01*
X101073909Y-159532651D01*
X101097040Y-159489378D01*
X101099562Y-159485171D01*
X101126822Y-159444372D01*
X101129746Y-159440430D01*
X101160874Y-159402501D01*
X101164169Y-159398866D01*
X101198866Y-159364169D01*
X101202501Y-159360874D01*
X101240430Y-159329746D01*
X101244372Y-159326822D01*
X101285171Y-159299562D01*
X101289378Y-159297040D01*
X101332651Y-159273909D01*
X101337088Y-159271811D01*
X101382421Y-159253034D01*
X101387040Y-159251381D01*
X101433995Y-159237137D01*
X101438756Y-159235945D01*
X101486881Y-159226373D01*
X101491734Y-159225653D01*
X101540565Y-159220843D01*
X101545466Y-159220602D01*
X101563889Y-159220602D01*
X101570000Y-159220000D01*
X102120000Y-159220000D01*
X102129755Y-159220961D01*
G37*
D21*
X97155000Y-160020000D03*
D12*
G36*
X95848889Y-160819398D02*
G01*
X95830466Y-160819398D01*
X95825565Y-160819157D01*
X95776734Y-160814347D01*
X95771881Y-160813627D01*
X95723756Y-160804055D01*
X95718995Y-160802863D01*
X95672040Y-160788619D01*
X95667421Y-160786966D01*
X95622088Y-160768189D01*
X95617651Y-160766091D01*
X95574378Y-160742960D01*
X95570171Y-160740438D01*
X95529372Y-160713178D01*
X95525430Y-160710254D01*
X95487501Y-160679126D01*
X95483866Y-160675831D01*
X95449169Y-160641134D01*
X95445874Y-160637499D01*
X95414746Y-160599570D01*
X95411822Y-160595628D01*
X95384562Y-160554829D01*
X95382040Y-160550622D01*
X95358909Y-160507349D01*
X95356811Y-160502912D01*
X95338034Y-160457579D01*
X95336381Y-160452960D01*
X95322137Y-160406005D01*
X95320945Y-160401244D01*
X95311373Y-160353119D01*
X95310653Y-160348266D01*
X95305843Y-160299435D01*
X95305602Y-160294534D01*
X95305602Y-160276111D01*
X95305000Y-160270000D01*
X95305000Y-159770000D01*
X95305602Y-159763889D01*
X95305602Y-159745466D01*
X95305843Y-159740565D01*
X95310653Y-159691734D01*
X95311373Y-159686881D01*
X95320945Y-159638756D01*
X95322137Y-159633995D01*
X95336381Y-159587040D01*
X95338034Y-159582421D01*
X95356811Y-159537088D01*
X95358909Y-159532651D01*
X95382040Y-159489378D01*
X95384562Y-159485171D01*
X95411822Y-159444372D01*
X95414746Y-159440430D01*
X95445874Y-159402501D01*
X95449169Y-159398866D01*
X95483866Y-159364169D01*
X95487501Y-159360874D01*
X95525430Y-159329746D01*
X95529372Y-159326822D01*
X95570171Y-159299562D01*
X95574378Y-159297040D01*
X95617651Y-159273909D01*
X95622088Y-159271811D01*
X95667421Y-159253034D01*
X95672040Y-159251381D01*
X95718995Y-159237137D01*
X95723756Y-159235945D01*
X95771881Y-159226373D01*
X95776734Y-159225653D01*
X95825565Y-159220843D01*
X95830466Y-159220602D01*
X95848889Y-159220602D01*
X95855000Y-159220000D01*
X96405000Y-159220000D01*
X96414755Y-159220961D01*
X96424134Y-159223806D01*
X96432779Y-159228427D01*
X96440355Y-159234645D01*
X96446573Y-159242221D01*
X96451194Y-159250866D01*
X96454039Y-159260245D01*
X96455000Y-159270000D01*
X96455000Y-160770000D01*
X96454039Y-160779755D01*
X96451194Y-160789134D01*
X96446573Y-160797779D01*
X96440355Y-160805355D01*
X96432779Y-160811573D01*
X96424134Y-160816194D01*
X96414755Y-160819039D01*
X96405000Y-160820000D01*
X95855000Y-160820000D01*
X95848889Y-160819398D01*
G37*
G36*
X97895245Y-160819039D02*
G01*
X97885866Y-160816194D01*
X97877221Y-160811573D01*
X97869645Y-160805355D01*
X97863427Y-160797779D01*
X97858806Y-160789134D01*
X97855961Y-160779755D01*
X97855000Y-160770000D01*
X97855000Y-159270000D01*
X97855961Y-159260245D01*
X97858806Y-159250866D01*
X97863427Y-159242221D01*
X97869645Y-159234645D01*
X97877221Y-159228427D01*
X97885866Y-159223806D01*
X97895245Y-159220961D01*
X97905000Y-159220000D01*
X98455000Y-159220000D01*
X98461111Y-159220602D01*
X98479534Y-159220602D01*
X98484435Y-159220843D01*
X98533266Y-159225653D01*
X98538119Y-159226373D01*
X98586244Y-159235945D01*
X98591005Y-159237137D01*
X98637960Y-159251381D01*
X98642579Y-159253034D01*
X98687912Y-159271811D01*
X98692349Y-159273909D01*
X98735622Y-159297040D01*
X98739829Y-159299562D01*
X98780628Y-159326822D01*
X98784570Y-159329746D01*
X98822499Y-159360874D01*
X98826134Y-159364169D01*
X98860831Y-159398866D01*
X98864126Y-159402501D01*
X98895254Y-159440430D01*
X98898178Y-159444372D01*
X98925438Y-159485171D01*
X98927960Y-159489378D01*
X98951091Y-159532651D01*
X98953189Y-159537088D01*
X98971966Y-159582421D01*
X98973619Y-159587040D01*
X98987863Y-159633995D01*
X98989055Y-159638756D01*
X98998627Y-159686881D01*
X98999347Y-159691734D01*
X99004157Y-159740565D01*
X99004398Y-159745466D01*
X99004398Y-159763889D01*
X99005000Y-159770000D01*
X99005000Y-160270000D01*
X99004398Y-160276111D01*
X99004398Y-160294534D01*
X99004157Y-160299435D01*
X98999347Y-160348266D01*
X98998627Y-160353119D01*
X98989055Y-160401244D01*
X98987863Y-160406005D01*
X98973619Y-160452960D01*
X98971966Y-160457579D01*
X98953189Y-160502912D01*
X98951091Y-160507349D01*
X98927960Y-160550622D01*
X98925438Y-160554829D01*
X98898178Y-160595628D01*
X98895254Y-160599570D01*
X98864126Y-160637499D01*
X98860831Y-160641134D01*
X98826134Y-160675831D01*
X98822499Y-160679126D01*
X98784570Y-160710254D01*
X98780628Y-160713178D01*
X98739829Y-160740438D01*
X98735622Y-160742960D01*
X98692349Y-160766091D01*
X98687912Y-160768189D01*
X98642579Y-160786966D01*
X98637960Y-160788619D01*
X98591005Y-160802863D01*
X98586244Y-160804055D01*
X98538119Y-160813627D01*
X98533266Y-160814347D01*
X98484435Y-160819157D01*
X98479534Y-160819398D01*
X98461111Y-160819398D01*
X98455000Y-160820000D01*
X97905000Y-160820000D01*
X97895245Y-160819039D01*
G37*
D22*
X97790000Y-140335000D03*
X100330000Y-140335000D03*
D23*
X102870000Y-140335000D03*
D22*
X102235000Y-154940000D03*
X99695000Y-154940000D03*
D23*
X97155000Y-154940000D03*
D22*
X113665000Y-175895000D03*
X113665000Y-178435000D03*
X111125000Y-175895000D03*
X111125000Y-178435000D03*
X108585000Y-175895000D03*
X108585000Y-178435000D03*
X106045000Y-175895000D03*
X106045000Y-178435000D03*
X103505000Y-175895000D03*
X103505000Y-178435000D03*
X100965000Y-175895000D03*
X100965000Y-178435000D03*
X98425000Y-175895000D03*
D23*
X98425000Y-178435000D03*
D22*
X92075000Y-161290000D03*
X92075000Y-163830000D03*
D23*
X92075000Y-166370000D03*
D22*
X92075000Y-178435000D03*
X92075000Y-175895000D03*
D23*
X92075000Y-173355000D03*
G36*
G01*
X109501250Y-147655000D02*
X108938750Y-147655000D01*
G75*
G02*
X108695000Y-147411250I0J243750D01*
G01*
X108695000Y-146923750D01*
G75*
G02*
X108938750Y-146680000I243750J0D01*
G01*
X109501250Y-146680000D01*
G75*
G02*
X109745000Y-146923750I0J-243750D01*
G01*
X109745000Y-147411250D01*
G75*
G02*
X109501250Y-147655000I-243750J0D01*
G01*
G37*
G36*
G01*
X109501250Y-149230000D02*
X108938750Y-149230000D01*
G75*
G02*
X108695000Y-148986250I0J243750D01*
G01*
X108695000Y-148498750D01*
G75*
G02*
X108938750Y-148255000I243750J0D01*
G01*
X109501250Y-148255000D01*
G75*
G02*
X109745000Y-148498750I0J-243750D01*
G01*
X109745000Y-148986250D01*
G75*
G02*
X109501250Y-149230000I-243750J0D01*
G01*
G37*
G36*
G01*
X89888750Y-144597500D02*
X90451250Y-144597500D01*
G75*
G02*
X90695000Y-144841250I0J-243750D01*
G01*
X90695000Y-145328750D01*
G75*
G02*
X90451250Y-145572500I-243750J0D01*
G01*
X89888750Y-145572500D01*
G75*
G02*
X89645000Y-145328750I0J243750D01*
G01*
X89645000Y-144841250D01*
G75*
G02*
X89888750Y-144597500I243750J0D01*
G01*
G37*
G36*
G01*
X89888750Y-143022500D02*
X90451250Y-143022500D01*
G75*
G02*
X90695000Y-143266250I0J-243750D01*
G01*
X90695000Y-143753750D01*
G75*
G02*
X90451250Y-143997500I-243750J0D01*
G01*
X89888750Y-143997500D01*
G75*
G02*
X89645000Y-143753750I0J243750D01*
G01*
X89645000Y-143266250D01*
G75*
G02*
X89888750Y-143022500I243750J0D01*
G01*
G37*
G36*
G01*
X85425000Y-155928750D02*
X85425000Y-156491250D01*
G75*
G02*
X85181250Y-156735000I-243750J0D01*
G01*
X84693750Y-156735000D01*
G75*
G02*
X84450000Y-156491250I0J243750D01*
G01*
X84450000Y-155928750D01*
G75*
G02*
X84693750Y-155685000I243750J0D01*
G01*
X85181250Y-155685000D01*
G75*
G02*
X85425000Y-155928750I0J-243750D01*
G01*
G37*
G36*
G01*
X87000000Y-155928750D02*
X87000000Y-156491250D01*
G75*
G02*
X86756250Y-156735000I-243750J0D01*
G01*
X86268750Y-156735000D01*
G75*
G02*
X86025000Y-156491250I0J243750D01*
G01*
X86025000Y-155928750D01*
G75*
G02*
X86268750Y-155685000I243750J0D01*
G01*
X86756250Y-155685000D01*
G75*
G02*
X87000000Y-155928750I0J-243750D01*
G01*
G37*
G36*
G01*
X85425000Y-170533750D02*
X85425000Y-171096250D01*
G75*
G02*
X85181250Y-171340000I-243750J0D01*
G01*
X84693750Y-171340000D01*
G75*
G02*
X84450000Y-171096250I0J243750D01*
G01*
X84450000Y-170533750D01*
G75*
G02*
X84693750Y-170290000I243750J0D01*
G01*
X85181250Y-170290000D01*
G75*
G02*
X85425000Y-170533750I0J-243750D01*
G01*
G37*
G36*
G01*
X87000000Y-170533750D02*
X87000000Y-171096250D01*
G75*
G02*
X86756250Y-171340000I-243750J0D01*
G01*
X86268750Y-171340000D01*
G75*
G02*
X86025000Y-171096250I0J243750D01*
G01*
X86025000Y-170533750D01*
G75*
G02*
X86268750Y-170290000I243750J0D01*
G01*
X86756250Y-170290000D01*
G75*
G02*
X87000000Y-170533750I0J-243750D01*
G01*
G37*
G36*
G01*
X100030000Y-123543750D02*
X100030000Y-124106250D01*
G75*
G02*
X99786250Y-124350000I-243750J0D01*
G01*
X99298750Y-124350000D01*
G75*
G02*
X99055000Y-124106250I0J243750D01*
G01*
X99055000Y-123543750D01*
G75*
G02*
X99298750Y-123300000I243750J0D01*
G01*
X99786250Y-123300000D01*
G75*
G02*
X100030000Y-123543750I0J-243750D01*
G01*
G37*
G36*
G01*
X101605000Y-123543750D02*
X101605000Y-124106250D01*
G75*
G02*
X101361250Y-124350000I-243750J0D01*
G01*
X100873750Y-124350000D01*
G75*
G02*
X100630000Y-124106250I0J243750D01*
G01*
X100630000Y-123543750D01*
G75*
G02*
X100873750Y-123300000I243750J0D01*
G01*
X101361250Y-123300000D01*
G75*
G02*
X101605000Y-123543750I0J-243750D01*
G01*
G37*
G36*
G01*
X100030000Y-121003750D02*
X100030000Y-121566250D01*
G75*
G02*
X99786250Y-121810000I-243750J0D01*
G01*
X99298750Y-121810000D01*
G75*
G02*
X99055000Y-121566250I0J243750D01*
G01*
X99055000Y-121003750D01*
G75*
G02*
X99298750Y-120760000I243750J0D01*
G01*
X99786250Y-120760000D01*
G75*
G02*
X100030000Y-121003750I0J-243750D01*
G01*
G37*
G36*
G01*
X101605000Y-121003750D02*
X101605000Y-121566250D01*
G75*
G02*
X101361250Y-121810000I-243750J0D01*
G01*
X100873750Y-121810000D01*
G75*
G02*
X100630000Y-121566250I0J243750D01*
G01*
X100630000Y-121003750D01*
G75*
G02*
X100873750Y-120760000I243750J0D01*
G01*
X101361250Y-120760000D01*
G75*
G02*
X101605000Y-121003750I0J-243750D01*
G01*
G37*
G36*
G01*
X112241250Y-155810000D02*
X111278750Y-155810000D01*
G75*
G02*
X111010000Y-155541250I0J268750D01*
G01*
X111010000Y-155003750D01*
G75*
G02*
X111278750Y-154735000I268750J0D01*
G01*
X112241250Y-154735000D01*
G75*
G02*
X112510000Y-155003750I0J-268750D01*
G01*
X112510000Y-155541250D01*
G75*
G02*
X112241250Y-155810000I-268750J0D01*
G01*
G37*
G36*
G01*
X112241250Y-157685000D02*
X111278750Y-157685000D01*
G75*
G02*
X111010000Y-157416250I0J268750D01*
G01*
X111010000Y-156878750D01*
G75*
G02*
X111278750Y-156610000I268750J0D01*
G01*
X112241250Y-156610000D01*
G75*
G02*
X112510000Y-156878750I0J-268750D01*
G01*
X112510000Y-157416250D01*
G75*
G02*
X112241250Y-157685000I-268750J0D01*
G01*
G37*
G36*
G01*
X107550000Y-159538750D02*
X107550000Y-160501250D01*
G75*
G02*
X107281250Y-160770000I-268750J0D01*
G01*
X106743750Y-160770000D01*
G75*
G02*
X106475000Y-160501250I0J268750D01*
G01*
X106475000Y-159538750D01*
G75*
G02*
X106743750Y-159270000I268750J0D01*
G01*
X107281250Y-159270000D01*
G75*
G02*
X107550000Y-159538750I0J-268750D01*
G01*
G37*
G36*
G01*
X109425000Y-159538750D02*
X109425000Y-160501250D01*
G75*
G02*
X109156250Y-160770000I-268750J0D01*
G01*
X108618750Y-160770000D01*
G75*
G02*
X108350000Y-160501250I0J268750D01*
G01*
X108350000Y-159538750D01*
G75*
G02*
X108618750Y-159270000I268750J0D01*
G01*
X109156250Y-159270000D01*
G75*
G02*
X109425000Y-159538750I0J-268750D01*
G01*
G37*
G36*
G01*
X101452500Y-145133750D02*
X101452500Y-145696250D01*
G75*
G02*
X101208750Y-145940000I-243750J0D01*
G01*
X100721250Y-145940000D01*
G75*
G02*
X100477500Y-145696250I0J243750D01*
G01*
X100477500Y-145133750D01*
G75*
G02*
X100721250Y-144890000I243750J0D01*
G01*
X101208750Y-144890000D01*
G75*
G02*
X101452500Y-145133750I0J-243750D01*
G01*
G37*
G36*
G01*
X103027500Y-145133750D02*
X103027500Y-145696250D01*
G75*
G02*
X102783750Y-145940000I-243750J0D01*
G01*
X102296250Y-145940000D01*
G75*
G02*
X102052500Y-145696250I0J243750D01*
G01*
X102052500Y-145133750D01*
G75*
G02*
X102296250Y-144890000I243750J0D01*
G01*
X102783750Y-144890000D01*
G75*
G02*
X103027500Y-145133750I0J-243750D01*
G01*
G37*
G36*
G01*
X85571250Y-152000000D02*
X84608750Y-152000000D01*
G75*
G02*
X84340000Y-151731250I0J268750D01*
G01*
X84340000Y-151193750D01*
G75*
G02*
X84608750Y-150925000I268750J0D01*
G01*
X85571250Y-150925000D01*
G75*
G02*
X85840000Y-151193750I0J-268750D01*
G01*
X85840000Y-151731250D01*
G75*
G02*
X85571250Y-152000000I-268750J0D01*
G01*
G37*
G36*
G01*
X85571250Y-153875000D02*
X84608750Y-153875000D01*
G75*
G02*
X84340000Y-153606250I0J268750D01*
G01*
X84340000Y-153068750D01*
G75*
G02*
X84608750Y-152800000I268750J0D01*
G01*
X85571250Y-152800000D01*
G75*
G02*
X85840000Y-153068750I0J-268750D01*
G01*
X85840000Y-153606250D01*
G75*
G02*
X85571250Y-153875000I-268750J0D01*
G01*
G37*
G36*
G01*
X90651250Y-152000000D02*
X89688750Y-152000000D01*
G75*
G02*
X89420000Y-151731250I0J268750D01*
G01*
X89420000Y-151193750D01*
G75*
G02*
X89688750Y-150925000I268750J0D01*
G01*
X90651250Y-150925000D01*
G75*
G02*
X90920000Y-151193750I0J-268750D01*
G01*
X90920000Y-151731250D01*
G75*
G02*
X90651250Y-152000000I-268750J0D01*
G01*
G37*
G36*
G01*
X90651250Y-153875000D02*
X89688750Y-153875000D01*
G75*
G02*
X89420000Y-153606250I0J268750D01*
G01*
X89420000Y-153068750D01*
G75*
G02*
X89688750Y-152800000I268750J0D01*
G01*
X90651250Y-152800000D01*
G75*
G02*
X90920000Y-153068750I0J-268750D01*
G01*
X90920000Y-153606250D01*
G75*
G02*
X90651250Y-153875000I-268750J0D01*
G01*
G37*
G36*
G01*
X86025000Y-166651250D02*
X86025000Y-166088750D01*
G75*
G02*
X86268750Y-165845000I243750J0D01*
G01*
X86756250Y-165845000D01*
G75*
G02*
X87000000Y-166088750I0J-243750D01*
G01*
X87000000Y-166651250D01*
G75*
G02*
X86756250Y-166895000I-243750J0D01*
G01*
X86268750Y-166895000D01*
G75*
G02*
X86025000Y-166651250I0J243750D01*
G01*
G37*
G36*
G01*
X84450000Y-166651250D02*
X84450000Y-166088750D01*
G75*
G02*
X84693750Y-165845000I243750J0D01*
G01*
X85181250Y-165845000D01*
G75*
G02*
X85425000Y-166088750I0J-243750D01*
G01*
X85425000Y-166651250D01*
G75*
G02*
X85181250Y-166895000I-243750J0D01*
G01*
X84693750Y-166895000D01*
G75*
G02*
X84450000Y-166651250I0J243750D01*
G01*
G37*
G36*
G01*
X85425000Y-158468750D02*
X85425000Y-159031250D01*
G75*
G02*
X85181250Y-159275000I-243750J0D01*
G01*
X84693750Y-159275000D01*
G75*
G02*
X84450000Y-159031250I0J243750D01*
G01*
X84450000Y-158468750D01*
G75*
G02*
X84693750Y-158225000I243750J0D01*
G01*
X85181250Y-158225000D01*
G75*
G02*
X85425000Y-158468750I0J-243750D01*
G01*
G37*
G36*
G01*
X87000000Y-158468750D02*
X87000000Y-159031250D01*
G75*
G02*
X86756250Y-159275000I-243750J0D01*
G01*
X86268750Y-159275000D01*
G75*
G02*
X86025000Y-159031250I0J243750D01*
G01*
X86025000Y-158468750D01*
G75*
G02*
X86268750Y-158225000I243750J0D01*
G01*
X86756250Y-158225000D01*
G75*
G02*
X87000000Y-158468750I0J-243750D01*
G01*
G37*
G36*
G01*
X99360000Y-181891250D02*
X99360000Y-181328750D01*
G75*
G02*
X99603750Y-181085000I243750J0D01*
G01*
X100091250Y-181085000D01*
G75*
G02*
X100335000Y-181328750I0J-243750D01*
G01*
X100335000Y-181891250D01*
G75*
G02*
X100091250Y-182135000I-243750J0D01*
G01*
X99603750Y-182135000D01*
G75*
G02*
X99360000Y-181891250I0J243750D01*
G01*
G37*
G36*
G01*
X97785000Y-181891250D02*
X97785000Y-181328750D01*
G75*
G02*
X98028750Y-181085000I243750J0D01*
G01*
X98516250Y-181085000D01*
G75*
G02*
X98760000Y-181328750I0J-243750D01*
G01*
X98760000Y-181891250D01*
G75*
G02*
X98516250Y-182135000I-243750J0D01*
G01*
X98028750Y-182135000D01*
G75*
G02*
X97785000Y-181891250I0J243750D01*
G01*
G37*
G36*
G01*
X115851250Y-164800000D02*
X115288750Y-164800000D01*
G75*
G02*
X115045000Y-164556250I0J243750D01*
G01*
X115045000Y-164068750D01*
G75*
G02*
X115288750Y-163825000I243750J0D01*
G01*
X115851250Y-163825000D01*
G75*
G02*
X116095000Y-164068750I0J-243750D01*
G01*
X116095000Y-164556250D01*
G75*
G02*
X115851250Y-164800000I-243750J0D01*
G01*
G37*
G36*
G01*
X115851250Y-166375000D02*
X115288750Y-166375000D01*
G75*
G02*
X115045000Y-166131250I0J243750D01*
G01*
X115045000Y-165643750D01*
G75*
G02*
X115288750Y-165400000I243750J0D01*
G01*
X115851250Y-165400000D01*
G75*
G02*
X116095000Y-165643750I0J-243750D01*
G01*
X116095000Y-166131250D01*
G75*
G02*
X115851250Y-166375000I-243750J0D01*
G01*
G37*
G36*
G01*
X112876250Y-164700000D02*
X111913750Y-164700000D01*
G75*
G02*
X111645000Y-164431250I0J268750D01*
G01*
X111645000Y-163893750D01*
G75*
G02*
X111913750Y-163625000I268750J0D01*
G01*
X112876250Y-163625000D01*
G75*
G02*
X113145000Y-163893750I0J-268750D01*
G01*
X113145000Y-164431250D01*
G75*
G02*
X112876250Y-164700000I-268750J0D01*
G01*
G37*
G36*
G01*
X112876250Y-166575000D02*
X111913750Y-166575000D01*
G75*
G02*
X111645000Y-166306250I0J268750D01*
G01*
X111645000Y-165768750D01*
G75*
G02*
X111913750Y-165500000I268750J0D01*
G01*
X112876250Y-165500000D01*
G75*
G02*
X113145000Y-165768750I0J-268750D01*
G01*
X113145000Y-166306250D01*
G75*
G02*
X112876250Y-166575000I-268750J0D01*
G01*
G37*
G36*
G01*
X86025000Y-181256250D02*
X86025000Y-180693750D01*
G75*
G02*
X86268750Y-180450000I243750J0D01*
G01*
X86756250Y-180450000D01*
G75*
G02*
X87000000Y-180693750I0J-243750D01*
G01*
X87000000Y-181256250D01*
G75*
G02*
X86756250Y-181500000I-243750J0D01*
G01*
X86268750Y-181500000D01*
G75*
G02*
X86025000Y-181256250I0J243750D01*
G01*
G37*
G36*
G01*
X84450000Y-181256250D02*
X84450000Y-180693750D01*
G75*
G02*
X84693750Y-180450000I243750J0D01*
G01*
X85181250Y-180450000D01*
G75*
G02*
X85425000Y-180693750I0J-243750D01*
G01*
X85425000Y-181256250D01*
G75*
G02*
X85181250Y-181500000I-243750J0D01*
G01*
X84693750Y-181500000D01*
G75*
G02*
X84450000Y-181256250I0J243750D01*
G01*
G37*
G36*
G01*
X85425000Y-173073750D02*
X85425000Y-173636250D01*
G75*
G02*
X85181250Y-173880000I-243750J0D01*
G01*
X84693750Y-173880000D01*
G75*
G02*
X84450000Y-173636250I0J243750D01*
G01*
X84450000Y-173073750D01*
G75*
G02*
X84693750Y-172830000I243750J0D01*
G01*
X85181250Y-172830000D01*
G75*
G02*
X85425000Y-173073750I0J-243750D01*
G01*
G37*
G36*
G01*
X87000000Y-173073750D02*
X87000000Y-173636250D01*
G75*
G02*
X86756250Y-173880000I-243750J0D01*
G01*
X86268750Y-173880000D01*
G75*
G02*
X86025000Y-173636250I0J243750D01*
G01*
X86025000Y-173073750D01*
G75*
G02*
X86268750Y-172830000I243750J0D01*
G01*
X86756250Y-172830000D01*
G75*
G02*
X87000000Y-173073750I0J-243750D01*
G01*
G37*
G36*
G01*
X109520000Y-124106250D02*
X109520000Y-123543750D01*
G75*
G02*
X109763750Y-123300000I243750J0D01*
G01*
X110251250Y-123300000D01*
G75*
G02*
X110495000Y-123543750I0J-243750D01*
G01*
X110495000Y-124106250D01*
G75*
G02*
X110251250Y-124350000I-243750J0D01*
G01*
X109763750Y-124350000D01*
G75*
G02*
X109520000Y-124106250I0J243750D01*
G01*
G37*
G36*
G01*
X107945000Y-124106250D02*
X107945000Y-123543750D01*
G75*
G02*
X108188750Y-123300000I243750J0D01*
G01*
X108676250Y-123300000D01*
G75*
G02*
X108920000Y-123543750I0J-243750D01*
G01*
X108920000Y-124106250D01*
G75*
G02*
X108676250Y-124350000I-243750J0D01*
G01*
X108188750Y-124350000D01*
G75*
G02*
X107945000Y-124106250I0J243750D01*
G01*
G37*
G36*
G01*
X100030000Y-118463750D02*
X100030000Y-119026250D01*
G75*
G02*
X99786250Y-119270000I-243750J0D01*
G01*
X99298750Y-119270000D01*
G75*
G02*
X99055000Y-119026250I0J243750D01*
G01*
X99055000Y-118463750D01*
G75*
G02*
X99298750Y-118220000I243750J0D01*
G01*
X99786250Y-118220000D01*
G75*
G02*
X100030000Y-118463750I0J-243750D01*
G01*
G37*
G36*
G01*
X101605000Y-118463750D02*
X101605000Y-119026250D01*
G75*
G02*
X101361250Y-119270000I-243750J0D01*
G01*
X100873750Y-119270000D01*
G75*
G02*
X100630000Y-119026250I0J243750D01*
G01*
X100630000Y-118463750D01*
G75*
G02*
X100873750Y-118220000I243750J0D01*
G01*
X101361250Y-118220000D01*
G75*
G02*
X101605000Y-118463750I0J-243750D01*
G01*
G37*
G36*
G01*
X108303750Y-119680000D02*
X108866250Y-119680000D01*
G75*
G02*
X109110000Y-119923750I0J-243750D01*
G01*
X109110000Y-120411250D01*
G75*
G02*
X108866250Y-120655000I-243750J0D01*
G01*
X108303750Y-120655000D01*
G75*
G02*
X108060000Y-120411250I0J243750D01*
G01*
X108060000Y-119923750D01*
G75*
G02*
X108303750Y-119680000I243750J0D01*
G01*
G37*
G36*
G01*
X108303750Y-118105000D02*
X108866250Y-118105000D01*
G75*
G02*
X109110000Y-118348750I0J-243750D01*
G01*
X109110000Y-118836250D01*
G75*
G02*
X108866250Y-119080000I-243750J0D01*
G01*
X108303750Y-119080000D01*
G75*
G02*
X108060000Y-118836250I0J243750D01*
G01*
X108060000Y-118348750D01*
G75*
G02*
X108303750Y-118105000I243750J0D01*
G01*
G37*
M02*
