M48
; DRILL file {KiCad (5.1.6)-1} date 11/16/22 12:34:43
; FORMAT={-:-/ absolute / metric / decimal}
; #@! TF.CreationDate,2022-11-16T12:34:43-06:00
; #@! TF.GenerationSoftware,Kicad,Pcbnew,(5.1.6)-1
; #@! TF.FileFunction,Plated,1,2,PTH
FMAT,2
METRIC
T1C0.400
T2C1.000
T3C1.100
T4C3.000
%
G90
G05
T1
X87.63Y-113.665
X87.63Y-118.745
X87.63Y-123.19
X87.63Y-130.81
X87.63Y-133.35
X87.63Y-136.525
X87.63Y-140.97
X88.265Y-155.575
X88.265Y-158.75
X88.9Y-146.685
X88.9Y-163.195
X88.9Y-172.085
X88.9Y-175.895
X89.535Y-179.705
X89.535Y-182.245
X90.805Y-113.665
X90.805Y-118.745
X90.805Y-123.19
X90.805Y-125.73
X90.805Y-128.27
X90.805Y-136.525
X90.805Y-140.97
X92.075Y-168.91
X92.71Y-146.685
X92.71Y-155.575
X92.71Y-158.75
X93.98Y-113.665
X93.98Y-118.745
X93.98Y-123.19
X93.98Y-125.73
X93.98Y-128.27
X93.98Y-130.81
X93.98Y-136.525
X93.98Y-140.97
X93.98Y-167.64
X94.615Y-163.195
X94.615Y-179.705
X94.615Y-182.245
X95.25Y-168.91
X95.885Y-143.51
X95.885Y-146.685
X95.885Y-153.035
X95.885Y-167.64
X96.52Y-165.1
X97.155Y-113.665
X97.155Y-118.745
X97.155Y-123.19
X97.155Y-125.73
X97.155Y-128.27
X97.155Y-130.81
X97.155Y-133.35
X99.06Y-143.51
X99.06Y-146.685
X99.695Y-149.225
X99.695Y-153.035
X99.695Y-157.48
X100.33Y-125.73
X100.33Y-128.27
X100.33Y-130.81
X100.33Y-133.35
X100.965Y-170.815
X102.87Y-180.975
X104.14Y-165.735
X104.58Y-143.07
X104.775Y-114.935
X104.775Y-127.0
X104.775Y-153.035
X107.315Y-180.975
X108.585Y-113.665
X108.585Y-116.205
X108.585Y-128.27
X108.585Y-132.08
X108.585Y-136.525
X108.585Y-140.97
X112.395Y-180.975
X113.03Y-113.665
X113.03Y-118.745
X113.03Y-123.825
X113.03Y-128.27
X113.03Y-132.08
X113.03Y-136.525
X113.03Y-140.97
X113.03Y-146.05
X113.03Y-151.13
X113.665Y-157.48
X113.665Y-161.29
X117.475Y-113.665
X117.475Y-118.745
X117.475Y-123.825
X117.475Y-128.27
X117.475Y-132.08
X117.475Y-136.525
X117.475Y-140.97
X117.475Y-146.05
X117.475Y-151.13
X117.475Y-175.895
X118.745Y-168.275
T2
X98.425Y-175.895
X98.425Y-178.435
X100.965Y-175.895
X100.965Y-178.435
X103.505Y-175.895
X103.505Y-178.435
X106.045Y-175.895
X106.045Y-178.435
X108.585Y-175.895
X108.585Y-178.435
X111.125Y-175.895
X111.125Y-178.435
X113.665Y-175.895
X113.665Y-178.435
X92.075Y-161.29
X92.075Y-163.83
X92.075Y-166.37
X97.79Y-140.335
X100.33Y-140.335
X102.87Y-140.335
X92.075Y-173.355
X92.075Y-175.895
X92.075Y-178.435
X97.155Y-154.94
X99.695Y-154.94
X102.235Y-154.94
T3
X79.502Y-146.304
X79.502Y-148.844
X79.502Y-151.384
X79.502Y-153.924
X79.375Y-120.015
X79.375Y-122.555
X79.375Y-125.095
X79.375Y-127.635
X79.502Y-169.164
X79.502Y-171.704
X79.502Y-174.244
X79.502Y-176.784
T4
X70.102Y-143.129
X70.102Y-157.099
X69.975Y-116.84
X69.975Y-130.81
X70.102Y-165.989
X70.102Y-179.959
T0
M30
