G04 #@! TF.GenerationSoftware,KiCad,Pcbnew,(5.1.6)-1*
G04 #@! TF.CreationDate,2022-11-16T12:34:37-06:00*
G04 #@! TF.ProjectId,adc2o2,61646332-6f32-42e6-9b69-6361645f7063,rev?*
G04 #@! TF.SameCoordinates,Original*
G04 #@! TF.FileFunction,Legend,Bot*
G04 #@! TF.FilePolarity,Positive*
%FSLAX46Y46*%
G04 Gerber Fmt 4.6, Leading zero omitted, Abs format (unit mm)*
G04 Created by KiCad (PCBNEW (5.1.6)-1) date 2022-11-16 12:34:37*
%MOMM*%
%LPD*%
G01*
G04 APERTURE LIST*
%ADD10C,4.600000*%
%ADD11C,1.750000*%
%ADD12R,1.750000X1.750000*%
%ADD13O,1.800000X1.800000*%
%ADD14R,1.800000X1.800000*%
G04 APERTURE END LIST*
%LPC*%
D10*
X70102000Y-157099000D03*
X70102000Y-143129000D03*
D11*
X79502000Y-153924000D03*
X79502000Y-151384000D03*
X79502000Y-148844000D03*
D12*
X79502000Y-146304000D03*
D10*
X70102000Y-179959000D03*
X70102000Y-165989000D03*
D11*
X79502000Y-176784000D03*
X79502000Y-174244000D03*
X79502000Y-171704000D03*
D12*
X79502000Y-169164000D03*
D10*
X69975000Y-130810000D03*
X69975000Y-116840000D03*
D11*
X79375000Y-127635000D03*
X79375000Y-125095000D03*
X79375000Y-122555000D03*
D12*
X79375000Y-120015000D03*
D13*
X97790000Y-140335000D03*
X100330000Y-140335000D03*
D14*
X102870000Y-140335000D03*
D13*
X102235000Y-154940000D03*
X99695000Y-154940000D03*
D14*
X97155000Y-154940000D03*
D13*
X113665000Y-175895000D03*
X113665000Y-178435000D03*
X111125000Y-175895000D03*
X111125000Y-178435000D03*
X108585000Y-175895000D03*
X108585000Y-178435000D03*
X106045000Y-175895000D03*
X106045000Y-178435000D03*
X103505000Y-175895000D03*
X103505000Y-178435000D03*
X100965000Y-175895000D03*
X100965000Y-178435000D03*
X98425000Y-175895000D03*
D14*
X98425000Y-178435000D03*
D13*
X92075000Y-161290000D03*
X92075000Y-163830000D03*
D14*
X92075000Y-166370000D03*
D13*
X92075000Y-178435000D03*
X92075000Y-175895000D03*
D14*
X92075000Y-173355000D03*
M02*
