G04 #@! TF.GenerationSoftware,KiCad,Pcbnew,(5.1.6)-1*
G04 #@! TF.CreationDate,2022-11-16T12:34:37-06:00*
G04 #@! TF.ProjectId,adc2o2,61646332-6f32-42e6-9b69-6361645f7063,rev?*
G04 #@! TF.SameCoordinates,Original*
G04 #@! TF.FileFunction,Paste,Top*
G04 #@! TF.FilePolarity,Positive*
%FSLAX46Y46*%
G04 Gerber Fmt 4.6, Leading zero omitted, Abs format (unit mm)*
G04 Created by KiCad (PCBNEW (5.1.6)-1) date 2022-11-16 12:34:37*
%MOMM*%
%LPD*%
G01*
G04 APERTURE LIST*
%ADD10R,1.500000X0.450000*%
%ADD11R,1.060000X0.650000*%
G04 APERTURE END LIST*
G36*
G01*
X103700000Y-123330000D02*
X105850000Y-123330000D01*
G75*
G02*
X106100000Y-123580000I0J-250000D01*
G01*
X106100000Y-124330000D01*
G75*
G02*
X105850000Y-124580000I-250000J0D01*
G01*
X103700000Y-124580000D01*
G75*
G02*
X103450000Y-124330000I0J250000D01*
G01*
X103450000Y-123580000D01*
G75*
G02*
X103700000Y-123330000I250000J0D01*
G01*
G37*
G36*
G01*
X103700000Y-120530000D02*
X105850000Y-120530000D01*
G75*
G02*
X106100000Y-120780000I0J-250000D01*
G01*
X106100000Y-121530000D01*
G75*
G02*
X105850000Y-121780000I-250000J0D01*
G01*
X103700000Y-121780000D01*
G75*
G02*
X103450000Y-121530000I0J250000D01*
G01*
X103450000Y-120780000D01*
G75*
G02*
X103700000Y-120530000I250000J0D01*
G01*
G37*
G36*
G01*
X106423750Y-148305000D02*
X106936250Y-148305000D01*
G75*
G02*
X107155000Y-148523750I0J-218750D01*
G01*
X107155000Y-148961250D01*
G75*
G02*
X106936250Y-149180000I-218750J0D01*
G01*
X106423750Y-149180000D01*
G75*
G02*
X106205000Y-148961250I0J218750D01*
G01*
X106205000Y-148523750D01*
G75*
G02*
X106423750Y-148305000I218750J0D01*
G01*
G37*
G36*
G01*
X106423750Y-146730000D02*
X106936250Y-146730000D01*
G75*
G02*
X107155000Y-146948750I0J-218750D01*
G01*
X107155000Y-147386250D01*
G75*
G02*
X106936250Y-147605000I-218750J0D01*
G01*
X106423750Y-147605000D01*
G75*
G02*
X106205000Y-147386250I0J218750D01*
G01*
X106205000Y-146948750D01*
G75*
G02*
X106423750Y-146730000I218750J0D01*
G01*
G37*
G36*
G01*
X101820000Y-148985000D02*
X101820000Y-148785000D01*
G75*
G02*
X101920000Y-148685000I100000J0D01*
G01*
X103195000Y-148685000D01*
G75*
G02*
X103295000Y-148785000I0J-100000D01*
G01*
X103295000Y-148985000D01*
G75*
G02*
X103195000Y-149085000I-100000J0D01*
G01*
X101920000Y-149085000D01*
G75*
G02*
X101820000Y-148985000I0J100000D01*
G01*
G37*
G36*
G01*
X101820000Y-149635000D02*
X101820000Y-149435000D01*
G75*
G02*
X101920000Y-149335000I100000J0D01*
G01*
X103195000Y-149335000D01*
G75*
G02*
X103295000Y-149435000I0J-100000D01*
G01*
X103295000Y-149635000D01*
G75*
G02*
X103195000Y-149735000I-100000J0D01*
G01*
X101920000Y-149735000D01*
G75*
G02*
X101820000Y-149635000I0J100000D01*
G01*
G37*
G36*
G01*
X101820000Y-150285000D02*
X101820000Y-150085000D01*
G75*
G02*
X101920000Y-149985000I100000J0D01*
G01*
X103195000Y-149985000D01*
G75*
G02*
X103295000Y-150085000I0J-100000D01*
G01*
X103295000Y-150285000D01*
G75*
G02*
X103195000Y-150385000I-100000J0D01*
G01*
X101920000Y-150385000D01*
G75*
G02*
X101820000Y-150285000I0J100000D01*
G01*
G37*
G36*
G01*
X101820000Y-150935000D02*
X101820000Y-150735000D01*
G75*
G02*
X101920000Y-150635000I100000J0D01*
G01*
X103195000Y-150635000D01*
G75*
G02*
X103295000Y-150735000I0J-100000D01*
G01*
X103295000Y-150935000D01*
G75*
G02*
X103195000Y-151035000I-100000J0D01*
G01*
X101920000Y-151035000D01*
G75*
G02*
X101820000Y-150935000I0J100000D01*
G01*
G37*
G36*
G01*
X96095000Y-150935000D02*
X96095000Y-150735000D01*
G75*
G02*
X96195000Y-150635000I100000J0D01*
G01*
X97470000Y-150635000D01*
G75*
G02*
X97570000Y-150735000I0J-100000D01*
G01*
X97570000Y-150935000D01*
G75*
G02*
X97470000Y-151035000I-100000J0D01*
G01*
X96195000Y-151035000D01*
G75*
G02*
X96095000Y-150935000I0J100000D01*
G01*
G37*
G36*
G01*
X96095000Y-150285000D02*
X96095000Y-150085000D01*
G75*
G02*
X96195000Y-149985000I100000J0D01*
G01*
X97470000Y-149985000D01*
G75*
G02*
X97570000Y-150085000I0J-100000D01*
G01*
X97570000Y-150285000D01*
G75*
G02*
X97470000Y-150385000I-100000J0D01*
G01*
X96195000Y-150385000D01*
G75*
G02*
X96095000Y-150285000I0J100000D01*
G01*
G37*
G36*
G01*
X96095000Y-149635000D02*
X96095000Y-149435000D01*
G75*
G02*
X96195000Y-149335000I100000J0D01*
G01*
X97470000Y-149335000D01*
G75*
G02*
X97570000Y-149435000I0J-100000D01*
G01*
X97570000Y-149635000D01*
G75*
G02*
X97470000Y-149735000I-100000J0D01*
G01*
X96195000Y-149735000D01*
G75*
G02*
X96095000Y-149635000I0J100000D01*
G01*
G37*
G36*
G01*
X96095000Y-148985000D02*
X96095000Y-148785000D01*
G75*
G02*
X96195000Y-148685000I100000J0D01*
G01*
X97470000Y-148685000D01*
G75*
G02*
X97570000Y-148785000I0J-100000D01*
G01*
X97570000Y-148985000D01*
G75*
G02*
X97470000Y-149085000I-100000J0D01*
G01*
X96195000Y-149085000D01*
G75*
G02*
X96095000Y-148985000I0J100000D01*
G01*
G37*
D10*
X107675000Y-163460000D03*
X101875000Y-163460000D03*
X107675000Y-164110000D03*
X101875000Y-164110000D03*
X107675000Y-164760000D03*
X101875000Y-164760000D03*
X107675000Y-165410000D03*
X101875000Y-165410000D03*
X107675000Y-166060000D03*
X101875000Y-166060000D03*
X107675000Y-166710000D03*
X101875000Y-166710000D03*
X107675000Y-167360000D03*
X101875000Y-167360000D03*
X107675000Y-168010000D03*
X101875000Y-168010000D03*
D11*
X103675000Y-117475000D03*
X103675000Y-118425000D03*
X103675000Y-116525000D03*
X105875000Y-116525000D03*
X105875000Y-117475000D03*
X105875000Y-118425000D03*
G36*
G01*
X111503750Y-148305000D02*
X112016250Y-148305000D01*
G75*
G02*
X112235000Y-148523750I0J-218750D01*
G01*
X112235000Y-148961250D01*
G75*
G02*
X112016250Y-149180000I-218750J0D01*
G01*
X111503750Y-149180000D01*
G75*
G02*
X111285000Y-148961250I0J218750D01*
G01*
X111285000Y-148523750D01*
G75*
G02*
X111503750Y-148305000I218750J0D01*
G01*
G37*
G36*
G01*
X111503750Y-146730000D02*
X112016250Y-146730000D01*
G75*
G02*
X112235000Y-146948750I0J-218750D01*
G01*
X112235000Y-147386250D01*
G75*
G02*
X112016250Y-147605000I-218750J0D01*
G01*
X111503750Y-147605000D01*
G75*
G02*
X111285000Y-147386250I0J218750D01*
G01*
X111285000Y-146948750D01*
G75*
G02*
X111503750Y-146730000I218750J0D01*
G01*
G37*
G36*
G01*
X108963750Y-156560000D02*
X109476250Y-156560000D01*
G75*
G02*
X109695000Y-156778750I0J-218750D01*
G01*
X109695000Y-157216250D01*
G75*
G02*
X109476250Y-157435000I-218750J0D01*
G01*
X108963750Y-157435000D01*
G75*
G02*
X108745000Y-157216250I0J218750D01*
G01*
X108745000Y-156778750D01*
G75*
G02*
X108963750Y-156560000I218750J0D01*
G01*
G37*
G36*
G01*
X108963750Y-154985000D02*
X109476250Y-154985000D01*
G75*
G02*
X109695000Y-155203750I0J-218750D01*
G01*
X109695000Y-155641250D01*
G75*
G02*
X109476250Y-155860000I-218750J0D01*
G01*
X108963750Y-155860000D01*
G75*
G02*
X108745000Y-155641250I0J218750D01*
G01*
X108745000Y-155203750D01*
G75*
G02*
X108963750Y-154985000I218750J0D01*
G01*
G37*
G36*
G01*
X106936250Y-155860000D02*
X106423750Y-155860000D01*
G75*
G02*
X106205000Y-155641250I0J218750D01*
G01*
X106205000Y-155203750D01*
G75*
G02*
X106423750Y-154985000I218750J0D01*
G01*
X106936250Y-154985000D01*
G75*
G02*
X107155000Y-155203750I0J-218750D01*
G01*
X107155000Y-155641250D01*
G75*
G02*
X106936250Y-155860000I-218750J0D01*
G01*
G37*
G36*
G01*
X106936250Y-157435000D02*
X106423750Y-157435000D01*
G75*
G02*
X106205000Y-157216250I0J218750D01*
G01*
X106205000Y-156778750D01*
G75*
G02*
X106423750Y-156560000I218750J0D01*
G01*
X106936250Y-156560000D01*
G75*
G02*
X107155000Y-156778750I0J-218750D01*
G01*
X107155000Y-157216250D01*
G75*
G02*
X106936250Y-157435000I-218750J0D01*
G01*
G37*
G36*
G01*
X92453750Y-144647500D02*
X92966250Y-144647500D01*
G75*
G02*
X93185000Y-144866250I0J-218750D01*
G01*
X93185000Y-145303750D01*
G75*
G02*
X92966250Y-145522500I-218750J0D01*
G01*
X92453750Y-145522500D01*
G75*
G02*
X92235000Y-145303750I0J218750D01*
G01*
X92235000Y-144866250D01*
G75*
G02*
X92453750Y-144647500I218750J0D01*
G01*
G37*
G36*
G01*
X92453750Y-143072500D02*
X92966250Y-143072500D01*
G75*
G02*
X93185000Y-143291250I0J-218750D01*
G01*
X93185000Y-143728750D01*
G75*
G02*
X92966250Y-143947500I-218750J0D01*
G01*
X92453750Y-143947500D01*
G75*
G02*
X92235000Y-143728750I0J218750D01*
G01*
X92235000Y-143291250D01*
G75*
G02*
X92453750Y-143072500I218750J0D01*
G01*
G37*
G36*
G01*
X87373750Y-144647500D02*
X87886250Y-144647500D01*
G75*
G02*
X88105000Y-144866250I0J-218750D01*
G01*
X88105000Y-145303750D01*
G75*
G02*
X87886250Y-145522500I-218750J0D01*
G01*
X87373750Y-145522500D01*
G75*
G02*
X87155000Y-145303750I0J218750D01*
G01*
X87155000Y-144866250D01*
G75*
G02*
X87373750Y-144647500I218750J0D01*
G01*
G37*
G36*
G01*
X87373750Y-143072500D02*
X87886250Y-143072500D01*
G75*
G02*
X88105000Y-143291250I0J-218750D01*
G01*
X88105000Y-143728750D01*
G75*
G02*
X87886250Y-143947500I-218750J0D01*
G01*
X87373750Y-143947500D01*
G75*
G02*
X87155000Y-143728750I0J218750D01*
G01*
X87155000Y-143291250D01*
G75*
G02*
X87373750Y-143072500I218750J0D01*
G01*
G37*
G36*
G01*
X87373750Y-152750000D02*
X87886250Y-152750000D01*
G75*
G02*
X88105000Y-152968750I0J-218750D01*
G01*
X88105000Y-153406250D01*
G75*
G02*
X87886250Y-153625000I-218750J0D01*
G01*
X87373750Y-153625000D01*
G75*
G02*
X87155000Y-153406250I0J218750D01*
G01*
X87155000Y-152968750D01*
G75*
G02*
X87373750Y-152750000I218750J0D01*
G01*
G37*
G36*
G01*
X87373750Y-151175000D02*
X87886250Y-151175000D01*
G75*
G02*
X88105000Y-151393750I0J-218750D01*
G01*
X88105000Y-151831250D01*
G75*
G02*
X87886250Y-152050000I-218750J0D01*
G01*
X87373750Y-152050000D01*
G75*
G02*
X87155000Y-151831250I0J218750D01*
G01*
X87155000Y-151393750D01*
G75*
G02*
X87373750Y-151175000I218750J0D01*
G01*
G37*
G36*
G01*
X92453750Y-152750000D02*
X92966250Y-152750000D01*
G75*
G02*
X93185000Y-152968750I0J-218750D01*
G01*
X93185000Y-153406250D01*
G75*
G02*
X92966250Y-153625000I-218750J0D01*
G01*
X92453750Y-153625000D01*
G75*
G02*
X92235000Y-153406250I0J218750D01*
G01*
X92235000Y-152968750D01*
G75*
G02*
X92453750Y-152750000I218750J0D01*
G01*
G37*
G36*
G01*
X92453750Y-151175000D02*
X92966250Y-151175000D01*
G75*
G02*
X93185000Y-151393750I0J-218750D01*
G01*
X93185000Y-151831250D01*
G75*
G02*
X92966250Y-152050000I-218750J0D01*
G01*
X92453750Y-152050000D01*
G75*
G02*
X92235000Y-151831250I0J218750D01*
G01*
X92235000Y-151393750D01*
G75*
G02*
X92453750Y-151175000I218750J0D01*
G01*
G37*
G36*
G01*
X86075000Y-161546250D02*
X86075000Y-161033750D01*
G75*
G02*
X86293750Y-160815000I218750J0D01*
G01*
X86731250Y-160815000D01*
G75*
G02*
X86950000Y-161033750I0J-218750D01*
G01*
X86950000Y-161546250D01*
G75*
G02*
X86731250Y-161765000I-218750J0D01*
G01*
X86293750Y-161765000D01*
G75*
G02*
X86075000Y-161546250I0J218750D01*
G01*
G37*
G36*
G01*
X84500000Y-161546250D02*
X84500000Y-161033750D01*
G75*
G02*
X84718750Y-160815000I218750J0D01*
G01*
X85156250Y-160815000D01*
G75*
G02*
X85375000Y-161033750I0J-218750D01*
G01*
X85375000Y-161546250D01*
G75*
G02*
X85156250Y-161765000I-218750J0D01*
G01*
X84718750Y-161765000D01*
G75*
G02*
X84500000Y-161546250I0J218750D01*
G01*
G37*
G36*
G01*
X86075000Y-164086250D02*
X86075000Y-163573750D01*
G75*
G02*
X86293750Y-163355000I218750J0D01*
G01*
X86731250Y-163355000D01*
G75*
G02*
X86950000Y-163573750I0J-218750D01*
G01*
X86950000Y-164086250D01*
G75*
G02*
X86731250Y-164305000I-218750J0D01*
G01*
X86293750Y-164305000D01*
G75*
G02*
X86075000Y-164086250I0J218750D01*
G01*
G37*
G36*
G01*
X84500000Y-164086250D02*
X84500000Y-163573750D01*
G75*
G02*
X84718750Y-163355000I218750J0D01*
G01*
X85156250Y-163355000D01*
G75*
G02*
X85375000Y-163573750I0J-218750D01*
G01*
X85375000Y-164086250D01*
G75*
G02*
X85156250Y-164305000I-218750J0D01*
G01*
X84718750Y-164305000D01*
G75*
G02*
X84500000Y-164086250I0J218750D01*
G01*
G37*
G36*
G01*
X112138750Y-169260000D02*
X112651250Y-169260000D01*
G75*
G02*
X112870000Y-169478750I0J-218750D01*
G01*
X112870000Y-169916250D01*
G75*
G02*
X112651250Y-170135000I-218750J0D01*
G01*
X112138750Y-170135000D01*
G75*
G02*
X111920000Y-169916250I0J218750D01*
G01*
X111920000Y-169478750D01*
G75*
G02*
X112138750Y-169260000I218750J0D01*
G01*
G37*
G36*
G01*
X112138750Y-167685000D02*
X112651250Y-167685000D01*
G75*
G02*
X112870000Y-167903750I0J-218750D01*
G01*
X112870000Y-168341250D01*
G75*
G02*
X112651250Y-168560000I-218750J0D01*
G01*
X112138750Y-168560000D01*
G75*
G02*
X111920000Y-168341250I0J218750D01*
G01*
X111920000Y-167903750D01*
G75*
G02*
X112138750Y-167685000I218750J0D01*
G01*
G37*
G36*
G01*
X98775000Y-169166250D02*
X98775000Y-168653750D01*
G75*
G02*
X98993750Y-168435000I218750J0D01*
G01*
X99431250Y-168435000D01*
G75*
G02*
X99650000Y-168653750I0J-218750D01*
G01*
X99650000Y-169166250D01*
G75*
G02*
X99431250Y-169385000I-218750J0D01*
G01*
X98993750Y-169385000D01*
G75*
G02*
X98775000Y-169166250I0J218750D01*
G01*
G37*
G36*
G01*
X97200000Y-169166250D02*
X97200000Y-168653750D01*
G75*
G02*
X97418750Y-168435000I218750J0D01*
G01*
X97856250Y-168435000D01*
G75*
G02*
X98075000Y-168653750I0J-218750D01*
G01*
X98075000Y-169166250D01*
G75*
G02*
X97856250Y-169385000I-218750J0D01*
G01*
X97418750Y-169385000D01*
G75*
G02*
X97200000Y-169166250I0J218750D01*
G01*
G37*
G36*
G01*
X101950000Y-172976250D02*
X101950000Y-172463750D01*
G75*
G02*
X102168750Y-172245000I218750J0D01*
G01*
X102606250Y-172245000D01*
G75*
G02*
X102825000Y-172463750I0J-218750D01*
G01*
X102825000Y-172976250D01*
G75*
G02*
X102606250Y-173195000I-218750J0D01*
G01*
X102168750Y-173195000D01*
G75*
G02*
X101950000Y-172976250I0J218750D01*
G01*
G37*
G36*
G01*
X100375000Y-172976250D02*
X100375000Y-172463750D01*
G75*
G02*
X100593750Y-172245000I218750J0D01*
G01*
X101031250Y-172245000D01*
G75*
G02*
X101250000Y-172463750I0J-218750D01*
G01*
X101250000Y-172976250D01*
G75*
G02*
X101031250Y-173195000I-218750J0D01*
G01*
X100593750Y-173195000D01*
G75*
G02*
X100375000Y-172976250I0J218750D01*
G01*
G37*
G36*
G01*
X86075000Y-176151250D02*
X86075000Y-175638750D01*
G75*
G02*
X86293750Y-175420000I218750J0D01*
G01*
X86731250Y-175420000D01*
G75*
G02*
X86950000Y-175638750I0J-218750D01*
G01*
X86950000Y-176151250D01*
G75*
G02*
X86731250Y-176370000I-218750J0D01*
G01*
X86293750Y-176370000D01*
G75*
G02*
X86075000Y-176151250I0J218750D01*
G01*
G37*
G36*
G01*
X84500000Y-176151250D02*
X84500000Y-175638750D01*
G75*
G02*
X84718750Y-175420000I218750J0D01*
G01*
X85156250Y-175420000D01*
G75*
G02*
X85375000Y-175638750I0J-218750D01*
G01*
X85375000Y-176151250D01*
G75*
G02*
X85156250Y-176370000I-218750J0D01*
G01*
X84718750Y-176370000D01*
G75*
G02*
X84500000Y-176151250I0J218750D01*
G01*
G37*
G36*
G01*
X86075000Y-178691250D02*
X86075000Y-178178750D01*
G75*
G02*
X86293750Y-177960000I218750J0D01*
G01*
X86731250Y-177960000D01*
G75*
G02*
X86950000Y-178178750I0J-218750D01*
G01*
X86950000Y-178691250D01*
G75*
G02*
X86731250Y-178910000I-218750J0D01*
G01*
X86293750Y-178910000D01*
G75*
G02*
X86075000Y-178691250I0J218750D01*
G01*
G37*
G36*
G01*
X84500000Y-178691250D02*
X84500000Y-178178750D01*
G75*
G02*
X84718750Y-177960000I218750J0D01*
G01*
X85156250Y-177960000D01*
G75*
G02*
X85375000Y-178178750I0J-218750D01*
G01*
X85375000Y-178691250D01*
G75*
G02*
X85156250Y-178910000I-218750J0D01*
G01*
X84718750Y-178910000D01*
G75*
G02*
X84500000Y-178691250I0J218750D01*
G01*
G37*
G36*
G01*
X100680000Y-116461250D02*
X100680000Y-115948750D01*
G75*
G02*
X100898750Y-115730000I218750J0D01*
G01*
X101336250Y-115730000D01*
G75*
G02*
X101555000Y-115948750I0J-218750D01*
G01*
X101555000Y-116461250D01*
G75*
G02*
X101336250Y-116680000I-218750J0D01*
G01*
X100898750Y-116680000D01*
G75*
G02*
X100680000Y-116461250I0J218750D01*
G01*
G37*
G36*
G01*
X99105000Y-116461250D02*
X99105000Y-115948750D01*
G75*
G02*
X99323750Y-115730000I218750J0D01*
G01*
X99761250Y-115730000D01*
G75*
G02*
X99980000Y-115948750I0J-218750D01*
G01*
X99980000Y-116461250D01*
G75*
G02*
X99761250Y-116680000I-218750J0D01*
G01*
X99323750Y-116680000D01*
G75*
G02*
X99105000Y-116461250I0J218750D01*
G01*
G37*
G36*
G01*
X109476250Y-147605000D02*
X108963750Y-147605000D01*
G75*
G02*
X108745000Y-147386250I0J218750D01*
G01*
X108745000Y-146948750D01*
G75*
G02*
X108963750Y-146730000I218750J0D01*
G01*
X109476250Y-146730000D01*
G75*
G02*
X109695000Y-146948750I0J-218750D01*
G01*
X109695000Y-147386250D01*
G75*
G02*
X109476250Y-147605000I-218750J0D01*
G01*
G37*
G36*
G01*
X109476250Y-149180000D02*
X108963750Y-149180000D01*
G75*
G02*
X108745000Y-148961250I0J218750D01*
G01*
X108745000Y-148523750D01*
G75*
G02*
X108963750Y-148305000I218750J0D01*
G01*
X109476250Y-148305000D01*
G75*
G02*
X109695000Y-148523750I0J-218750D01*
G01*
X109695000Y-148961250D01*
G75*
G02*
X109476250Y-149180000I-218750J0D01*
G01*
G37*
G36*
G01*
X89913750Y-144647500D02*
X90426250Y-144647500D01*
G75*
G02*
X90645000Y-144866250I0J-218750D01*
G01*
X90645000Y-145303750D01*
G75*
G02*
X90426250Y-145522500I-218750J0D01*
G01*
X89913750Y-145522500D01*
G75*
G02*
X89695000Y-145303750I0J218750D01*
G01*
X89695000Y-144866250D01*
G75*
G02*
X89913750Y-144647500I218750J0D01*
G01*
G37*
G36*
G01*
X89913750Y-143072500D02*
X90426250Y-143072500D01*
G75*
G02*
X90645000Y-143291250I0J-218750D01*
G01*
X90645000Y-143728750D01*
G75*
G02*
X90426250Y-143947500I-218750J0D01*
G01*
X89913750Y-143947500D01*
G75*
G02*
X89695000Y-143728750I0J218750D01*
G01*
X89695000Y-143291250D01*
G75*
G02*
X89913750Y-143072500I218750J0D01*
G01*
G37*
G36*
G01*
X85375000Y-155953750D02*
X85375000Y-156466250D01*
G75*
G02*
X85156250Y-156685000I-218750J0D01*
G01*
X84718750Y-156685000D01*
G75*
G02*
X84500000Y-156466250I0J218750D01*
G01*
X84500000Y-155953750D01*
G75*
G02*
X84718750Y-155735000I218750J0D01*
G01*
X85156250Y-155735000D01*
G75*
G02*
X85375000Y-155953750I0J-218750D01*
G01*
G37*
G36*
G01*
X86950000Y-155953750D02*
X86950000Y-156466250D01*
G75*
G02*
X86731250Y-156685000I-218750J0D01*
G01*
X86293750Y-156685000D01*
G75*
G02*
X86075000Y-156466250I0J218750D01*
G01*
X86075000Y-155953750D01*
G75*
G02*
X86293750Y-155735000I218750J0D01*
G01*
X86731250Y-155735000D01*
G75*
G02*
X86950000Y-155953750I0J-218750D01*
G01*
G37*
G36*
G01*
X85375000Y-170558750D02*
X85375000Y-171071250D01*
G75*
G02*
X85156250Y-171290000I-218750J0D01*
G01*
X84718750Y-171290000D01*
G75*
G02*
X84500000Y-171071250I0J218750D01*
G01*
X84500000Y-170558750D01*
G75*
G02*
X84718750Y-170340000I218750J0D01*
G01*
X85156250Y-170340000D01*
G75*
G02*
X85375000Y-170558750I0J-218750D01*
G01*
G37*
G36*
G01*
X86950000Y-170558750D02*
X86950000Y-171071250D01*
G75*
G02*
X86731250Y-171290000I-218750J0D01*
G01*
X86293750Y-171290000D01*
G75*
G02*
X86075000Y-171071250I0J218750D01*
G01*
X86075000Y-170558750D01*
G75*
G02*
X86293750Y-170340000I218750J0D01*
G01*
X86731250Y-170340000D01*
G75*
G02*
X86950000Y-170558750I0J-218750D01*
G01*
G37*
G36*
G01*
X99980000Y-123568750D02*
X99980000Y-124081250D01*
G75*
G02*
X99761250Y-124300000I-218750J0D01*
G01*
X99323750Y-124300000D01*
G75*
G02*
X99105000Y-124081250I0J218750D01*
G01*
X99105000Y-123568750D01*
G75*
G02*
X99323750Y-123350000I218750J0D01*
G01*
X99761250Y-123350000D01*
G75*
G02*
X99980000Y-123568750I0J-218750D01*
G01*
G37*
G36*
G01*
X101555000Y-123568750D02*
X101555000Y-124081250D01*
G75*
G02*
X101336250Y-124300000I-218750J0D01*
G01*
X100898750Y-124300000D01*
G75*
G02*
X100680000Y-124081250I0J218750D01*
G01*
X100680000Y-123568750D01*
G75*
G02*
X100898750Y-123350000I218750J0D01*
G01*
X101336250Y-123350000D01*
G75*
G02*
X101555000Y-123568750I0J-218750D01*
G01*
G37*
G36*
G01*
X99980000Y-121028750D02*
X99980000Y-121541250D01*
G75*
G02*
X99761250Y-121760000I-218750J0D01*
G01*
X99323750Y-121760000D01*
G75*
G02*
X99105000Y-121541250I0J218750D01*
G01*
X99105000Y-121028750D01*
G75*
G02*
X99323750Y-120810000I218750J0D01*
G01*
X99761250Y-120810000D01*
G75*
G02*
X99980000Y-121028750I0J-218750D01*
G01*
G37*
G36*
G01*
X101555000Y-121028750D02*
X101555000Y-121541250D01*
G75*
G02*
X101336250Y-121760000I-218750J0D01*
G01*
X100898750Y-121760000D01*
G75*
G02*
X100680000Y-121541250I0J218750D01*
G01*
X100680000Y-121028750D01*
G75*
G02*
X100898750Y-120810000I218750J0D01*
G01*
X101336250Y-120810000D01*
G75*
G02*
X101555000Y-121028750I0J-218750D01*
G01*
G37*
G36*
G01*
X112216250Y-155760000D02*
X111303750Y-155760000D01*
G75*
G02*
X111060000Y-155516250I0J243750D01*
G01*
X111060000Y-155028750D01*
G75*
G02*
X111303750Y-154785000I243750J0D01*
G01*
X112216250Y-154785000D01*
G75*
G02*
X112460000Y-155028750I0J-243750D01*
G01*
X112460000Y-155516250D01*
G75*
G02*
X112216250Y-155760000I-243750J0D01*
G01*
G37*
G36*
G01*
X112216250Y-157635000D02*
X111303750Y-157635000D01*
G75*
G02*
X111060000Y-157391250I0J243750D01*
G01*
X111060000Y-156903750D01*
G75*
G02*
X111303750Y-156660000I243750J0D01*
G01*
X112216250Y-156660000D01*
G75*
G02*
X112460000Y-156903750I0J-243750D01*
G01*
X112460000Y-157391250D01*
G75*
G02*
X112216250Y-157635000I-243750J0D01*
G01*
G37*
G36*
G01*
X107500000Y-159563750D02*
X107500000Y-160476250D01*
G75*
G02*
X107256250Y-160720000I-243750J0D01*
G01*
X106768750Y-160720000D01*
G75*
G02*
X106525000Y-160476250I0J243750D01*
G01*
X106525000Y-159563750D01*
G75*
G02*
X106768750Y-159320000I243750J0D01*
G01*
X107256250Y-159320000D01*
G75*
G02*
X107500000Y-159563750I0J-243750D01*
G01*
G37*
G36*
G01*
X109375000Y-159563750D02*
X109375000Y-160476250D01*
G75*
G02*
X109131250Y-160720000I-243750J0D01*
G01*
X108643750Y-160720000D01*
G75*
G02*
X108400000Y-160476250I0J243750D01*
G01*
X108400000Y-159563750D01*
G75*
G02*
X108643750Y-159320000I243750J0D01*
G01*
X109131250Y-159320000D01*
G75*
G02*
X109375000Y-159563750I0J-243750D01*
G01*
G37*
G36*
G01*
X101402500Y-145158750D02*
X101402500Y-145671250D01*
G75*
G02*
X101183750Y-145890000I-218750J0D01*
G01*
X100746250Y-145890000D01*
G75*
G02*
X100527500Y-145671250I0J218750D01*
G01*
X100527500Y-145158750D01*
G75*
G02*
X100746250Y-144940000I218750J0D01*
G01*
X101183750Y-144940000D01*
G75*
G02*
X101402500Y-145158750I0J-218750D01*
G01*
G37*
G36*
G01*
X102977500Y-145158750D02*
X102977500Y-145671250D01*
G75*
G02*
X102758750Y-145890000I-218750J0D01*
G01*
X102321250Y-145890000D01*
G75*
G02*
X102102500Y-145671250I0J218750D01*
G01*
X102102500Y-145158750D01*
G75*
G02*
X102321250Y-144940000I218750J0D01*
G01*
X102758750Y-144940000D01*
G75*
G02*
X102977500Y-145158750I0J-218750D01*
G01*
G37*
G36*
G01*
X85546250Y-151950000D02*
X84633750Y-151950000D01*
G75*
G02*
X84390000Y-151706250I0J243750D01*
G01*
X84390000Y-151218750D01*
G75*
G02*
X84633750Y-150975000I243750J0D01*
G01*
X85546250Y-150975000D01*
G75*
G02*
X85790000Y-151218750I0J-243750D01*
G01*
X85790000Y-151706250D01*
G75*
G02*
X85546250Y-151950000I-243750J0D01*
G01*
G37*
G36*
G01*
X85546250Y-153825000D02*
X84633750Y-153825000D01*
G75*
G02*
X84390000Y-153581250I0J243750D01*
G01*
X84390000Y-153093750D01*
G75*
G02*
X84633750Y-152850000I243750J0D01*
G01*
X85546250Y-152850000D01*
G75*
G02*
X85790000Y-153093750I0J-243750D01*
G01*
X85790000Y-153581250D01*
G75*
G02*
X85546250Y-153825000I-243750J0D01*
G01*
G37*
G36*
G01*
X90626250Y-151950000D02*
X89713750Y-151950000D01*
G75*
G02*
X89470000Y-151706250I0J243750D01*
G01*
X89470000Y-151218750D01*
G75*
G02*
X89713750Y-150975000I243750J0D01*
G01*
X90626250Y-150975000D01*
G75*
G02*
X90870000Y-151218750I0J-243750D01*
G01*
X90870000Y-151706250D01*
G75*
G02*
X90626250Y-151950000I-243750J0D01*
G01*
G37*
G36*
G01*
X90626250Y-153825000D02*
X89713750Y-153825000D01*
G75*
G02*
X89470000Y-153581250I0J243750D01*
G01*
X89470000Y-153093750D01*
G75*
G02*
X89713750Y-152850000I243750J0D01*
G01*
X90626250Y-152850000D01*
G75*
G02*
X90870000Y-153093750I0J-243750D01*
G01*
X90870000Y-153581250D01*
G75*
G02*
X90626250Y-153825000I-243750J0D01*
G01*
G37*
G36*
G01*
X86075000Y-166626250D02*
X86075000Y-166113750D01*
G75*
G02*
X86293750Y-165895000I218750J0D01*
G01*
X86731250Y-165895000D01*
G75*
G02*
X86950000Y-166113750I0J-218750D01*
G01*
X86950000Y-166626250D01*
G75*
G02*
X86731250Y-166845000I-218750J0D01*
G01*
X86293750Y-166845000D01*
G75*
G02*
X86075000Y-166626250I0J218750D01*
G01*
G37*
G36*
G01*
X84500000Y-166626250D02*
X84500000Y-166113750D01*
G75*
G02*
X84718750Y-165895000I218750J0D01*
G01*
X85156250Y-165895000D01*
G75*
G02*
X85375000Y-166113750I0J-218750D01*
G01*
X85375000Y-166626250D01*
G75*
G02*
X85156250Y-166845000I-218750J0D01*
G01*
X84718750Y-166845000D01*
G75*
G02*
X84500000Y-166626250I0J218750D01*
G01*
G37*
G36*
G01*
X85375000Y-158493750D02*
X85375000Y-159006250D01*
G75*
G02*
X85156250Y-159225000I-218750J0D01*
G01*
X84718750Y-159225000D01*
G75*
G02*
X84500000Y-159006250I0J218750D01*
G01*
X84500000Y-158493750D01*
G75*
G02*
X84718750Y-158275000I218750J0D01*
G01*
X85156250Y-158275000D01*
G75*
G02*
X85375000Y-158493750I0J-218750D01*
G01*
G37*
G36*
G01*
X86950000Y-158493750D02*
X86950000Y-159006250D01*
G75*
G02*
X86731250Y-159225000I-218750J0D01*
G01*
X86293750Y-159225000D01*
G75*
G02*
X86075000Y-159006250I0J218750D01*
G01*
X86075000Y-158493750D01*
G75*
G02*
X86293750Y-158275000I218750J0D01*
G01*
X86731250Y-158275000D01*
G75*
G02*
X86950000Y-158493750I0J-218750D01*
G01*
G37*
G36*
G01*
X99410000Y-181866250D02*
X99410000Y-181353750D01*
G75*
G02*
X99628750Y-181135000I218750J0D01*
G01*
X100066250Y-181135000D01*
G75*
G02*
X100285000Y-181353750I0J-218750D01*
G01*
X100285000Y-181866250D01*
G75*
G02*
X100066250Y-182085000I-218750J0D01*
G01*
X99628750Y-182085000D01*
G75*
G02*
X99410000Y-181866250I0J218750D01*
G01*
G37*
G36*
G01*
X97835000Y-181866250D02*
X97835000Y-181353750D01*
G75*
G02*
X98053750Y-181135000I218750J0D01*
G01*
X98491250Y-181135000D01*
G75*
G02*
X98710000Y-181353750I0J-218750D01*
G01*
X98710000Y-181866250D01*
G75*
G02*
X98491250Y-182085000I-218750J0D01*
G01*
X98053750Y-182085000D01*
G75*
G02*
X97835000Y-181866250I0J218750D01*
G01*
G37*
G36*
G01*
X115826250Y-164750000D02*
X115313750Y-164750000D01*
G75*
G02*
X115095000Y-164531250I0J218750D01*
G01*
X115095000Y-164093750D01*
G75*
G02*
X115313750Y-163875000I218750J0D01*
G01*
X115826250Y-163875000D01*
G75*
G02*
X116045000Y-164093750I0J-218750D01*
G01*
X116045000Y-164531250D01*
G75*
G02*
X115826250Y-164750000I-218750J0D01*
G01*
G37*
G36*
G01*
X115826250Y-166325000D02*
X115313750Y-166325000D01*
G75*
G02*
X115095000Y-166106250I0J218750D01*
G01*
X115095000Y-165668750D01*
G75*
G02*
X115313750Y-165450000I218750J0D01*
G01*
X115826250Y-165450000D01*
G75*
G02*
X116045000Y-165668750I0J-218750D01*
G01*
X116045000Y-166106250D01*
G75*
G02*
X115826250Y-166325000I-218750J0D01*
G01*
G37*
G36*
G01*
X112851250Y-164650000D02*
X111938750Y-164650000D01*
G75*
G02*
X111695000Y-164406250I0J243750D01*
G01*
X111695000Y-163918750D01*
G75*
G02*
X111938750Y-163675000I243750J0D01*
G01*
X112851250Y-163675000D01*
G75*
G02*
X113095000Y-163918750I0J-243750D01*
G01*
X113095000Y-164406250D01*
G75*
G02*
X112851250Y-164650000I-243750J0D01*
G01*
G37*
G36*
G01*
X112851250Y-166525000D02*
X111938750Y-166525000D01*
G75*
G02*
X111695000Y-166281250I0J243750D01*
G01*
X111695000Y-165793750D01*
G75*
G02*
X111938750Y-165550000I243750J0D01*
G01*
X112851250Y-165550000D01*
G75*
G02*
X113095000Y-165793750I0J-243750D01*
G01*
X113095000Y-166281250D01*
G75*
G02*
X112851250Y-166525000I-243750J0D01*
G01*
G37*
G36*
G01*
X86075000Y-181231250D02*
X86075000Y-180718750D01*
G75*
G02*
X86293750Y-180500000I218750J0D01*
G01*
X86731250Y-180500000D01*
G75*
G02*
X86950000Y-180718750I0J-218750D01*
G01*
X86950000Y-181231250D01*
G75*
G02*
X86731250Y-181450000I-218750J0D01*
G01*
X86293750Y-181450000D01*
G75*
G02*
X86075000Y-181231250I0J218750D01*
G01*
G37*
G36*
G01*
X84500000Y-181231250D02*
X84500000Y-180718750D01*
G75*
G02*
X84718750Y-180500000I218750J0D01*
G01*
X85156250Y-180500000D01*
G75*
G02*
X85375000Y-180718750I0J-218750D01*
G01*
X85375000Y-181231250D01*
G75*
G02*
X85156250Y-181450000I-218750J0D01*
G01*
X84718750Y-181450000D01*
G75*
G02*
X84500000Y-181231250I0J218750D01*
G01*
G37*
G36*
G01*
X85375000Y-173098750D02*
X85375000Y-173611250D01*
G75*
G02*
X85156250Y-173830000I-218750J0D01*
G01*
X84718750Y-173830000D01*
G75*
G02*
X84500000Y-173611250I0J218750D01*
G01*
X84500000Y-173098750D01*
G75*
G02*
X84718750Y-172880000I218750J0D01*
G01*
X85156250Y-172880000D01*
G75*
G02*
X85375000Y-173098750I0J-218750D01*
G01*
G37*
G36*
G01*
X86950000Y-173098750D02*
X86950000Y-173611250D01*
G75*
G02*
X86731250Y-173830000I-218750J0D01*
G01*
X86293750Y-173830000D01*
G75*
G02*
X86075000Y-173611250I0J218750D01*
G01*
X86075000Y-173098750D01*
G75*
G02*
X86293750Y-172880000I218750J0D01*
G01*
X86731250Y-172880000D01*
G75*
G02*
X86950000Y-173098750I0J-218750D01*
G01*
G37*
G36*
G01*
X109570000Y-124081250D02*
X109570000Y-123568750D01*
G75*
G02*
X109788750Y-123350000I218750J0D01*
G01*
X110226250Y-123350000D01*
G75*
G02*
X110445000Y-123568750I0J-218750D01*
G01*
X110445000Y-124081250D01*
G75*
G02*
X110226250Y-124300000I-218750J0D01*
G01*
X109788750Y-124300000D01*
G75*
G02*
X109570000Y-124081250I0J218750D01*
G01*
G37*
G36*
G01*
X107995000Y-124081250D02*
X107995000Y-123568750D01*
G75*
G02*
X108213750Y-123350000I218750J0D01*
G01*
X108651250Y-123350000D01*
G75*
G02*
X108870000Y-123568750I0J-218750D01*
G01*
X108870000Y-124081250D01*
G75*
G02*
X108651250Y-124300000I-218750J0D01*
G01*
X108213750Y-124300000D01*
G75*
G02*
X107995000Y-124081250I0J218750D01*
G01*
G37*
G36*
G01*
X99980000Y-118488750D02*
X99980000Y-119001250D01*
G75*
G02*
X99761250Y-119220000I-218750J0D01*
G01*
X99323750Y-119220000D01*
G75*
G02*
X99105000Y-119001250I0J218750D01*
G01*
X99105000Y-118488750D01*
G75*
G02*
X99323750Y-118270000I218750J0D01*
G01*
X99761250Y-118270000D01*
G75*
G02*
X99980000Y-118488750I0J-218750D01*
G01*
G37*
G36*
G01*
X101555000Y-118488750D02*
X101555000Y-119001250D01*
G75*
G02*
X101336250Y-119220000I-218750J0D01*
G01*
X100898750Y-119220000D01*
G75*
G02*
X100680000Y-119001250I0J218750D01*
G01*
X100680000Y-118488750D01*
G75*
G02*
X100898750Y-118270000I218750J0D01*
G01*
X101336250Y-118270000D01*
G75*
G02*
X101555000Y-118488750I0J-218750D01*
G01*
G37*
G36*
G01*
X108328750Y-119730000D02*
X108841250Y-119730000D01*
G75*
G02*
X109060000Y-119948750I0J-218750D01*
G01*
X109060000Y-120386250D01*
G75*
G02*
X108841250Y-120605000I-218750J0D01*
G01*
X108328750Y-120605000D01*
G75*
G02*
X108110000Y-120386250I0J218750D01*
G01*
X108110000Y-119948750D01*
G75*
G02*
X108328750Y-119730000I218750J0D01*
G01*
G37*
G36*
G01*
X108328750Y-118155000D02*
X108841250Y-118155000D01*
G75*
G02*
X109060000Y-118373750I0J-218750D01*
G01*
X109060000Y-118811250D01*
G75*
G02*
X108841250Y-119030000I-218750J0D01*
G01*
X108328750Y-119030000D01*
G75*
G02*
X108110000Y-118811250I0J218750D01*
G01*
X108110000Y-118373750D01*
G75*
G02*
X108328750Y-118155000I218750J0D01*
G01*
G37*
M02*
