G04 #@! TF.GenerationSoftware,KiCad,Pcbnew,(5.1.6)-1*
G04 #@! TF.CreationDate,2022-11-16T12:34:37-06:00*
G04 #@! TF.ProjectId,adc2o2,61646332-6f32-42e6-9b69-6361645f7063,rev?*
G04 #@! TF.SameCoordinates,Original*
G04 #@! TF.FileFunction,Soldermask,Top*
G04 #@! TF.FilePolarity,Negative*
%FSLAX46Y46*%
G04 Gerber Fmt 4.6, Leading zero omitted, Abs format (unit mm)*
G04 Created by KiCad (PCBNEW (5.1.6)-1) date 2022-11-16 12:34:37*
%MOMM*%
%LPD*%
G01*
G04 APERTURE LIST*
%ADD10C,0.100000*%
G04 APERTURE END LIST*
D10*
G36*
X118308461Y-180629885D02*
G01*
X118401689Y-180648429D01*
X118583678Y-180723811D01*
X118747463Y-180833249D01*
X118886751Y-180972537D01*
X118996189Y-181136322D01*
X119054085Y-181276095D01*
X119071571Y-181318311D01*
X119093872Y-181430424D01*
X119110000Y-181511509D01*
X119110000Y-181708491D01*
X119071571Y-181901689D01*
X118996189Y-182083678D01*
X118886751Y-182247463D01*
X118747463Y-182386751D01*
X118583678Y-182496189D01*
X118401689Y-182571571D01*
X118208492Y-182610000D01*
X118011508Y-182610000D01*
X117818311Y-182571571D01*
X117636322Y-182496189D01*
X117472537Y-182386751D01*
X117333249Y-182247463D01*
X117223811Y-182083678D01*
X117148429Y-181901689D01*
X117110000Y-181708491D01*
X117110000Y-181511509D01*
X117126129Y-181430424D01*
X117148429Y-181318311D01*
X117165915Y-181276095D01*
X117223811Y-181136322D01*
X117333249Y-180972537D01*
X117472537Y-180833249D01*
X117636322Y-180723811D01*
X117818311Y-180648429D01*
X117911539Y-180629885D01*
X118011508Y-180610000D01*
X118208492Y-180610000D01*
X118308461Y-180629885D01*
G37*
G36*
X70402254Y-177673664D02*
G01*
X70772885Y-177747387D01*
X71191459Y-177920766D01*
X71568165Y-178172473D01*
X71888527Y-178492835D01*
X72140234Y-178869541D01*
X72313613Y-179288115D01*
X72402000Y-179732470D01*
X72402000Y-180185530D01*
X72313613Y-180629885D01*
X72140234Y-181048459D01*
X71888527Y-181425165D01*
X71568165Y-181745527D01*
X71191459Y-181997234D01*
X70772885Y-182170613D01*
X70402254Y-182244336D01*
X70328531Y-182259000D01*
X69875469Y-182259000D01*
X69801746Y-182244336D01*
X69431115Y-182170613D01*
X69012541Y-181997234D01*
X68635835Y-181745527D01*
X68315473Y-181425165D01*
X68063766Y-181048459D01*
X67890387Y-180629885D01*
X67802000Y-180185530D01*
X67802000Y-179732470D01*
X67890387Y-179288115D01*
X68063766Y-178869541D01*
X68315473Y-178492835D01*
X68635835Y-178172473D01*
X69012541Y-177920766D01*
X69431115Y-177747387D01*
X69801746Y-177673664D01*
X69875469Y-177659000D01*
X70328531Y-177659000D01*
X70402254Y-177673664D01*
G37*
G36*
X98568905Y-181089623D02*
G01*
X98613423Y-181103127D01*
X98654462Y-181125062D01*
X98690424Y-181154576D01*
X98719938Y-181190538D01*
X98741873Y-181231577D01*
X98755377Y-181276095D01*
X98760000Y-181323026D01*
X98760000Y-181896974D01*
X98755377Y-181943905D01*
X98741873Y-181988423D01*
X98719938Y-182029462D01*
X98690424Y-182065424D01*
X98654462Y-182094938D01*
X98613423Y-182116873D01*
X98568905Y-182130377D01*
X98521974Y-182135000D01*
X98023026Y-182135000D01*
X97976095Y-182130377D01*
X97931577Y-182116873D01*
X97890538Y-182094938D01*
X97854576Y-182065424D01*
X97825062Y-182029462D01*
X97803127Y-181988423D01*
X97789623Y-181943905D01*
X97785000Y-181896974D01*
X97785000Y-181323026D01*
X97789623Y-181276095D01*
X97803127Y-181231577D01*
X97825062Y-181190538D01*
X97854576Y-181154576D01*
X97890538Y-181125062D01*
X97931577Y-181103127D01*
X97976095Y-181089623D01*
X98023026Y-181085000D01*
X98521974Y-181085000D01*
X98568905Y-181089623D01*
G37*
G36*
X100143905Y-181089623D02*
G01*
X100188423Y-181103127D01*
X100229462Y-181125062D01*
X100265424Y-181154576D01*
X100294938Y-181190538D01*
X100316873Y-181231577D01*
X100330377Y-181276095D01*
X100335000Y-181323026D01*
X100335000Y-181896974D01*
X100330377Y-181943905D01*
X100316873Y-181988423D01*
X100294938Y-182029462D01*
X100265424Y-182065424D01*
X100229462Y-182094938D01*
X100188423Y-182116873D01*
X100143905Y-182130377D01*
X100096974Y-182135000D01*
X99598026Y-182135000D01*
X99551095Y-182130377D01*
X99506577Y-182116873D01*
X99465538Y-182094938D01*
X99429576Y-182065424D01*
X99400062Y-182029462D01*
X99378127Y-181988423D01*
X99364623Y-181943905D01*
X99360000Y-181896974D01*
X99360000Y-181323026D01*
X99364623Y-181276095D01*
X99378127Y-181231577D01*
X99400062Y-181190538D01*
X99429576Y-181154576D01*
X99465538Y-181125062D01*
X99506577Y-181103127D01*
X99551095Y-181089623D01*
X99598026Y-181085000D01*
X100096974Y-181085000D01*
X100143905Y-181089623D01*
G37*
G36*
X86808905Y-180454623D02*
G01*
X86853423Y-180468127D01*
X86894462Y-180490062D01*
X86930424Y-180519576D01*
X86959938Y-180555538D01*
X86981873Y-180596577D01*
X86995377Y-180641095D01*
X87000000Y-180688026D01*
X87000000Y-181261974D01*
X86995377Y-181308905D01*
X86981873Y-181353423D01*
X86959938Y-181394462D01*
X86930424Y-181430424D01*
X86894462Y-181459938D01*
X86853423Y-181481873D01*
X86808905Y-181495377D01*
X86761974Y-181500000D01*
X86263026Y-181500000D01*
X86216095Y-181495377D01*
X86171577Y-181481873D01*
X86130538Y-181459938D01*
X86094576Y-181430424D01*
X86065062Y-181394462D01*
X86043127Y-181353423D01*
X86029623Y-181308905D01*
X86025000Y-181261974D01*
X86025000Y-180688026D01*
X86029623Y-180641095D01*
X86043127Y-180596577D01*
X86065062Y-180555538D01*
X86094576Y-180519576D01*
X86130538Y-180490062D01*
X86171577Y-180468127D01*
X86216095Y-180454623D01*
X86263026Y-180450000D01*
X86761974Y-180450000D01*
X86808905Y-180454623D01*
G37*
G36*
X85233905Y-180454623D02*
G01*
X85278423Y-180468127D01*
X85319462Y-180490062D01*
X85355424Y-180519576D01*
X85384938Y-180555538D01*
X85406873Y-180596577D01*
X85420377Y-180641095D01*
X85425000Y-180688026D01*
X85425000Y-181261974D01*
X85420377Y-181308905D01*
X85406873Y-181353423D01*
X85384938Y-181394462D01*
X85355424Y-181430424D01*
X85319462Y-181459938D01*
X85278423Y-181481873D01*
X85233905Y-181495377D01*
X85186974Y-181500000D01*
X84688026Y-181500000D01*
X84641095Y-181495377D01*
X84596577Y-181481873D01*
X84555538Y-181459938D01*
X84519576Y-181430424D01*
X84490062Y-181394462D01*
X84468127Y-181353423D01*
X84454623Y-181308905D01*
X84450000Y-181261974D01*
X84450000Y-180688026D01*
X84454623Y-180641095D01*
X84468127Y-180596577D01*
X84490062Y-180555538D01*
X84519576Y-180519576D01*
X84555538Y-180490062D01*
X84596577Y-180468127D01*
X84641095Y-180454623D01*
X84688026Y-180450000D01*
X85186974Y-180450000D01*
X85233905Y-180454623D01*
G37*
G36*
X103622491Y-177540738D02*
G01*
X103767520Y-177569586D01*
X103931310Y-177637430D01*
X104078717Y-177735924D01*
X104204076Y-177861283D01*
X104302570Y-178008690D01*
X104370414Y-178172480D01*
X104405000Y-178346358D01*
X104405000Y-178523642D01*
X104370414Y-178697520D01*
X104302570Y-178861310D01*
X104204076Y-179008717D01*
X104078717Y-179134076D01*
X103931310Y-179232570D01*
X103767520Y-179300414D01*
X103622491Y-179329262D01*
X103593643Y-179335000D01*
X103416357Y-179335000D01*
X103387509Y-179329262D01*
X103242480Y-179300414D01*
X103078690Y-179232570D01*
X102931283Y-179134076D01*
X102805924Y-179008717D01*
X102707430Y-178861310D01*
X102639586Y-178697520D01*
X102605000Y-178523642D01*
X102605000Y-178346358D01*
X102639586Y-178172480D01*
X102707430Y-178008690D01*
X102805924Y-177861283D01*
X102931283Y-177735924D01*
X103078690Y-177637430D01*
X103242480Y-177569586D01*
X103387509Y-177540738D01*
X103416357Y-177535000D01*
X103593643Y-177535000D01*
X103622491Y-177540738D01*
G37*
G36*
X101082491Y-177540738D02*
G01*
X101227520Y-177569586D01*
X101391310Y-177637430D01*
X101538717Y-177735924D01*
X101664076Y-177861283D01*
X101762570Y-178008690D01*
X101830414Y-178172480D01*
X101865000Y-178346358D01*
X101865000Y-178523642D01*
X101830414Y-178697520D01*
X101762570Y-178861310D01*
X101664076Y-179008717D01*
X101538717Y-179134076D01*
X101391310Y-179232570D01*
X101227520Y-179300414D01*
X101082491Y-179329262D01*
X101053643Y-179335000D01*
X100876357Y-179335000D01*
X100847509Y-179329262D01*
X100702480Y-179300414D01*
X100538690Y-179232570D01*
X100391283Y-179134076D01*
X100265924Y-179008717D01*
X100167430Y-178861310D01*
X100099586Y-178697520D01*
X100065000Y-178523642D01*
X100065000Y-178346358D01*
X100099586Y-178172480D01*
X100167430Y-178008690D01*
X100265924Y-177861283D01*
X100391283Y-177735924D01*
X100538690Y-177637430D01*
X100702480Y-177569586D01*
X100847509Y-177540738D01*
X100876357Y-177535000D01*
X101053643Y-177535000D01*
X101082491Y-177540738D01*
G37*
G36*
X111242491Y-177540738D02*
G01*
X111387520Y-177569586D01*
X111551310Y-177637430D01*
X111698717Y-177735924D01*
X111824076Y-177861283D01*
X111922570Y-178008690D01*
X111990414Y-178172480D01*
X112025000Y-178346358D01*
X112025000Y-178523642D01*
X111990414Y-178697520D01*
X111922570Y-178861310D01*
X111824076Y-179008717D01*
X111698717Y-179134076D01*
X111551310Y-179232570D01*
X111387520Y-179300414D01*
X111242491Y-179329262D01*
X111213643Y-179335000D01*
X111036357Y-179335000D01*
X111007509Y-179329262D01*
X110862480Y-179300414D01*
X110698690Y-179232570D01*
X110551283Y-179134076D01*
X110425924Y-179008717D01*
X110327430Y-178861310D01*
X110259586Y-178697520D01*
X110225000Y-178523642D01*
X110225000Y-178346358D01*
X110259586Y-178172480D01*
X110327430Y-178008690D01*
X110425924Y-177861283D01*
X110551283Y-177735924D01*
X110698690Y-177637430D01*
X110862480Y-177569586D01*
X111007509Y-177540738D01*
X111036357Y-177535000D01*
X111213643Y-177535000D01*
X111242491Y-177540738D01*
G37*
G36*
X113782491Y-177540738D02*
G01*
X113927520Y-177569586D01*
X114091310Y-177637430D01*
X114238717Y-177735924D01*
X114364076Y-177861283D01*
X114462570Y-178008690D01*
X114530414Y-178172480D01*
X114565000Y-178346358D01*
X114565000Y-178523642D01*
X114530414Y-178697520D01*
X114462570Y-178861310D01*
X114364076Y-179008717D01*
X114238717Y-179134076D01*
X114091310Y-179232570D01*
X113927520Y-179300414D01*
X113782491Y-179329262D01*
X113753643Y-179335000D01*
X113576357Y-179335000D01*
X113547509Y-179329262D01*
X113402480Y-179300414D01*
X113238690Y-179232570D01*
X113091283Y-179134076D01*
X112965924Y-179008717D01*
X112867430Y-178861310D01*
X112799586Y-178697520D01*
X112765000Y-178523642D01*
X112765000Y-178346358D01*
X112799586Y-178172480D01*
X112867430Y-178008690D01*
X112965924Y-177861283D01*
X113091283Y-177735924D01*
X113238690Y-177637430D01*
X113402480Y-177569586D01*
X113547509Y-177540738D01*
X113576357Y-177535000D01*
X113753643Y-177535000D01*
X113782491Y-177540738D01*
G37*
G36*
X108702491Y-177540738D02*
G01*
X108847520Y-177569586D01*
X109011310Y-177637430D01*
X109158717Y-177735924D01*
X109284076Y-177861283D01*
X109382570Y-178008690D01*
X109450414Y-178172480D01*
X109485000Y-178346358D01*
X109485000Y-178523642D01*
X109450414Y-178697520D01*
X109382570Y-178861310D01*
X109284076Y-179008717D01*
X109158717Y-179134076D01*
X109011310Y-179232570D01*
X108847520Y-179300414D01*
X108702491Y-179329262D01*
X108673643Y-179335000D01*
X108496357Y-179335000D01*
X108467509Y-179329262D01*
X108322480Y-179300414D01*
X108158690Y-179232570D01*
X108011283Y-179134076D01*
X107885924Y-179008717D01*
X107787430Y-178861310D01*
X107719586Y-178697520D01*
X107685000Y-178523642D01*
X107685000Y-178346358D01*
X107719586Y-178172480D01*
X107787430Y-178008690D01*
X107885924Y-177861283D01*
X108011283Y-177735924D01*
X108158690Y-177637430D01*
X108322480Y-177569586D01*
X108467509Y-177540738D01*
X108496357Y-177535000D01*
X108673643Y-177535000D01*
X108702491Y-177540738D01*
G37*
G36*
X99325000Y-179335000D02*
G01*
X97525000Y-179335000D01*
X97525000Y-177535000D01*
X99325000Y-177535000D01*
X99325000Y-179335000D01*
G37*
G36*
X92192491Y-177540738D02*
G01*
X92337520Y-177569586D01*
X92501310Y-177637430D01*
X92648717Y-177735924D01*
X92774076Y-177861283D01*
X92872570Y-178008690D01*
X92940414Y-178172480D01*
X92975000Y-178346358D01*
X92975000Y-178523642D01*
X92940414Y-178697520D01*
X92872570Y-178861310D01*
X92774076Y-179008717D01*
X92648717Y-179134076D01*
X92501310Y-179232570D01*
X92337520Y-179300414D01*
X92192491Y-179329262D01*
X92163643Y-179335000D01*
X91986357Y-179335000D01*
X91957509Y-179329262D01*
X91812480Y-179300414D01*
X91648690Y-179232570D01*
X91501283Y-179134076D01*
X91375924Y-179008717D01*
X91277430Y-178861310D01*
X91209586Y-178697520D01*
X91175000Y-178523642D01*
X91175000Y-178346358D01*
X91209586Y-178172480D01*
X91277430Y-178008690D01*
X91375924Y-177861283D01*
X91501283Y-177735924D01*
X91648690Y-177637430D01*
X91812480Y-177569586D01*
X91957509Y-177540738D01*
X91986357Y-177535000D01*
X92163643Y-177535000D01*
X92192491Y-177540738D01*
G37*
G36*
X106162491Y-177540738D02*
G01*
X106307520Y-177569586D01*
X106471310Y-177637430D01*
X106618717Y-177735924D01*
X106744076Y-177861283D01*
X106842570Y-178008690D01*
X106910414Y-178172480D01*
X106945000Y-178346358D01*
X106945000Y-178523642D01*
X106910414Y-178697520D01*
X106842570Y-178861310D01*
X106744076Y-179008717D01*
X106618717Y-179134076D01*
X106471310Y-179232570D01*
X106307520Y-179300414D01*
X106162491Y-179329262D01*
X106133643Y-179335000D01*
X105956357Y-179335000D01*
X105927509Y-179329262D01*
X105782480Y-179300414D01*
X105618690Y-179232570D01*
X105471283Y-179134076D01*
X105345924Y-179008717D01*
X105247430Y-178861310D01*
X105179586Y-178697520D01*
X105145000Y-178523642D01*
X105145000Y-178346358D01*
X105179586Y-178172480D01*
X105247430Y-178008690D01*
X105345924Y-177861283D01*
X105471283Y-177735924D01*
X105618690Y-177637430D01*
X105782480Y-177569586D01*
X105927509Y-177540738D01*
X105956357Y-177535000D01*
X106133643Y-177535000D01*
X106162491Y-177540738D01*
G37*
G36*
X85233905Y-177914623D02*
G01*
X85278423Y-177928127D01*
X85319462Y-177950062D01*
X85355424Y-177979576D01*
X85384938Y-178015538D01*
X85406873Y-178056577D01*
X85420377Y-178101095D01*
X85425000Y-178148026D01*
X85425000Y-178721974D01*
X85420377Y-178768905D01*
X85406873Y-178813423D01*
X85384938Y-178854462D01*
X85355424Y-178890424D01*
X85319462Y-178919938D01*
X85278423Y-178941873D01*
X85233905Y-178955377D01*
X85186974Y-178960000D01*
X84688026Y-178960000D01*
X84641095Y-178955377D01*
X84596577Y-178941873D01*
X84555538Y-178919938D01*
X84519576Y-178890424D01*
X84490062Y-178854462D01*
X84468127Y-178813423D01*
X84454623Y-178768905D01*
X84450000Y-178721974D01*
X84450000Y-178148026D01*
X84454623Y-178101095D01*
X84468127Y-178056577D01*
X84490062Y-178015538D01*
X84519576Y-177979576D01*
X84555538Y-177950062D01*
X84596577Y-177928127D01*
X84641095Y-177914623D01*
X84688026Y-177910000D01*
X85186974Y-177910000D01*
X85233905Y-177914623D01*
G37*
G36*
X86808905Y-177914623D02*
G01*
X86853423Y-177928127D01*
X86894462Y-177950062D01*
X86930424Y-177979576D01*
X86959938Y-178015538D01*
X86981873Y-178056577D01*
X86995377Y-178101095D01*
X87000000Y-178148026D01*
X87000000Y-178721974D01*
X86995377Y-178768905D01*
X86981873Y-178813423D01*
X86959938Y-178854462D01*
X86930424Y-178890424D01*
X86894462Y-178919938D01*
X86853423Y-178941873D01*
X86808905Y-178955377D01*
X86761974Y-178960000D01*
X86263026Y-178960000D01*
X86216095Y-178955377D01*
X86171577Y-178941873D01*
X86130538Y-178919938D01*
X86094576Y-178890424D01*
X86065062Y-178854462D01*
X86043127Y-178813423D01*
X86029623Y-178768905D01*
X86025000Y-178721974D01*
X86025000Y-178148026D01*
X86029623Y-178101095D01*
X86043127Y-178056577D01*
X86065062Y-178015538D01*
X86094576Y-177979576D01*
X86130538Y-177950062D01*
X86171577Y-177928127D01*
X86216095Y-177914623D01*
X86263026Y-177910000D01*
X86761974Y-177910000D01*
X86808905Y-177914623D01*
G37*
G36*
X79757228Y-175942626D02*
G01*
X79916468Y-176008585D01*
X80059780Y-176104343D01*
X80181657Y-176226220D01*
X80277415Y-176369532D01*
X80343374Y-176528772D01*
X80377000Y-176697820D01*
X80377000Y-176870180D01*
X80343374Y-177039228D01*
X80277415Y-177198468D01*
X80181657Y-177341780D01*
X80059780Y-177463657D01*
X79916468Y-177559415D01*
X79891910Y-177569587D01*
X79757228Y-177625374D01*
X79588181Y-177659000D01*
X79415819Y-177659000D01*
X79246772Y-177625374D01*
X79112090Y-177569587D01*
X79087532Y-177559415D01*
X78944220Y-177463657D01*
X78822343Y-177341780D01*
X78726585Y-177198468D01*
X78660626Y-177039228D01*
X78627000Y-176870180D01*
X78627000Y-176697820D01*
X78660626Y-176528772D01*
X78726585Y-176369532D01*
X78822343Y-176226220D01*
X78944220Y-176104343D01*
X79087532Y-176008585D01*
X79246772Y-175942626D01*
X79415819Y-175909000D01*
X79588181Y-175909000D01*
X79757228Y-175942626D01*
G37*
G36*
X103622491Y-175000738D02*
G01*
X103767520Y-175029586D01*
X103931310Y-175097430D01*
X104078717Y-175195924D01*
X104204076Y-175321283D01*
X104302570Y-175468690D01*
X104370414Y-175632480D01*
X104405000Y-175806358D01*
X104405000Y-175983642D01*
X104370414Y-176157520D01*
X104302570Y-176321310D01*
X104204076Y-176468717D01*
X104078717Y-176594076D01*
X103931310Y-176692570D01*
X103767520Y-176760414D01*
X103622491Y-176789262D01*
X103593643Y-176795000D01*
X103416357Y-176795000D01*
X103387509Y-176789262D01*
X103242480Y-176760414D01*
X103078690Y-176692570D01*
X102931283Y-176594076D01*
X102805924Y-176468717D01*
X102707430Y-176321310D01*
X102639586Y-176157520D01*
X102605000Y-175983642D01*
X102605000Y-175806358D01*
X102639586Y-175632480D01*
X102707430Y-175468690D01*
X102805924Y-175321283D01*
X102931283Y-175195924D01*
X103078690Y-175097430D01*
X103242480Y-175029586D01*
X103387509Y-175000738D01*
X103416357Y-174995000D01*
X103593643Y-174995000D01*
X103622491Y-175000738D01*
G37*
G36*
X101082491Y-175000738D02*
G01*
X101227520Y-175029586D01*
X101391310Y-175097430D01*
X101538717Y-175195924D01*
X101664076Y-175321283D01*
X101762570Y-175468690D01*
X101830414Y-175632480D01*
X101865000Y-175806358D01*
X101865000Y-175983642D01*
X101830414Y-176157520D01*
X101762570Y-176321310D01*
X101664076Y-176468717D01*
X101538717Y-176594076D01*
X101391310Y-176692570D01*
X101227520Y-176760414D01*
X101082491Y-176789262D01*
X101053643Y-176795000D01*
X100876357Y-176795000D01*
X100847509Y-176789262D01*
X100702480Y-176760414D01*
X100538690Y-176692570D01*
X100391283Y-176594076D01*
X100265924Y-176468717D01*
X100167430Y-176321310D01*
X100099586Y-176157520D01*
X100065000Y-175983642D01*
X100065000Y-175806358D01*
X100099586Y-175632480D01*
X100167430Y-175468690D01*
X100265924Y-175321283D01*
X100391283Y-175195924D01*
X100538690Y-175097430D01*
X100702480Y-175029586D01*
X100847509Y-175000738D01*
X100876357Y-174995000D01*
X101053643Y-174995000D01*
X101082491Y-175000738D01*
G37*
G36*
X106162491Y-175000738D02*
G01*
X106307520Y-175029586D01*
X106471310Y-175097430D01*
X106618717Y-175195924D01*
X106744076Y-175321283D01*
X106842570Y-175468690D01*
X106910414Y-175632480D01*
X106945000Y-175806358D01*
X106945000Y-175983642D01*
X106910414Y-176157520D01*
X106842570Y-176321310D01*
X106744076Y-176468717D01*
X106618717Y-176594076D01*
X106471310Y-176692570D01*
X106307520Y-176760414D01*
X106162491Y-176789262D01*
X106133643Y-176795000D01*
X105956357Y-176795000D01*
X105927509Y-176789262D01*
X105782480Y-176760414D01*
X105618690Y-176692570D01*
X105471283Y-176594076D01*
X105345924Y-176468717D01*
X105247430Y-176321310D01*
X105179586Y-176157520D01*
X105145000Y-175983642D01*
X105145000Y-175806358D01*
X105179586Y-175632480D01*
X105247430Y-175468690D01*
X105345924Y-175321283D01*
X105471283Y-175195924D01*
X105618690Y-175097430D01*
X105782480Y-175029586D01*
X105927509Y-175000738D01*
X105956357Y-174995000D01*
X106133643Y-174995000D01*
X106162491Y-175000738D01*
G37*
G36*
X108702491Y-175000738D02*
G01*
X108847520Y-175029586D01*
X109011310Y-175097430D01*
X109158717Y-175195924D01*
X109284076Y-175321283D01*
X109382570Y-175468690D01*
X109450414Y-175632480D01*
X109485000Y-175806358D01*
X109485000Y-175983642D01*
X109450414Y-176157520D01*
X109382570Y-176321310D01*
X109284076Y-176468717D01*
X109158717Y-176594076D01*
X109011310Y-176692570D01*
X108847520Y-176760414D01*
X108702491Y-176789262D01*
X108673643Y-176795000D01*
X108496357Y-176795000D01*
X108467509Y-176789262D01*
X108322480Y-176760414D01*
X108158690Y-176692570D01*
X108011283Y-176594076D01*
X107885924Y-176468717D01*
X107787430Y-176321310D01*
X107719586Y-176157520D01*
X107685000Y-175983642D01*
X107685000Y-175806358D01*
X107719586Y-175632480D01*
X107787430Y-175468690D01*
X107885924Y-175321283D01*
X108011283Y-175195924D01*
X108158690Y-175097430D01*
X108322480Y-175029586D01*
X108467509Y-175000738D01*
X108496357Y-174995000D01*
X108673643Y-174995000D01*
X108702491Y-175000738D01*
G37*
G36*
X113782491Y-175000738D02*
G01*
X113927520Y-175029586D01*
X114091310Y-175097430D01*
X114238717Y-175195924D01*
X114364076Y-175321283D01*
X114462570Y-175468690D01*
X114530414Y-175632480D01*
X114565000Y-175806358D01*
X114565000Y-175983642D01*
X114530414Y-176157520D01*
X114462570Y-176321310D01*
X114364076Y-176468717D01*
X114238717Y-176594076D01*
X114091310Y-176692570D01*
X113927520Y-176760414D01*
X113782491Y-176789262D01*
X113753643Y-176795000D01*
X113576357Y-176795000D01*
X113547509Y-176789262D01*
X113402480Y-176760414D01*
X113238690Y-176692570D01*
X113091283Y-176594076D01*
X112965924Y-176468717D01*
X112867430Y-176321310D01*
X112799586Y-176157520D01*
X112765000Y-175983642D01*
X112765000Y-175806358D01*
X112799586Y-175632480D01*
X112867430Y-175468690D01*
X112965924Y-175321283D01*
X113091283Y-175195924D01*
X113238690Y-175097430D01*
X113402480Y-175029586D01*
X113547509Y-175000738D01*
X113576357Y-174995000D01*
X113753643Y-174995000D01*
X113782491Y-175000738D01*
G37*
G36*
X92192491Y-175000738D02*
G01*
X92337520Y-175029586D01*
X92501310Y-175097430D01*
X92648717Y-175195924D01*
X92774076Y-175321283D01*
X92872570Y-175468690D01*
X92940414Y-175632480D01*
X92975000Y-175806358D01*
X92975000Y-175983642D01*
X92940414Y-176157520D01*
X92872570Y-176321310D01*
X92774076Y-176468717D01*
X92648717Y-176594076D01*
X92501310Y-176692570D01*
X92337520Y-176760414D01*
X92192491Y-176789262D01*
X92163643Y-176795000D01*
X91986357Y-176795000D01*
X91957509Y-176789262D01*
X91812480Y-176760414D01*
X91648690Y-176692570D01*
X91501283Y-176594076D01*
X91375924Y-176468717D01*
X91277430Y-176321310D01*
X91209586Y-176157520D01*
X91175000Y-175983642D01*
X91175000Y-175806358D01*
X91209586Y-175632480D01*
X91277430Y-175468690D01*
X91375924Y-175321283D01*
X91501283Y-175195924D01*
X91648690Y-175097430D01*
X91812480Y-175029586D01*
X91957509Y-175000738D01*
X91986357Y-174995000D01*
X92163643Y-174995000D01*
X92192491Y-175000738D01*
G37*
G36*
X98542491Y-175000738D02*
G01*
X98687520Y-175029586D01*
X98851310Y-175097430D01*
X98998717Y-175195924D01*
X99124076Y-175321283D01*
X99222570Y-175468690D01*
X99290414Y-175632480D01*
X99325000Y-175806358D01*
X99325000Y-175983642D01*
X99290414Y-176157520D01*
X99222570Y-176321310D01*
X99124076Y-176468717D01*
X98998717Y-176594076D01*
X98851310Y-176692570D01*
X98687520Y-176760414D01*
X98542491Y-176789262D01*
X98513643Y-176795000D01*
X98336357Y-176795000D01*
X98307509Y-176789262D01*
X98162480Y-176760414D01*
X97998690Y-176692570D01*
X97851283Y-176594076D01*
X97725924Y-176468717D01*
X97627430Y-176321310D01*
X97559586Y-176157520D01*
X97525000Y-175983642D01*
X97525000Y-175806358D01*
X97559586Y-175632480D01*
X97627430Y-175468690D01*
X97725924Y-175321283D01*
X97851283Y-175195924D01*
X97998690Y-175097430D01*
X98162480Y-175029586D01*
X98307509Y-175000738D01*
X98336357Y-174995000D01*
X98513643Y-174995000D01*
X98542491Y-175000738D01*
G37*
G36*
X111242491Y-175000738D02*
G01*
X111387520Y-175029586D01*
X111551310Y-175097430D01*
X111698717Y-175195924D01*
X111824076Y-175321283D01*
X111922570Y-175468690D01*
X111990414Y-175632480D01*
X112025000Y-175806358D01*
X112025000Y-175983642D01*
X111990414Y-176157520D01*
X111922570Y-176321310D01*
X111824076Y-176468717D01*
X111698717Y-176594076D01*
X111551310Y-176692570D01*
X111387520Y-176760414D01*
X111242491Y-176789262D01*
X111213643Y-176795000D01*
X111036357Y-176795000D01*
X111007509Y-176789262D01*
X110862480Y-176760414D01*
X110698690Y-176692570D01*
X110551283Y-176594076D01*
X110425924Y-176468717D01*
X110327430Y-176321310D01*
X110259586Y-176157520D01*
X110225000Y-175983642D01*
X110225000Y-175806358D01*
X110259586Y-175632480D01*
X110327430Y-175468690D01*
X110425924Y-175321283D01*
X110551283Y-175195924D01*
X110698690Y-175097430D01*
X110862480Y-175029586D01*
X111007509Y-175000738D01*
X111036357Y-174995000D01*
X111213643Y-174995000D01*
X111242491Y-175000738D01*
G37*
G36*
X85233905Y-175374623D02*
G01*
X85278423Y-175388127D01*
X85319462Y-175410062D01*
X85355424Y-175439576D01*
X85384938Y-175475538D01*
X85406873Y-175516577D01*
X85420377Y-175561095D01*
X85425000Y-175608026D01*
X85425000Y-176181974D01*
X85420377Y-176228905D01*
X85406873Y-176273423D01*
X85384938Y-176314462D01*
X85355424Y-176350424D01*
X85319462Y-176379938D01*
X85278423Y-176401873D01*
X85233905Y-176415377D01*
X85186974Y-176420000D01*
X84688026Y-176420000D01*
X84641095Y-176415377D01*
X84596577Y-176401873D01*
X84555538Y-176379938D01*
X84519576Y-176350424D01*
X84490062Y-176314462D01*
X84468127Y-176273423D01*
X84454623Y-176228905D01*
X84450000Y-176181974D01*
X84450000Y-175608026D01*
X84454623Y-175561095D01*
X84468127Y-175516577D01*
X84490062Y-175475538D01*
X84519576Y-175439576D01*
X84555538Y-175410062D01*
X84596577Y-175388127D01*
X84641095Y-175374623D01*
X84688026Y-175370000D01*
X85186974Y-175370000D01*
X85233905Y-175374623D01*
G37*
G36*
X86808905Y-175374623D02*
G01*
X86853423Y-175388127D01*
X86894462Y-175410062D01*
X86930424Y-175439576D01*
X86959938Y-175475538D01*
X86981873Y-175516577D01*
X86995377Y-175561095D01*
X87000000Y-175608026D01*
X87000000Y-176181974D01*
X86995377Y-176228905D01*
X86981873Y-176273423D01*
X86959938Y-176314462D01*
X86930424Y-176350424D01*
X86894462Y-176379938D01*
X86853423Y-176401873D01*
X86808905Y-176415377D01*
X86761974Y-176420000D01*
X86263026Y-176420000D01*
X86216095Y-176415377D01*
X86171577Y-176401873D01*
X86130538Y-176379938D01*
X86094576Y-176350424D01*
X86065062Y-176314462D01*
X86043127Y-176273423D01*
X86029623Y-176228905D01*
X86025000Y-176181974D01*
X86025000Y-175608026D01*
X86029623Y-175561095D01*
X86043127Y-175516577D01*
X86065062Y-175475538D01*
X86094576Y-175439576D01*
X86130538Y-175410062D01*
X86171577Y-175388127D01*
X86216095Y-175374623D01*
X86263026Y-175370000D01*
X86761974Y-175370000D01*
X86808905Y-175374623D01*
G37*
G36*
X79757228Y-173402626D02*
G01*
X79916468Y-173468585D01*
X80059780Y-173564343D01*
X80181657Y-173686220D01*
X80277415Y-173829532D01*
X80343374Y-173988772D01*
X80377000Y-174157820D01*
X80377000Y-174330180D01*
X80343374Y-174499228D01*
X80277415Y-174658468D01*
X80181657Y-174801780D01*
X80059780Y-174923657D01*
X79916468Y-175019415D01*
X79891910Y-175029587D01*
X79757228Y-175085374D01*
X79588181Y-175119000D01*
X79415819Y-175119000D01*
X79246772Y-175085374D01*
X79112090Y-175029587D01*
X79087532Y-175019415D01*
X78944220Y-174923657D01*
X78822343Y-174801780D01*
X78726585Y-174658468D01*
X78660626Y-174499228D01*
X78627000Y-174330180D01*
X78627000Y-174157820D01*
X78660626Y-173988772D01*
X78726585Y-173829532D01*
X78822343Y-173686220D01*
X78944220Y-173564343D01*
X79087532Y-173468585D01*
X79246772Y-173402626D01*
X79415819Y-173369000D01*
X79588181Y-173369000D01*
X79757228Y-173402626D01*
G37*
G36*
X92975000Y-174255000D02*
G01*
X91175000Y-174255000D01*
X91175000Y-172455000D01*
X92975000Y-172455000D01*
X92975000Y-174255000D01*
G37*
G36*
X85233905Y-172834623D02*
G01*
X85278423Y-172848127D01*
X85319462Y-172870062D01*
X85355424Y-172899576D01*
X85384938Y-172935538D01*
X85406873Y-172976577D01*
X85420377Y-173021095D01*
X85425000Y-173068026D01*
X85425000Y-173641974D01*
X85420377Y-173688905D01*
X85406873Y-173733423D01*
X85384938Y-173774462D01*
X85355424Y-173810424D01*
X85319462Y-173839938D01*
X85278423Y-173861873D01*
X85233905Y-173875377D01*
X85186974Y-173880000D01*
X84688026Y-173880000D01*
X84641095Y-173875377D01*
X84596577Y-173861873D01*
X84555538Y-173839938D01*
X84519576Y-173810424D01*
X84490062Y-173774462D01*
X84468127Y-173733423D01*
X84454623Y-173688905D01*
X84450000Y-173641974D01*
X84450000Y-173068026D01*
X84454623Y-173021095D01*
X84468127Y-172976577D01*
X84490062Y-172935538D01*
X84519576Y-172899576D01*
X84555538Y-172870062D01*
X84596577Y-172848127D01*
X84641095Y-172834623D01*
X84688026Y-172830000D01*
X85186974Y-172830000D01*
X85233905Y-172834623D01*
G37*
G36*
X86808905Y-172834623D02*
G01*
X86853423Y-172848127D01*
X86894462Y-172870062D01*
X86930424Y-172899576D01*
X86959938Y-172935538D01*
X86981873Y-172976577D01*
X86995377Y-173021095D01*
X87000000Y-173068026D01*
X87000000Y-173641974D01*
X86995377Y-173688905D01*
X86981873Y-173733423D01*
X86959938Y-173774462D01*
X86930424Y-173810424D01*
X86894462Y-173839938D01*
X86853423Y-173861873D01*
X86808905Y-173875377D01*
X86761974Y-173880000D01*
X86263026Y-173880000D01*
X86216095Y-173875377D01*
X86171577Y-173861873D01*
X86130538Y-173839938D01*
X86094576Y-173810424D01*
X86065062Y-173774462D01*
X86043127Y-173733423D01*
X86029623Y-173688905D01*
X86025000Y-173641974D01*
X86025000Y-173068026D01*
X86029623Y-173021095D01*
X86043127Y-172976577D01*
X86065062Y-172935538D01*
X86094576Y-172899576D01*
X86130538Y-172870062D01*
X86171577Y-172848127D01*
X86216095Y-172834623D01*
X86263026Y-172830000D01*
X86761974Y-172830000D01*
X86808905Y-172834623D01*
G37*
G36*
X101108905Y-172199623D02*
G01*
X101153423Y-172213127D01*
X101194462Y-172235062D01*
X101230424Y-172264576D01*
X101259938Y-172300538D01*
X101281873Y-172341577D01*
X101295377Y-172386095D01*
X101300000Y-172433026D01*
X101300000Y-173006974D01*
X101295377Y-173053905D01*
X101281873Y-173098423D01*
X101259938Y-173139462D01*
X101230424Y-173175424D01*
X101194462Y-173204938D01*
X101153423Y-173226873D01*
X101108905Y-173240377D01*
X101061974Y-173245000D01*
X100563026Y-173245000D01*
X100516095Y-173240377D01*
X100471577Y-173226873D01*
X100430538Y-173204938D01*
X100394576Y-173175424D01*
X100365062Y-173139462D01*
X100343127Y-173098423D01*
X100329623Y-173053905D01*
X100325000Y-173006974D01*
X100325000Y-172433026D01*
X100329623Y-172386095D01*
X100343127Y-172341577D01*
X100365062Y-172300538D01*
X100394576Y-172264576D01*
X100430538Y-172235062D01*
X100471577Y-172213127D01*
X100516095Y-172199623D01*
X100563026Y-172195000D01*
X101061974Y-172195000D01*
X101108905Y-172199623D01*
G37*
G36*
X102683905Y-172199623D02*
G01*
X102728423Y-172213127D01*
X102769462Y-172235062D01*
X102805424Y-172264576D01*
X102834938Y-172300538D01*
X102856873Y-172341577D01*
X102870377Y-172386095D01*
X102875000Y-172433026D01*
X102875000Y-173006974D01*
X102870377Y-173053905D01*
X102856873Y-173098423D01*
X102834938Y-173139462D01*
X102805424Y-173175424D01*
X102769462Y-173204938D01*
X102728423Y-173226873D01*
X102683905Y-173240377D01*
X102636974Y-173245000D01*
X102138026Y-173245000D01*
X102091095Y-173240377D01*
X102046577Y-173226873D01*
X102005538Y-173204938D01*
X101969576Y-173175424D01*
X101940062Y-173139462D01*
X101918127Y-173098423D01*
X101904623Y-173053905D01*
X101900000Y-173006974D01*
X101900000Y-172433026D01*
X101904623Y-172386095D01*
X101918127Y-172341577D01*
X101940062Y-172300538D01*
X101969576Y-172264576D01*
X102005538Y-172235062D01*
X102046577Y-172213127D01*
X102091095Y-172199623D01*
X102138026Y-172195000D01*
X102636974Y-172195000D01*
X102683905Y-172199623D01*
G37*
G36*
X79757228Y-170862626D02*
G01*
X79916468Y-170928585D01*
X80059780Y-171024343D01*
X80181657Y-171146220D01*
X80277415Y-171289532D01*
X80343374Y-171448772D01*
X80377000Y-171617820D01*
X80377000Y-171790180D01*
X80343374Y-171959228D01*
X80277415Y-172118468D01*
X80181657Y-172261780D01*
X80059780Y-172383657D01*
X79916468Y-172479415D01*
X79757228Y-172545374D01*
X79588181Y-172579000D01*
X79415819Y-172579000D01*
X79246772Y-172545374D01*
X79087532Y-172479415D01*
X78944220Y-172383657D01*
X78822343Y-172261780D01*
X78726585Y-172118468D01*
X78660626Y-171959228D01*
X78627000Y-171790180D01*
X78627000Y-171617820D01*
X78660626Y-171448772D01*
X78726585Y-171289532D01*
X78822343Y-171146220D01*
X78944220Y-171024343D01*
X79087532Y-170928585D01*
X79246772Y-170862626D01*
X79415819Y-170829000D01*
X79588181Y-170829000D01*
X79757228Y-170862626D01*
G37*
G36*
X86808905Y-170294623D02*
G01*
X86853423Y-170308127D01*
X86894462Y-170330062D01*
X86930424Y-170359576D01*
X86959938Y-170395538D01*
X86981873Y-170436577D01*
X86995377Y-170481095D01*
X87000000Y-170528026D01*
X87000000Y-171101974D01*
X86995377Y-171148905D01*
X86981873Y-171193423D01*
X86959938Y-171234462D01*
X86930424Y-171270424D01*
X86894462Y-171299938D01*
X86853423Y-171321873D01*
X86808905Y-171335377D01*
X86761974Y-171340000D01*
X86263026Y-171340000D01*
X86216095Y-171335377D01*
X86171577Y-171321873D01*
X86130538Y-171299938D01*
X86094576Y-171270424D01*
X86065062Y-171234462D01*
X86043127Y-171193423D01*
X86029623Y-171148905D01*
X86025000Y-171101974D01*
X86025000Y-170528026D01*
X86029623Y-170481095D01*
X86043127Y-170436577D01*
X86065062Y-170395538D01*
X86094576Y-170359576D01*
X86130538Y-170330062D01*
X86171577Y-170308127D01*
X86216095Y-170294623D01*
X86263026Y-170290000D01*
X86761974Y-170290000D01*
X86808905Y-170294623D01*
G37*
G36*
X85233905Y-170294623D02*
G01*
X85278423Y-170308127D01*
X85319462Y-170330062D01*
X85355424Y-170359576D01*
X85384938Y-170395538D01*
X85406873Y-170436577D01*
X85420377Y-170481095D01*
X85425000Y-170528026D01*
X85425000Y-171101974D01*
X85420377Y-171148905D01*
X85406873Y-171193423D01*
X85384938Y-171234462D01*
X85355424Y-171270424D01*
X85319462Y-171299938D01*
X85278423Y-171321873D01*
X85233905Y-171335377D01*
X85186974Y-171340000D01*
X84688026Y-171340000D01*
X84641095Y-171335377D01*
X84596577Y-171321873D01*
X84555538Y-171299938D01*
X84519576Y-171270424D01*
X84490062Y-171234462D01*
X84468127Y-171193423D01*
X84454623Y-171148905D01*
X84450000Y-171101974D01*
X84450000Y-170528026D01*
X84454623Y-170481095D01*
X84468127Y-170436577D01*
X84490062Y-170395538D01*
X84519576Y-170359576D01*
X84555538Y-170330062D01*
X84596577Y-170308127D01*
X84641095Y-170294623D01*
X84688026Y-170290000D01*
X85186974Y-170290000D01*
X85233905Y-170294623D01*
G37*
G36*
X112728905Y-169214623D02*
G01*
X112773423Y-169228127D01*
X112814462Y-169250062D01*
X112850424Y-169279576D01*
X112879938Y-169315538D01*
X112901873Y-169356577D01*
X112915377Y-169401095D01*
X112920000Y-169448026D01*
X112920000Y-169946974D01*
X112915377Y-169993905D01*
X112901873Y-170038423D01*
X112879938Y-170079462D01*
X112850424Y-170115424D01*
X112814462Y-170144938D01*
X112773423Y-170166873D01*
X112728905Y-170180377D01*
X112681974Y-170185000D01*
X112108026Y-170185000D01*
X112061095Y-170180377D01*
X112016577Y-170166873D01*
X111975538Y-170144938D01*
X111939576Y-170115424D01*
X111910062Y-170079462D01*
X111888127Y-170038423D01*
X111874623Y-169993905D01*
X111870000Y-169946974D01*
X111870000Y-169448026D01*
X111874623Y-169401095D01*
X111888127Y-169356577D01*
X111910062Y-169315538D01*
X111939576Y-169279576D01*
X111975538Y-169250062D01*
X112016577Y-169228127D01*
X112061095Y-169214623D01*
X112108026Y-169210000D01*
X112681974Y-169210000D01*
X112728905Y-169214623D01*
G37*
G36*
X80377000Y-170039000D02*
G01*
X78627000Y-170039000D01*
X78627000Y-168289000D01*
X80377000Y-168289000D01*
X80377000Y-170039000D01*
G37*
G36*
X99508905Y-168389623D02*
G01*
X99553423Y-168403127D01*
X99594462Y-168425062D01*
X99630424Y-168454576D01*
X99659938Y-168490538D01*
X99681873Y-168531577D01*
X99695377Y-168576095D01*
X99700000Y-168623026D01*
X99700000Y-169196974D01*
X99695377Y-169243905D01*
X99681873Y-169288423D01*
X99659938Y-169329462D01*
X99630424Y-169365424D01*
X99594462Y-169394938D01*
X99553423Y-169416873D01*
X99508905Y-169430377D01*
X99461974Y-169435000D01*
X98963026Y-169435000D01*
X98916095Y-169430377D01*
X98871577Y-169416873D01*
X98830538Y-169394938D01*
X98794576Y-169365424D01*
X98765062Y-169329462D01*
X98743127Y-169288423D01*
X98729623Y-169243905D01*
X98725000Y-169196974D01*
X98725000Y-168623026D01*
X98729623Y-168576095D01*
X98743127Y-168531577D01*
X98765062Y-168490538D01*
X98794576Y-168454576D01*
X98830538Y-168425062D01*
X98871577Y-168403127D01*
X98916095Y-168389623D01*
X98963026Y-168385000D01*
X99461974Y-168385000D01*
X99508905Y-168389623D01*
G37*
G36*
X97933905Y-168389623D02*
G01*
X97978423Y-168403127D01*
X98019462Y-168425062D01*
X98055424Y-168454576D01*
X98084938Y-168490538D01*
X98106873Y-168531577D01*
X98120377Y-168576095D01*
X98125000Y-168623026D01*
X98125000Y-169196974D01*
X98120377Y-169243905D01*
X98106873Y-169288423D01*
X98084938Y-169329462D01*
X98055424Y-169365424D01*
X98019462Y-169394938D01*
X97978423Y-169416873D01*
X97933905Y-169430377D01*
X97886974Y-169435000D01*
X97388026Y-169435000D01*
X97341095Y-169430377D01*
X97296577Y-169416873D01*
X97255538Y-169394938D01*
X97219576Y-169365424D01*
X97190062Y-169329462D01*
X97168127Y-169288423D01*
X97154623Y-169243905D01*
X97150000Y-169196974D01*
X97150000Y-168623026D01*
X97154623Y-168576095D01*
X97168127Y-168531577D01*
X97190062Y-168490538D01*
X97219576Y-168454576D01*
X97255538Y-168425062D01*
X97296577Y-168403127D01*
X97341095Y-168389623D01*
X97388026Y-168385000D01*
X97886974Y-168385000D01*
X97933905Y-168389623D01*
G37*
G36*
X112728905Y-167639623D02*
G01*
X112773423Y-167653127D01*
X112814462Y-167675062D01*
X112850424Y-167704576D01*
X112879938Y-167740538D01*
X112901873Y-167781577D01*
X112915377Y-167826095D01*
X112920000Y-167873026D01*
X112920000Y-168371974D01*
X112915377Y-168418905D01*
X112901873Y-168463423D01*
X112879938Y-168504462D01*
X112850424Y-168540424D01*
X112814462Y-168569938D01*
X112773423Y-168591873D01*
X112728905Y-168605377D01*
X112681974Y-168610000D01*
X112108026Y-168610000D01*
X112061095Y-168605377D01*
X112016577Y-168591873D01*
X111975538Y-168569938D01*
X111939576Y-168540424D01*
X111910062Y-168504462D01*
X111888127Y-168463423D01*
X111874623Y-168418905D01*
X111870000Y-168371974D01*
X111870000Y-167873026D01*
X111874623Y-167826095D01*
X111888127Y-167781577D01*
X111910062Y-167740538D01*
X111939576Y-167704576D01*
X111975538Y-167675062D01*
X112016577Y-167653127D01*
X112061095Y-167639623D01*
X112108026Y-167635000D01*
X112681974Y-167635000D01*
X112728905Y-167639623D01*
G37*
G36*
X70393378Y-163701899D02*
G01*
X70772885Y-163777387D01*
X71191459Y-163950766D01*
X71568165Y-164202473D01*
X71888527Y-164522835D01*
X72140234Y-164899541D01*
X72313613Y-165318115D01*
X72373550Y-165619440D01*
X72402000Y-165762469D01*
X72402000Y-166215531D01*
X72391828Y-166266670D01*
X72313613Y-166659885D01*
X72140234Y-167078459D01*
X71888527Y-167455165D01*
X71568165Y-167775527D01*
X71191459Y-168027234D01*
X70772885Y-168200613D01*
X70402254Y-168274336D01*
X70328531Y-168289000D01*
X69875469Y-168289000D01*
X69801746Y-168274336D01*
X69431115Y-168200613D01*
X69012541Y-168027234D01*
X68635835Y-167775527D01*
X68315473Y-167455165D01*
X68063766Y-167078459D01*
X67890387Y-166659885D01*
X67812172Y-166266670D01*
X67802000Y-166215531D01*
X67802000Y-165762469D01*
X67830450Y-165619440D01*
X67890387Y-165318115D01*
X68063766Y-164899541D01*
X68315473Y-164522835D01*
X68635835Y-164202473D01*
X69012541Y-163950766D01*
X69431115Y-163777387D01*
X69810622Y-163701899D01*
X69875469Y-163689000D01*
X70328531Y-163689000D01*
X70393378Y-163701899D01*
G37*
G36*
X102675000Y-168285000D02*
G01*
X101075000Y-168285000D01*
X101075000Y-167735000D01*
X102675000Y-167735000D01*
X102675000Y-168285000D01*
G37*
G36*
X108475000Y-168285000D02*
G01*
X106875000Y-168285000D01*
X106875000Y-167735000D01*
X108475000Y-167735000D01*
X108475000Y-168285000D01*
G37*
G36*
X102675000Y-167635000D02*
G01*
X101075000Y-167635000D01*
X101075000Y-167085000D01*
X102675000Y-167085000D01*
X102675000Y-167635000D01*
G37*
G36*
X108475000Y-167635000D02*
G01*
X106875000Y-167635000D01*
X106875000Y-167085000D01*
X108475000Y-167085000D01*
X108475000Y-167635000D01*
G37*
G36*
X92975000Y-167270000D02*
G01*
X91175000Y-167270000D01*
X91175000Y-165470000D01*
X92975000Y-165470000D01*
X92975000Y-167270000D01*
G37*
G36*
X108475000Y-166985000D02*
G01*
X106875000Y-166985000D01*
X106875000Y-166435000D01*
X108475000Y-166435000D01*
X108475000Y-166985000D01*
G37*
G36*
X102675000Y-166985000D02*
G01*
X101075000Y-166985000D01*
X101075000Y-166435000D01*
X102675000Y-166435000D01*
X102675000Y-166985000D01*
G37*
G36*
X86808905Y-165849623D02*
G01*
X86853423Y-165863127D01*
X86894462Y-165885062D01*
X86930424Y-165914576D01*
X86959938Y-165950538D01*
X86981873Y-165991577D01*
X86995377Y-166036095D01*
X87000000Y-166083026D01*
X87000000Y-166656974D01*
X86995377Y-166703905D01*
X86981873Y-166748423D01*
X86959938Y-166789462D01*
X86930424Y-166825424D01*
X86894462Y-166854938D01*
X86853423Y-166876873D01*
X86808905Y-166890377D01*
X86761974Y-166895000D01*
X86263026Y-166895000D01*
X86216095Y-166890377D01*
X86171577Y-166876873D01*
X86130538Y-166854938D01*
X86094576Y-166825424D01*
X86065062Y-166789462D01*
X86043127Y-166748423D01*
X86029623Y-166703905D01*
X86025000Y-166656974D01*
X86025000Y-166083026D01*
X86029623Y-166036095D01*
X86043127Y-165991577D01*
X86065062Y-165950538D01*
X86094576Y-165914576D01*
X86130538Y-165885062D01*
X86171577Y-165863127D01*
X86216095Y-165849623D01*
X86263026Y-165845000D01*
X86761974Y-165845000D01*
X86808905Y-165849623D01*
G37*
G36*
X85233905Y-165849623D02*
G01*
X85278423Y-165863127D01*
X85319462Y-165885062D01*
X85355424Y-165914576D01*
X85384938Y-165950538D01*
X85406873Y-165991577D01*
X85420377Y-166036095D01*
X85425000Y-166083026D01*
X85425000Y-166656974D01*
X85420377Y-166703905D01*
X85406873Y-166748423D01*
X85384938Y-166789462D01*
X85355424Y-166825424D01*
X85319462Y-166854938D01*
X85278423Y-166876873D01*
X85233905Y-166890377D01*
X85186974Y-166895000D01*
X84688026Y-166895000D01*
X84641095Y-166890377D01*
X84596577Y-166876873D01*
X84555538Y-166854938D01*
X84519576Y-166825424D01*
X84490062Y-166789462D01*
X84468127Y-166748423D01*
X84454623Y-166703905D01*
X84450000Y-166656974D01*
X84450000Y-166083026D01*
X84454623Y-166036095D01*
X84468127Y-165991577D01*
X84490062Y-165950538D01*
X84519576Y-165914576D01*
X84555538Y-165885062D01*
X84596577Y-165863127D01*
X84641095Y-165849623D01*
X84688026Y-165845000D01*
X85186974Y-165845000D01*
X85233905Y-165849623D01*
G37*
G36*
X112933782Y-165505103D02*
G01*
X112982990Y-165520030D01*
X113028351Y-165544276D01*
X113068101Y-165576899D01*
X113100724Y-165616649D01*
X113124970Y-165662010D01*
X113139897Y-165711218D01*
X113145000Y-165763026D01*
X113145000Y-166311974D01*
X113139897Y-166363782D01*
X113124970Y-166412990D01*
X113100724Y-166458351D01*
X113068101Y-166498101D01*
X113028351Y-166530724D01*
X112982990Y-166554970D01*
X112933782Y-166569897D01*
X112881974Y-166575000D01*
X111908026Y-166575000D01*
X111856218Y-166569897D01*
X111807010Y-166554970D01*
X111761649Y-166530724D01*
X111721899Y-166498101D01*
X111689276Y-166458351D01*
X111665030Y-166412990D01*
X111650103Y-166363782D01*
X111645000Y-166311974D01*
X111645000Y-165763026D01*
X111650103Y-165711218D01*
X111665030Y-165662010D01*
X111689276Y-165616649D01*
X111721899Y-165576899D01*
X111761649Y-165544276D01*
X111807010Y-165520030D01*
X111856218Y-165505103D01*
X111908026Y-165500000D01*
X112881974Y-165500000D01*
X112933782Y-165505103D01*
G37*
G36*
X115903905Y-165404623D02*
G01*
X115948423Y-165418127D01*
X115989462Y-165440062D01*
X116025424Y-165469576D01*
X116054938Y-165505538D01*
X116076873Y-165546577D01*
X116090377Y-165591095D01*
X116095000Y-165638026D01*
X116095000Y-166136974D01*
X116090377Y-166183905D01*
X116076873Y-166228423D01*
X116054938Y-166269462D01*
X116025424Y-166305424D01*
X115989462Y-166334938D01*
X115948423Y-166356873D01*
X115903905Y-166370377D01*
X115856974Y-166375000D01*
X115283026Y-166375000D01*
X115236095Y-166370377D01*
X115191577Y-166356873D01*
X115150538Y-166334938D01*
X115114576Y-166305424D01*
X115085062Y-166269462D01*
X115063127Y-166228423D01*
X115049623Y-166183905D01*
X115045000Y-166136974D01*
X115045000Y-165638026D01*
X115049623Y-165591095D01*
X115063127Y-165546577D01*
X115085062Y-165505538D01*
X115114576Y-165469576D01*
X115150538Y-165440062D01*
X115191577Y-165418127D01*
X115236095Y-165404623D01*
X115283026Y-165400000D01*
X115856974Y-165400000D01*
X115903905Y-165404623D01*
G37*
G36*
X108475000Y-166335000D02*
G01*
X106875000Y-166335000D01*
X106875000Y-165785000D01*
X108475000Y-165785000D01*
X108475000Y-166335000D01*
G37*
G36*
X102675000Y-166335000D02*
G01*
X101075000Y-166335000D01*
X101075000Y-165785000D01*
X102675000Y-165785000D01*
X102675000Y-166335000D01*
G37*
G36*
X108475000Y-165685000D02*
G01*
X106875000Y-165685000D01*
X106875000Y-165135000D01*
X108475000Y-165135000D01*
X108475000Y-165685000D01*
G37*
G36*
X102675000Y-165685000D02*
G01*
X101075000Y-165685000D01*
X101075000Y-165135000D01*
X102675000Y-165135000D01*
X102675000Y-165685000D01*
G37*
G36*
X108475000Y-165035000D02*
G01*
X106875000Y-165035000D01*
X106875000Y-164485000D01*
X108475000Y-164485000D01*
X108475000Y-165035000D01*
G37*
G36*
X102675000Y-165035000D02*
G01*
X101075000Y-165035000D01*
X101075000Y-164485000D01*
X102675000Y-164485000D01*
X102675000Y-165035000D01*
G37*
G36*
X115903905Y-163829623D02*
G01*
X115948423Y-163843127D01*
X115989462Y-163865062D01*
X116025424Y-163894576D01*
X116054938Y-163930538D01*
X116076873Y-163971577D01*
X116090377Y-164016095D01*
X116095000Y-164063026D01*
X116095000Y-164561974D01*
X116090377Y-164608905D01*
X116076873Y-164653423D01*
X116054938Y-164694462D01*
X116025424Y-164730424D01*
X115989462Y-164759938D01*
X115948423Y-164781873D01*
X115903905Y-164795377D01*
X115856974Y-164800000D01*
X115283026Y-164800000D01*
X115236095Y-164795377D01*
X115191577Y-164781873D01*
X115150538Y-164759938D01*
X115114576Y-164730424D01*
X115085062Y-164694462D01*
X115063127Y-164653423D01*
X115049623Y-164608905D01*
X115045000Y-164561974D01*
X115045000Y-164063026D01*
X115049623Y-164016095D01*
X115063127Y-163971577D01*
X115085062Y-163930538D01*
X115114576Y-163894576D01*
X115150538Y-163865062D01*
X115191577Y-163843127D01*
X115236095Y-163829623D01*
X115283026Y-163825000D01*
X115856974Y-163825000D01*
X115903905Y-163829623D01*
G37*
G36*
X92192491Y-162935738D02*
G01*
X92337520Y-162964586D01*
X92501310Y-163032430D01*
X92648717Y-163130924D01*
X92774076Y-163256283D01*
X92872570Y-163403690D01*
X92940414Y-163567480D01*
X92951855Y-163625000D01*
X92975000Y-163741357D01*
X92975000Y-163918643D01*
X92969262Y-163947491D01*
X92940414Y-164092520D01*
X92872570Y-164256310D01*
X92774076Y-164403717D01*
X92648717Y-164529076D01*
X92501310Y-164627570D01*
X92337520Y-164695414D01*
X92192491Y-164724262D01*
X92163643Y-164730000D01*
X91986357Y-164730000D01*
X91957509Y-164724262D01*
X91812480Y-164695414D01*
X91648690Y-164627570D01*
X91501283Y-164529076D01*
X91375924Y-164403717D01*
X91277430Y-164256310D01*
X91209586Y-164092520D01*
X91180738Y-163947491D01*
X91175000Y-163918643D01*
X91175000Y-163741357D01*
X91198145Y-163625000D01*
X91209586Y-163567480D01*
X91277430Y-163403690D01*
X91375924Y-163256283D01*
X91501283Y-163130924D01*
X91648690Y-163032430D01*
X91812480Y-162964586D01*
X91957509Y-162935738D01*
X91986357Y-162930000D01*
X92163643Y-162930000D01*
X92192491Y-162935738D01*
G37*
G36*
X112933782Y-163630103D02*
G01*
X112982990Y-163645030D01*
X113028351Y-163669276D01*
X113068101Y-163701899D01*
X113100724Y-163741649D01*
X113124970Y-163787010D01*
X113139897Y-163836218D01*
X113145000Y-163888026D01*
X113145000Y-164436974D01*
X113139897Y-164488782D01*
X113124970Y-164537990D01*
X113100724Y-164583351D01*
X113068101Y-164623101D01*
X113028351Y-164655724D01*
X112982990Y-164679970D01*
X112933782Y-164694897D01*
X112881974Y-164700000D01*
X111908026Y-164700000D01*
X111856218Y-164694897D01*
X111807010Y-164679970D01*
X111761649Y-164655724D01*
X111721899Y-164623101D01*
X111689276Y-164583351D01*
X111665030Y-164537990D01*
X111650103Y-164488782D01*
X111645000Y-164436974D01*
X111645000Y-163888026D01*
X111650103Y-163836218D01*
X111665030Y-163787010D01*
X111689276Y-163741649D01*
X111721899Y-163701899D01*
X111761649Y-163669276D01*
X111807010Y-163645030D01*
X111856218Y-163630103D01*
X111908026Y-163625000D01*
X112881974Y-163625000D01*
X112933782Y-163630103D01*
G37*
G36*
X102675000Y-164385000D02*
G01*
X101075000Y-164385000D01*
X101075000Y-163835000D01*
X102675000Y-163835000D01*
X102675000Y-164385000D01*
G37*
G36*
X108475000Y-164385000D02*
G01*
X106875000Y-164385000D01*
X106875000Y-163835000D01*
X108475000Y-163835000D01*
X108475000Y-164385000D01*
G37*
G36*
X85233905Y-163309623D02*
G01*
X85278423Y-163323127D01*
X85319462Y-163345062D01*
X85355424Y-163374576D01*
X85384938Y-163410538D01*
X85406873Y-163451577D01*
X85420377Y-163496095D01*
X85425000Y-163543026D01*
X85425000Y-164116974D01*
X85420377Y-164163905D01*
X85406873Y-164208423D01*
X85384938Y-164249462D01*
X85355424Y-164285424D01*
X85319462Y-164314938D01*
X85278423Y-164336873D01*
X85233905Y-164350377D01*
X85186974Y-164355000D01*
X84688026Y-164355000D01*
X84641095Y-164350377D01*
X84596577Y-164336873D01*
X84555538Y-164314938D01*
X84519576Y-164285424D01*
X84490062Y-164249462D01*
X84468127Y-164208423D01*
X84454623Y-164163905D01*
X84450000Y-164116974D01*
X84450000Y-163543026D01*
X84454623Y-163496095D01*
X84468127Y-163451577D01*
X84490062Y-163410538D01*
X84519576Y-163374576D01*
X84555538Y-163345062D01*
X84596577Y-163323127D01*
X84641095Y-163309623D01*
X84688026Y-163305000D01*
X85186974Y-163305000D01*
X85233905Y-163309623D01*
G37*
G36*
X86808905Y-163309623D02*
G01*
X86853423Y-163323127D01*
X86894462Y-163345062D01*
X86930424Y-163374576D01*
X86959938Y-163410538D01*
X86981873Y-163451577D01*
X86995377Y-163496095D01*
X87000000Y-163543026D01*
X87000000Y-164116974D01*
X86995377Y-164163905D01*
X86981873Y-164208423D01*
X86959938Y-164249462D01*
X86930424Y-164285424D01*
X86894462Y-164314938D01*
X86853423Y-164336873D01*
X86808905Y-164350377D01*
X86761974Y-164355000D01*
X86263026Y-164355000D01*
X86216095Y-164350377D01*
X86171577Y-164336873D01*
X86130538Y-164314938D01*
X86094576Y-164285424D01*
X86065062Y-164249462D01*
X86043127Y-164208423D01*
X86029623Y-164163905D01*
X86025000Y-164116974D01*
X86025000Y-163543026D01*
X86029623Y-163496095D01*
X86043127Y-163451577D01*
X86065062Y-163410538D01*
X86094576Y-163374576D01*
X86130538Y-163345062D01*
X86171577Y-163323127D01*
X86216095Y-163309623D01*
X86263026Y-163305000D01*
X86761974Y-163305000D01*
X86808905Y-163309623D01*
G37*
G36*
X102675000Y-163735000D02*
G01*
X101075000Y-163735000D01*
X101075000Y-163185000D01*
X102675000Y-163185000D01*
X102675000Y-163735000D01*
G37*
G36*
X108475000Y-163735000D02*
G01*
X106875000Y-163735000D01*
X106875000Y-163185000D01*
X108475000Y-163185000D01*
X108475000Y-163735000D01*
G37*
G36*
X92192491Y-160395738D02*
G01*
X92337520Y-160424586D01*
X92501310Y-160492430D01*
X92648717Y-160590924D01*
X92774076Y-160716283D01*
X92872570Y-160863690D01*
X92940414Y-161027480D01*
X92975000Y-161201358D01*
X92975000Y-161378642D01*
X92940414Y-161552520D01*
X92872570Y-161716310D01*
X92774076Y-161863717D01*
X92648717Y-161989076D01*
X92501310Y-162087570D01*
X92337520Y-162155414D01*
X92192491Y-162184262D01*
X92163643Y-162190000D01*
X91986357Y-162190000D01*
X91957509Y-162184262D01*
X91812480Y-162155414D01*
X91648690Y-162087570D01*
X91501283Y-161989076D01*
X91375924Y-161863717D01*
X91277430Y-161716310D01*
X91209586Y-161552520D01*
X91175000Y-161378642D01*
X91175000Y-161201358D01*
X91209586Y-161027480D01*
X91277430Y-160863690D01*
X91375924Y-160716283D01*
X91501283Y-160590924D01*
X91648690Y-160492430D01*
X91812480Y-160424586D01*
X91957509Y-160395738D01*
X91986357Y-160390000D01*
X92163643Y-160390000D01*
X92192491Y-160395738D01*
G37*
G36*
X86808905Y-160769623D02*
G01*
X86853423Y-160783127D01*
X86894462Y-160805062D01*
X86930424Y-160834576D01*
X86959938Y-160870538D01*
X86981873Y-160911577D01*
X86995377Y-160956095D01*
X87000000Y-161003026D01*
X87000000Y-161576974D01*
X86995377Y-161623905D01*
X86981873Y-161668423D01*
X86959938Y-161709462D01*
X86930424Y-161745424D01*
X86894462Y-161774938D01*
X86853423Y-161796873D01*
X86808905Y-161810377D01*
X86761974Y-161815000D01*
X86263026Y-161815000D01*
X86216095Y-161810377D01*
X86171577Y-161796873D01*
X86130538Y-161774938D01*
X86094576Y-161745424D01*
X86065062Y-161709462D01*
X86043127Y-161668423D01*
X86029623Y-161623905D01*
X86025000Y-161576974D01*
X86025000Y-161003026D01*
X86029623Y-160956095D01*
X86043127Y-160911577D01*
X86065062Y-160870538D01*
X86094576Y-160834576D01*
X86130538Y-160805062D01*
X86171577Y-160783127D01*
X86216095Y-160769623D01*
X86263026Y-160765000D01*
X86761974Y-160765000D01*
X86808905Y-160769623D01*
G37*
G36*
X85233905Y-160769623D02*
G01*
X85278423Y-160783127D01*
X85319462Y-160805062D01*
X85355424Y-160834576D01*
X85384938Y-160870538D01*
X85406873Y-160911577D01*
X85420377Y-160956095D01*
X85425000Y-161003026D01*
X85425000Y-161576974D01*
X85420377Y-161623905D01*
X85406873Y-161668423D01*
X85384938Y-161709462D01*
X85355424Y-161745424D01*
X85319462Y-161774938D01*
X85278423Y-161796873D01*
X85233905Y-161810377D01*
X85186974Y-161815000D01*
X84688026Y-161815000D01*
X84641095Y-161810377D01*
X84596577Y-161796873D01*
X84555538Y-161774938D01*
X84519576Y-161745424D01*
X84490062Y-161709462D01*
X84468127Y-161668423D01*
X84454623Y-161623905D01*
X84450000Y-161576974D01*
X84450000Y-161003026D01*
X84454623Y-160956095D01*
X84468127Y-160911577D01*
X84490062Y-160870538D01*
X84519576Y-160834576D01*
X84555538Y-160805062D01*
X84596577Y-160783127D01*
X84641095Y-160769623D01*
X84688026Y-160765000D01*
X85186974Y-160765000D01*
X85233905Y-160769623D01*
G37*
G36*
X104169993Y-159219758D02*
G01*
X104170000Y-159219758D01*
X104179802Y-159220723D01*
X104182558Y-159221559D01*
X104186237Y-159222105D01*
X104218383Y-159222105D01*
X104219002Y-159222166D01*
X104219009Y-159222166D01*
X104228811Y-159223131D01*
X104228824Y-159223134D01*
X104229437Y-159223194D01*
X104324346Y-159242073D01*
X104324931Y-159242250D01*
X104324944Y-159242253D01*
X104334369Y-159245112D01*
X104334381Y-159245117D01*
X104334968Y-159245295D01*
X104424376Y-159282328D01*
X104424921Y-159282619D01*
X104424925Y-159282621D01*
X104433611Y-159287264D01*
X104433615Y-159287267D01*
X104434158Y-159287557D01*
X104514629Y-159341326D01*
X104515105Y-159341717D01*
X104515110Y-159341720D01*
X104519204Y-159345081D01*
X104523199Y-159348359D01*
X104591641Y-159416801D01*
X104594919Y-159420796D01*
X104598280Y-159424890D01*
X104598283Y-159424895D01*
X104598674Y-159425371D01*
X104652443Y-159505842D01*
X104652733Y-159506385D01*
X104652736Y-159506389D01*
X104657379Y-159515075D01*
X104657672Y-159515624D01*
X104694705Y-159605032D01*
X104694883Y-159605619D01*
X104694888Y-159605631D01*
X104697747Y-159615056D01*
X104697750Y-159615069D01*
X104697927Y-159615654D01*
X104716806Y-159710563D01*
X104716866Y-159711176D01*
X104716869Y-159711189D01*
X104717834Y-159720991D01*
X104717834Y-159720998D01*
X104717895Y-159721617D01*
X104717895Y-159753763D01*
X104718441Y-159757442D01*
X104719277Y-159760198D01*
X104720242Y-159770000D01*
X104720242Y-159770007D01*
X104720303Y-159770626D01*
X104720303Y-160269374D01*
X104720242Y-160269993D01*
X104720242Y-160270000D01*
X104719277Y-160279802D01*
X104718441Y-160282558D01*
X104717895Y-160286237D01*
X104717895Y-160318383D01*
X104717834Y-160319002D01*
X104717834Y-160319009D01*
X104716869Y-160328811D01*
X104716866Y-160328824D01*
X104716806Y-160329437D01*
X104697927Y-160424346D01*
X104697750Y-160424931D01*
X104697747Y-160424944D01*
X104694888Y-160434369D01*
X104694883Y-160434381D01*
X104694705Y-160434968D01*
X104657672Y-160524376D01*
X104657381Y-160524921D01*
X104657379Y-160524925D01*
X104652736Y-160533611D01*
X104652733Y-160533615D01*
X104652443Y-160534158D01*
X104598674Y-160614629D01*
X104598283Y-160615105D01*
X104598280Y-160615110D01*
X104594919Y-160619204D01*
X104591641Y-160623199D01*
X104523199Y-160691641D01*
X104519204Y-160694919D01*
X104515110Y-160698280D01*
X104515105Y-160698283D01*
X104514629Y-160698674D01*
X104434158Y-160752443D01*
X104433615Y-160752733D01*
X104433611Y-160752736D01*
X104424925Y-160757379D01*
X104424921Y-160757381D01*
X104424376Y-160757672D01*
X104334968Y-160794705D01*
X104334381Y-160794883D01*
X104334369Y-160794888D01*
X104324944Y-160797747D01*
X104324931Y-160797750D01*
X104324346Y-160797927D01*
X104229437Y-160816806D01*
X104228824Y-160816866D01*
X104228811Y-160816869D01*
X104219009Y-160817834D01*
X104219002Y-160817834D01*
X104218383Y-160817895D01*
X104186237Y-160817895D01*
X104182558Y-160818441D01*
X104179802Y-160819277D01*
X104170000Y-160820242D01*
X104169993Y-160820242D01*
X104169374Y-160820303D01*
X103620626Y-160820303D01*
X103620007Y-160820242D01*
X103620000Y-160820242D01*
X103610198Y-160819277D01*
X103600773Y-160816418D01*
X103592087Y-160811775D01*
X103584474Y-160805526D01*
X103578225Y-160797913D01*
X103573582Y-160789227D01*
X103570723Y-160779802D01*
X103569758Y-160770000D01*
X103569758Y-160769993D01*
X103569697Y-160769374D01*
X103569697Y-159270626D01*
X103569758Y-159270007D01*
X103569758Y-159270000D01*
X103570723Y-159260198D01*
X103573582Y-159250773D01*
X103578225Y-159242087D01*
X103584474Y-159234474D01*
X103592087Y-159228225D01*
X103600773Y-159223582D01*
X103610198Y-159220723D01*
X103620000Y-159219758D01*
X103620007Y-159219758D01*
X103620626Y-159219697D01*
X104169374Y-159219697D01*
X104169993Y-159219758D01*
G37*
G36*
X102119993Y-159219758D02*
G01*
X102120000Y-159219758D01*
X102129802Y-159220723D01*
X102139227Y-159223582D01*
X102147913Y-159228225D01*
X102155526Y-159234474D01*
X102161775Y-159242087D01*
X102166418Y-159250773D01*
X102169277Y-159260198D01*
X102170242Y-159270000D01*
X102170242Y-159270007D01*
X102170303Y-159270626D01*
X102170303Y-160769374D01*
X102170242Y-160769993D01*
X102170242Y-160770000D01*
X102169277Y-160779802D01*
X102166418Y-160789227D01*
X102161775Y-160797913D01*
X102155526Y-160805526D01*
X102147913Y-160811775D01*
X102139227Y-160816418D01*
X102129802Y-160819277D01*
X102120000Y-160820242D01*
X102119993Y-160820242D01*
X102119374Y-160820303D01*
X101570626Y-160820303D01*
X101570007Y-160820242D01*
X101570000Y-160820242D01*
X101560198Y-160819277D01*
X101557442Y-160818441D01*
X101553763Y-160817895D01*
X101521617Y-160817895D01*
X101520998Y-160817834D01*
X101520991Y-160817834D01*
X101511189Y-160816869D01*
X101511176Y-160816866D01*
X101510563Y-160816806D01*
X101415654Y-160797927D01*
X101415069Y-160797750D01*
X101415056Y-160797747D01*
X101405631Y-160794888D01*
X101405619Y-160794883D01*
X101405032Y-160794705D01*
X101315624Y-160757672D01*
X101315079Y-160757381D01*
X101315075Y-160757379D01*
X101306389Y-160752736D01*
X101306385Y-160752733D01*
X101305842Y-160752443D01*
X101225371Y-160698674D01*
X101224895Y-160698283D01*
X101224890Y-160698280D01*
X101220796Y-160694919D01*
X101216801Y-160691641D01*
X101148359Y-160623199D01*
X101145081Y-160619204D01*
X101141720Y-160615110D01*
X101141717Y-160615105D01*
X101141326Y-160614629D01*
X101087557Y-160534158D01*
X101087267Y-160533615D01*
X101087264Y-160533611D01*
X101082621Y-160524925D01*
X101082619Y-160524921D01*
X101082328Y-160524376D01*
X101045295Y-160434968D01*
X101045117Y-160434381D01*
X101045112Y-160434369D01*
X101042253Y-160424944D01*
X101042250Y-160424931D01*
X101042073Y-160424346D01*
X101023194Y-160329437D01*
X101023134Y-160328824D01*
X101023131Y-160328811D01*
X101022166Y-160319009D01*
X101022166Y-160319002D01*
X101022105Y-160318383D01*
X101022105Y-160286237D01*
X101021559Y-160282558D01*
X101020723Y-160279802D01*
X101019758Y-160270000D01*
X101019758Y-160269993D01*
X101019697Y-160269374D01*
X101019697Y-159770626D01*
X101019758Y-159770007D01*
X101019758Y-159770000D01*
X101020723Y-159760198D01*
X101021559Y-159757442D01*
X101022105Y-159753763D01*
X101022105Y-159721617D01*
X101022166Y-159720998D01*
X101022166Y-159720991D01*
X101023131Y-159711189D01*
X101023134Y-159711176D01*
X101023194Y-159710563D01*
X101042073Y-159615654D01*
X101042250Y-159615069D01*
X101042253Y-159615056D01*
X101045112Y-159605631D01*
X101045117Y-159605619D01*
X101045295Y-159605032D01*
X101082328Y-159515624D01*
X101082621Y-159515075D01*
X101087264Y-159506389D01*
X101087267Y-159506385D01*
X101087557Y-159505842D01*
X101141326Y-159425371D01*
X101141717Y-159424895D01*
X101141720Y-159424890D01*
X101145081Y-159420796D01*
X101148359Y-159416801D01*
X101216801Y-159348359D01*
X101220796Y-159345081D01*
X101224890Y-159341720D01*
X101224895Y-159341717D01*
X101225371Y-159341326D01*
X101305842Y-159287557D01*
X101306385Y-159287267D01*
X101306389Y-159287264D01*
X101315075Y-159282621D01*
X101315079Y-159282619D01*
X101315624Y-159282328D01*
X101405032Y-159245295D01*
X101405619Y-159245117D01*
X101405631Y-159245112D01*
X101415056Y-159242253D01*
X101415069Y-159242250D01*
X101415654Y-159242073D01*
X101510563Y-159223194D01*
X101511176Y-159223134D01*
X101511189Y-159223131D01*
X101520991Y-159222166D01*
X101520998Y-159222166D01*
X101521617Y-159222105D01*
X101553763Y-159222105D01*
X101557442Y-159221559D01*
X101560198Y-159220723D01*
X101570000Y-159219758D01*
X101570007Y-159219758D01*
X101570626Y-159219697D01*
X102119374Y-159219697D01*
X102119993Y-159219758D01*
G37*
G36*
X98454993Y-159219758D02*
G01*
X98455000Y-159219758D01*
X98464802Y-159220723D01*
X98467558Y-159221559D01*
X98471237Y-159222105D01*
X98503383Y-159222105D01*
X98504002Y-159222166D01*
X98504009Y-159222166D01*
X98513811Y-159223131D01*
X98513824Y-159223134D01*
X98514437Y-159223194D01*
X98609346Y-159242073D01*
X98609931Y-159242250D01*
X98609944Y-159242253D01*
X98619369Y-159245112D01*
X98619381Y-159245117D01*
X98619968Y-159245295D01*
X98709376Y-159282328D01*
X98709921Y-159282619D01*
X98709925Y-159282621D01*
X98718611Y-159287264D01*
X98718615Y-159287267D01*
X98719158Y-159287557D01*
X98799629Y-159341326D01*
X98800105Y-159341717D01*
X98800110Y-159341720D01*
X98804204Y-159345081D01*
X98808199Y-159348359D01*
X98876641Y-159416801D01*
X98879919Y-159420796D01*
X98883280Y-159424890D01*
X98883283Y-159424895D01*
X98883674Y-159425371D01*
X98937443Y-159505842D01*
X98937733Y-159506385D01*
X98937736Y-159506389D01*
X98942379Y-159515075D01*
X98942672Y-159515624D01*
X98979705Y-159605032D01*
X98979883Y-159605619D01*
X98979888Y-159605631D01*
X98982747Y-159615056D01*
X98982750Y-159615069D01*
X98982927Y-159615654D01*
X99001806Y-159710563D01*
X99001866Y-159711176D01*
X99001869Y-159711189D01*
X99002834Y-159720991D01*
X99002834Y-159720998D01*
X99002895Y-159721617D01*
X99002895Y-159753763D01*
X99003441Y-159757442D01*
X99004277Y-159760198D01*
X99005242Y-159770000D01*
X99005242Y-159770007D01*
X99005303Y-159770626D01*
X99005303Y-160269374D01*
X99005242Y-160269993D01*
X99005242Y-160270000D01*
X99004277Y-160279802D01*
X99003441Y-160282558D01*
X99002895Y-160286237D01*
X99002895Y-160318383D01*
X99002834Y-160319002D01*
X99002834Y-160319009D01*
X99001869Y-160328811D01*
X99001866Y-160328824D01*
X99001806Y-160329437D01*
X98982927Y-160424346D01*
X98982750Y-160424931D01*
X98982747Y-160424944D01*
X98979888Y-160434369D01*
X98979883Y-160434381D01*
X98979705Y-160434968D01*
X98942672Y-160524376D01*
X98942381Y-160524921D01*
X98942379Y-160524925D01*
X98937736Y-160533611D01*
X98937733Y-160533615D01*
X98937443Y-160534158D01*
X98883674Y-160614629D01*
X98883283Y-160615105D01*
X98883280Y-160615110D01*
X98879919Y-160619204D01*
X98876641Y-160623199D01*
X98808199Y-160691641D01*
X98804204Y-160694919D01*
X98800110Y-160698280D01*
X98800105Y-160698283D01*
X98799629Y-160698674D01*
X98719158Y-160752443D01*
X98718615Y-160752733D01*
X98718611Y-160752736D01*
X98709925Y-160757379D01*
X98709921Y-160757381D01*
X98709376Y-160757672D01*
X98619968Y-160794705D01*
X98619381Y-160794883D01*
X98619369Y-160794888D01*
X98609944Y-160797747D01*
X98609931Y-160797750D01*
X98609346Y-160797927D01*
X98514437Y-160816806D01*
X98513824Y-160816866D01*
X98513811Y-160816869D01*
X98504009Y-160817834D01*
X98504002Y-160817834D01*
X98503383Y-160817895D01*
X98471237Y-160817895D01*
X98467558Y-160818441D01*
X98464802Y-160819277D01*
X98455000Y-160820242D01*
X98454993Y-160820242D01*
X98454374Y-160820303D01*
X97905626Y-160820303D01*
X97905007Y-160820242D01*
X97905000Y-160820242D01*
X97895198Y-160819277D01*
X97885773Y-160816418D01*
X97877087Y-160811775D01*
X97869474Y-160805526D01*
X97863225Y-160797913D01*
X97858582Y-160789227D01*
X97855723Y-160779802D01*
X97854758Y-160770000D01*
X97854758Y-160769993D01*
X97854697Y-160769374D01*
X97854697Y-159270626D01*
X97854758Y-159270007D01*
X97854758Y-159270000D01*
X97855723Y-159260198D01*
X97858582Y-159250773D01*
X97863225Y-159242087D01*
X97869474Y-159234474D01*
X97877087Y-159228225D01*
X97885773Y-159223582D01*
X97895198Y-159220723D01*
X97905000Y-159219758D01*
X97905007Y-159219758D01*
X97905626Y-159219697D01*
X98454374Y-159219697D01*
X98454993Y-159219758D01*
G37*
G36*
X96404993Y-159219758D02*
G01*
X96405000Y-159219758D01*
X96414802Y-159220723D01*
X96424227Y-159223582D01*
X96432913Y-159228225D01*
X96440526Y-159234474D01*
X96446775Y-159242087D01*
X96451418Y-159250773D01*
X96454277Y-159260198D01*
X96455242Y-159270000D01*
X96455242Y-159270007D01*
X96455303Y-159270626D01*
X96455303Y-160769374D01*
X96455242Y-160769993D01*
X96455242Y-160770000D01*
X96454277Y-160779802D01*
X96451418Y-160789227D01*
X96446775Y-160797913D01*
X96440526Y-160805526D01*
X96432913Y-160811775D01*
X96424227Y-160816418D01*
X96414802Y-160819277D01*
X96405000Y-160820242D01*
X96404993Y-160820242D01*
X96404374Y-160820303D01*
X95855626Y-160820303D01*
X95855007Y-160820242D01*
X95855000Y-160820242D01*
X95845198Y-160819277D01*
X95842442Y-160818441D01*
X95838763Y-160817895D01*
X95806617Y-160817895D01*
X95805998Y-160817834D01*
X95805991Y-160817834D01*
X95796189Y-160816869D01*
X95796176Y-160816866D01*
X95795563Y-160816806D01*
X95700654Y-160797927D01*
X95700069Y-160797750D01*
X95700056Y-160797747D01*
X95690631Y-160794888D01*
X95690619Y-160794883D01*
X95690032Y-160794705D01*
X95600624Y-160757672D01*
X95600079Y-160757381D01*
X95600075Y-160757379D01*
X95591389Y-160752736D01*
X95591385Y-160752733D01*
X95590842Y-160752443D01*
X95510371Y-160698674D01*
X95509895Y-160698283D01*
X95509890Y-160698280D01*
X95505796Y-160694919D01*
X95501801Y-160691641D01*
X95433359Y-160623199D01*
X95430081Y-160619204D01*
X95426720Y-160615110D01*
X95426717Y-160615105D01*
X95426326Y-160614629D01*
X95372557Y-160534158D01*
X95372267Y-160533615D01*
X95372264Y-160533611D01*
X95367621Y-160524925D01*
X95367619Y-160524921D01*
X95367328Y-160524376D01*
X95330295Y-160434968D01*
X95330117Y-160434381D01*
X95330112Y-160434369D01*
X95327253Y-160424944D01*
X95327250Y-160424931D01*
X95327073Y-160424346D01*
X95308194Y-160329437D01*
X95308134Y-160328824D01*
X95308131Y-160328811D01*
X95307166Y-160319009D01*
X95307166Y-160319002D01*
X95307105Y-160318383D01*
X95307105Y-160286237D01*
X95306559Y-160282558D01*
X95305723Y-160279802D01*
X95304758Y-160270000D01*
X95304758Y-160269993D01*
X95304697Y-160269374D01*
X95304697Y-159770626D01*
X95304758Y-159770007D01*
X95304758Y-159770000D01*
X95305723Y-159760198D01*
X95306559Y-159757442D01*
X95307105Y-159753763D01*
X95307105Y-159721617D01*
X95307166Y-159720998D01*
X95307166Y-159720991D01*
X95308131Y-159711189D01*
X95308134Y-159711176D01*
X95308194Y-159710563D01*
X95327073Y-159615654D01*
X95327250Y-159615069D01*
X95327253Y-159615056D01*
X95330112Y-159605631D01*
X95330117Y-159605619D01*
X95330295Y-159605032D01*
X95367328Y-159515624D01*
X95367621Y-159515075D01*
X95372264Y-159506389D01*
X95372267Y-159506385D01*
X95372557Y-159505842D01*
X95426326Y-159425371D01*
X95426717Y-159424895D01*
X95426720Y-159424890D01*
X95430081Y-159420796D01*
X95433359Y-159416801D01*
X95501801Y-159348359D01*
X95505796Y-159345081D01*
X95509890Y-159341720D01*
X95509895Y-159341717D01*
X95510371Y-159341326D01*
X95590842Y-159287557D01*
X95591385Y-159287267D01*
X95591389Y-159287264D01*
X95600075Y-159282621D01*
X95600079Y-159282619D01*
X95600624Y-159282328D01*
X95690032Y-159245295D01*
X95690619Y-159245117D01*
X95690631Y-159245112D01*
X95700056Y-159242253D01*
X95700069Y-159242250D01*
X95700654Y-159242073D01*
X95795563Y-159223194D01*
X95796176Y-159223134D01*
X95796189Y-159223131D01*
X95805991Y-159222166D01*
X95805998Y-159222166D01*
X95806617Y-159222105D01*
X95838763Y-159222105D01*
X95842442Y-159221559D01*
X95845198Y-159220723D01*
X95855000Y-159219758D01*
X95855007Y-159219758D01*
X95855626Y-159219697D01*
X96404374Y-159219697D01*
X96404993Y-159219758D01*
G37*
G36*
X103420000Y-160820000D02*
G01*
X102320000Y-160820000D01*
X102320000Y-159220000D01*
X103420000Y-159220000D01*
X103420000Y-160820000D01*
G37*
G36*
X97705000Y-160820000D02*
G01*
X96605000Y-160820000D01*
X96605000Y-159220000D01*
X97705000Y-159220000D01*
X97705000Y-160820000D01*
G37*
G36*
X107338782Y-159275103D02*
G01*
X107387990Y-159290030D01*
X107433351Y-159314276D01*
X107473101Y-159346899D01*
X107505724Y-159386649D01*
X107529970Y-159432010D01*
X107544897Y-159481218D01*
X107550000Y-159533026D01*
X107550000Y-160506974D01*
X107544897Y-160558782D01*
X107529970Y-160607990D01*
X107505724Y-160653351D01*
X107473101Y-160693101D01*
X107433351Y-160725724D01*
X107387990Y-160749970D01*
X107338782Y-160764897D01*
X107286974Y-160770000D01*
X106738026Y-160770000D01*
X106686218Y-160764897D01*
X106637010Y-160749970D01*
X106591649Y-160725724D01*
X106551899Y-160693101D01*
X106519276Y-160653351D01*
X106495030Y-160607990D01*
X106480103Y-160558782D01*
X106475000Y-160506974D01*
X106475000Y-159533026D01*
X106480103Y-159481218D01*
X106495030Y-159432010D01*
X106519276Y-159386649D01*
X106551899Y-159346899D01*
X106591649Y-159314276D01*
X106637010Y-159290030D01*
X106686218Y-159275103D01*
X106738026Y-159270000D01*
X107286974Y-159270000D01*
X107338782Y-159275103D01*
G37*
G36*
X109213782Y-159275103D02*
G01*
X109262990Y-159290030D01*
X109308351Y-159314276D01*
X109348101Y-159346899D01*
X109380724Y-159386649D01*
X109404970Y-159432010D01*
X109419897Y-159481218D01*
X109425000Y-159533026D01*
X109425000Y-160506974D01*
X109419897Y-160558782D01*
X109404970Y-160607990D01*
X109380724Y-160653351D01*
X109348101Y-160693101D01*
X109308351Y-160725724D01*
X109262990Y-160749970D01*
X109213782Y-160764897D01*
X109161974Y-160770000D01*
X108613026Y-160770000D01*
X108561218Y-160764897D01*
X108512010Y-160749970D01*
X108466649Y-160725724D01*
X108426899Y-160693101D01*
X108394276Y-160653351D01*
X108370030Y-160607990D01*
X108355103Y-160558782D01*
X108350000Y-160506974D01*
X108350000Y-159533026D01*
X108355103Y-159481218D01*
X108370030Y-159432010D01*
X108394276Y-159386649D01*
X108426899Y-159346899D01*
X108466649Y-159314276D01*
X108512010Y-159290030D01*
X108561218Y-159275103D01*
X108613026Y-159270000D01*
X109161974Y-159270000D01*
X109213782Y-159275103D01*
G37*
G36*
X70393378Y-154811899D02*
G01*
X70772885Y-154887387D01*
X71191459Y-155060766D01*
X71568165Y-155312473D01*
X71888527Y-155632835D01*
X72140234Y-156009541D01*
X72313613Y-156428115D01*
X72373550Y-156729440D01*
X72402000Y-156872469D01*
X72402000Y-157325531D01*
X72391828Y-157376670D01*
X72313613Y-157769885D01*
X72140234Y-158188459D01*
X71888527Y-158565165D01*
X71568165Y-158885527D01*
X71191459Y-159137234D01*
X70772885Y-159310613D01*
X70402254Y-159384336D01*
X70328531Y-159399000D01*
X69875469Y-159399000D01*
X69801746Y-159384336D01*
X69431115Y-159310613D01*
X69012541Y-159137234D01*
X68635835Y-158885527D01*
X68315473Y-158565165D01*
X68063766Y-158188459D01*
X67890387Y-157769885D01*
X67812172Y-157376670D01*
X67802000Y-157325531D01*
X67802000Y-156872469D01*
X67830450Y-156729440D01*
X67890387Y-156428115D01*
X68063766Y-156009541D01*
X68315473Y-155632835D01*
X68635835Y-155312473D01*
X69012541Y-155060766D01*
X69431115Y-154887387D01*
X69810622Y-154811899D01*
X69875469Y-154799000D01*
X70328531Y-154799000D01*
X70393378Y-154811899D01*
G37*
G36*
X86808905Y-158229623D02*
G01*
X86853423Y-158243127D01*
X86894462Y-158265062D01*
X86930424Y-158294576D01*
X86959938Y-158330538D01*
X86981873Y-158371577D01*
X86995377Y-158416095D01*
X87000000Y-158463026D01*
X87000000Y-159036974D01*
X86995377Y-159083905D01*
X86981873Y-159128423D01*
X86959938Y-159169462D01*
X86930424Y-159205424D01*
X86894462Y-159234938D01*
X86853423Y-159256873D01*
X86808905Y-159270377D01*
X86761974Y-159275000D01*
X86263026Y-159275000D01*
X86216095Y-159270377D01*
X86171577Y-159256873D01*
X86130538Y-159234938D01*
X86094576Y-159205424D01*
X86065062Y-159169462D01*
X86043127Y-159128423D01*
X86029623Y-159083905D01*
X86025000Y-159036974D01*
X86025000Y-158463026D01*
X86029623Y-158416095D01*
X86043127Y-158371577D01*
X86065062Y-158330538D01*
X86094576Y-158294576D01*
X86130538Y-158265062D01*
X86171577Y-158243127D01*
X86216095Y-158229623D01*
X86263026Y-158225000D01*
X86761974Y-158225000D01*
X86808905Y-158229623D01*
G37*
G36*
X85233905Y-158229623D02*
G01*
X85278423Y-158243127D01*
X85319462Y-158265062D01*
X85355424Y-158294576D01*
X85384938Y-158330538D01*
X85406873Y-158371577D01*
X85420377Y-158416095D01*
X85425000Y-158463026D01*
X85425000Y-159036974D01*
X85420377Y-159083905D01*
X85406873Y-159128423D01*
X85384938Y-159169462D01*
X85355424Y-159205424D01*
X85319462Y-159234938D01*
X85278423Y-159256873D01*
X85233905Y-159270377D01*
X85186974Y-159275000D01*
X84688026Y-159275000D01*
X84641095Y-159270377D01*
X84596577Y-159256873D01*
X84555538Y-159234938D01*
X84519576Y-159205424D01*
X84490062Y-159169462D01*
X84468127Y-159128423D01*
X84454623Y-159083905D01*
X84450000Y-159036974D01*
X84450000Y-158463026D01*
X84454623Y-158416095D01*
X84468127Y-158371577D01*
X84490062Y-158330538D01*
X84519576Y-158294576D01*
X84555538Y-158265062D01*
X84596577Y-158243127D01*
X84641095Y-158229623D01*
X84688026Y-158225000D01*
X85186974Y-158225000D01*
X85233905Y-158229623D01*
G37*
G36*
X112298782Y-156615103D02*
G01*
X112347990Y-156630030D01*
X112393351Y-156654276D01*
X112433101Y-156686899D01*
X112465724Y-156726649D01*
X112489970Y-156772010D01*
X112504897Y-156821218D01*
X112510000Y-156873026D01*
X112510000Y-157421974D01*
X112504897Y-157473782D01*
X112489970Y-157522990D01*
X112465724Y-157568351D01*
X112433101Y-157608101D01*
X112393351Y-157640724D01*
X112347990Y-157664970D01*
X112298782Y-157679897D01*
X112246974Y-157685000D01*
X111273026Y-157685000D01*
X111221218Y-157679897D01*
X111172010Y-157664970D01*
X111126649Y-157640724D01*
X111086899Y-157608101D01*
X111054276Y-157568351D01*
X111030030Y-157522990D01*
X111015103Y-157473782D01*
X111010000Y-157421974D01*
X111010000Y-156873026D01*
X111015103Y-156821218D01*
X111030030Y-156772010D01*
X111054276Y-156726649D01*
X111086899Y-156686899D01*
X111126649Y-156654276D01*
X111172010Y-156630030D01*
X111221218Y-156615103D01*
X111273026Y-156610000D01*
X112246974Y-156610000D01*
X112298782Y-156615103D01*
G37*
G36*
X109553905Y-156514623D02*
G01*
X109598423Y-156528127D01*
X109639462Y-156550062D01*
X109675424Y-156579576D01*
X109704938Y-156615538D01*
X109726873Y-156656577D01*
X109740377Y-156701095D01*
X109745000Y-156748026D01*
X109745000Y-157246974D01*
X109740377Y-157293905D01*
X109726873Y-157338423D01*
X109704938Y-157379462D01*
X109675424Y-157415424D01*
X109639462Y-157444938D01*
X109598423Y-157466873D01*
X109553905Y-157480377D01*
X109506974Y-157485000D01*
X108933026Y-157485000D01*
X108886095Y-157480377D01*
X108841577Y-157466873D01*
X108800538Y-157444938D01*
X108764576Y-157415424D01*
X108735062Y-157379462D01*
X108713127Y-157338423D01*
X108699623Y-157293905D01*
X108695000Y-157246974D01*
X108695000Y-156748026D01*
X108699623Y-156701095D01*
X108713127Y-156656577D01*
X108735062Y-156615538D01*
X108764576Y-156579576D01*
X108800538Y-156550062D01*
X108841577Y-156528127D01*
X108886095Y-156514623D01*
X108933026Y-156510000D01*
X109506974Y-156510000D01*
X109553905Y-156514623D01*
G37*
G36*
X107013905Y-156514623D02*
G01*
X107058423Y-156528127D01*
X107099462Y-156550062D01*
X107135424Y-156579576D01*
X107164938Y-156615538D01*
X107186873Y-156656577D01*
X107200377Y-156701095D01*
X107205000Y-156748026D01*
X107205000Y-157246974D01*
X107200377Y-157293905D01*
X107186873Y-157338423D01*
X107164938Y-157379462D01*
X107135424Y-157415424D01*
X107099462Y-157444938D01*
X107058423Y-157466873D01*
X107013905Y-157480377D01*
X106966974Y-157485000D01*
X106393026Y-157485000D01*
X106346095Y-157480377D01*
X106301577Y-157466873D01*
X106260538Y-157444938D01*
X106224576Y-157415424D01*
X106195062Y-157379462D01*
X106173127Y-157338423D01*
X106159623Y-157293905D01*
X106155000Y-157246974D01*
X106155000Y-156748026D01*
X106159623Y-156701095D01*
X106173127Y-156656577D01*
X106195062Y-156615538D01*
X106224576Y-156579576D01*
X106260538Y-156550062D01*
X106301577Y-156528127D01*
X106346095Y-156514623D01*
X106393026Y-156510000D01*
X106966974Y-156510000D01*
X107013905Y-156514623D01*
G37*
G36*
X85233905Y-155689623D02*
G01*
X85278423Y-155703127D01*
X85319462Y-155725062D01*
X85355424Y-155754576D01*
X85384938Y-155790538D01*
X85406873Y-155831577D01*
X85420377Y-155876095D01*
X85425000Y-155923026D01*
X85425000Y-156496974D01*
X85420377Y-156543905D01*
X85406873Y-156588423D01*
X85384938Y-156629462D01*
X85355424Y-156665424D01*
X85319462Y-156694938D01*
X85278423Y-156716873D01*
X85233905Y-156730377D01*
X85186974Y-156735000D01*
X84688026Y-156735000D01*
X84641095Y-156730377D01*
X84596577Y-156716873D01*
X84555538Y-156694938D01*
X84519576Y-156665424D01*
X84490062Y-156629462D01*
X84468127Y-156588423D01*
X84454623Y-156543905D01*
X84450000Y-156496974D01*
X84450000Y-155923026D01*
X84454623Y-155876095D01*
X84468127Y-155831577D01*
X84490062Y-155790538D01*
X84519576Y-155754576D01*
X84555538Y-155725062D01*
X84596577Y-155703127D01*
X84641095Y-155689623D01*
X84688026Y-155685000D01*
X85186974Y-155685000D01*
X85233905Y-155689623D01*
G37*
G36*
X86808905Y-155689623D02*
G01*
X86853423Y-155703127D01*
X86894462Y-155725062D01*
X86930424Y-155754576D01*
X86959938Y-155790538D01*
X86981873Y-155831577D01*
X86995377Y-155876095D01*
X87000000Y-155923026D01*
X87000000Y-156496974D01*
X86995377Y-156543905D01*
X86981873Y-156588423D01*
X86959938Y-156629462D01*
X86930424Y-156665424D01*
X86894462Y-156694938D01*
X86853423Y-156716873D01*
X86808905Y-156730377D01*
X86761974Y-156735000D01*
X86263026Y-156735000D01*
X86216095Y-156730377D01*
X86171577Y-156716873D01*
X86130538Y-156694938D01*
X86094576Y-156665424D01*
X86065062Y-156629462D01*
X86043127Y-156588423D01*
X86029623Y-156543905D01*
X86025000Y-156496974D01*
X86025000Y-155923026D01*
X86029623Y-155876095D01*
X86043127Y-155831577D01*
X86065062Y-155790538D01*
X86094576Y-155754576D01*
X86130538Y-155725062D01*
X86171577Y-155703127D01*
X86216095Y-155689623D01*
X86263026Y-155685000D01*
X86761974Y-155685000D01*
X86808905Y-155689623D01*
G37*
G36*
X107013905Y-154939623D02*
G01*
X107058423Y-154953127D01*
X107099462Y-154975062D01*
X107135424Y-155004576D01*
X107164938Y-155040538D01*
X107186873Y-155081577D01*
X107200377Y-155126095D01*
X107205000Y-155173026D01*
X107205000Y-155671974D01*
X107200377Y-155718905D01*
X107186873Y-155763423D01*
X107164938Y-155804462D01*
X107135424Y-155840424D01*
X107099462Y-155869938D01*
X107058423Y-155891873D01*
X107013905Y-155905377D01*
X106966974Y-155910000D01*
X106393026Y-155910000D01*
X106346095Y-155905377D01*
X106301577Y-155891873D01*
X106260538Y-155869938D01*
X106224576Y-155840424D01*
X106195062Y-155804462D01*
X106173127Y-155763423D01*
X106159623Y-155718905D01*
X106155000Y-155671974D01*
X106155000Y-155173026D01*
X106159623Y-155126095D01*
X106173127Y-155081577D01*
X106195062Y-155040538D01*
X106224576Y-155004576D01*
X106260538Y-154975062D01*
X106301577Y-154953127D01*
X106346095Y-154939623D01*
X106393026Y-154935000D01*
X106966974Y-154935000D01*
X107013905Y-154939623D01*
G37*
G36*
X109553905Y-154939623D02*
G01*
X109598423Y-154953127D01*
X109639462Y-154975062D01*
X109675424Y-155004576D01*
X109704938Y-155040538D01*
X109726873Y-155081577D01*
X109740377Y-155126095D01*
X109745000Y-155173026D01*
X109745000Y-155671974D01*
X109740377Y-155718905D01*
X109726873Y-155763423D01*
X109704938Y-155804462D01*
X109675424Y-155840424D01*
X109639462Y-155869938D01*
X109598423Y-155891873D01*
X109553905Y-155905377D01*
X109506974Y-155910000D01*
X108933026Y-155910000D01*
X108886095Y-155905377D01*
X108841577Y-155891873D01*
X108800538Y-155869938D01*
X108764576Y-155840424D01*
X108735062Y-155804462D01*
X108713127Y-155763423D01*
X108699623Y-155718905D01*
X108695000Y-155671974D01*
X108695000Y-155173026D01*
X108699623Y-155126095D01*
X108713127Y-155081577D01*
X108735062Y-155040538D01*
X108764576Y-155004576D01*
X108800538Y-154975062D01*
X108841577Y-154953127D01*
X108886095Y-154939623D01*
X108933026Y-154935000D01*
X109506974Y-154935000D01*
X109553905Y-154939623D01*
G37*
G36*
X98055000Y-155840000D02*
G01*
X96255000Y-155840000D01*
X96255000Y-154040000D01*
X98055000Y-154040000D01*
X98055000Y-155840000D01*
G37*
G36*
X99812491Y-154045738D02*
G01*
X99957520Y-154074586D01*
X100121310Y-154142430D01*
X100268717Y-154240924D01*
X100394076Y-154366283D01*
X100492570Y-154513690D01*
X100560414Y-154677480D01*
X100571855Y-154735000D01*
X100595000Y-154851357D01*
X100595000Y-155028643D01*
X100589262Y-155057491D01*
X100560414Y-155202520D01*
X100492570Y-155366310D01*
X100394076Y-155513717D01*
X100268717Y-155639076D01*
X100121310Y-155737570D01*
X99957520Y-155805414D01*
X99812491Y-155834262D01*
X99783643Y-155840000D01*
X99606357Y-155840000D01*
X99577509Y-155834262D01*
X99432480Y-155805414D01*
X99268690Y-155737570D01*
X99121283Y-155639076D01*
X98995924Y-155513717D01*
X98897430Y-155366310D01*
X98829586Y-155202520D01*
X98800738Y-155057491D01*
X98795000Y-155028643D01*
X98795000Y-154851357D01*
X98818145Y-154735000D01*
X98829586Y-154677480D01*
X98897430Y-154513690D01*
X98995924Y-154366283D01*
X99121283Y-154240924D01*
X99268690Y-154142430D01*
X99432480Y-154074586D01*
X99577509Y-154045738D01*
X99606357Y-154040000D01*
X99783643Y-154040000D01*
X99812491Y-154045738D01*
G37*
G36*
X102352491Y-154045738D02*
G01*
X102497520Y-154074586D01*
X102661310Y-154142430D01*
X102808717Y-154240924D01*
X102934076Y-154366283D01*
X103032570Y-154513690D01*
X103100414Y-154677480D01*
X103111855Y-154735000D01*
X103135000Y-154851357D01*
X103135000Y-155028643D01*
X103129262Y-155057491D01*
X103100414Y-155202520D01*
X103032570Y-155366310D01*
X102934076Y-155513717D01*
X102808717Y-155639076D01*
X102661310Y-155737570D01*
X102497520Y-155805414D01*
X102352491Y-155834262D01*
X102323643Y-155840000D01*
X102146357Y-155840000D01*
X102117509Y-155834262D01*
X101972480Y-155805414D01*
X101808690Y-155737570D01*
X101661283Y-155639076D01*
X101535924Y-155513717D01*
X101437430Y-155366310D01*
X101369586Y-155202520D01*
X101340738Y-155057491D01*
X101335000Y-155028643D01*
X101335000Y-154851357D01*
X101358145Y-154735000D01*
X101369586Y-154677480D01*
X101437430Y-154513690D01*
X101535924Y-154366283D01*
X101661283Y-154240924D01*
X101808690Y-154142430D01*
X101972480Y-154074586D01*
X102117509Y-154045738D01*
X102146357Y-154040000D01*
X102323643Y-154040000D01*
X102352491Y-154045738D01*
G37*
G36*
X112298782Y-154740103D02*
G01*
X112347990Y-154755030D01*
X112393351Y-154779276D01*
X112433101Y-154811899D01*
X112465724Y-154851649D01*
X112489970Y-154897010D01*
X112504897Y-154946218D01*
X112510000Y-154998026D01*
X112510000Y-155546974D01*
X112504897Y-155598782D01*
X112489970Y-155647990D01*
X112465724Y-155693351D01*
X112433101Y-155733101D01*
X112393351Y-155765724D01*
X112347990Y-155789970D01*
X112298782Y-155804897D01*
X112246974Y-155810000D01*
X111273026Y-155810000D01*
X111221218Y-155804897D01*
X111172010Y-155789970D01*
X111126649Y-155765724D01*
X111086899Y-155733101D01*
X111054276Y-155693351D01*
X111030030Y-155647990D01*
X111015103Y-155598782D01*
X111010000Y-155546974D01*
X111010000Y-154998026D01*
X111015103Y-154946218D01*
X111030030Y-154897010D01*
X111054276Y-154851649D01*
X111086899Y-154811899D01*
X111126649Y-154779276D01*
X111172010Y-154755030D01*
X111221218Y-154740103D01*
X111273026Y-154735000D01*
X112246974Y-154735000D01*
X112298782Y-154740103D01*
G37*
G36*
X79757228Y-153082626D02*
G01*
X79916468Y-153148585D01*
X80059780Y-153244343D01*
X80181657Y-153366220D01*
X80277415Y-153509532D01*
X80338268Y-153656446D01*
X80343374Y-153668772D01*
X80377000Y-153837819D01*
X80377000Y-154010181D01*
X80364189Y-154074586D01*
X80343374Y-154179228D01*
X80277415Y-154338468D01*
X80181657Y-154481780D01*
X80059780Y-154603657D01*
X79916468Y-154699415D01*
X79782201Y-154755030D01*
X79757228Y-154765374D01*
X79588181Y-154799000D01*
X79415819Y-154799000D01*
X79246772Y-154765374D01*
X79221799Y-154755030D01*
X79087532Y-154699415D01*
X78944220Y-154603657D01*
X78822343Y-154481780D01*
X78726585Y-154338468D01*
X78660626Y-154179228D01*
X78639811Y-154074586D01*
X78627000Y-154010181D01*
X78627000Y-153837819D01*
X78660626Y-153668772D01*
X78665732Y-153656446D01*
X78726585Y-153509532D01*
X78822343Y-153366220D01*
X78944220Y-153244343D01*
X79087532Y-153148585D01*
X79246772Y-153082626D01*
X79415819Y-153049000D01*
X79588181Y-153049000D01*
X79757228Y-153082626D01*
G37*
G36*
X85628782Y-152805103D02*
G01*
X85677990Y-152820030D01*
X85723351Y-152844276D01*
X85763101Y-152876899D01*
X85795724Y-152916649D01*
X85819970Y-152962010D01*
X85834897Y-153011218D01*
X85840000Y-153063026D01*
X85840000Y-153611974D01*
X85834897Y-153663782D01*
X85819970Y-153712990D01*
X85795724Y-153758351D01*
X85763101Y-153798101D01*
X85723351Y-153830724D01*
X85677990Y-153854970D01*
X85628782Y-153869897D01*
X85576974Y-153875000D01*
X84603026Y-153875000D01*
X84551218Y-153869897D01*
X84502010Y-153854970D01*
X84456649Y-153830724D01*
X84416899Y-153798101D01*
X84384276Y-153758351D01*
X84360030Y-153712990D01*
X84345103Y-153663782D01*
X84340000Y-153611974D01*
X84340000Y-153063026D01*
X84345103Y-153011218D01*
X84360030Y-152962010D01*
X84384276Y-152916649D01*
X84416899Y-152876899D01*
X84456649Y-152844276D01*
X84502010Y-152820030D01*
X84551218Y-152805103D01*
X84603026Y-152800000D01*
X85576974Y-152800000D01*
X85628782Y-152805103D01*
G37*
G36*
X90708782Y-152805103D02*
G01*
X90757990Y-152820030D01*
X90803351Y-152844276D01*
X90843101Y-152876899D01*
X90875724Y-152916649D01*
X90899970Y-152962010D01*
X90914897Y-153011218D01*
X90920000Y-153063026D01*
X90920000Y-153611974D01*
X90914897Y-153663782D01*
X90899970Y-153712990D01*
X90875724Y-153758351D01*
X90843101Y-153798101D01*
X90803351Y-153830724D01*
X90757990Y-153854970D01*
X90708782Y-153869897D01*
X90656974Y-153875000D01*
X89683026Y-153875000D01*
X89631218Y-153869897D01*
X89582010Y-153854970D01*
X89536649Y-153830724D01*
X89496899Y-153798101D01*
X89464276Y-153758351D01*
X89440030Y-153712990D01*
X89425103Y-153663782D01*
X89420000Y-153611974D01*
X89420000Y-153063026D01*
X89425103Y-153011218D01*
X89440030Y-152962010D01*
X89464276Y-152916649D01*
X89496899Y-152876899D01*
X89536649Y-152844276D01*
X89582010Y-152820030D01*
X89631218Y-152805103D01*
X89683026Y-152800000D01*
X90656974Y-152800000D01*
X90708782Y-152805103D01*
G37*
G36*
X87963905Y-152704623D02*
G01*
X88008423Y-152718127D01*
X88049462Y-152740062D01*
X88085424Y-152769576D01*
X88114938Y-152805538D01*
X88136873Y-152846577D01*
X88150377Y-152891095D01*
X88155000Y-152938026D01*
X88155000Y-153436974D01*
X88150377Y-153483905D01*
X88136873Y-153528423D01*
X88114938Y-153569462D01*
X88085424Y-153605424D01*
X88049462Y-153634938D01*
X88008423Y-153656873D01*
X87963905Y-153670377D01*
X87916974Y-153675000D01*
X87343026Y-153675000D01*
X87296095Y-153670377D01*
X87251577Y-153656873D01*
X87210538Y-153634938D01*
X87174576Y-153605424D01*
X87145062Y-153569462D01*
X87123127Y-153528423D01*
X87109623Y-153483905D01*
X87105000Y-153436974D01*
X87105000Y-152938026D01*
X87109623Y-152891095D01*
X87123127Y-152846577D01*
X87145062Y-152805538D01*
X87174576Y-152769576D01*
X87210538Y-152740062D01*
X87251577Y-152718127D01*
X87296095Y-152704623D01*
X87343026Y-152700000D01*
X87916974Y-152700000D01*
X87963905Y-152704623D01*
G37*
G36*
X93043905Y-152704623D02*
G01*
X93088423Y-152718127D01*
X93129462Y-152740062D01*
X93165424Y-152769576D01*
X93194938Y-152805538D01*
X93216873Y-152846577D01*
X93230377Y-152891095D01*
X93235000Y-152938026D01*
X93235000Y-153436974D01*
X93230377Y-153483905D01*
X93216873Y-153528423D01*
X93194938Y-153569462D01*
X93165424Y-153605424D01*
X93129462Y-153634938D01*
X93088423Y-153656873D01*
X93043905Y-153670377D01*
X92996974Y-153675000D01*
X92423026Y-153675000D01*
X92376095Y-153670377D01*
X92331577Y-153656873D01*
X92290538Y-153634938D01*
X92254576Y-153605424D01*
X92225062Y-153569462D01*
X92203127Y-153528423D01*
X92189623Y-153483905D01*
X92185000Y-153436974D01*
X92185000Y-152938026D01*
X92189623Y-152891095D01*
X92203127Y-152846577D01*
X92225062Y-152805538D01*
X92254576Y-152769576D01*
X92290538Y-152740062D01*
X92331577Y-152718127D01*
X92376095Y-152704623D01*
X92423026Y-152700000D01*
X92996974Y-152700000D01*
X93043905Y-152704623D01*
G37*
G36*
X79757228Y-150542626D02*
G01*
X79916468Y-150608585D01*
X80059780Y-150704343D01*
X80181657Y-150826220D01*
X80277415Y-150969532D01*
X80321302Y-151075485D01*
X80343374Y-151128772D01*
X80372555Y-151275471D01*
X80377000Y-151297820D01*
X80377000Y-151470180D01*
X80343374Y-151639228D01*
X80277415Y-151798468D01*
X80181657Y-151941780D01*
X80059780Y-152063657D01*
X79916468Y-152159415D01*
X79757228Y-152225374D01*
X79588181Y-152259000D01*
X79415819Y-152259000D01*
X79246772Y-152225374D01*
X79087532Y-152159415D01*
X78944220Y-152063657D01*
X78822343Y-151941780D01*
X78726585Y-151798468D01*
X78660626Y-151639228D01*
X78627000Y-151470180D01*
X78627000Y-151297820D01*
X78631446Y-151275471D01*
X78660626Y-151128772D01*
X78682698Y-151075485D01*
X78726585Y-150969532D01*
X78822343Y-150826220D01*
X78944220Y-150704343D01*
X79087532Y-150608585D01*
X79246772Y-150542626D01*
X79415819Y-150509000D01*
X79588181Y-150509000D01*
X79757228Y-150542626D01*
G37*
G36*
X93043905Y-151129623D02*
G01*
X93088423Y-151143127D01*
X93129462Y-151165062D01*
X93165424Y-151194576D01*
X93194938Y-151230538D01*
X93216873Y-151271577D01*
X93230377Y-151316095D01*
X93235000Y-151363026D01*
X93235000Y-151861974D01*
X93230377Y-151908905D01*
X93216873Y-151953423D01*
X93194938Y-151994462D01*
X93165424Y-152030424D01*
X93129462Y-152059938D01*
X93088423Y-152081873D01*
X93043905Y-152095377D01*
X92996974Y-152100000D01*
X92423026Y-152100000D01*
X92376095Y-152095377D01*
X92331577Y-152081873D01*
X92290538Y-152059938D01*
X92254576Y-152030424D01*
X92225062Y-151994462D01*
X92203127Y-151953423D01*
X92189623Y-151908905D01*
X92185000Y-151861974D01*
X92185000Y-151363026D01*
X92189623Y-151316095D01*
X92203127Y-151271577D01*
X92225062Y-151230538D01*
X92254576Y-151194576D01*
X92290538Y-151165062D01*
X92331577Y-151143127D01*
X92376095Y-151129623D01*
X92423026Y-151125000D01*
X92996974Y-151125000D01*
X93043905Y-151129623D01*
G37*
G36*
X87963905Y-151129623D02*
G01*
X88008423Y-151143127D01*
X88049462Y-151165062D01*
X88085424Y-151194576D01*
X88114938Y-151230538D01*
X88136873Y-151271577D01*
X88150377Y-151316095D01*
X88155000Y-151363026D01*
X88155000Y-151861974D01*
X88150377Y-151908905D01*
X88136873Y-151953423D01*
X88114938Y-151994462D01*
X88085424Y-152030424D01*
X88049462Y-152059938D01*
X88008423Y-152081873D01*
X87963905Y-152095377D01*
X87916974Y-152100000D01*
X87343026Y-152100000D01*
X87296095Y-152095377D01*
X87251577Y-152081873D01*
X87210538Y-152059938D01*
X87174576Y-152030424D01*
X87145062Y-151994462D01*
X87123127Y-151953423D01*
X87109623Y-151908905D01*
X87105000Y-151861974D01*
X87105000Y-151363026D01*
X87109623Y-151316095D01*
X87123127Y-151271577D01*
X87145062Y-151230538D01*
X87174576Y-151194576D01*
X87210538Y-151165062D01*
X87251577Y-151143127D01*
X87296095Y-151129623D01*
X87343026Y-151125000D01*
X87916974Y-151125000D01*
X87963905Y-151129623D01*
G37*
G36*
X90708782Y-150930103D02*
G01*
X90757990Y-150945030D01*
X90803351Y-150969276D01*
X90843101Y-151001899D01*
X90875724Y-151041649D01*
X90899970Y-151087010D01*
X90914897Y-151136218D01*
X90920000Y-151188026D01*
X90920000Y-151736974D01*
X90914897Y-151788782D01*
X90899970Y-151837990D01*
X90875724Y-151883351D01*
X90843101Y-151923101D01*
X90803351Y-151955724D01*
X90757990Y-151979970D01*
X90708782Y-151994897D01*
X90656974Y-152000000D01*
X89683026Y-152000000D01*
X89631218Y-151994897D01*
X89582010Y-151979970D01*
X89536649Y-151955724D01*
X89496899Y-151923101D01*
X89464276Y-151883351D01*
X89440030Y-151837990D01*
X89425103Y-151788782D01*
X89420000Y-151736974D01*
X89420000Y-151188026D01*
X89425103Y-151136218D01*
X89440030Y-151087010D01*
X89464276Y-151041649D01*
X89496899Y-151001899D01*
X89536649Y-150969276D01*
X89582010Y-150945030D01*
X89631218Y-150930103D01*
X89683026Y-150925000D01*
X90656974Y-150925000D01*
X90708782Y-150930103D01*
G37*
G36*
X85628782Y-150930103D02*
G01*
X85677990Y-150945030D01*
X85723351Y-150969276D01*
X85763101Y-151001899D01*
X85795724Y-151041649D01*
X85819970Y-151087010D01*
X85834897Y-151136218D01*
X85840000Y-151188026D01*
X85840000Y-151736974D01*
X85834897Y-151788782D01*
X85819970Y-151837990D01*
X85795724Y-151883351D01*
X85763101Y-151923101D01*
X85723351Y-151955724D01*
X85677990Y-151979970D01*
X85628782Y-151994897D01*
X85576974Y-152000000D01*
X84603026Y-152000000D01*
X84551218Y-151994897D01*
X84502010Y-151979970D01*
X84456649Y-151955724D01*
X84416899Y-151923101D01*
X84384276Y-151883351D01*
X84360030Y-151837990D01*
X84345103Y-151788782D01*
X84340000Y-151736974D01*
X84340000Y-151188026D01*
X84345103Y-151136218D01*
X84360030Y-151087010D01*
X84384276Y-151041649D01*
X84416899Y-151001899D01*
X84456649Y-150969276D01*
X84502010Y-150945030D01*
X84551218Y-150930103D01*
X84603026Y-150925000D01*
X85576974Y-150925000D01*
X85628782Y-150930103D01*
G37*
G36*
X103249488Y-150587341D02*
G01*
X103271729Y-150594087D01*
X103292238Y-150605049D01*
X103310205Y-150619795D01*
X103324951Y-150637762D01*
X103335913Y-150658271D01*
X103342659Y-150680512D01*
X103345000Y-150704276D01*
X103345000Y-150965724D01*
X103342659Y-150989488D01*
X103335913Y-151011729D01*
X103324951Y-151032238D01*
X103310205Y-151050205D01*
X103292238Y-151064951D01*
X103271729Y-151075913D01*
X103249488Y-151082659D01*
X103225724Y-151085000D01*
X101889276Y-151085000D01*
X101865512Y-151082659D01*
X101843271Y-151075913D01*
X101822762Y-151064951D01*
X101804795Y-151050205D01*
X101790049Y-151032238D01*
X101779087Y-151011729D01*
X101772341Y-150989488D01*
X101770000Y-150965724D01*
X101770000Y-150704276D01*
X101772341Y-150680512D01*
X101779087Y-150658271D01*
X101790049Y-150637762D01*
X101804795Y-150619795D01*
X101822762Y-150605049D01*
X101843271Y-150594087D01*
X101865512Y-150587341D01*
X101889276Y-150585000D01*
X103225724Y-150585000D01*
X103249488Y-150587341D01*
G37*
G36*
X97524488Y-150587341D02*
G01*
X97546729Y-150594087D01*
X97567238Y-150605049D01*
X97585205Y-150619795D01*
X97599951Y-150637762D01*
X97610913Y-150658271D01*
X97617659Y-150680512D01*
X97620000Y-150704276D01*
X97620000Y-150965724D01*
X97617659Y-150989488D01*
X97610913Y-151011729D01*
X97599951Y-151032238D01*
X97585205Y-151050205D01*
X97567238Y-151064951D01*
X97546729Y-151075913D01*
X97524488Y-151082659D01*
X97500724Y-151085000D01*
X96164276Y-151085000D01*
X96140512Y-151082659D01*
X96118271Y-151075913D01*
X96097762Y-151064951D01*
X96079795Y-151050205D01*
X96065049Y-151032238D01*
X96054087Y-151011729D01*
X96047341Y-150989488D01*
X96045000Y-150965724D01*
X96045000Y-150704276D01*
X96047341Y-150680512D01*
X96054087Y-150658271D01*
X96065049Y-150637762D01*
X96079795Y-150619795D01*
X96097762Y-150605049D01*
X96118271Y-150594087D01*
X96140512Y-150587341D01*
X96164276Y-150585000D01*
X97500724Y-150585000D01*
X97524488Y-150587341D01*
G37*
G36*
X103249488Y-149937341D02*
G01*
X103271729Y-149944087D01*
X103292238Y-149955049D01*
X103310205Y-149969795D01*
X103324951Y-149987762D01*
X103335913Y-150008271D01*
X103342659Y-150030512D01*
X103345000Y-150054276D01*
X103345000Y-150315724D01*
X103342659Y-150339488D01*
X103335913Y-150361729D01*
X103324951Y-150382238D01*
X103310205Y-150400205D01*
X103292238Y-150414951D01*
X103271729Y-150425913D01*
X103249488Y-150432659D01*
X103225724Y-150435000D01*
X101889276Y-150435000D01*
X101865512Y-150432659D01*
X101843271Y-150425913D01*
X101822762Y-150414951D01*
X101804795Y-150400205D01*
X101790049Y-150382238D01*
X101779087Y-150361729D01*
X101772341Y-150339488D01*
X101770000Y-150315724D01*
X101770000Y-150054276D01*
X101772341Y-150030512D01*
X101779087Y-150008271D01*
X101790049Y-149987762D01*
X101804795Y-149969795D01*
X101822762Y-149955049D01*
X101843271Y-149944087D01*
X101865512Y-149937341D01*
X101889276Y-149935000D01*
X103225724Y-149935000D01*
X103249488Y-149937341D01*
G37*
G36*
X97524488Y-149937341D02*
G01*
X97546729Y-149944087D01*
X97567238Y-149955049D01*
X97585205Y-149969795D01*
X97599951Y-149987762D01*
X97610913Y-150008271D01*
X97617659Y-150030512D01*
X97620000Y-150054276D01*
X97620000Y-150315724D01*
X97617659Y-150339488D01*
X97610913Y-150361729D01*
X97599951Y-150382238D01*
X97585205Y-150400205D01*
X97567238Y-150414951D01*
X97546729Y-150425913D01*
X97524488Y-150432659D01*
X97500724Y-150435000D01*
X96164276Y-150435000D01*
X96140512Y-150432659D01*
X96118271Y-150425913D01*
X96097762Y-150414951D01*
X96079795Y-150400205D01*
X96065049Y-150382238D01*
X96054087Y-150361729D01*
X96047341Y-150339488D01*
X96045000Y-150315724D01*
X96045000Y-150054276D01*
X96047341Y-150030512D01*
X96054087Y-150008271D01*
X96065049Y-149987762D01*
X96079795Y-149969795D01*
X96097762Y-149955049D01*
X96118271Y-149944087D01*
X96140512Y-149937341D01*
X96164276Y-149935000D01*
X97500724Y-149935000D01*
X97524488Y-149937341D01*
G37*
G36*
X103249488Y-149287341D02*
G01*
X103271729Y-149294087D01*
X103292238Y-149305049D01*
X103310205Y-149319795D01*
X103324951Y-149337762D01*
X103335913Y-149358271D01*
X103342659Y-149380512D01*
X103345000Y-149404276D01*
X103345000Y-149665724D01*
X103342659Y-149689488D01*
X103335913Y-149711729D01*
X103324951Y-149732238D01*
X103310205Y-149750205D01*
X103292238Y-149764951D01*
X103271729Y-149775913D01*
X103249488Y-149782659D01*
X103225724Y-149785000D01*
X101889276Y-149785000D01*
X101865512Y-149782659D01*
X101843271Y-149775913D01*
X101822762Y-149764951D01*
X101804795Y-149750205D01*
X101790049Y-149732238D01*
X101779087Y-149711729D01*
X101772341Y-149689488D01*
X101770000Y-149665724D01*
X101770000Y-149404276D01*
X101772341Y-149380512D01*
X101779087Y-149358271D01*
X101790049Y-149337762D01*
X101804795Y-149319795D01*
X101822762Y-149305049D01*
X101843271Y-149294087D01*
X101865512Y-149287341D01*
X101889276Y-149285000D01*
X103225724Y-149285000D01*
X103249488Y-149287341D01*
G37*
G36*
X97524488Y-149287341D02*
G01*
X97546729Y-149294087D01*
X97567238Y-149305049D01*
X97585205Y-149319795D01*
X97599951Y-149337762D01*
X97610913Y-149358271D01*
X97617659Y-149380512D01*
X97620000Y-149404276D01*
X97620000Y-149665724D01*
X97617659Y-149689488D01*
X97610913Y-149711729D01*
X97599951Y-149732238D01*
X97585205Y-149750205D01*
X97567238Y-149764951D01*
X97546729Y-149775913D01*
X97524488Y-149782659D01*
X97500724Y-149785000D01*
X96164276Y-149785000D01*
X96140512Y-149782659D01*
X96118271Y-149775913D01*
X96097762Y-149764951D01*
X96079795Y-149750205D01*
X96065049Y-149732238D01*
X96054087Y-149711729D01*
X96047341Y-149689488D01*
X96045000Y-149665724D01*
X96045000Y-149404276D01*
X96047341Y-149380512D01*
X96054087Y-149358271D01*
X96065049Y-149337762D01*
X96079795Y-149319795D01*
X96097762Y-149305049D01*
X96118271Y-149294087D01*
X96140512Y-149287341D01*
X96164276Y-149285000D01*
X97500724Y-149285000D01*
X97524488Y-149287341D01*
G37*
G36*
X79757228Y-148002626D02*
G01*
X79916468Y-148068585D01*
X80059780Y-148164343D01*
X80181657Y-148286220D01*
X80277415Y-148429532D01*
X80286389Y-148451197D01*
X80343374Y-148588772D01*
X80363065Y-148687762D01*
X80377000Y-148757820D01*
X80377000Y-148930180D01*
X80343374Y-149099228D01*
X80277415Y-149258468D01*
X80181657Y-149401780D01*
X80059780Y-149523657D01*
X79916468Y-149619415D01*
X79759613Y-149684386D01*
X79757228Y-149685374D01*
X79588181Y-149719000D01*
X79415819Y-149719000D01*
X79246772Y-149685374D01*
X79244387Y-149684386D01*
X79087532Y-149619415D01*
X78944220Y-149523657D01*
X78822343Y-149401780D01*
X78726585Y-149258468D01*
X78660626Y-149099228D01*
X78627000Y-148930180D01*
X78627000Y-148757820D01*
X78640936Y-148687762D01*
X78660626Y-148588772D01*
X78717611Y-148451197D01*
X78726585Y-148429532D01*
X78822343Y-148286220D01*
X78944220Y-148164343D01*
X79087532Y-148068585D01*
X79246772Y-148002626D01*
X79415819Y-147969000D01*
X79588181Y-147969000D01*
X79757228Y-148002626D01*
G37*
G36*
X107013905Y-148259623D02*
G01*
X107058423Y-148273127D01*
X107099462Y-148295062D01*
X107135424Y-148324576D01*
X107164938Y-148360538D01*
X107186873Y-148401577D01*
X107200377Y-148446095D01*
X107205000Y-148493026D01*
X107205000Y-148991974D01*
X107200377Y-149038905D01*
X107186873Y-149083423D01*
X107164938Y-149124462D01*
X107135424Y-149160424D01*
X107099462Y-149189938D01*
X107058423Y-149211873D01*
X107013905Y-149225377D01*
X106966974Y-149230000D01*
X106393026Y-149230000D01*
X106346095Y-149225377D01*
X106301577Y-149211873D01*
X106260538Y-149189938D01*
X106224576Y-149160424D01*
X106195062Y-149124462D01*
X106173127Y-149083423D01*
X106159623Y-149038905D01*
X106155000Y-148991974D01*
X106155000Y-148493026D01*
X106159623Y-148446095D01*
X106173127Y-148401577D01*
X106195062Y-148360538D01*
X106224576Y-148324576D01*
X106260538Y-148295062D01*
X106301577Y-148273127D01*
X106346095Y-148259623D01*
X106393026Y-148255000D01*
X106966974Y-148255000D01*
X107013905Y-148259623D01*
G37*
G36*
X109553905Y-148259623D02*
G01*
X109598423Y-148273127D01*
X109639462Y-148295062D01*
X109675424Y-148324576D01*
X109704938Y-148360538D01*
X109726873Y-148401577D01*
X109740377Y-148446095D01*
X109745000Y-148493026D01*
X109745000Y-148991974D01*
X109740377Y-149038905D01*
X109726873Y-149083423D01*
X109704938Y-149124462D01*
X109675424Y-149160424D01*
X109639462Y-149189938D01*
X109598423Y-149211873D01*
X109553905Y-149225377D01*
X109506974Y-149230000D01*
X108933026Y-149230000D01*
X108886095Y-149225377D01*
X108841577Y-149211873D01*
X108800538Y-149189938D01*
X108764576Y-149160424D01*
X108735062Y-149124462D01*
X108713127Y-149083423D01*
X108699623Y-149038905D01*
X108695000Y-148991974D01*
X108695000Y-148493026D01*
X108699623Y-148446095D01*
X108713127Y-148401577D01*
X108735062Y-148360538D01*
X108764576Y-148324576D01*
X108800538Y-148295062D01*
X108841577Y-148273127D01*
X108886095Y-148259623D01*
X108933026Y-148255000D01*
X109506974Y-148255000D01*
X109553905Y-148259623D01*
G37*
G36*
X112093905Y-148259623D02*
G01*
X112138423Y-148273127D01*
X112179462Y-148295062D01*
X112215424Y-148324576D01*
X112244938Y-148360538D01*
X112266873Y-148401577D01*
X112280377Y-148446095D01*
X112285000Y-148493026D01*
X112285000Y-148991974D01*
X112280377Y-149038905D01*
X112266873Y-149083423D01*
X112244938Y-149124462D01*
X112215424Y-149160424D01*
X112179462Y-149189938D01*
X112138423Y-149211873D01*
X112093905Y-149225377D01*
X112046974Y-149230000D01*
X111473026Y-149230000D01*
X111426095Y-149225377D01*
X111381577Y-149211873D01*
X111340538Y-149189938D01*
X111304576Y-149160424D01*
X111275062Y-149124462D01*
X111253127Y-149083423D01*
X111239623Y-149038905D01*
X111235000Y-148991974D01*
X111235000Y-148493026D01*
X111239623Y-148446095D01*
X111253127Y-148401577D01*
X111275062Y-148360538D01*
X111304576Y-148324576D01*
X111340538Y-148295062D01*
X111381577Y-148273127D01*
X111426095Y-148259623D01*
X111473026Y-148255000D01*
X112046974Y-148255000D01*
X112093905Y-148259623D01*
G37*
G36*
X97524488Y-148637341D02*
G01*
X97546729Y-148644087D01*
X97567238Y-148655049D01*
X97585205Y-148669795D01*
X97599951Y-148687762D01*
X97610913Y-148708271D01*
X97617659Y-148730512D01*
X97620000Y-148754276D01*
X97620000Y-149015724D01*
X97617659Y-149039488D01*
X97610913Y-149061729D01*
X97599951Y-149082238D01*
X97585205Y-149100205D01*
X97567238Y-149114951D01*
X97546729Y-149125913D01*
X97524488Y-149132659D01*
X97500724Y-149135000D01*
X96164276Y-149135000D01*
X96140512Y-149132659D01*
X96118271Y-149125913D01*
X96097762Y-149114951D01*
X96079795Y-149100205D01*
X96065049Y-149082238D01*
X96054087Y-149061729D01*
X96047341Y-149039488D01*
X96045000Y-149015724D01*
X96045000Y-148754276D01*
X96047341Y-148730512D01*
X96054087Y-148708271D01*
X96065049Y-148687762D01*
X96079795Y-148669795D01*
X96097762Y-148655049D01*
X96118271Y-148644087D01*
X96140512Y-148637341D01*
X96164276Y-148635000D01*
X97500724Y-148635000D01*
X97524488Y-148637341D01*
G37*
G36*
X103249488Y-148637341D02*
G01*
X103271729Y-148644087D01*
X103292238Y-148655049D01*
X103310205Y-148669795D01*
X103324951Y-148687762D01*
X103335913Y-148708271D01*
X103342659Y-148730512D01*
X103345000Y-148754276D01*
X103345000Y-149015724D01*
X103342659Y-149039488D01*
X103335913Y-149061729D01*
X103324951Y-149082238D01*
X103310205Y-149100205D01*
X103292238Y-149114951D01*
X103271729Y-149125913D01*
X103249488Y-149132659D01*
X103225724Y-149135000D01*
X101889276Y-149135000D01*
X101865512Y-149132659D01*
X101843271Y-149125913D01*
X101822762Y-149114951D01*
X101804795Y-149100205D01*
X101790049Y-149082238D01*
X101779087Y-149061729D01*
X101772341Y-149039488D01*
X101770000Y-149015724D01*
X101770000Y-148754276D01*
X101772341Y-148730512D01*
X101779087Y-148708271D01*
X101790049Y-148687762D01*
X101804795Y-148669795D01*
X101822762Y-148655049D01*
X101843271Y-148644087D01*
X101865512Y-148637341D01*
X101889276Y-148635000D01*
X103225724Y-148635000D01*
X103249488Y-148637341D01*
G37*
G36*
X109553905Y-146684623D02*
G01*
X109598423Y-146698127D01*
X109639462Y-146720062D01*
X109675424Y-146749576D01*
X109704938Y-146785538D01*
X109726873Y-146826577D01*
X109740377Y-146871095D01*
X109745000Y-146918026D01*
X109745000Y-147416974D01*
X109740377Y-147463905D01*
X109726873Y-147508423D01*
X109704938Y-147549462D01*
X109675424Y-147585424D01*
X109639462Y-147614938D01*
X109598423Y-147636873D01*
X109553905Y-147650377D01*
X109506974Y-147655000D01*
X108933026Y-147655000D01*
X108886095Y-147650377D01*
X108841577Y-147636873D01*
X108800538Y-147614938D01*
X108764576Y-147585424D01*
X108735062Y-147549462D01*
X108713127Y-147508423D01*
X108699623Y-147463905D01*
X108695000Y-147416974D01*
X108695000Y-146918026D01*
X108699623Y-146871095D01*
X108713127Y-146826577D01*
X108735062Y-146785538D01*
X108764576Y-146749576D01*
X108800538Y-146720062D01*
X108841577Y-146698127D01*
X108886095Y-146684623D01*
X108933026Y-146680000D01*
X109506974Y-146680000D01*
X109553905Y-146684623D01*
G37*
G36*
X107013905Y-146684623D02*
G01*
X107058423Y-146698127D01*
X107099462Y-146720062D01*
X107135424Y-146749576D01*
X107164938Y-146785538D01*
X107186873Y-146826577D01*
X107200377Y-146871095D01*
X107205000Y-146918026D01*
X107205000Y-147416974D01*
X107200377Y-147463905D01*
X107186873Y-147508423D01*
X107164938Y-147549462D01*
X107135424Y-147585424D01*
X107099462Y-147614938D01*
X107058423Y-147636873D01*
X107013905Y-147650377D01*
X106966974Y-147655000D01*
X106393026Y-147655000D01*
X106346095Y-147650377D01*
X106301577Y-147636873D01*
X106260538Y-147614938D01*
X106224576Y-147585424D01*
X106195062Y-147549462D01*
X106173127Y-147508423D01*
X106159623Y-147463905D01*
X106155000Y-147416974D01*
X106155000Y-146918026D01*
X106159623Y-146871095D01*
X106173127Y-146826577D01*
X106195062Y-146785538D01*
X106224576Y-146749576D01*
X106260538Y-146720062D01*
X106301577Y-146698127D01*
X106346095Y-146684623D01*
X106393026Y-146680000D01*
X106966974Y-146680000D01*
X107013905Y-146684623D01*
G37*
G36*
X112093905Y-146684623D02*
G01*
X112138423Y-146698127D01*
X112179462Y-146720062D01*
X112215424Y-146749576D01*
X112244938Y-146785538D01*
X112266873Y-146826577D01*
X112280377Y-146871095D01*
X112285000Y-146918026D01*
X112285000Y-147416974D01*
X112280377Y-147463905D01*
X112266873Y-147508423D01*
X112244938Y-147549462D01*
X112215424Y-147585424D01*
X112179462Y-147614938D01*
X112138423Y-147636873D01*
X112093905Y-147650377D01*
X112046974Y-147655000D01*
X111473026Y-147655000D01*
X111426095Y-147650377D01*
X111381577Y-147636873D01*
X111340538Y-147614938D01*
X111304576Y-147585424D01*
X111275062Y-147549462D01*
X111253127Y-147508423D01*
X111239623Y-147463905D01*
X111235000Y-147416974D01*
X111235000Y-146918026D01*
X111239623Y-146871095D01*
X111253127Y-146826577D01*
X111275062Y-146785538D01*
X111304576Y-146749576D01*
X111340538Y-146720062D01*
X111381577Y-146698127D01*
X111426095Y-146684623D01*
X111473026Y-146680000D01*
X112046974Y-146680000D01*
X112093905Y-146684623D01*
G37*
G36*
X80377000Y-147179000D02*
G01*
X78627000Y-147179000D01*
X78627000Y-145429000D01*
X80377000Y-145429000D01*
X80377000Y-147179000D01*
G37*
G36*
X102836405Y-144894623D02*
G01*
X102880923Y-144908127D01*
X102921962Y-144930062D01*
X102957924Y-144959576D01*
X102987438Y-144995538D01*
X103009373Y-145036577D01*
X103022877Y-145081095D01*
X103027500Y-145128026D01*
X103027500Y-145701974D01*
X103022877Y-145748905D01*
X103009373Y-145793423D01*
X102987438Y-145834462D01*
X102957924Y-145870424D01*
X102921962Y-145899938D01*
X102880923Y-145921873D01*
X102836405Y-145935377D01*
X102789474Y-145940000D01*
X102290526Y-145940000D01*
X102243595Y-145935377D01*
X102199077Y-145921873D01*
X102158038Y-145899938D01*
X102122076Y-145870424D01*
X102092562Y-145834462D01*
X102070627Y-145793423D01*
X102057123Y-145748905D01*
X102052500Y-145701974D01*
X102052500Y-145128026D01*
X102057123Y-145081095D01*
X102070627Y-145036577D01*
X102092562Y-144995538D01*
X102122076Y-144959576D01*
X102158038Y-144930062D01*
X102199077Y-144908127D01*
X102243595Y-144894623D01*
X102290526Y-144890000D01*
X102789474Y-144890000D01*
X102836405Y-144894623D01*
G37*
G36*
X101261405Y-144894623D02*
G01*
X101305923Y-144908127D01*
X101346962Y-144930062D01*
X101382924Y-144959576D01*
X101412438Y-144995538D01*
X101434373Y-145036577D01*
X101447877Y-145081095D01*
X101452500Y-145128026D01*
X101452500Y-145701974D01*
X101447877Y-145748905D01*
X101434373Y-145793423D01*
X101412438Y-145834462D01*
X101382924Y-145870424D01*
X101346962Y-145899938D01*
X101305923Y-145921873D01*
X101261405Y-145935377D01*
X101214474Y-145940000D01*
X100715526Y-145940000D01*
X100668595Y-145935377D01*
X100624077Y-145921873D01*
X100583038Y-145899938D01*
X100547076Y-145870424D01*
X100517562Y-145834462D01*
X100495627Y-145793423D01*
X100482123Y-145748905D01*
X100477500Y-145701974D01*
X100477500Y-145128026D01*
X100482123Y-145081095D01*
X100495627Y-145036577D01*
X100517562Y-144995538D01*
X100547076Y-144959576D01*
X100583038Y-144930062D01*
X100624077Y-144908127D01*
X100668595Y-144894623D01*
X100715526Y-144890000D01*
X101214474Y-144890000D01*
X101261405Y-144894623D01*
G37*
G36*
X90503905Y-144602123D02*
G01*
X90548423Y-144615627D01*
X90589462Y-144637562D01*
X90625424Y-144667076D01*
X90654938Y-144703038D01*
X90676873Y-144744077D01*
X90690377Y-144788595D01*
X90695000Y-144835526D01*
X90695000Y-145334474D01*
X90690377Y-145381405D01*
X90676873Y-145425923D01*
X90654938Y-145466962D01*
X90625424Y-145502924D01*
X90589462Y-145532438D01*
X90548423Y-145554373D01*
X90503905Y-145567877D01*
X90456974Y-145572500D01*
X89883026Y-145572500D01*
X89836095Y-145567877D01*
X89791577Y-145554373D01*
X89750538Y-145532438D01*
X89714576Y-145502924D01*
X89685062Y-145466962D01*
X89663127Y-145425923D01*
X89649623Y-145381405D01*
X89645000Y-145334474D01*
X89645000Y-144835526D01*
X89649623Y-144788595D01*
X89663127Y-144744077D01*
X89685062Y-144703038D01*
X89714576Y-144667076D01*
X89750538Y-144637562D01*
X89791577Y-144615627D01*
X89836095Y-144602123D01*
X89883026Y-144597500D01*
X90456974Y-144597500D01*
X90503905Y-144602123D01*
G37*
G36*
X93043905Y-144602123D02*
G01*
X93088423Y-144615627D01*
X93129462Y-144637562D01*
X93165424Y-144667076D01*
X93194938Y-144703038D01*
X93216873Y-144744077D01*
X93230377Y-144788595D01*
X93235000Y-144835526D01*
X93235000Y-145334474D01*
X93230377Y-145381405D01*
X93216873Y-145425923D01*
X93194938Y-145466962D01*
X93165424Y-145502924D01*
X93129462Y-145532438D01*
X93088423Y-145554373D01*
X93043905Y-145567877D01*
X92996974Y-145572500D01*
X92423026Y-145572500D01*
X92376095Y-145567877D01*
X92331577Y-145554373D01*
X92290538Y-145532438D01*
X92254576Y-145502924D01*
X92225062Y-145466962D01*
X92203127Y-145425923D01*
X92189623Y-145381405D01*
X92185000Y-145334474D01*
X92185000Y-144835526D01*
X92189623Y-144788595D01*
X92203127Y-144744077D01*
X92225062Y-144703038D01*
X92254576Y-144667076D01*
X92290538Y-144637562D01*
X92331577Y-144615627D01*
X92376095Y-144602123D01*
X92423026Y-144597500D01*
X92996974Y-144597500D01*
X93043905Y-144602123D01*
G37*
G36*
X87963905Y-144602123D02*
G01*
X88008423Y-144615627D01*
X88049462Y-144637562D01*
X88085424Y-144667076D01*
X88114938Y-144703038D01*
X88136873Y-144744077D01*
X88150377Y-144788595D01*
X88155000Y-144835526D01*
X88155000Y-145334474D01*
X88150377Y-145381405D01*
X88136873Y-145425923D01*
X88114938Y-145466962D01*
X88085424Y-145502924D01*
X88049462Y-145532438D01*
X88008423Y-145554373D01*
X87963905Y-145567877D01*
X87916974Y-145572500D01*
X87343026Y-145572500D01*
X87296095Y-145567877D01*
X87251577Y-145554373D01*
X87210538Y-145532438D01*
X87174576Y-145502924D01*
X87145062Y-145466962D01*
X87123127Y-145425923D01*
X87109623Y-145381405D01*
X87105000Y-145334474D01*
X87105000Y-144835526D01*
X87109623Y-144788595D01*
X87123127Y-144744077D01*
X87145062Y-144703038D01*
X87174576Y-144667076D01*
X87210538Y-144637562D01*
X87251577Y-144615627D01*
X87296095Y-144602123D01*
X87343026Y-144597500D01*
X87916974Y-144597500D01*
X87963905Y-144602123D01*
G37*
G36*
X70402254Y-140843664D02*
G01*
X70772885Y-140917387D01*
X71191459Y-141090766D01*
X71568165Y-141342473D01*
X71888527Y-141662835D01*
X72140234Y-142039541D01*
X72313613Y-142458115D01*
X72402000Y-142902470D01*
X72402000Y-143355530D01*
X72313613Y-143799885D01*
X72140234Y-144218459D01*
X71888527Y-144595165D01*
X71568165Y-144915527D01*
X71191459Y-145167234D01*
X70772885Y-145340613D01*
X70402254Y-145414336D01*
X70328531Y-145429000D01*
X69875469Y-145429000D01*
X69801746Y-145414336D01*
X69431115Y-145340613D01*
X69012541Y-145167234D01*
X68635835Y-144915527D01*
X68315473Y-144595165D01*
X68063766Y-144218459D01*
X67890387Y-143799885D01*
X67802000Y-143355530D01*
X67802000Y-142902470D01*
X67890387Y-142458115D01*
X68063766Y-142039541D01*
X68315473Y-141662835D01*
X68635835Y-141342473D01*
X69012541Y-141090766D01*
X69431115Y-140917387D01*
X69801746Y-140843664D01*
X69875469Y-140829000D01*
X70328531Y-140829000D01*
X70402254Y-140843664D01*
G37*
G36*
X87963905Y-143027123D02*
G01*
X88008423Y-143040627D01*
X88049462Y-143062562D01*
X88085424Y-143092076D01*
X88114938Y-143128038D01*
X88136873Y-143169077D01*
X88150377Y-143213595D01*
X88155000Y-143260526D01*
X88155000Y-143759474D01*
X88150377Y-143806405D01*
X88136873Y-143850923D01*
X88114938Y-143891962D01*
X88085424Y-143927924D01*
X88049462Y-143957438D01*
X88008423Y-143979373D01*
X87963905Y-143992877D01*
X87916974Y-143997500D01*
X87343026Y-143997500D01*
X87296095Y-143992877D01*
X87251577Y-143979373D01*
X87210538Y-143957438D01*
X87174576Y-143927924D01*
X87145062Y-143891962D01*
X87123127Y-143850923D01*
X87109623Y-143806405D01*
X87105000Y-143759474D01*
X87105000Y-143260526D01*
X87109623Y-143213595D01*
X87123127Y-143169077D01*
X87145062Y-143128038D01*
X87174576Y-143092076D01*
X87210538Y-143062562D01*
X87251577Y-143040627D01*
X87296095Y-143027123D01*
X87343026Y-143022500D01*
X87916974Y-143022500D01*
X87963905Y-143027123D01*
G37*
G36*
X90503905Y-143027123D02*
G01*
X90548423Y-143040627D01*
X90589462Y-143062562D01*
X90625424Y-143092076D01*
X90654938Y-143128038D01*
X90676873Y-143169077D01*
X90690377Y-143213595D01*
X90695000Y-143260526D01*
X90695000Y-143759474D01*
X90690377Y-143806405D01*
X90676873Y-143850923D01*
X90654938Y-143891962D01*
X90625424Y-143927924D01*
X90589462Y-143957438D01*
X90548423Y-143979373D01*
X90503905Y-143992877D01*
X90456974Y-143997500D01*
X89883026Y-143997500D01*
X89836095Y-143992877D01*
X89791577Y-143979373D01*
X89750538Y-143957438D01*
X89714576Y-143927924D01*
X89685062Y-143891962D01*
X89663127Y-143850923D01*
X89649623Y-143806405D01*
X89645000Y-143759474D01*
X89645000Y-143260526D01*
X89649623Y-143213595D01*
X89663127Y-143169077D01*
X89685062Y-143128038D01*
X89714576Y-143092076D01*
X89750538Y-143062562D01*
X89791577Y-143040627D01*
X89836095Y-143027123D01*
X89883026Y-143022500D01*
X90456974Y-143022500D01*
X90503905Y-143027123D01*
G37*
G36*
X93043905Y-143027123D02*
G01*
X93088423Y-143040627D01*
X93129462Y-143062562D01*
X93165424Y-143092076D01*
X93194938Y-143128038D01*
X93216873Y-143169077D01*
X93230377Y-143213595D01*
X93235000Y-143260526D01*
X93235000Y-143759474D01*
X93230377Y-143806405D01*
X93216873Y-143850923D01*
X93194938Y-143891962D01*
X93165424Y-143927924D01*
X93129462Y-143957438D01*
X93088423Y-143979373D01*
X93043905Y-143992877D01*
X92996974Y-143997500D01*
X92423026Y-143997500D01*
X92376095Y-143992877D01*
X92331577Y-143979373D01*
X92290538Y-143957438D01*
X92254576Y-143927924D01*
X92225062Y-143891962D01*
X92203127Y-143850923D01*
X92189623Y-143806405D01*
X92185000Y-143759474D01*
X92185000Y-143260526D01*
X92189623Y-143213595D01*
X92203127Y-143169077D01*
X92225062Y-143128038D01*
X92254576Y-143092076D01*
X92290538Y-143062562D01*
X92331577Y-143040627D01*
X92376095Y-143027123D01*
X92423026Y-143022500D01*
X92996974Y-143022500D01*
X93043905Y-143027123D01*
G37*
G36*
X103770000Y-141235000D02*
G01*
X101970000Y-141235000D01*
X101970000Y-139435000D01*
X103770000Y-139435000D01*
X103770000Y-141235000D01*
G37*
G36*
X100447491Y-139440738D02*
G01*
X100592520Y-139469586D01*
X100756310Y-139537430D01*
X100903717Y-139635924D01*
X101029076Y-139761283D01*
X101127570Y-139908690D01*
X101195414Y-140072480D01*
X101230000Y-140246358D01*
X101230000Y-140423642D01*
X101195414Y-140597520D01*
X101127570Y-140761310D01*
X101029076Y-140908717D01*
X100903717Y-141034076D01*
X100756310Y-141132570D01*
X100592520Y-141200414D01*
X100447491Y-141229262D01*
X100418643Y-141235000D01*
X100241357Y-141235000D01*
X100212509Y-141229262D01*
X100067480Y-141200414D01*
X99903690Y-141132570D01*
X99756283Y-141034076D01*
X99630924Y-140908717D01*
X99532430Y-140761310D01*
X99464586Y-140597520D01*
X99430000Y-140423642D01*
X99430000Y-140246358D01*
X99464586Y-140072480D01*
X99532430Y-139908690D01*
X99630924Y-139761283D01*
X99756283Y-139635924D01*
X99903690Y-139537430D01*
X100067480Y-139469586D01*
X100212509Y-139440738D01*
X100241357Y-139435000D01*
X100418643Y-139435000D01*
X100447491Y-139440738D01*
G37*
G36*
X97907491Y-139440738D02*
G01*
X98052520Y-139469586D01*
X98216310Y-139537430D01*
X98363717Y-139635924D01*
X98489076Y-139761283D01*
X98587570Y-139908690D01*
X98655414Y-140072480D01*
X98690000Y-140246358D01*
X98690000Y-140423642D01*
X98655414Y-140597520D01*
X98587570Y-140761310D01*
X98489076Y-140908717D01*
X98363717Y-141034076D01*
X98216310Y-141132570D01*
X98052520Y-141200414D01*
X97907491Y-141229262D01*
X97878643Y-141235000D01*
X97701357Y-141235000D01*
X97672509Y-141229262D01*
X97527480Y-141200414D01*
X97363690Y-141132570D01*
X97216283Y-141034076D01*
X97090924Y-140908717D01*
X96992430Y-140761310D01*
X96924586Y-140597520D01*
X96890000Y-140423642D01*
X96890000Y-140246358D01*
X96924586Y-140072480D01*
X96992430Y-139908690D01*
X97090924Y-139761283D01*
X97216283Y-139635924D01*
X97363690Y-139537430D01*
X97527480Y-139469586D01*
X97672509Y-139440738D01*
X97701357Y-139435000D01*
X97878643Y-139435000D01*
X97907491Y-139440738D01*
G37*
G36*
X70275254Y-128524664D02*
G01*
X70645885Y-128598387D01*
X71064459Y-128771766D01*
X71441165Y-129023473D01*
X71761527Y-129343835D01*
X72013234Y-129720541D01*
X72186613Y-130139115D01*
X72275000Y-130583470D01*
X72275000Y-131036530D01*
X72186613Y-131480885D01*
X72013234Y-131899459D01*
X71761527Y-132276165D01*
X71441165Y-132596527D01*
X71064459Y-132848234D01*
X70645885Y-133021613D01*
X70275254Y-133095336D01*
X70201531Y-133110000D01*
X69748469Y-133110000D01*
X69674746Y-133095336D01*
X69304115Y-133021613D01*
X68885541Y-132848234D01*
X68508835Y-132596527D01*
X68188473Y-132276165D01*
X67936766Y-131899459D01*
X67763387Y-131480885D01*
X67675000Y-131036530D01*
X67675000Y-130583470D01*
X67763387Y-130139115D01*
X67936766Y-129720541D01*
X68188473Y-129343835D01*
X68508835Y-129023473D01*
X68885541Y-128771766D01*
X69304115Y-128598387D01*
X69674746Y-128524664D01*
X69748469Y-128510000D01*
X70201531Y-128510000D01*
X70275254Y-128524664D01*
G37*
G36*
X79630228Y-126793626D02*
G01*
X79789468Y-126859585D01*
X79932780Y-126955343D01*
X80054657Y-127077220D01*
X80150415Y-127220532D01*
X80216374Y-127379772D01*
X80250000Y-127548820D01*
X80250000Y-127721180D01*
X80216374Y-127890228D01*
X80150415Y-128049468D01*
X80054657Y-128192780D01*
X79932780Y-128314657D01*
X79789468Y-128410415D01*
X79630228Y-128476374D01*
X79461181Y-128510000D01*
X79288819Y-128510000D01*
X79119772Y-128476374D01*
X78960532Y-128410415D01*
X78817220Y-128314657D01*
X78695343Y-128192780D01*
X78599585Y-128049468D01*
X78533626Y-127890228D01*
X78500000Y-127721180D01*
X78500000Y-127548820D01*
X78533626Y-127379772D01*
X78599585Y-127220532D01*
X78695343Y-127077220D01*
X78817220Y-126955343D01*
X78960532Y-126859585D01*
X79119772Y-126793626D01*
X79288819Y-126760000D01*
X79461181Y-126760000D01*
X79630228Y-126793626D01*
G37*
G36*
X79570122Y-124241670D02*
G01*
X79630228Y-124253626D01*
X79789468Y-124319585D01*
X79932780Y-124415343D01*
X80054657Y-124537220D01*
X80150415Y-124680532D01*
X80216374Y-124839772D01*
X80250000Y-125008820D01*
X80250000Y-125181180D01*
X80216374Y-125350228D01*
X80150415Y-125509468D01*
X80054657Y-125652780D01*
X79932780Y-125774657D01*
X79789468Y-125870415D01*
X79630228Y-125936374D01*
X79461181Y-125970000D01*
X79288819Y-125970000D01*
X79119772Y-125936374D01*
X78960532Y-125870415D01*
X78817220Y-125774657D01*
X78695343Y-125652780D01*
X78599585Y-125509468D01*
X78533626Y-125350228D01*
X78500000Y-125181180D01*
X78500000Y-125008820D01*
X78533626Y-124839772D01*
X78599585Y-124680532D01*
X78695343Y-124537220D01*
X78817220Y-124415343D01*
X78960532Y-124319585D01*
X79119772Y-124253626D01*
X79179878Y-124241670D01*
X79288819Y-124220000D01*
X79461181Y-124220000D01*
X79570122Y-124241670D01*
G37*
G36*
X105938798Y-123285103D02*
G01*
X105988002Y-123300028D01*
X106033360Y-123324272D01*
X106073107Y-123356893D01*
X106105728Y-123396640D01*
X106129972Y-123441998D01*
X106144897Y-123491202D01*
X106150000Y-123543006D01*
X106150000Y-124366994D01*
X106144897Y-124418798D01*
X106129972Y-124468002D01*
X106105728Y-124513360D01*
X106073107Y-124553107D01*
X106033360Y-124585728D01*
X105988002Y-124609972D01*
X105938798Y-124624897D01*
X105886994Y-124630000D01*
X103663006Y-124630000D01*
X103611202Y-124624897D01*
X103561998Y-124609972D01*
X103516640Y-124585728D01*
X103476893Y-124553107D01*
X103444272Y-124513360D01*
X103420028Y-124468002D01*
X103405103Y-124418798D01*
X103400000Y-124366994D01*
X103400000Y-123543006D01*
X103405103Y-123491202D01*
X103420028Y-123441998D01*
X103444272Y-123396640D01*
X103476893Y-123356893D01*
X103516640Y-123324272D01*
X103561998Y-123300028D01*
X103611202Y-123285103D01*
X103663006Y-123280000D01*
X105886994Y-123280000D01*
X105938798Y-123285103D01*
G37*
G36*
X101413905Y-123304623D02*
G01*
X101458423Y-123318127D01*
X101499462Y-123340062D01*
X101535424Y-123369576D01*
X101564938Y-123405538D01*
X101586873Y-123446577D01*
X101600377Y-123491095D01*
X101605000Y-123538026D01*
X101605000Y-124111974D01*
X101600377Y-124158905D01*
X101586873Y-124203423D01*
X101564938Y-124244462D01*
X101535424Y-124280424D01*
X101499462Y-124309938D01*
X101458423Y-124331873D01*
X101413905Y-124345377D01*
X101366974Y-124350000D01*
X100868026Y-124350000D01*
X100821095Y-124345377D01*
X100776577Y-124331873D01*
X100735538Y-124309938D01*
X100699576Y-124280424D01*
X100670062Y-124244462D01*
X100648127Y-124203423D01*
X100634623Y-124158905D01*
X100630000Y-124111974D01*
X100630000Y-123538026D01*
X100634623Y-123491095D01*
X100648127Y-123446577D01*
X100670062Y-123405538D01*
X100699576Y-123369576D01*
X100735538Y-123340062D01*
X100776577Y-123318127D01*
X100821095Y-123304623D01*
X100868026Y-123300000D01*
X101366974Y-123300000D01*
X101413905Y-123304623D01*
G37*
G36*
X99838905Y-123304623D02*
G01*
X99883423Y-123318127D01*
X99924462Y-123340062D01*
X99960424Y-123369576D01*
X99989938Y-123405538D01*
X100011873Y-123446577D01*
X100025377Y-123491095D01*
X100030000Y-123538026D01*
X100030000Y-124111974D01*
X100025377Y-124158905D01*
X100011873Y-124203423D01*
X99989938Y-124244462D01*
X99960424Y-124280424D01*
X99924462Y-124309938D01*
X99883423Y-124331873D01*
X99838905Y-124345377D01*
X99791974Y-124350000D01*
X99293026Y-124350000D01*
X99246095Y-124345377D01*
X99201577Y-124331873D01*
X99160538Y-124309938D01*
X99124576Y-124280424D01*
X99095062Y-124244462D01*
X99073127Y-124203423D01*
X99059623Y-124158905D01*
X99055000Y-124111974D01*
X99055000Y-123538026D01*
X99059623Y-123491095D01*
X99073127Y-123446577D01*
X99095062Y-123405538D01*
X99124576Y-123369576D01*
X99160538Y-123340062D01*
X99201577Y-123318127D01*
X99246095Y-123304623D01*
X99293026Y-123300000D01*
X99791974Y-123300000D01*
X99838905Y-123304623D01*
G37*
G36*
X108728905Y-123304623D02*
G01*
X108773423Y-123318127D01*
X108814462Y-123340062D01*
X108850424Y-123369576D01*
X108879938Y-123405538D01*
X108901873Y-123446577D01*
X108915377Y-123491095D01*
X108920000Y-123538026D01*
X108920000Y-124111974D01*
X108915377Y-124158905D01*
X108901873Y-124203423D01*
X108879938Y-124244462D01*
X108850424Y-124280424D01*
X108814462Y-124309938D01*
X108773423Y-124331873D01*
X108728905Y-124345377D01*
X108681974Y-124350000D01*
X108183026Y-124350000D01*
X108136095Y-124345377D01*
X108091577Y-124331873D01*
X108050538Y-124309938D01*
X108014576Y-124280424D01*
X107985062Y-124244462D01*
X107963127Y-124203423D01*
X107949623Y-124158905D01*
X107945000Y-124111974D01*
X107945000Y-123538026D01*
X107949623Y-123491095D01*
X107963127Y-123446577D01*
X107985062Y-123405538D01*
X108014576Y-123369576D01*
X108050538Y-123340062D01*
X108091577Y-123318127D01*
X108136095Y-123304623D01*
X108183026Y-123300000D01*
X108681974Y-123300000D01*
X108728905Y-123304623D01*
G37*
G36*
X110303905Y-123304623D02*
G01*
X110348423Y-123318127D01*
X110389462Y-123340062D01*
X110425424Y-123369576D01*
X110454938Y-123405538D01*
X110476873Y-123446577D01*
X110490377Y-123491095D01*
X110495000Y-123538026D01*
X110495000Y-124111974D01*
X110490377Y-124158905D01*
X110476873Y-124203423D01*
X110454938Y-124244462D01*
X110425424Y-124280424D01*
X110389462Y-124309938D01*
X110348423Y-124331873D01*
X110303905Y-124345377D01*
X110256974Y-124350000D01*
X109758026Y-124350000D01*
X109711095Y-124345377D01*
X109666577Y-124331873D01*
X109625538Y-124309938D01*
X109589576Y-124280424D01*
X109560062Y-124244462D01*
X109538127Y-124203423D01*
X109524623Y-124158905D01*
X109520000Y-124111974D01*
X109520000Y-123538026D01*
X109524623Y-123491095D01*
X109538127Y-123446577D01*
X109560062Y-123405538D01*
X109589576Y-123369576D01*
X109625538Y-123340062D01*
X109666577Y-123318127D01*
X109711095Y-123304623D01*
X109758026Y-123300000D01*
X110256974Y-123300000D01*
X110303905Y-123304623D01*
G37*
G36*
X79570122Y-121701670D02*
G01*
X79630228Y-121713626D01*
X79789468Y-121779585D01*
X79932780Y-121875343D01*
X80054657Y-121997220D01*
X80150415Y-122140532D01*
X80216374Y-122299772D01*
X80250000Y-122468820D01*
X80250000Y-122641180D01*
X80216374Y-122810228D01*
X80150415Y-122969468D01*
X80054657Y-123112780D01*
X79932780Y-123234657D01*
X79789468Y-123330415D01*
X79630228Y-123396374D01*
X79461181Y-123430000D01*
X79288819Y-123430000D01*
X79119772Y-123396374D01*
X78960532Y-123330415D01*
X78817220Y-123234657D01*
X78695343Y-123112780D01*
X78599585Y-122969468D01*
X78533626Y-122810228D01*
X78500000Y-122641180D01*
X78500000Y-122468820D01*
X78533626Y-122299772D01*
X78599585Y-122140532D01*
X78695343Y-121997220D01*
X78817220Y-121875343D01*
X78960532Y-121779585D01*
X79119772Y-121713626D01*
X79179878Y-121701670D01*
X79288819Y-121680000D01*
X79461181Y-121680000D01*
X79570122Y-121701670D01*
G37*
G36*
X105938798Y-120485103D02*
G01*
X105988002Y-120500028D01*
X106033360Y-120524272D01*
X106073107Y-120556893D01*
X106105728Y-120596640D01*
X106129972Y-120641998D01*
X106144897Y-120691202D01*
X106150000Y-120743006D01*
X106150000Y-121566994D01*
X106144897Y-121618798D01*
X106129972Y-121668002D01*
X106105728Y-121713360D01*
X106073107Y-121753107D01*
X106033360Y-121785728D01*
X105988002Y-121809972D01*
X105938798Y-121824897D01*
X105886994Y-121830000D01*
X103663006Y-121830000D01*
X103611202Y-121824897D01*
X103561998Y-121809972D01*
X103516640Y-121785728D01*
X103476893Y-121753107D01*
X103444272Y-121713360D01*
X103420028Y-121668002D01*
X103405103Y-121618798D01*
X103400000Y-121566994D01*
X103400000Y-120743006D01*
X103405103Y-120691202D01*
X103420028Y-120641998D01*
X103444272Y-120596640D01*
X103476893Y-120556893D01*
X103516640Y-120524272D01*
X103561998Y-120500028D01*
X103611202Y-120485103D01*
X103663006Y-120480000D01*
X105886994Y-120480000D01*
X105938798Y-120485103D01*
G37*
G36*
X99838905Y-120764623D02*
G01*
X99883423Y-120778127D01*
X99924462Y-120800062D01*
X99960424Y-120829576D01*
X99989938Y-120865538D01*
X100011873Y-120906577D01*
X100025377Y-120951095D01*
X100030000Y-120998026D01*
X100030000Y-121571974D01*
X100025377Y-121618905D01*
X100011873Y-121663423D01*
X99989938Y-121704462D01*
X99960424Y-121740424D01*
X99924462Y-121769938D01*
X99883423Y-121791873D01*
X99838905Y-121805377D01*
X99791974Y-121810000D01*
X99293026Y-121810000D01*
X99246095Y-121805377D01*
X99201577Y-121791873D01*
X99160538Y-121769938D01*
X99124576Y-121740424D01*
X99095062Y-121704462D01*
X99073127Y-121663423D01*
X99059623Y-121618905D01*
X99055000Y-121571974D01*
X99055000Y-120998026D01*
X99059623Y-120951095D01*
X99073127Y-120906577D01*
X99095062Y-120865538D01*
X99124576Y-120829576D01*
X99160538Y-120800062D01*
X99201577Y-120778127D01*
X99246095Y-120764623D01*
X99293026Y-120760000D01*
X99791974Y-120760000D01*
X99838905Y-120764623D01*
G37*
G36*
X101413905Y-120764623D02*
G01*
X101458423Y-120778127D01*
X101499462Y-120800062D01*
X101535424Y-120829576D01*
X101564938Y-120865538D01*
X101586873Y-120906577D01*
X101600377Y-120951095D01*
X101605000Y-120998026D01*
X101605000Y-121571974D01*
X101600377Y-121618905D01*
X101586873Y-121663423D01*
X101564938Y-121704462D01*
X101535424Y-121740424D01*
X101499462Y-121769938D01*
X101458423Y-121791873D01*
X101413905Y-121805377D01*
X101366974Y-121810000D01*
X100868026Y-121810000D01*
X100821095Y-121805377D01*
X100776577Y-121791873D01*
X100735538Y-121769938D01*
X100699576Y-121740424D01*
X100670062Y-121704462D01*
X100648127Y-121663423D01*
X100634623Y-121618905D01*
X100630000Y-121571974D01*
X100630000Y-120998026D01*
X100634623Y-120951095D01*
X100648127Y-120906577D01*
X100670062Y-120865538D01*
X100699576Y-120829576D01*
X100735538Y-120800062D01*
X100776577Y-120778127D01*
X100821095Y-120764623D01*
X100868026Y-120760000D01*
X101366974Y-120760000D01*
X101413905Y-120764623D01*
G37*
G36*
X80250000Y-120890000D02*
G01*
X78500000Y-120890000D01*
X78500000Y-119140000D01*
X80250000Y-119140000D01*
X80250000Y-120890000D01*
G37*
G36*
X108918905Y-119684623D02*
G01*
X108963423Y-119698127D01*
X109004462Y-119720062D01*
X109040424Y-119749576D01*
X109069938Y-119785538D01*
X109091873Y-119826577D01*
X109105377Y-119871095D01*
X109110000Y-119918026D01*
X109110000Y-120416974D01*
X109105377Y-120463905D01*
X109091873Y-120508423D01*
X109069938Y-120549462D01*
X109040424Y-120585424D01*
X109004462Y-120614938D01*
X108963423Y-120636873D01*
X108918905Y-120650377D01*
X108871974Y-120655000D01*
X108298026Y-120655000D01*
X108251095Y-120650377D01*
X108206577Y-120636873D01*
X108165538Y-120614938D01*
X108129576Y-120585424D01*
X108100062Y-120549462D01*
X108078127Y-120508423D01*
X108064623Y-120463905D01*
X108060000Y-120416974D01*
X108060000Y-119918026D01*
X108064623Y-119871095D01*
X108078127Y-119826577D01*
X108100062Y-119785538D01*
X108129576Y-119749576D01*
X108165538Y-119720062D01*
X108206577Y-119698127D01*
X108251095Y-119684623D01*
X108298026Y-119680000D01*
X108871974Y-119680000D01*
X108918905Y-119684623D01*
G37*
G36*
X99838905Y-118224623D02*
G01*
X99883423Y-118238127D01*
X99924462Y-118260062D01*
X99960424Y-118289576D01*
X99989938Y-118325538D01*
X100011873Y-118366577D01*
X100025377Y-118411095D01*
X100030000Y-118458026D01*
X100030000Y-119031974D01*
X100025377Y-119078905D01*
X100011873Y-119123423D01*
X99989938Y-119164462D01*
X99960424Y-119200424D01*
X99924462Y-119229938D01*
X99883423Y-119251873D01*
X99838905Y-119265377D01*
X99791974Y-119270000D01*
X99293026Y-119270000D01*
X99246095Y-119265377D01*
X99201577Y-119251873D01*
X99160538Y-119229938D01*
X99124576Y-119200424D01*
X99095062Y-119164462D01*
X99073127Y-119123423D01*
X99059623Y-119078905D01*
X99055000Y-119031974D01*
X99055000Y-118458026D01*
X99059623Y-118411095D01*
X99073127Y-118366577D01*
X99095062Y-118325538D01*
X99124576Y-118289576D01*
X99160538Y-118260062D01*
X99201577Y-118238127D01*
X99246095Y-118224623D01*
X99293026Y-118220000D01*
X99791974Y-118220000D01*
X99838905Y-118224623D01*
G37*
G36*
X101413905Y-118224623D02*
G01*
X101458423Y-118238127D01*
X101499462Y-118260062D01*
X101535424Y-118289576D01*
X101564938Y-118325538D01*
X101586873Y-118366577D01*
X101600377Y-118411095D01*
X101605000Y-118458026D01*
X101605000Y-119031974D01*
X101600377Y-119078905D01*
X101586873Y-119123423D01*
X101564938Y-119164462D01*
X101535424Y-119200424D01*
X101499462Y-119229938D01*
X101458423Y-119251873D01*
X101413905Y-119265377D01*
X101366974Y-119270000D01*
X100868026Y-119270000D01*
X100821095Y-119265377D01*
X100776577Y-119251873D01*
X100735538Y-119229938D01*
X100699576Y-119200424D01*
X100670062Y-119164462D01*
X100648127Y-119123423D01*
X100634623Y-119078905D01*
X100630000Y-119031974D01*
X100630000Y-118458026D01*
X100634623Y-118411095D01*
X100648127Y-118366577D01*
X100670062Y-118325538D01*
X100699576Y-118289576D01*
X100735538Y-118260062D01*
X100776577Y-118238127D01*
X100821095Y-118224623D01*
X100868026Y-118220000D01*
X101366974Y-118220000D01*
X101413905Y-118224623D01*
G37*
G36*
X70275254Y-114554664D02*
G01*
X70645885Y-114628387D01*
X71064459Y-114801766D01*
X71441165Y-115053473D01*
X71761527Y-115373835D01*
X72013234Y-115750541D01*
X72186613Y-116169115D01*
X72250833Y-116491974D01*
X72275000Y-116613469D01*
X72275000Y-117066531D01*
X72260336Y-117140254D01*
X72186613Y-117510885D01*
X72013234Y-117929459D01*
X71761527Y-118306165D01*
X71441165Y-118626527D01*
X71064459Y-118878234D01*
X70645885Y-119051613D01*
X70304445Y-119119529D01*
X70201531Y-119140000D01*
X69748469Y-119140000D01*
X69645555Y-119119529D01*
X69304115Y-119051613D01*
X68885541Y-118878234D01*
X68508835Y-118626527D01*
X68188473Y-118306165D01*
X67936766Y-117929459D01*
X67763387Y-117510885D01*
X67689664Y-117140254D01*
X67675000Y-117066531D01*
X67675000Y-116613469D01*
X67699167Y-116491974D01*
X67763387Y-116169115D01*
X67936766Y-115750541D01*
X68188473Y-115373835D01*
X68508835Y-115053473D01*
X68885541Y-114801766D01*
X69304115Y-114628387D01*
X69674746Y-114554664D01*
X69748469Y-114540000D01*
X70201531Y-114540000D01*
X70275254Y-114554664D01*
G37*
G36*
X108918905Y-118109623D02*
G01*
X108963423Y-118123127D01*
X109004462Y-118145062D01*
X109040424Y-118174576D01*
X109069938Y-118210538D01*
X109091873Y-118251577D01*
X109105377Y-118296095D01*
X109110000Y-118343026D01*
X109110000Y-118841974D01*
X109105377Y-118888905D01*
X109091873Y-118933423D01*
X109069938Y-118974462D01*
X109040424Y-119010424D01*
X109004462Y-119039938D01*
X108963423Y-119061873D01*
X108918905Y-119075377D01*
X108871974Y-119080000D01*
X108298026Y-119080000D01*
X108251095Y-119075377D01*
X108206577Y-119061873D01*
X108165538Y-119039938D01*
X108129576Y-119010424D01*
X108100062Y-118974462D01*
X108078127Y-118933423D01*
X108064623Y-118888905D01*
X108060000Y-118841974D01*
X108060000Y-118343026D01*
X108064623Y-118296095D01*
X108078127Y-118251577D01*
X108100062Y-118210538D01*
X108129576Y-118174576D01*
X108165538Y-118145062D01*
X108206577Y-118123127D01*
X108251095Y-118109623D01*
X108298026Y-118105000D01*
X108871974Y-118105000D01*
X108918905Y-118109623D01*
G37*
G36*
X104255000Y-118800000D02*
G01*
X103095000Y-118800000D01*
X103095000Y-118050000D01*
X104255000Y-118050000D01*
X104255000Y-118800000D01*
G37*
G36*
X106455000Y-118800000D02*
G01*
X105295000Y-118800000D01*
X105295000Y-118050000D01*
X106455000Y-118050000D01*
X106455000Y-118800000D01*
G37*
G36*
X104255000Y-117850000D02*
G01*
X103095000Y-117850000D01*
X103095000Y-117100000D01*
X104255000Y-117100000D01*
X104255000Y-117850000D01*
G37*
G36*
X106455000Y-117850000D02*
G01*
X105295000Y-117850000D01*
X105295000Y-117100000D01*
X106455000Y-117100000D01*
X106455000Y-117850000D01*
G37*
G36*
X106455000Y-116900000D02*
G01*
X105295000Y-116900000D01*
X105295000Y-116150000D01*
X106455000Y-116150000D01*
X106455000Y-116900000D01*
G37*
G36*
X104255000Y-116900000D02*
G01*
X103095000Y-116900000D01*
X103095000Y-116150000D01*
X104255000Y-116150000D01*
X104255000Y-116900000D01*
G37*
G36*
X99838905Y-115684623D02*
G01*
X99883423Y-115698127D01*
X99924462Y-115720062D01*
X99960424Y-115749576D01*
X99989938Y-115785538D01*
X100011873Y-115826577D01*
X100025377Y-115871095D01*
X100030000Y-115918026D01*
X100030000Y-116491974D01*
X100025377Y-116538905D01*
X100011873Y-116583423D01*
X99989938Y-116624462D01*
X99960424Y-116660424D01*
X99924462Y-116689938D01*
X99883423Y-116711873D01*
X99838905Y-116725377D01*
X99791974Y-116730000D01*
X99293026Y-116730000D01*
X99246095Y-116725377D01*
X99201577Y-116711873D01*
X99160538Y-116689938D01*
X99124576Y-116660424D01*
X99095062Y-116624462D01*
X99073127Y-116583423D01*
X99059623Y-116538905D01*
X99055000Y-116491974D01*
X99055000Y-115918026D01*
X99059623Y-115871095D01*
X99073127Y-115826577D01*
X99095062Y-115785538D01*
X99124576Y-115749576D01*
X99160538Y-115720062D01*
X99201577Y-115698127D01*
X99246095Y-115684623D01*
X99293026Y-115680000D01*
X99791974Y-115680000D01*
X99838905Y-115684623D01*
G37*
G36*
X101413905Y-115684623D02*
G01*
X101458423Y-115698127D01*
X101499462Y-115720062D01*
X101535424Y-115749576D01*
X101564938Y-115785538D01*
X101586873Y-115826577D01*
X101600377Y-115871095D01*
X101605000Y-115918026D01*
X101605000Y-116491974D01*
X101600377Y-116538905D01*
X101586873Y-116583423D01*
X101564938Y-116624462D01*
X101535424Y-116660424D01*
X101499462Y-116689938D01*
X101458423Y-116711873D01*
X101413905Y-116725377D01*
X101366974Y-116730000D01*
X100868026Y-116730000D01*
X100821095Y-116725377D01*
X100776577Y-116711873D01*
X100735538Y-116689938D01*
X100699576Y-116660424D01*
X100670062Y-116624462D01*
X100648127Y-116583423D01*
X100634623Y-116538905D01*
X100630000Y-116491974D01*
X100630000Y-115918026D01*
X100634623Y-115871095D01*
X100648127Y-115826577D01*
X100670062Y-115785538D01*
X100699576Y-115749576D01*
X100735538Y-115720062D01*
X100776577Y-115698127D01*
X100821095Y-115684623D01*
X100868026Y-115680000D01*
X101366974Y-115680000D01*
X101413905Y-115684623D01*
G37*
G36*
X117131689Y-110163429D02*
G01*
X117313678Y-110238811D01*
X117477463Y-110348249D01*
X117616751Y-110487537D01*
X117726189Y-110651322D01*
X117801571Y-110833311D01*
X117840000Y-111026509D01*
X117840000Y-111223491D01*
X117801571Y-111416689D01*
X117726189Y-111598678D01*
X117616751Y-111762463D01*
X117477463Y-111901751D01*
X117313678Y-112011189D01*
X117131689Y-112086571D01*
X116938492Y-112125000D01*
X116741508Y-112125000D01*
X116548311Y-112086571D01*
X116366322Y-112011189D01*
X116202537Y-111901751D01*
X116063249Y-111762463D01*
X115953811Y-111598678D01*
X115878429Y-111416689D01*
X115840000Y-111223491D01*
X115840000Y-111026509D01*
X115878429Y-110833311D01*
X115953811Y-110651322D01*
X116063249Y-110487537D01*
X116202537Y-110348249D01*
X116366322Y-110238811D01*
X116548311Y-110163429D01*
X116741508Y-110125000D01*
X116938492Y-110125000D01*
X117131689Y-110163429D01*
G37*
G36*
X68236689Y-110163429D02*
G01*
X68418678Y-110238811D01*
X68582463Y-110348249D01*
X68721751Y-110487537D01*
X68831189Y-110651322D01*
X68906571Y-110833311D01*
X68945000Y-111026509D01*
X68945000Y-111223491D01*
X68906571Y-111416689D01*
X68831189Y-111598678D01*
X68721751Y-111762463D01*
X68582463Y-111901751D01*
X68418678Y-112011189D01*
X68236689Y-112086571D01*
X68043492Y-112125000D01*
X67846508Y-112125000D01*
X67653311Y-112086571D01*
X67471322Y-112011189D01*
X67307537Y-111901751D01*
X67168249Y-111762463D01*
X67058811Y-111598678D01*
X66983429Y-111416689D01*
X66945000Y-111223491D01*
X66945000Y-111026509D01*
X66983429Y-110833311D01*
X67058811Y-110651322D01*
X67168249Y-110487537D01*
X67307537Y-110348249D01*
X67471322Y-110238811D01*
X67653311Y-110163429D01*
X67846508Y-110125000D01*
X68043492Y-110125000D01*
X68236689Y-110163429D01*
G37*
M02*
