%FSLAX45Y45*%
G04 Gerber Fmt 4.5, Leading zero omitted, Abs format (unit mm)*
G04 Created by KiCad (PCBNEW (5.1.6)-1) date 2022-11-16 12:34:44*
%MOMM*%
%LPD*%
G01*
G04 APERTURE LIST*
%TA.AperFunction,Profile*%
%ADD10C,0.050000*%
%TD*%
%ADD11C,0.200000*%
%ADD12C,0.300000*%
G04 APERTURE END LIST*
D10*
X6223000Y-10795000D02*
X6223000Y-18415000D01*
X12065000Y-10795000D02*
X6223000Y-10795000D01*
X12065000Y-18415000D02*
X12065000Y-10795000D01*
X6223000Y-18415000D02*
X12065000Y-18415000D01*
D11*
D12*
X6506928Y-18883214D02*
X6506928Y-18583214D01*
X6578357Y-18583214D01*
X6621214Y-18597500D01*
X6649786Y-18626072D01*
X6664071Y-18654643D01*
X6678357Y-18711786D01*
X6678357Y-18754643D01*
X6664071Y-18811786D01*
X6649786Y-18840357D01*
X6621214Y-18868929D01*
X6578357Y-18883214D01*
X6506928Y-18883214D01*
X6806928Y-18883214D02*
X6806928Y-18683214D01*
X6806928Y-18740357D02*
X6821214Y-18711786D01*
X6835500Y-18697500D01*
X6864071Y-18683214D01*
X6892643Y-18683214D01*
X6992643Y-18883214D02*
X6992643Y-18683214D01*
X6992643Y-18583214D02*
X6978357Y-18597500D01*
X6992643Y-18611786D01*
X7006928Y-18597500D01*
X6992643Y-18583214D01*
X6992643Y-18611786D01*
X7178357Y-18883214D02*
X7149786Y-18868929D01*
X7135500Y-18840357D01*
X7135500Y-18583214D01*
X7335500Y-18883214D02*
X7306928Y-18868929D01*
X7292643Y-18840357D01*
X7292643Y-18583214D01*
X7678357Y-18883214D02*
X7678357Y-18583214D01*
X7778357Y-18797500D01*
X7878357Y-18583214D01*
X7878357Y-18883214D01*
X8149786Y-18883214D02*
X8149786Y-18726072D01*
X8135500Y-18697500D01*
X8106928Y-18683214D01*
X8049786Y-18683214D01*
X8021214Y-18697500D01*
X8149786Y-18868929D02*
X8121214Y-18883214D01*
X8049786Y-18883214D01*
X8021214Y-18868929D01*
X8006928Y-18840357D01*
X8006928Y-18811786D01*
X8021214Y-18783214D01*
X8049786Y-18768929D01*
X8121214Y-18768929D01*
X8149786Y-18754643D01*
X8292643Y-18683214D02*
X8292643Y-18983214D01*
X8292643Y-18697500D02*
X8321214Y-18683214D01*
X8378357Y-18683214D01*
X8406928Y-18697500D01*
X8421214Y-18711786D01*
X8435500Y-18740357D01*
X8435500Y-18826072D01*
X8421214Y-18854643D01*
X8406928Y-18868929D01*
X8378357Y-18883214D01*
X8321214Y-18883214D01*
X8292643Y-18868929D01*
X8564071Y-18854643D02*
X8578357Y-18868929D01*
X8564071Y-18883214D01*
X8549786Y-18868929D01*
X8564071Y-18854643D01*
X8564071Y-18883214D01*
X8564071Y-18697500D02*
X8578357Y-18711786D01*
X8564071Y-18726072D01*
X8549786Y-18711786D01*
X8564071Y-18697500D01*
X8564071Y-18726072D01*
M02*
