%FSLAX45Y45*%
G04 Gerber Fmt 4.5, Leading zero omitted, Abs format (unit mm)*
G04 Created by KiCad (PCBNEW (5.1.6)-1) date 2022-11-16 12:34:44*
%MOMM*%
%LPD*%
G01*
G04 APERTURE LIST*
%TA.AperFunction,Profile*%
%ADD10C,0.050000*%
%TD*%
%ADD11C,0.200000*%
%ADD12C,0.300000*%
G04 APERTURE END LIST*
D10*
X6223000Y-10795000D02*
X6223000Y-18415000D01*
X12065000Y-10795000D02*
X6223000Y-10795000D01*
X12065000Y-18415000D02*
X12065000Y-10795000D01*
X6223000Y-18415000D02*
X12065000Y-18415000D01*
D11*
X8743000Y-11346500D02*
X8783000Y-11386500D01*
X8783000Y-11346500D02*
X8743000Y-11386500D01*
X8743000Y-11854500D02*
X8783000Y-11894500D01*
X8783000Y-11854500D02*
X8743000Y-11894500D01*
X8743000Y-12299000D02*
X8783000Y-12339000D01*
X8783000Y-12299000D02*
X8743000Y-12339000D01*
X8743000Y-13061000D02*
X8783000Y-13101000D01*
X8783000Y-13061000D02*
X8743000Y-13101000D01*
X8743000Y-13315000D02*
X8783000Y-13355000D01*
X8783000Y-13315000D02*
X8743000Y-13355000D01*
X8743000Y-13632500D02*
X8783000Y-13672500D01*
X8783000Y-13632500D02*
X8743000Y-13672500D01*
X8743000Y-14077000D02*
X8783000Y-14117000D01*
X8783000Y-14077000D02*
X8743000Y-14117000D01*
X8806500Y-15537500D02*
X8846500Y-15577500D01*
X8846500Y-15537500D02*
X8806500Y-15577500D01*
X8806500Y-15855000D02*
X8846500Y-15895000D01*
X8846500Y-15855000D02*
X8806500Y-15895000D01*
X8870000Y-14648500D02*
X8910000Y-14688500D01*
X8910000Y-14648500D02*
X8870000Y-14688500D01*
X8870000Y-16299500D02*
X8910000Y-16339500D01*
X8910000Y-16299500D02*
X8870000Y-16339500D01*
X8870000Y-17188500D02*
X8910000Y-17228500D01*
X8910000Y-17188500D02*
X8870000Y-17228500D01*
X8870000Y-17569500D02*
X8910000Y-17609500D01*
X8910000Y-17569500D02*
X8870000Y-17609500D01*
X8933500Y-17950500D02*
X8973500Y-17990500D01*
X8973500Y-17950500D02*
X8933500Y-17990500D01*
X8933500Y-18204500D02*
X8973500Y-18244500D01*
X8973500Y-18204500D02*
X8933500Y-18244500D01*
X9060500Y-11346500D02*
X9100500Y-11386500D01*
X9100500Y-11346500D02*
X9060500Y-11386500D01*
X9060500Y-11854500D02*
X9100500Y-11894500D01*
X9100500Y-11854500D02*
X9060500Y-11894500D01*
X9060500Y-12299000D02*
X9100500Y-12339000D01*
X9100500Y-12299000D02*
X9060500Y-12339000D01*
X9060500Y-12553000D02*
X9100500Y-12593000D01*
X9100500Y-12553000D02*
X9060500Y-12593000D01*
X9060500Y-12807000D02*
X9100500Y-12847000D01*
X9100500Y-12807000D02*
X9060500Y-12847000D01*
X9060500Y-13632500D02*
X9100500Y-13672500D01*
X9100500Y-13632500D02*
X9060500Y-13672500D01*
X9060500Y-14077000D02*
X9100500Y-14117000D01*
X9100500Y-14077000D02*
X9060500Y-14117000D01*
X9187500Y-16871000D02*
X9227500Y-16911000D01*
X9227500Y-16871000D02*
X9187500Y-16911000D01*
X9251000Y-14648500D02*
X9291000Y-14688500D01*
X9291000Y-14648500D02*
X9251000Y-14688500D01*
X9251000Y-15537500D02*
X9291000Y-15577500D01*
X9291000Y-15537500D02*
X9251000Y-15577500D01*
X9251000Y-15855000D02*
X9291000Y-15895000D01*
X9291000Y-15855000D02*
X9251000Y-15895000D01*
X9378000Y-11346500D02*
X9418000Y-11386500D01*
X9418000Y-11346500D02*
X9378000Y-11386500D01*
X9378000Y-11854500D02*
X9418000Y-11894500D01*
X9418000Y-11854500D02*
X9378000Y-11894500D01*
X9378000Y-12299000D02*
X9418000Y-12339000D01*
X9418000Y-12299000D02*
X9378000Y-12339000D01*
X9378000Y-12553000D02*
X9418000Y-12593000D01*
X9418000Y-12553000D02*
X9378000Y-12593000D01*
X9378000Y-12807000D02*
X9418000Y-12847000D01*
X9418000Y-12807000D02*
X9378000Y-12847000D01*
X9378000Y-13061000D02*
X9418000Y-13101000D01*
X9418000Y-13061000D02*
X9378000Y-13101000D01*
X9378000Y-13632500D02*
X9418000Y-13672500D01*
X9418000Y-13632500D02*
X9378000Y-13672500D01*
X9378000Y-14077000D02*
X9418000Y-14117000D01*
X9418000Y-14077000D02*
X9378000Y-14117000D01*
X9378000Y-16744000D02*
X9418000Y-16784000D01*
X9418000Y-16744000D02*
X9378000Y-16784000D01*
X9441500Y-16299500D02*
X9481500Y-16339500D01*
X9481500Y-16299500D02*
X9441500Y-16339500D01*
X9441500Y-17950500D02*
X9481500Y-17990500D01*
X9481500Y-17950500D02*
X9441500Y-17990500D01*
X9441500Y-18204500D02*
X9481500Y-18244500D01*
X9481500Y-18204500D02*
X9441500Y-18244500D01*
X9505000Y-16871000D02*
X9545000Y-16911000D01*
X9545000Y-16871000D02*
X9505000Y-16911000D01*
X9568500Y-14331000D02*
X9608500Y-14371000D01*
X9608500Y-14331000D02*
X9568500Y-14371000D01*
X9568500Y-14648500D02*
X9608500Y-14688500D01*
X9608500Y-14648500D02*
X9568500Y-14688500D01*
X9568500Y-15283500D02*
X9608500Y-15323500D01*
X9608500Y-15283500D02*
X9568500Y-15323500D01*
X9568500Y-16744000D02*
X9608500Y-16784000D01*
X9608500Y-16744000D02*
X9568500Y-16784000D01*
X9632000Y-16490000D02*
X9672000Y-16530000D01*
X9672000Y-16490000D02*
X9632000Y-16530000D01*
X9695500Y-11346500D02*
X9735500Y-11386500D01*
X9735500Y-11346500D02*
X9695500Y-11386500D01*
X9695500Y-11854500D02*
X9735500Y-11894500D01*
X9735500Y-11854500D02*
X9695500Y-11894500D01*
X9695500Y-12299000D02*
X9735500Y-12339000D01*
X9735500Y-12299000D02*
X9695500Y-12339000D01*
X9695500Y-12553000D02*
X9735500Y-12593000D01*
X9735500Y-12553000D02*
X9695500Y-12593000D01*
X9695500Y-12807000D02*
X9735500Y-12847000D01*
X9735500Y-12807000D02*
X9695500Y-12847000D01*
X9695500Y-13061000D02*
X9735500Y-13101000D01*
X9735500Y-13061000D02*
X9695500Y-13101000D01*
X9695500Y-13315000D02*
X9735500Y-13355000D01*
X9735500Y-13315000D02*
X9695500Y-13355000D01*
X9886000Y-14331000D02*
X9926000Y-14371000D01*
X9926000Y-14331000D02*
X9886000Y-14371000D01*
X9886000Y-14648500D02*
X9926000Y-14688500D01*
X9926000Y-14648500D02*
X9886000Y-14688500D01*
X9949500Y-14902500D02*
X9989500Y-14942500D01*
X9989500Y-14902500D02*
X9949500Y-14942500D01*
X9949500Y-15283500D02*
X9989500Y-15323500D01*
X9989500Y-15283500D02*
X9949500Y-15323500D01*
X9949500Y-15728000D02*
X9989500Y-15768000D01*
X9989500Y-15728000D02*
X9949500Y-15768000D01*
X10013000Y-12553000D02*
X10053000Y-12593000D01*
X10053000Y-12553000D02*
X10013000Y-12593000D01*
X10013000Y-12807000D02*
X10053000Y-12847000D01*
X10053000Y-12807000D02*
X10013000Y-12847000D01*
X10013000Y-13061000D02*
X10053000Y-13101000D01*
X10053000Y-13061000D02*
X10013000Y-13101000D01*
X10013000Y-13315000D02*
X10053000Y-13355000D01*
X10053000Y-13315000D02*
X10013000Y-13355000D01*
X10076500Y-17061500D02*
X10116500Y-17101500D01*
X10116500Y-17061500D02*
X10076500Y-17101500D01*
X10267000Y-18077500D02*
X10307000Y-18117500D01*
X10307000Y-18077500D02*
X10267000Y-18117500D01*
X10394000Y-16553500D02*
X10434000Y-16593500D01*
X10434000Y-16553500D02*
X10394000Y-16593500D01*
X10437985Y-14287015D02*
X10477985Y-14327015D01*
X10477985Y-14287015D02*
X10437985Y-14327015D01*
X10457500Y-11473500D02*
X10497500Y-11513500D01*
X10497500Y-11473500D02*
X10457500Y-11513500D01*
X10457500Y-12680000D02*
X10497500Y-12720000D01*
X10497500Y-12680000D02*
X10457500Y-12720000D01*
X10457500Y-15283500D02*
X10497500Y-15323500D01*
X10497500Y-15283500D02*
X10457500Y-15323500D01*
X10711500Y-18077500D02*
X10751500Y-18117500D01*
X10751500Y-18077500D02*
X10711500Y-18117500D01*
X10838500Y-11346500D02*
X10878500Y-11386500D01*
X10878500Y-11346500D02*
X10838500Y-11386500D01*
X10838500Y-11600500D02*
X10878500Y-11640500D01*
X10878500Y-11600500D02*
X10838500Y-11640500D01*
X10838500Y-12807000D02*
X10878500Y-12847000D01*
X10878500Y-12807000D02*
X10838500Y-12847000D01*
X10838500Y-13188000D02*
X10878500Y-13228000D01*
X10878500Y-13188000D02*
X10838500Y-13228000D01*
X10838500Y-13632500D02*
X10878500Y-13672500D01*
X10878500Y-13632500D02*
X10838500Y-13672500D01*
X10838500Y-14077000D02*
X10878500Y-14117000D01*
X10878500Y-14077000D02*
X10838500Y-14117000D01*
X11219500Y-18077500D02*
X11259500Y-18117500D01*
X11259500Y-18077500D02*
X11219500Y-18117500D01*
X11283000Y-11346500D02*
X11323000Y-11386500D01*
X11323000Y-11346500D02*
X11283000Y-11386500D01*
X11283000Y-11854500D02*
X11323000Y-11894500D01*
X11323000Y-11854500D02*
X11283000Y-11894500D01*
X11283000Y-12362500D02*
X11323000Y-12402500D01*
X11323000Y-12362500D02*
X11283000Y-12402500D01*
X11283000Y-12807000D02*
X11323000Y-12847000D01*
X11323000Y-12807000D02*
X11283000Y-12847000D01*
X11283000Y-13188000D02*
X11323000Y-13228000D01*
X11323000Y-13188000D02*
X11283000Y-13228000D01*
X11283000Y-13632500D02*
X11323000Y-13672500D01*
X11323000Y-13632500D02*
X11283000Y-13672500D01*
X11283000Y-14077000D02*
X11323000Y-14117000D01*
X11323000Y-14077000D02*
X11283000Y-14117000D01*
X11283000Y-14585000D02*
X11323000Y-14625000D01*
X11323000Y-14585000D02*
X11283000Y-14625000D01*
X11283000Y-15093000D02*
X11323000Y-15133000D01*
X11323000Y-15093000D02*
X11283000Y-15133000D01*
X11346500Y-15728000D02*
X11386500Y-15768000D01*
X11386500Y-15728000D02*
X11346500Y-15768000D01*
X11346500Y-16109000D02*
X11386500Y-16149000D01*
X11386500Y-16109000D02*
X11346500Y-16149000D01*
X11727500Y-11346500D02*
X11767500Y-11386500D01*
X11767500Y-11346500D02*
X11727500Y-11386500D01*
X11727500Y-11854500D02*
X11767500Y-11894500D01*
X11767500Y-11854500D02*
X11727500Y-11894500D01*
X11727500Y-12362500D02*
X11767500Y-12402500D01*
X11767500Y-12362500D02*
X11727500Y-12402500D01*
X11727500Y-12807000D02*
X11767500Y-12847000D01*
X11767500Y-12807000D02*
X11727500Y-12847000D01*
X11727500Y-13188000D02*
X11767500Y-13228000D01*
X11767500Y-13188000D02*
X11727500Y-13228000D01*
X11727500Y-13632500D02*
X11767500Y-13672500D01*
X11767500Y-13632500D02*
X11727500Y-13672500D01*
X11727500Y-14077000D02*
X11767500Y-14117000D01*
X11767500Y-14077000D02*
X11727500Y-14117000D01*
X11727500Y-14585000D02*
X11767500Y-14625000D01*
X11767500Y-14585000D02*
X11727500Y-14625000D01*
X11727500Y-15093000D02*
X11767500Y-15133000D01*
X11767500Y-15093000D02*
X11727500Y-15133000D01*
X11727500Y-17569500D02*
X11767500Y-17609500D01*
X11767500Y-17569500D02*
X11727500Y-17609500D01*
X11854500Y-16807500D02*
X11894500Y-16847500D01*
X11894500Y-16807500D02*
X11854500Y-16847500D01*
X9892500Y-17589500D02*
G75*
G03*
X9892500Y-17589500I-50000J0D01*
G01*
X9892500Y-17843500D02*
G75*
G03*
X9892500Y-17843500I-50000J0D01*
G01*
X10146500Y-17589500D02*
G75*
G03*
X10146500Y-17589500I-50000J0D01*
G01*
X10146500Y-17843500D02*
G75*
G03*
X10146500Y-17843500I-50000J0D01*
G01*
X10400500Y-17589500D02*
G75*
G03*
X10400500Y-17589500I-50000J0D01*
G01*
X10400500Y-17843500D02*
G75*
G03*
X10400500Y-17843500I-50000J0D01*
G01*
X10654500Y-17589500D02*
G75*
G03*
X10654500Y-17589500I-50000J0D01*
G01*
X10654500Y-17843500D02*
G75*
G03*
X10654500Y-17843500I-50000J0D01*
G01*
X10908500Y-17589500D02*
G75*
G03*
X10908500Y-17589500I-50000J0D01*
G01*
X10908500Y-17843500D02*
G75*
G03*
X10908500Y-17843500I-50000J0D01*
G01*
X11162500Y-17589500D02*
G75*
G03*
X11162500Y-17589500I-50000J0D01*
G01*
X11162500Y-17843500D02*
G75*
G03*
X11162500Y-17843500I-50000J0D01*
G01*
X11416500Y-17589500D02*
G75*
G03*
X11416500Y-17589500I-50000J0D01*
G01*
X11416500Y-17843500D02*
G75*
G03*
X11416500Y-17843500I-50000J0D01*
G01*
X9257500Y-16129000D02*
G75*
G03*
X9257500Y-16129000I-50000J0D01*
G01*
X9257500Y-16383000D02*
G75*
G03*
X9257500Y-16383000I-50000J0D01*
G01*
X9257500Y-16637000D02*
G75*
G03*
X9257500Y-16637000I-50000J0D01*
G01*
X9829000Y-14033500D02*
G75*
G03*
X9829000Y-14033500I-50000J0D01*
G01*
X10083000Y-14033500D02*
G75*
G03*
X10083000Y-14033500I-50000J0D01*
G01*
X10337000Y-14033500D02*
G75*
G03*
X10337000Y-14033500I-50000J0D01*
G01*
X9257500Y-17335500D02*
G75*
G03*
X9257500Y-17335500I-50000J0D01*
G01*
X9257500Y-17589500D02*
G75*
G03*
X9257500Y-17589500I-50000J0D01*
G01*
X9257500Y-17843500D02*
G75*
G03*
X9257500Y-17843500I-50000J0D01*
G01*
X9765500Y-15494000D02*
G75*
G03*
X9765500Y-15494000I-50000J0D01*
G01*
X10019500Y-15494000D02*
G75*
G03*
X10019500Y-15494000I-50000J0D01*
G01*
X10273500Y-15494000D02*
G75*
G03*
X10273500Y-15494000I-50000J0D01*
G01*
X7950200Y-14575400D02*
X7950200Y-14685400D01*
X7895200Y-14630400D02*
X8005200Y-14630400D01*
X7950200Y-14829400D02*
X7950200Y-14939400D01*
X7895200Y-14884400D02*
X8005200Y-14884400D01*
X7950200Y-15083400D02*
X7950200Y-15193400D01*
X7895200Y-15138400D02*
X8005200Y-15138400D01*
X7950200Y-15337400D02*
X7950200Y-15447400D01*
X7895200Y-15392400D02*
X8005200Y-15392400D01*
X7937500Y-11946500D02*
X7937500Y-12056500D01*
X7882500Y-12001500D02*
X7992500Y-12001500D01*
X7937500Y-12200500D02*
X7937500Y-12310500D01*
X7882500Y-12255500D02*
X7992500Y-12255500D01*
X7937500Y-12454500D02*
X7937500Y-12564500D01*
X7882500Y-12509500D02*
X7992500Y-12509500D01*
X7937500Y-12708500D02*
X7937500Y-12818500D01*
X7882500Y-12763500D02*
X7992500Y-12763500D01*
X7950200Y-16861400D02*
X7950200Y-16971400D01*
X7895200Y-16916400D02*
X8005200Y-16916400D01*
X7950200Y-17115400D02*
X7950200Y-17225400D01*
X7895200Y-17170400D02*
X8005200Y-17170400D01*
X7950200Y-17369400D02*
X7950200Y-17479400D01*
X7895200Y-17424400D02*
X8005200Y-17424400D01*
X7950200Y-17623400D02*
X7950200Y-17733400D01*
X7895200Y-17678400D02*
X8005200Y-17678400D01*
X7116267Y-14418967D02*
X7116267Y-14206833D01*
X6904133Y-14206833D01*
X6904133Y-14418967D01*
X7116267Y-14418967D01*
X7116267Y-15815967D02*
X7116267Y-15603833D01*
X6904133Y-15603833D01*
X6904133Y-15815967D01*
X7116267Y-15815967D01*
X7103567Y-11790067D02*
X7103567Y-11577933D01*
X6891433Y-11577933D01*
X6891433Y-11790067D01*
X7103567Y-11790067D01*
X7103567Y-13187067D02*
X7103567Y-12974933D01*
X6891433Y-12974933D01*
X6891433Y-13187067D01*
X7103567Y-13187067D01*
X7116267Y-16704967D02*
X7116267Y-16492833D01*
X6904133Y-16492833D01*
X6904133Y-16704967D01*
X7116267Y-16704967D01*
X7116267Y-18101967D02*
X7116267Y-17889833D01*
X6904133Y-17889833D01*
X6904133Y-18101967D01*
X7116267Y-18101967D01*
D12*
X6506928Y-18883214D02*
X6506928Y-18583214D01*
X6578357Y-18583214D01*
X6621214Y-18597500D01*
X6649786Y-18626072D01*
X6664071Y-18654643D01*
X6678357Y-18711786D01*
X6678357Y-18754643D01*
X6664071Y-18811786D01*
X6649786Y-18840357D01*
X6621214Y-18868929D01*
X6578357Y-18883214D01*
X6506928Y-18883214D01*
X6806928Y-18883214D02*
X6806928Y-18683214D01*
X6806928Y-18740357D02*
X6821214Y-18711786D01*
X6835500Y-18697500D01*
X6864071Y-18683214D01*
X6892643Y-18683214D01*
X6992643Y-18883214D02*
X6992643Y-18683214D01*
X6992643Y-18583214D02*
X6978357Y-18597500D01*
X6992643Y-18611786D01*
X7006928Y-18597500D01*
X6992643Y-18583214D01*
X6992643Y-18611786D01*
X7178357Y-18883214D02*
X7149786Y-18868929D01*
X7135500Y-18840357D01*
X7135500Y-18583214D01*
X7335500Y-18883214D02*
X7306928Y-18868929D01*
X7292643Y-18840357D01*
X7292643Y-18583214D01*
X7678357Y-18883214D02*
X7678357Y-18583214D01*
X7778357Y-18797500D01*
X7878357Y-18583214D01*
X7878357Y-18883214D01*
X8149786Y-18883214D02*
X8149786Y-18726072D01*
X8135500Y-18697500D01*
X8106928Y-18683214D01*
X8049786Y-18683214D01*
X8021214Y-18697500D01*
X8149786Y-18868929D02*
X8121214Y-18883214D01*
X8049786Y-18883214D01*
X8021214Y-18868929D01*
X8006928Y-18840357D01*
X8006928Y-18811786D01*
X8021214Y-18783214D01*
X8049786Y-18768929D01*
X8121214Y-18768929D01*
X8149786Y-18754643D01*
X8292643Y-18683214D02*
X8292643Y-18983214D01*
X8292643Y-18697500D02*
X8321214Y-18683214D01*
X8378357Y-18683214D01*
X8406928Y-18697500D01*
X8421214Y-18711786D01*
X8435500Y-18740357D01*
X8435500Y-18826072D01*
X8421214Y-18854643D01*
X8406928Y-18868929D01*
X8378357Y-18883214D01*
X8321214Y-18883214D01*
X8292643Y-18868929D01*
X8564071Y-18854643D02*
X8578357Y-18868929D01*
X8564071Y-18883214D01*
X8549786Y-18868929D01*
X8564071Y-18854643D01*
X8564071Y-18883214D01*
X8564071Y-18697500D02*
X8578357Y-18711786D01*
X8564071Y-18726072D01*
X8549786Y-18711786D01*
X8564071Y-18697500D01*
X8564071Y-18726072D01*
X6180500Y-19357500D02*
X6220500Y-19397500D01*
X6220500Y-19357500D02*
X6180500Y-19397500D01*
X6564071Y-19213214D02*
X6592643Y-19213214D01*
X6621214Y-19227500D01*
X6635500Y-19241786D01*
X6649786Y-19270357D01*
X6664071Y-19327500D01*
X6664071Y-19398929D01*
X6649786Y-19456072D01*
X6635500Y-19484643D01*
X6621214Y-19498929D01*
X6592643Y-19513214D01*
X6564071Y-19513214D01*
X6535500Y-19498929D01*
X6521214Y-19484643D01*
X6506928Y-19456072D01*
X6492643Y-19398929D01*
X6492643Y-19327500D01*
X6506928Y-19270357D01*
X6521214Y-19241786D01*
X6535500Y-19227500D01*
X6564071Y-19213214D01*
X6792643Y-19484643D02*
X6806928Y-19498929D01*
X6792643Y-19513214D01*
X6778357Y-19498929D01*
X6792643Y-19484643D01*
X6792643Y-19513214D01*
X7064071Y-19313214D02*
X7064071Y-19513214D01*
X6992643Y-19198929D02*
X6921214Y-19413214D01*
X7106928Y-19413214D01*
X7278357Y-19213214D02*
X7306928Y-19213214D01*
X7335500Y-19227500D01*
X7349786Y-19241786D01*
X7364071Y-19270357D01*
X7378357Y-19327500D01*
X7378357Y-19398929D01*
X7364071Y-19456072D01*
X7349786Y-19484643D01*
X7335500Y-19498929D01*
X7306928Y-19513214D01*
X7278357Y-19513214D01*
X7249786Y-19498929D01*
X7235500Y-19484643D01*
X7221214Y-19456072D01*
X7206928Y-19398929D01*
X7206928Y-19327500D01*
X7221214Y-19270357D01*
X7235500Y-19241786D01*
X7249786Y-19227500D01*
X7278357Y-19213214D01*
X7506928Y-19513214D02*
X7506928Y-19313214D01*
X7506928Y-19341786D02*
X7521214Y-19327500D01*
X7549786Y-19313214D01*
X7592643Y-19313214D01*
X7621214Y-19327500D01*
X7635500Y-19356072D01*
X7635500Y-19513214D01*
X7635500Y-19356072D02*
X7649786Y-19327500D01*
X7678357Y-19313214D01*
X7721214Y-19313214D01*
X7749786Y-19327500D01*
X7764071Y-19356072D01*
X7764071Y-19513214D01*
X7906928Y-19513214D02*
X7906928Y-19313214D01*
X7906928Y-19341786D02*
X7921214Y-19327500D01*
X7949786Y-19313214D01*
X7992643Y-19313214D01*
X8021214Y-19327500D01*
X8035500Y-19356072D01*
X8035500Y-19513214D01*
X8035500Y-19356072D02*
X8049786Y-19327500D01*
X8078357Y-19313214D01*
X8121214Y-19313214D01*
X8149786Y-19327500D01*
X8164071Y-19356072D01*
X8164071Y-19513214D01*
X8749786Y-19198929D02*
X8492643Y-19584643D01*
X9135500Y-19213214D02*
X9164071Y-19213214D01*
X9192643Y-19227500D01*
X9206928Y-19241786D01*
X9221214Y-19270357D01*
X9235500Y-19327500D01*
X9235500Y-19398929D01*
X9221214Y-19456072D01*
X9206928Y-19484643D01*
X9192643Y-19498929D01*
X9164071Y-19513214D01*
X9135500Y-19513214D01*
X9106928Y-19498929D01*
X9092643Y-19484643D01*
X9078357Y-19456072D01*
X9064071Y-19398929D01*
X9064071Y-19327500D01*
X9078357Y-19270357D01*
X9092643Y-19241786D01*
X9106928Y-19227500D01*
X9135500Y-19213214D01*
X9364071Y-19484643D02*
X9378357Y-19498929D01*
X9364071Y-19513214D01*
X9349786Y-19498929D01*
X9364071Y-19484643D01*
X9364071Y-19513214D01*
X9564071Y-19213214D02*
X9592643Y-19213214D01*
X9621214Y-19227500D01*
X9635500Y-19241786D01*
X9649786Y-19270357D01*
X9664071Y-19327500D01*
X9664071Y-19398929D01*
X9649786Y-19456072D01*
X9635500Y-19484643D01*
X9621214Y-19498929D01*
X9592643Y-19513214D01*
X9564071Y-19513214D01*
X9535500Y-19498929D01*
X9521214Y-19484643D01*
X9506928Y-19456072D01*
X9492643Y-19398929D01*
X9492643Y-19327500D01*
X9506928Y-19270357D01*
X9521214Y-19241786D01*
X9535500Y-19227500D01*
X9564071Y-19213214D01*
X9949786Y-19513214D02*
X9778357Y-19513214D01*
X9864071Y-19513214D02*
X9864071Y-19213214D01*
X9835500Y-19256072D01*
X9806928Y-19284643D01*
X9778357Y-19298929D01*
X10206928Y-19213214D02*
X10149786Y-19213214D01*
X10121214Y-19227500D01*
X10106928Y-19241786D01*
X10078357Y-19284643D01*
X10064071Y-19341786D01*
X10064071Y-19456072D01*
X10078357Y-19484643D01*
X10092643Y-19498929D01*
X10121214Y-19513214D01*
X10178357Y-19513214D01*
X10206928Y-19498929D01*
X10221214Y-19484643D01*
X10235500Y-19456072D01*
X10235500Y-19384643D01*
X10221214Y-19356072D01*
X10206928Y-19341786D01*
X10178357Y-19327500D01*
X10121214Y-19327500D01*
X10092643Y-19341786D01*
X10078357Y-19356072D01*
X10064071Y-19384643D01*
X10349786Y-19213214D02*
X10349786Y-19270357D01*
X10464071Y-19213214D02*
X10464071Y-19270357D01*
X10906928Y-19627500D02*
X10892643Y-19613214D01*
X10864071Y-19570357D01*
X10849786Y-19541786D01*
X10835500Y-19498929D01*
X10821214Y-19427500D01*
X10821214Y-19370357D01*
X10835500Y-19298929D01*
X10849786Y-19256072D01*
X10864071Y-19227500D01*
X10892643Y-19184643D01*
X10906928Y-19170357D01*
X11035500Y-19513214D02*
X11092643Y-19513214D01*
X11121214Y-19498929D01*
X11135500Y-19484643D01*
X11164071Y-19441786D01*
X11178357Y-19384643D01*
X11178357Y-19270357D01*
X11164071Y-19241786D01*
X11149786Y-19227500D01*
X11121214Y-19213214D01*
X11064071Y-19213214D01*
X11035500Y-19227500D01*
X11021214Y-19241786D01*
X11006928Y-19270357D01*
X11006928Y-19341786D01*
X11021214Y-19370357D01*
X11035500Y-19384643D01*
X11064071Y-19398929D01*
X11121214Y-19398929D01*
X11149786Y-19384643D01*
X11164071Y-19370357D01*
X11178357Y-19341786D01*
X11278357Y-19213214D02*
X11478357Y-19213214D01*
X11349786Y-19513214D01*
X11821214Y-19513214D02*
X11821214Y-19213214D01*
X11949786Y-19513214D02*
X11949786Y-19356072D01*
X11935500Y-19327500D01*
X11906928Y-19313214D01*
X11864071Y-19313214D01*
X11835500Y-19327500D01*
X11821214Y-19341786D01*
X12135500Y-19513214D02*
X12106928Y-19498929D01*
X12092643Y-19484643D01*
X12078357Y-19456072D01*
X12078357Y-19370357D01*
X12092643Y-19341786D01*
X12106928Y-19327500D01*
X12135500Y-19313214D01*
X12178357Y-19313214D01*
X12206928Y-19327500D01*
X12221214Y-19341786D01*
X12235500Y-19370357D01*
X12235500Y-19456072D01*
X12221214Y-19484643D01*
X12206928Y-19498929D01*
X12178357Y-19513214D01*
X12135500Y-19513214D01*
X12406928Y-19513214D02*
X12378357Y-19498929D01*
X12364071Y-19470357D01*
X12364071Y-19213214D01*
X12635500Y-19498929D02*
X12606928Y-19513214D01*
X12549786Y-19513214D01*
X12521214Y-19498929D01*
X12506928Y-19470357D01*
X12506928Y-19356072D01*
X12521214Y-19327500D01*
X12549786Y-19313214D01*
X12606928Y-19313214D01*
X12635500Y-19327500D01*
X12649786Y-19356072D01*
X12649786Y-19384643D01*
X12506928Y-19413214D01*
X12764071Y-19498929D02*
X12792643Y-19513214D01*
X12849786Y-19513214D01*
X12878357Y-19498929D01*
X12892643Y-19470357D01*
X12892643Y-19456072D01*
X12878357Y-19427500D01*
X12849786Y-19413214D01*
X12806928Y-19413214D01*
X12778357Y-19398929D01*
X12764071Y-19370357D01*
X12764071Y-19356072D01*
X12778357Y-19327500D01*
X12806928Y-19313214D01*
X12849786Y-19313214D01*
X12878357Y-19327500D01*
X12992643Y-19627500D02*
X13006928Y-19613214D01*
X13035500Y-19570357D01*
X13049786Y-19541786D01*
X13064071Y-19498929D01*
X13078357Y-19427500D01*
X13078357Y-19370357D01*
X13064071Y-19298929D01*
X13049786Y-19256072D01*
X13035500Y-19227500D01*
X13006928Y-19184643D01*
X12992643Y-19170357D01*
X6220500Y-19773500D02*
G75*
G03*
X6220500Y-19773500I-50000J0D01*
G01*
X6664071Y-19909214D02*
X6492643Y-19909214D01*
X6578357Y-19909214D02*
X6578357Y-19609214D01*
X6549786Y-19652072D01*
X6521214Y-19680643D01*
X6492643Y-19694929D01*
X6792643Y-19880643D02*
X6806928Y-19894929D01*
X6792643Y-19909214D01*
X6778357Y-19894929D01*
X6792643Y-19880643D01*
X6792643Y-19909214D01*
X6992643Y-19609214D02*
X7021214Y-19609214D01*
X7049786Y-19623500D01*
X7064071Y-19637786D01*
X7078357Y-19666357D01*
X7092643Y-19723500D01*
X7092643Y-19794929D01*
X7078357Y-19852072D01*
X7064071Y-19880643D01*
X7049786Y-19894929D01*
X7021214Y-19909214D01*
X6992643Y-19909214D01*
X6964071Y-19894929D01*
X6949786Y-19880643D01*
X6935500Y-19852072D01*
X6921214Y-19794929D01*
X6921214Y-19723500D01*
X6935500Y-19666357D01*
X6949786Y-19637786D01*
X6964071Y-19623500D01*
X6992643Y-19609214D01*
X7278357Y-19609214D02*
X7306928Y-19609214D01*
X7335500Y-19623500D01*
X7349786Y-19637786D01*
X7364071Y-19666357D01*
X7378357Y-19723500D01*
X7378357Y-19794929D01*
X7364071Y-19852072D01*
X7349786Y-19880643D01*
X7335500Y-19894929D01*
X7306928Y-19909214D01*
X7278357Y-19909214D01*
X7249786Y-19894929D01*
X7235500Y-19880643D01*
X7221214Y-19852072D01*
X7206928Y-19794929D01*
X7206928Y-19723500D01*
X7221214Y-19666357D01*
X7235500Y-19637786D01*
X7249786Y-19623500D01*
X7278357Y-19609214D01*
X7506928Y-19909214D02*
X7506928Y-19709214D01*
X7506928Y-19737786D02*
X7521214Y-19723500D01*
X7549786Y-19709214D01*
X7592643Y-19709214D01*
X7621214Y-19723500D01*
X7635500Y-19752072D01*
X7635500Y-19909214D01*
X7635500Y-19752072D02*
X7649786Y-19723500D01*
X7678357Y-19709214D01*
X7721214Y-19709214D01*
X7749786Y-19723500D01*
X7764071Y-19752072D01*
X7764071Y-19909214D01*
X7906928Y-19909214D02*
X7906928Y-19709214D01*
X7906928Y-19737786D02*
X7921214Y-19723500D01*
X7949786Y-19709214D01*
X7992643Y-19709214D01*
X8021214Y-19723500D01*
X8035500Y-19752072D01*
X8035500Y-19909214D01*
X8035500Y-19752072D02*
X8049786Y-19723500D01*
X8078357Y-19709214D01*
X8121214Y-19709214D01*
X8149786Y-19723500D01*
X8164071Y-19752072D01*
X8164071Y-19909214D01*
X8749786Y-19594929D02*
X8492643Y-19980643D01*
X9135500Y-19609214D02*
X9164071Y-19609214D01*
X9192643Y-19623500D01*
X9206928Y-19637786D01*
X9221214Y-19666357D01*
X9235500Y-19723500D01*
X9235500Y-19794929D01*
X9221214Y-19852072D01*
X9206928Y-19880643D01*
X9192643Y-19894929D01*
X9164071Y-19909214D01*
X9135500Y-19909214D01*
X9106928Y-19894929D01*
X9092643Y-19880643D01*
X9078357Y-19852072D01*
X9064071Y-19794929D01*
X9064071Y-19723500D01*
X9078357Y-19666357D01*
X9092643Y-19637786D01*
X9106928Y-19623500D01*
X9135500Y-19609214D01*
X9364071Y-19880643D02*
X9378357Y-19894929D01*
X9364071Y-19909214D01*
X9349786Y-19894929D01*
X9364071Y-19880643D01*
X9364071Y-19909214D01*
X9564071Y-19609214D02*
X9592643Y-19609214D01*
X9621214Y-19623500D01*
X9635500Y-19637786D01*
X9649786Y-19666357D01*
X9664071Y-19723500D01*
X9664071Y-19794929D01*
X9649786Y-19852072D01*
X9635500Y-19880643D01*
X9621214Y-19894929D01*
X9592643Y-19909214D01*
X9564071Y-19909214D01*
X9535500Y-19894929D01*
X9521214Y-19880643D01*
X9506928Y-19852072D01*
X9492643Y-19794929D01*
X9492643Y-19723500D01*
X9506928Y-19666357D01*
X9521214Y-19637786D01*
X9535500Y-19623500D01*
X9564071Y-19609214D01*
X9764071Y-19609214D02*
X9949786Y-19609214D01*
X9849786Y-19723500D01*
X9892643Y-19723500D01*
X9921214Y-19737786D01*
X9935500Y-19752072D01*
X9949786Y-19780643D01*
X9949786Y-19852072D01*
X9935500Y-19880643D01*
X9921214Y-19894929D01*
X9892643Y-19909214D01*
X9806928Y-19909214D01*
X9778357Y-19894929D01*
X9764071Y-19880643D01*
X10092643Y-19909214D02*
X10149786Y-19909214D01*
X10178357Y-19894929D01*
X10192643Y-19880643D01*
X10221214Y-19837786D01*
X10235500Y-19780643D01*
X10235500Y-19666357D01*
X10221214Y-19637786D01*
X10206928Y-19623500D01*
X10178357Y-19609214D01*
X10121214Y-19609214D01*
X10092643Y-19623500D01*
X10078357Y-19637786D01*
X10064071Y-19666357D01*
X10064071Y-19737786D01*
X10078357Y-19766357D01*
X10092643Y-19780643D01*
X10121214Y-19794929D01*
X10178357Y-19794929D01*
X10206928Y-19780643D01*
X10221214Y-19766357D01*
X10235500Y-19737786D01*
X10349786Y-19609214D02*
X10349786Y-19666357D01*
X10464071Y-19609214D02*
X10464071Y-19666357D01*
X10906928Y-20023500D02*
X10892643Y-20009214D01*
X10864071Y-19966357D01*
X10849786Y-19937786D01*
X10835500Y-19894929D01*
X10821214Y-19823500D01*
X10821214Y-19766357D01*
X10835500Y-19694929D01*
X10849786Y-19652072D01*
X10864071Y-19623500D01*
X10892643Y-19580643D01*
X10906928Y-19566357D01*
X11006928Y-19637786D02*
X11021214Y-19623500D01*
X11049786Y-19609214D01*
X11121214Y-19609214D01*
X11149786Y-19623500D01*
X11164071Y-19637786D01*
X11178357Y-19666357D01*
X11178357Y-19694929D01*
X11164071Y-19737786D01*
X10992643Y-19909214D01*
X11178357Y-19909214D01*
X11435500Y-19609214D02*
X11378357Y-19609214D01*
X11349786Y-19623500D01*
X11335500Y-19637786D01*
X11306928Y-19680643D01*
X11292643Y-19737786D01*
X11292643Y-19852072D01*
X11306928Y-19880643D01*
X11321214Y-19894929D01*
X11349786Y-19909214D01*
X11406928Y-19909214D01*
X11435500Y-19894929D01*
X11449786Y-19880643D01*
X11464071Y-19852072D01*
X11464071Y-19780643D01*
X11449786Y-19752072D01*
X11435500Y-19737786D01*
X11406928Y-19723500D01*
X11349786Y-19723500D01*
X11321214Y-19737786D01*
X11306928Y-19752072D01*
X11292643Y-19780643D01*
X11821214Y-19909214D02*
X11821214Y-19609214D01*
X11949786Y-19909214D02*
X11949786Y-19752072D01*
X11935500Y-19723500D01*
X11906928Y-19709214D01*
X11864071Y-19709214D01*
X11835500Y-19723500D01*
X11821214Y-19737786D01*
X12135500Y-19909214D02*
X12106928Y-19894929D01*
X12092643Y-19880643D01*
X12078357Y-19852072D01*
X12078357Y-19766357D01*
X12092643Y-19737786D01*
X12106928Y-19723500D01*
X12135500Y-19709214D01*
X12178357Y-19709214D01*
X12206928Y-19723500D01*
X12221214Y-19737786D01*
X12235500Y-19766357D01*
X12235500Y-19852072D01*
X12221214Y-19880643D01*
X12206928Y-19894929D01*
X12178357Y-19909214D01*
X12135500Y-19909214D01*
X12406928Y-19909214D02*
X12378357Y-19894929D01*
X12364071Y-19866357D01*
X12364071Y-19609214D01*
X12635500Y-19894929D02*
X12606928Y-19909214D01*
X12549786Y-19909214D01*
X12521214Y-19894929D01*
X12506928Y-19866357D01*
X12506928Y-19752072D01*
X12521214Y-19723500D01*
X12549786Y-19709214D01*
X12606928Y-19709214D01*
X12635500Y-19723500D01*
X12649786Y-19752072D01*
X12649786Y-19780643D01*
X12506928Y-19809214D01*
X12764071Y-19894929D02*
X12792643Y-19909214D01*
X12849786Y-19909214D01*
X12878357Y-19894929D01*
X12892643Y-19866357D01*
X12892643Y-19852072D01*
X12878357Y-19823500D01*
X12849786Y-19809214D01*
X12806928Y-19809214D01*
X12778357Y-19794929D01*
X12764071Y-19766357D01*
X12764071Y-19752072D01*
X12778357Y-19723500D01*
X12806928Y-19709214D01*
X12849786Y-19709214D01*
X12878357Y-19723500D01*
X12992643Y-20023500D02*
X13006928Y-20009214D01*
X13035500Y-19966357D01*
X13049786Y-19937786D01*
X13064071Y-19894929D01*
X13078357Y-19823500D01*
X13078357Y-19766357D01*
X13064071Y-19694929D01*
X13049786Y-19652072D01*
X13035500Y-19623500D01*
X13006928Y-19580643D01*
X12992643Y-19566357D01*
X6165500Y-20114500D02*
X6165500Y-20224500D01*
X6110500Y-20169500D02*
X6220500Y-20169500D01*
X6664071Y-20305214D02*
X6492643Y-20305214D01*
X6578357Y-20305214D02*
X6578357Y-20005214D01*
X6549786Y-20048072D01*
X6521214Y-20076643D01*
X6492643Y-20090929D01*
X6792643Y-20276643D02*
X6806928Y-20290929D01*
X6792643Y-20305214D01*
X6778357Y-20290929D01*
X6792643Y-20276643D01*
X6792643Y-20305214D01*
X7092643Y-20305214D02*
X6921214Y-20305214D01*
X7006928Y-20305214D02*
X7006928Y-20005214D01*
X6978357Y-20048072D01*
X6949786Y-20076643D01*
X6921214Y-20090929D01*
X7278357Y-20005214D02*
X7306928Y-20005214D01*
X7335500Y-20019500D01*
X7349786Y-20033786D01*
X7364071Y-20062357D01*
X7378357Y-20119500D01*
X7378357Y-20190929D01*
X7364071Y-20248072D01*
X7349786Y-20276643D01*
X7335500Y-20290929D01*
X7306928Y-20305214D01*
X7278357Y-20305214D01*
X7249786Y-20290929D01*
X7235500Y-20276643D01*
X7221214Y-20248072D01*
X7206928Y-20190929D01*
X7206928Y-20119500D01*
X7221214Y-20062357D01*
X7235500Y-20033786D01*
X7249786Y-20019500D01*
X7278357Y-20005214D01*
X7506928Y-20305214D02*
X7506928Y-20105214D01*
X7506928Y-20133786D02*
X7521214Y-20119500D01*
X7549786Y-20105214D01*
X7592643Y-20105214D01*
X7621214Y-20119500D01*
X7635500Y-20148072D01*
X7635500Y-20305214D01*
X7635500Y-20148072D02*
X7649786Y-20119500D01*
X7678357Y-20105214D01*
X7721214Y-20105214D01*
X7749786Y-20119500D01*
X7764071Y-20148072D01*
X7764071Y-20305214D01*
X7906928Y-20305214D02*
X7906928Y-20105214D01*
X7906928Y-20133786D02*
X7921214Y-20119500D01*
X7949786Y-20105214D01*
X7992643Y-20105214D01*
X8021214Y-20119500D01*
X8035500Y-20148072D01*
X8035500Y-20305214D01*
X8035500Y-20148072D02*
X8049786Y-20119500D01*
X8078357Y-20105214D01*
X8121214Y-20105214D01*
X8149786Y-20119500D01*
X8164071Y-20148072D01*
X8164071Y-20305214D01*
X8749786Y-19990929D02*
X8492643Y-20376643D01*
X9135500Y-20005214D02*
X9164071Y-20005214D01*
X9192643Y-20019500D01*
X9206928Y-20033786D01*
X9221214Y-20062357D01*
X9235500Y-20119500D01*
X9235500Y-20190929D01*
X9221214Y-20248072D01*
X9206928Y-20276643D01*
X9192643Y-20290929D01*
X9164071Y-20305214D01*
X9135500Y-20305214D01*
X9106928Y-20290929D01*
X9092643Y-20276643D01*
X9078357Y-20248072D01*
X9064071Y-20190929D01*
X9064071Y-20119500D01*
X9078357Y-20062357D01*
X9092643Y-20033786D01*
X9106928Y-20019500D01*
X9135500Y-20005214D01*
X9364071Y-20276643D02*
X9378357Y-20290929D01*
X9364071Y-20305214D01*
X9349786Y-20290929D01*
X9364071Y-20276643D01*
X9364071Y-20305214D01*
X9564071Y-20005214D02*
X9592643Y-20005214D01*
X9621214Y-20019500D01*
X9635500Y-20033786D01*
X9649786Y-20062357D01*
X9664071Y-20119500D01*
X9664071Y-20190929D01*
X9649786Y-20248072D01*
X9635500Y-20276643D01*
X9621214Y-20290929D01*
X9592643Y-20305214D01*
X9564071Y-20305214D01*
X9535500Y-20290929D01*
X9521214Y-20276643D01*
X9506928Y-20248072D01*
X9492643Y-20190929D01*
X9492643Y-20119500D01*
X9506928Y-20062357D01*
X9521214Y-20033786D01*
X9535500Y-20019500D01*
X9564071Y-20005214D01*
X9921214Y-20105214D02*
X9921214Y-20305214D01*
X9849786Y-19990929D02*
X9778357Y-20205214D01*
X9964071Y-20205214D01*
X10049786Y-20005214D02*
X10235500Y-20005214D01*
X10135500Y-20119500D01*
X10178357Y-20119500D01*
X10206928Y-20133786D01*
X10221214Y-20148072D01*
X10235500Y-20176643D01*
X10235500Y-20248072D01*
X10221214Y-20276643D01*
X10206928Y-20290929D01*
X10178357Y-20305214D01*
X10092643Y-20305214D01*
X10064071Y-20290929D01*
X10049786Y-20276643D01*
X10349786Y-20005214D02*
X10349786Y-20062357D01*
X10464071Y-20005214D02*
X10464071Y-20062357D01*
X10906928Y-20419500D02*
X10892643Y-20405214D01*
X10864071Y-20362357D01*
X10849786Y-20333786D01*
X10835500Y-20290929D01*
X10821214Y-20219500D01*
X10821214Y-20162357D01*
X10835500Y-20090929D01*
X10849786Y-20048072D01*
X10864071Y-20019500D01*
X10892643Y-19976643D01*
X10906928Y-19962357D01*
X11178357Y-20305214D02*
X11006928Y-20305214D01*
X11092643Y-20305214D02*
X11092643Y-20005214D01*
X11064071Y-20048072D01*
X11035500Y-20076643D01*
X11006928Y-20090929D01*
X11292643Y-20033786D02*
X11306928Y-20019500D01*
X11335500Y-20005214D01*
X11406928Y-20005214D01*
X11435500Y-20019500D01*
X11449786Y-20033786D01*
X11464071Y-20062357D01*
X11464071Y-20090929D01*
X11449786Y-20133786D01*
X11278357Y-20305214D01*
X11464071Y-20305214D01*
X11821214Y-20305214D02*
X11821214Y-20005214D01*
X11949786Y-20305214D02*
X11949786Y-20148072D01*
X11935500Y-20119500D01*
X11906928Y-20105214D01*
X11864071Y-20105214D01*
X11835500Y-20119500D01*
X11821214Y-20133786D01*
X12135500Y-20305214D02*
X12106928Y-20290929D01*
X12092643Y-20276643D01*
X12078357Y-20248072D01*
X12078357Y-20162357D01*
X12092643Y-20133786D01*
X12106928Y-20119500D01*
X12135500Y-20105214D01*
X12178357Y-20105214D01*
X12206928Y-20119500D01*
X12221214Y-20133786D01*
X12235500Y-20162357D01*
X12235500Y-20248072D01*
X12221214Y-20276643D01*
X12206928Y-20290929D01*
X12178357Y-20305214D01*
X12135500Y-20305214D01*
X12406928Y-20305214D02*
X12378357Y-20290929D01*
X12364071Y-20262357D01*
X12364071Y-20005214D01*
X12635500Y-20290929D02*
X12606928Y-20305214D01*
X12549786Y-20305214D01*
X12521214Y-20290929D01*
X12506928Y-20262357D01*
X12506928Y-20148072D01*
X12521214Y-20119500D01*
X12549786Y-20105214D01*
X12606928Y-20105214D01*
X12635500Y-20119500D01*
X12649786Y-20148072D01*
X12649786Y-20176643D01*
X12506928Y-20205214D01*
X12764071Y-20290929D02*
X12792643Y-20305214D01*
X12849786Y-20305214D01*
X12878357Y-20290929D01*
X12892643Y-20262357D01*
X12892643Y-20248072D01*
X12878357Y-20219500D01*
X12849786Y-20205214D01*
X12806928Y-20205214D01*
X12778357Y-20190929D01*
X12764071Y-20162357D01*
X12764071Y-20148072D01*
X12778357Y-20119500D01*
X12806928Y-20105214D01*
X12849786Y-20105214D01*
X12878357Y-20119500D01*
X12992643Y-20419500D02*
X13006928Y-20405214D01*
X13035500Y-20362357D01*
X13049786Y-20333786D01*
X13064071Y-20290929D01*
X13078357Y-20219500D01*
X13078357Y-20162357D01*
X13064071Y-20090929D01*
X13049786Y-20048072D01*
X13035500Y-20019500D01*
X13006928Y-19976643D01*
X12992643Y-19962357D01*
X6176567Y-20671567D02*
X6176567Y-20459433D01*
X5964433Y-20459433D01*
X5964433Y-20671567D01*
X6176567Y-20671567D01*
X6478357Y-20401214D02*
X6664071Y-20401214D01*
X6564071Y-20515500D01*
X6606928Y-20515500D01*
X6635500Y-20529786D01*
X6649786Y-20544072D01*
X6664071Y-20572643D01*
X6664071Y-20644072D01*
X6649786Y-20672643D01*
X6635500Y-20686929D01*
X6606928Y-20701214D01*
X6521214Y-20701214D01*
X6492643Y-20686929D01*
X6478357Y-20672643D01*
X6792643Y-20672643D02*
X6806928Y-20686929D01*
X6792643Y-20701214D01*
X6778357Y-20686929D01*
X6792643Y-20672643D01*
X6792643Y-20701214D01*
X6992643Y-20401214D02*
X7021214Y-20401214D01*
X7049786Y-20415500D01*
X7064071Y-20429786D01*
X7078357Y-20458357D01*
X7092643Y-20515500D01*
X7092643Y-20586929D01*
X7078357Y-20644072D01*
X7064071Y-20672643D01*
X7049786Y-20686929D01*
X7021214Y-20701214D01*
X6992643Y-20701214D01*
X6964071Y-20686929D01*
X6949786Y-20672643D01*
X6935500Y-20644072D01*
X6921214Y-20586929D01*
X6921214Y-20515500D01*
X6935500Y-20458357D01*
X6949786Y-20429786D01*
X6964071Y-20415500D01*
X6992643Y-20401214D01*
X7278357Y-20401214D02*
X7306928Y-20401214D01*
X7335500Y-20415500D01*
X7349786Y-20429786D01*
X7364071Y-20458357D01*
X7378357Y-20515500D01*
X7378357Y-20586929D01*
X7364071Y-20644072D01*
X7349786Y-20672643D01*
X7335500Y-20686929D01*
X7306928Y-20701214D01*
X7278357Y-20701214D01*
X7249786Y-20686929D01*
X7235500Y-20672643D01*
X7221214Y-20644072D01*
X7206928Y-20586929D01*
X7206928Y-20515500D01*
X7221214Y-20458357D01*
X7235500Y-20429786D01*
X7249786Y-20415500D01*
X7278357Y-20401214D01*
X7506928Y-20701214D02*
X7506928Y-20501214D01*
X7506928Y-20529786D02*
X7521214Y-20515500D01*
X7549786Y-20501214D01*
X7592643Y-20501214D01*
X7621214Y-20515500D01*
X7635500Y-20544072D01*
X7635500Y-20701214D01*
X7635500Y-20544072D02*
X7649786Y-20515500D01*
X7678357Y-20501214D01*
X7721214Y-20501214D01*
X7749786Y-20515500D01*
X7764071Y-20544072D01*
X7764071Y-20701214D01*
X7906928Y-20701214D02*
X7906928Y-20501214D01*
X7906928Y-20529786D02*
X7921214Y-20515500D01*
X7949786Y-20501214D01*
X7992643Y-20501214D01*
X8021214Y-20515500D01*
X8035500Y-20544072D01*
X8035500Y-20701214D01*
X8035500Y-20544072D02*
X8049786Y-20515500D01*
X8078357Y-20501214D01*
X8121214Y-20501214D01*
X8149786Y-20515500D01*
X8164071Y-20544072D01*
X8164071Y-20701214D01*
X8749786Y-20386929D02*
X8492643Y-20772643D01*
X9135500Y-20401214D02*
X9164071Y-20401214D01*
X9192643Y-20415500D01*
X9206928Y-20429786D01*
X9221214Y-20458357D01*
X9235500Y-20515500D01*
X9235500Y-20586929D01*
X9221214Y-20644072D01*
X9206928Y-20672643D01*
X9192643Y-20686929D01*
X9164071Y-20701214D01*
X9135500Y-20701214D01*
X9106928Y-20686929D01*
X9092643Y-20672643D01*
X9078357Y-20644072D01*
X9064071Y-20586929D01*
X9064071Y-20515500D01*
X9078357Y-20458357D01*
X9092643Y-20429786D01*
X9106928Y-20415500D01*
X9135500Y-20401214D01*
X9364071Y-20672643D02*
X9378357Y-20686929D01*
X9364071Y-20701214D01*
X9349786Y-20686929D01*
X9364071Y-20672643D01*
X9364071Y-20701214D01*
X9664071Y-20701214D02*
X9492643Y-20701214D01*
X9578357Y-20701214D02*
X9578357Y-20401214D01*
X9549786Y-20444072D01*
X9521214Y-20472643D01*
X9492643Y-20486929D01*
X9949786Y-20701214D02*
X9778357Y-20701214D01*
X9864071Y-20701214D02*
X9864071Y-20401214D01*
X9835500Y-20444072D01*
X9806928Y-20472643D01*
X9778357Y-20486929D01*
X10121214Y-20529786D02*
X10092643Y-20515500D01*
X10078357Y-20501214D01*
X10064071Y-20472643D01*
X10064071Y-20458357D01*
X10078357Y-20429786D01*
X10092643Y-20415500D01*
X10121214Y-20401214D01*
X10178357Y-20401214D01*
X10206928Y-20415500D01*
X10221214Y-20429786D01*
X10235500Y-20458357D01*
X10235500Y-20472643D01*
X10221214Y-20501214D01*
X10206928Y-20515500D01*
X10178357Y-20529786D01*
X10121214Y-20529786D01*
X10092643Y-20544072D01*
X10078357Y-20558357D01*
X10064071Y-20586929D01*
X10064071Y-20644072D01*
X10078357Y-20672643D01*
X10092643Y-20686929D01*
X10121214Y-20701214D01*
X10178357Y-20701214D01*
X10206928Y-20686929D01*
X10221214Y-20672643D01*
X10235500Y-20644072D01*
X10235500Y-20586929D01*
X10221214Y-20558357D01*
X10206928Y-20544072D01*
X10178357Y-20529786D01*
X10349786Y-20401214D02*
X10349786Y-20458357D01*
X10464071Y-20401214D02*
X10464071Y-20458357D01*
X10906928Y-20815500D02*
X10892643Y-20801214D01*
X10864071Y-20758357D01*
X10849786Y-20729786D01*
X10835500Y-20686929D01*
X10821214Y-20615500D01*
X10821214Y-20558357D01*
X10835500Y-20486929D01*
X10849786Y-20444072D01*
X10864071Y-20415500D01*
X10892643Y-20372643D01*
X10906928Y-20358357D01*
X11149786Y-20401214D02*
X11092643Y-20401214D01*
X11064071Y-20415500D01*
X11049786Y-20429786D01*
X11021214Y-20472643D01*
X11006928Y-20529786D01*
X11006928Y-20644072D01*
X11021214Y-20672643D01*
X11035500Y-20686929D01*
X11064071Y-20701214D01*
X11121214Y-20701214D01*
X11149786Y-20686929D01*
X11164071Y-20672643D01*
X11178357Y-20644072D01*
X11178357Y-20572643D01*
X11164071Y-20544072D01*
X11149786Y-20529786D01*
X11121214Y-20515500D01*
X11064071Y-20515500D01*
X11035500Y-20529786D01*
X11021214Y-20544072D01*
X11006928Y-20572643D01*
X11535500Y-20701214D02*
X11535500Y-20401214D01*
X11664071Y-20701214D02*
X11664071Y-20544072D01*
X11649786Y-20515500D01*
X11621214Y-20501214D01*
X11578357Y-20501214D01*
X11549786Y-20515500D01*
X11535500Y-20529786D01*
X11849786Y-20701214D02*
X11821214Y-20686929D01*
X11806928Y-20672643D01*
X11792643Y-20644072D01*
X11792643Y-20558357D01*
X11806928Y-20529786D01*
X11821214Y-20515500D01*
X11849786Y-20501214D01*
X11892643Y-20501214D01*
X11921214Y-20515500D01*
X11935500Y-20529786D01*
X11949786Y-20558357D01*
X11949786Y-20644072D01*
X11935500Y-20672643D01*
X11921214Y-20686929D01*
X11892643Y-20701214D01*
X11849786Y-20701214D01*
X12121214Y-20701214D02*
X12092643Y-20686929D01*
X12078357Y-20658357D01*
X12078357Y-20401214D01*
X12349786Y-20686929D02*
X12321214Y-20701214D01*
X12264071Y-20701214D01*
X12235500Y-20686929D01*
X12221214Y-20658357D01*
X12221214Y-20544072D01*
X12235500Y-20515500D01*
X12264071Y-20501214D01*
X12321214Y-20501214D01*
X12349786Y-20515500D01*
X12364071Y-20544072D01*
X12364071Y-20572643D01*
X12221214Y-20601214D01*
X12478357Y-20686929D02*
X12506928Y-20701214D01*
X12564071Y-20701214D01*
X12592643Y-20686929D01*
X12606928Y-20658357D01*
X12606928Y-20644072D01*
X12592643Y-20615500D01*
X12564071Y-20601214D01*
X12521214Y-20601214D01*
X12492643Y-20586929D01*
X12478357Y-20558357D01*
X12478357Y-20544072D01*
X12492643Y-20515500D01*
X12521214Y-20501214D01*
X12564071Y-20501214D01*
X12592643Y-20515500D01*
X12706928Y-20815500D02*
X12721214Y-20801214D01*
X12749786Y-20758357D01*
X12764071Y-20729786D01*
X12778357Y-20686929D01*
X12792643Y-20615500D01*
X12792643Y-20558357D01*
X12778357Y-20486929D01*
X12764071Y-20444072D01*
X12749786Y-20415500D01*
X12721214Y-20372643D01*
X12706928Y-20358357D01*
M02*
